<?xml version="1.0" encoding="UTF-8"?>
<svg id="Capa_2" data-name="Capa 2" xmlns="http://www.w3.org/2000/svg" viewBox="0 0 35.27 34.41">
  <defs>
    <style>
      .cls-1 {
        fill: #fff;
      }
    </style>
  </defs>
  <g id="Capa_1-2" data-name="Capa 1">
    <path class="cls-1" d="M35.17,14.4c.06.95.1,1.9.1,2.85,0,5.04-1.63,9.16-4.9,12.36-3.26,3.2-7.46,4.8-12.6,4.8s-9.42-1.62-12.76-4.85C1.67,26.33,0,22.23,0,17.25S1.67,8.12,5.01,4.87C8.36,1.62,12.61,0,17.78,0c4.09,0,7.72,1.16,10.91,3.49,3.18,2.33,5.14,5.27,5.87,8.82h-11.98c-1.33-1.58-2.92-2.38-4.75-2.38s-3.24.68-4.4,2.04c-1.16,1.36-1.73,3.11-1.73,5.23s.58,3.82,1.73,5.18c1.16,1.36,2.62,2.04,4.4,2.04,1.3,0,2.43-.32,3.4-.95.97-.63,1.56-1.46,1.78-2.47h-5.18v-6.61h17.35Z"/>
  </g>
</svg>