<?xml version="1.0" encoding="UTF-8"?>
<svg id="Capa_2" data-name="Capa 2" xmlns="http://www.w3.org/2000/svg" viewBox="0 0 35.55 34.41">
  <defs>
    <style>
      .cls-1 {
        fill: #fff;
      }
    </style>
  </defs>
  <g id="Capa_1-2" data-name="Capa 1">
    <path class="cls-1" d="M5.01,4.87C8.36,1.62,12.61,0,17.78,0s9.42,1.62,12.76,4.87c3.34,3.25,5.01,7.37,5.01,12.38s-1.67,9.08-5.01,12.31c-3.34,3.23-7.6,4.85-12.76,4.85s-9.42-1.62-12.76-4.85C1.67,26.33,0,22.23,0,17.25S1.67,8.12,5.01,4.87ZM22.15,12.43c-1.14-1.25-2.6-1.88-4.37-1.88s-3.23.63-4.37,1.88c-1.14,1.25-1.71,2.84-1.71,4.78s.57,3.53,1.71,4.8c1.14,1.27,2.6,1.9,4.37,1.9s3.23-.63,4.37-1.9c1.14-1.27,1.71-2.87,1.71-4.8s-.57-3.52-1.71-4.78Z"/>
  </g>
</svg>