<?xml version="1.0" encoding="UTF-8"?>
<svg id="Capa_2" data-name="Capa 2" xmlns="http://www.w3.org/2000/svg" viewBox="0 0 29.99 34.41">
  <defs>
    <style>
      .cls-1 {
        fill: #fff;
      }
    </style>
  </defs>
  <g id="Capa_1-2" data-name="Capa 1">
    <path class="cls-1" d="M14.97,0c3.96,0,7.27,1.16,9.93,3.49,2.66,2.33,3.98,5.25,3.95,8.77h-10.84c.03-1.05-.25-1.88-.86-2.52-.6-.63-1.41-.95-2.42-.95-.7,0-1.25.15-1.66.45-.41.3-.62.67-.62,1.12,0,.7.44,1.28,1.31,1.73.87.46,1.96.8,3.26,1.02,1.3.22,2.7.55,4.21.97,1.5.43,2.91.94,4.21,1.54,1.3.6,2.38,1.55,3.26,2.85.87,1.3,1.31,2.87,1.31,4.71,0,3.49-1.42,6.23-4.25,8.22-2.84,2-6.52,2.99-11.05,2.99-4.25,0-7.74-1.09-10.48-3.26C1.47,28.99.06,26.06,0,22.39h11.55c-.03,1.08.31,1.93,1.02,2.57.71.63,1.66.95,2.83.95.86,0,1.55-.15,2.09-.45.54-.3.81-.69.81-1.16,0-.7-.6-1.25-1.81-1.66-1.2-.41-2.67-.78-4.4-1.12-1.73-.33-3.45-.8-5.16-1.4-1.71-.6-3.17-1.66-4.37-3.16-1.2-1.5-1.81-3.41-1.81-5.73,0-3.26,1.34-5.95,4.02-8.06C7.45,1.05,10.85,0,14.97,0Z"/>
  </g>
</svg>