<?xml version="1.0" encoding="UTF-8"?>
<svg id="Capa_2" data-name="Capa 2" xmlns="http://www.w3.org/2000/svg" viewBox="0 0 476.3 102.71">
  <defs>
    <style>
      .cls-1 {
        fill: #fff;
      }
    </style>
  </defs>
  <g id="Capa_1-2" data-name="Capa 1">
    <g>
      <path class="cls-1" d="M51.13,81.71c-.3-1.08-.48-1.79-.69-2.51-.77-2.66-1.51-5.34-2.35-7.98-.51-1.59-1.19-3.11-1.79-4.67-.25-.66-.47-1.33-.74-1.98-.76-1.85-1.18-3.72-1.09-5.76.1-2.45-.13-4.91-.1-7.37.06-5.07.18-10.13.29-15.2,0-.35.09-.71.13-1.06.18-1.42.5-2.83.52-4.25.04-2.51.34-4.99.65-7.47.16-1.31.02-2.63.57-3.91.29-.67.07-1.53.22-2.27.59-2.93,1.23-5.85,1.87-8.77.18-.84.52-1.64.64-2.49.21-1.5,1.02-2.74,1.58-4.09.26-.62.82-1.14,1.34-1.6.6-.52,1.26-.36,1.96.01.98.53,1.41,1.49,1.82,2.37.58,1.22.95,2.56,1.28,3.88.5,1.97.89,3.96,1.31,5.95.11.5.12,1.02.21,1.52.18.99.39,1.98.58,2.97.04.2.07.4.08.61.24,3.62.46,7.24.73,10.85.12,1.63.39,3.25.5,4.87.14,2.14.24,4.29.25,6.44.01,5.12,0,10.24-.1,15.36-.02.97-.42,1.96-.79,2.87-.78,1.91-1.7,3.77-2.48,5.68-.52,1.26-.9,2.57-1.37,3.85-.67,1.8-1.41,3.57-2.03,5.39-.52,1.53-.93,3.1-1.38,4.65-.31,1.06-.59,2.14-.91,3.2-.07.22-.29.38-.7.91Z"/>
      <path class="cls-1" d="M240.5,54.24c-2.04-.33-17.72-.24-19,.07-1.2,4.07-2.4,8.18-3.58,12.2-2.4.39-6.75.26-7.8-.2.59-2.01,1.04-4.08,1.82-6.03.85-2.12,1.36-4.32,2.02-6.48.53-1.73,1.26-3.39,1.88-5.1.28-.76.49-1.55.72-2.33.7-2.42,1.27-4.89,2.13-7.25,1.01-2.8,1.8-5.67,2.78-8.47.77-2.19,1.42-4.41,2.04-6.64.5-1.78,1.3-3.48,1.89-5.24.5-1.49.89-3.01,1.34-4.52.29-.96.6-1.92.88-2.88.16-.53.54-.72,1.04-.72,1.79,0,3.58,0,5.58,0,.46,1.23.96,2.43,1.36,3.66.64,1.96,1.24,3.95,1.83,5.93.77,2.56,1.38,5.18,2.32,7.67.68,1.79.86,3.74,1.87,5.42.3.5.29,1.18.46,1.76.76,2.56,1.52,5.13,2.3,7.68.29.96.65,1.9.95,2.86.63,2.02,1.06,4.12,1.9,6.05.74,1.69,1.07,3.48,1.69,5.19.63,1.75,1.06,3.57,1.62,5.34.35,1.1.78,2.17,1.16,3.26.1.27.15.56.27,1.04-2.69.38-5.27.14-7.93.17-1.22-4.24-2.41-8.39-3.56-12.43ZM231.4,22.49l-.31.02c-.23.44-.54.85-.68,1.32-.17.53-.13,1.13-.3,1.65-.63,1.91-1.37,3.78-1.96,5.69-.58,1.87-1.01,3.79-1.57,5.67-.77,2.61-1.66,5.19-2.38,7.81-.4,1.42-.16,2.07,1.45,2.04,3.58-.06,7.17-.02,10.75-.02.31,0,.62.01.92-.06.5-.13.79-.46.66-1.02-.35-1.43-.56-2.92-1.09-4.28-.53-1.38-.91-2.77-1.21-4.2-.2-.94-.41-1.88-.71-2.8-.61-1.91-1.33-3.8-1.91-5.72-.61-2.02-1.1-4.07-1.65-6.11Z"/>
      <path class="cls-1" d="M61.17,77.13c0-1.83-.3-3.43.06-4.88.74-2.99.16-6.03.64-8.97.35-2.19.39-4.35.51-6.52.01-.25.02-.53.14-.75,1.02-1.99,2.01-3.97,2.8-6.08.77-2.07,1.99-3.97,2.97-5.97,1.25-2.54,2.37-5.15,3.72-7.63,1.98-3.64,4.02-7.25,6.2-10.78,1.57-2.54,3.49-4.87,5.09-7.4,1.28-2.03,2.77-3.86,4.37-5.63,1.12-1.24,2.33-2.4,3.86-3.17,1.33-.67,1.86-.54,2.57.77.99,1.82.93,3.67.27,5.57-.18.53-.29,1.09-.32,1.65-.13,1.95-.58,3.81-1.23,5.65-.34.95-.51,1.96-.69,2.95-.54,2.96-1.67,5.72-2.7,8.52-.89,2.42-1.61,4.91-2.57,7.3-1.54,3.86-3.19,7.69-4.86,11.5-.34.77-.91,1.46-1.49,2.08-1.41,1.52-2.91,2.95-4.34,4.46-1.64,1.73-3.26,3.48-4.87,5.24-.96,1.05-1.93,2.11-2.84,3.2-1.93,2.29-3.82,4.61-5.73,6.92-.48.58-.93,1.19-1.54,1.97Z"/>
      <path class="cls-1" d="M176.18,51.17c-.46,2.45-1.16,4.64-2.18,6.75-.75,1.55-1.76,2.9-2.94,4.08-1.34,1.33-2.8,2.51-4.65,3.23-2.1.82-4.2,1.47-6.46,1.45-1.53-.01-3.14.11-4.59-.28-2.68-.73-5.4-1.42-7.43-3.65-1.28-1.41-2.83-2.57-3.71-4.32-1.37-2.74-2.37-5.56-2.37-8.69,0-5.07-.14-10.14-.15-15.21,0-2.81,0-5.64.24-8.44.32-3.74,1.67-7.09,4.24-9.95,2-2.23,4.38-3.67,7.17-4.74,2.42-.93,4.81-.66,7.22-.75,2.85-.11,5.34,1.04,7.73,2.44,1.94,1.13,3.31,2.8,4.67,4.55,1.31,1.69,1.75,3.72,2.64,5.56.4.84.37,1.88.56,2.96-.26.07-.58.22-.9.22-1.79.02-3.59.03-5.38,0-1.16-.02-1.24-.13-1.53-1.25-.79-2.98-3.74-6.79-7.64-7.12-2.11-.18-4.1-.05-5.99.77-2.27.99-3.88,2.72-4.84,5.04-.92,2.25-1.15,4.61-1.15,7.01,0,5.43-.04,10.86.02,16.29.03,2.65.35,5.29,1.77,7.61,1.45,2.36,3.44,4.04,6.35,4.32.49.05.96.24,1.45.36.25.06.51.18.74.14,2.83-.6,5.7-1.03,7.51-3.8.79-1.21,1.45-2.39,1.84-3.77.16-.59.56-1.11,1.28-1.11,1.95,0,3.89,0,5.84.03.18,0,.37.15.62.26Z"/>
      <path class="cls-1" d="M44.04,82.94c-1.14-1.22-2.24-2.47-3.42-3.65-1.61-1.61-3.27-3.17-4.92-4.74-1.06-1.01-2.18-1.95-3.18-3.02-.53-.57-.93-1.32-1.24-2.04-1.15-2.63-2.28-5.27-3.33-7.94-.85-2.15-1.54-4.37-2.36-6.53-.57-1.51-1.29-2.96-1.85-4.48-.51-1.37-.92-2.78-1.34-4.18-.39-1.3-.74-2.61-1.1-3.92-.66-2.38-1.38-4.75-1.92-7.17-.32-1.43-.56-2.88-.91-4.3-.61-2.53-.49-5.09-.35-7.64.09-1.49,1.38-2.15,2.64-1.27,1.19.83,2.22,1.92,3.2,3.01.87.97,1.6,2.08,2.34,3.16,1.92,2.79,3.59,5.71,5.2,8.69,1.56,2.88,3.06,5.77,4.46,8.72,1.22,2.55,2.47,5.09,3.63,7.66.56,1.24.91,2.57,1.4,3.84.55,1.42,1.16,2.82,1.7,4.24.21.55.38,1.15.4,1.73.07,1.79,0,3.59.09,5.38.17,3.16.4,6.32.65,9.48.11,1.32.36,2.63.52,3.94.04.3-.02.6-.04.9-.1.05-.21.1-.31.14Z"/>
      <path class="cls-1" d="M189.49,66.56V10.63c1.1,0,2.12,0,3.13,0,1.18,0,2.36-.02,3.53.01,1.01.03,1.12.17,1.19,1.18.02.31.01.61.01.92,0,17.25,0,34.5,0,51.75,0,.15,0,.31,0,.46-.04,1.58-.17,1.72-1.8,1.74-1.54.02-3.07.01-4.61,0-.45,0-.89-.08-1.46-.13Z"/>
      <path class="cls-1" d="M118.06,10.74h7.44v55.8c-2.49.27-4.91.19-7.28.06-.39-1.21-.53-53.34-.16-55.85Z"/>
      <path class="cls-1" d="M8.07,57.34c1.45-.61,2.63.04,3.66.56,3.49,1.77,6.77,3.88,9.78,6.41,1.61,1.35,3.41,2.47,5.04,3.8,1.4,1.14,2.77,2.35,3.97,3.69.72.8,1.14,1.89,1.63,2.89,1.1,2.21,2.14,4.45,3.24,6.66.9,1.79,1.86,3.54,2.94,5.59-1.04-.46-1.82-.83-2.62-1.14-1.49-.58-3.03-1.07-4.49-1.71-2.4-1.05-4.79-2.07-6.56-4.18-1.39-1.66-3.09-3.06-4.58-4.64-1.87-1.98-3.73-3.99-5.5-6.06-1.53-1.8-2.98-3.69-4.36-5.61-.73-1.01-1.24-2.19-1.87-3.28-.55-.95-.56-1.92-.28-2.98Z"/>
      <path class="cls-1" d="M48.22,100.78c-3.98,1.33-8.09,1.58-12.22,1.6-4.55.03-9.11.05-13.66-.07-2.81-.08-5.61-.36-8.4-.7-2.55-.31-5.1-.73-7.62-1.26-1.86-.39-3.67-1.03-5.31-2.03-.46-.28-.95-.86-1-1.34-.03-.35.57-.93,1.01-1.12,1.62-.68,3.24-1.28,5.02-1.59,2.33-.41,4.65-.46,6.98-.6,1.36-.08,2.73-.26,4.08-.51,1.79-.34,3.44.12,5.03.78,2.42,1,4.87,1.88,7.4,2.59,1.97.55,3.88,1.31,5.82,1.94.72.23,1.48.37,2.23.52,1.58.33,3.22.48,4.74,1,1.93.66,3.92.43,5.89.79Z"/>
      <path class="cls-1" d="M36.48,92.03c-.47.16-.7.3-.92.3-2.3-.08-4.66.1-6.89-.36-2.36-.48-4.68-.36-7.01-.35-1.48,0-2.83-.32-4.13-.88-2.9-1.25-5.88-2.39-8.61-3.95-2.64-1.52-5.39-2.94-7.63-5.13-.88-.86-1.04-1.66-.66-2.89,1.44.15,2.82-.86,4.39-.17.48.21,1.11.06,1.68.09,1.16.07,2.27.08,3.42.6,1.18.53,2.58.53,3.88.82,1.97.45,4,.75,5.86,1.48,2.09.82,4.25,1.33,6.36,2.05.58.2,1.08.71,1.57,1.12,1.99,1.69,3.95,3.42,5.95,5.11.83.7,1.72,1.34,2.76,2.15Z"/>
      <path class="cls-1" d="M78.9,60.09c-1.37,2.71-2.74,5.41-4.11,8.12-.78,1.54-1.52,3.11-2.38,4.6-1.87,3.26-3.76,6.51-5.73,9.71-1.52,2.46-3.1,4.89-4.79,7.23-1.27,1.76-2.43,3.63-4.11,5.06-.15.12-.33.2-.69.42.3-1.26.54-2.33.8-3.4.38-1.56.64-3.17,1.17-4.68.58-1.65.77-3.35,1.06-5.04.05-.29.19-.6.37-.84,1.72-2.3,3.33-4.67,5.29-6.8,2.02-2.21,3.77-4.66,5.69-6.96.84-1.01,1.84-1.89,2.73-2.87,1.13-1.25,2.2-2.54,3.33-3.79.33-.37.75-.65,1.13-.97.09.07.17.14.26.21Z"/>
      <path class="cls-1" d="M53.46,97.3c0-.5-.04-1.01,0-1.5.23-2.53-.29-5-.69-7.46-.19-1.18-.8-2.31-.51-3.56.23-.98.57-1.94.86-2.9.83-2.77,1.58-5.56,2.5-8.3.93-2.73,2.03-5.4,3.06-8.1.35-.91.72-1.81,1.26-2.68-.05,2.26.31,4.48-.2,6.7-.27,1.18-.18,2.44-.31,3.66-.1.9-.29,1.79-.42,2.68-.09.56-.16,1.11-.23,1.67-.27,2.18-.45,4.37-.82,6.54-.26,1.54-.75,3.04-1.13,4.56-.25,1.03-.48,2.06-.73,3.09-.48,2.03-1.2,3.95-2.66,5.6Z"/>
      <path class="cls-1" d="M45.11,67.22c.71,2.24,1.31,4.53,2.16,6.72.68,1.75,1.18,3.55,1.63,5.35.62,2.45,1.56,4.83,1.74,7.38.01.2.05.41.12.6,1.02,2.72,1.12,5.57,1.19,8.41.02.87-.41,1.74-.65,2.7-1.48-.79-2.05-2.05-2.43-3.31-.79-2.55-1.5-5.14-2.06-7.75-.43-2.03-.49-4.14-.88-6.18-.5-2.58-.39-5.19-.71-7.77-.22-1.76-.64-3.5-.63-5.29,0-.28.08-.56.13-.85.13,0,.27-.02.4-.02Z"/>
      <path class="cls-1" d="M48.11,97.57c-1.03-.38-1.56-1.34-2.22-2.12-2.29-2.7-4.14-5.69-5.86-8.77-1.52-2.71-2.96-5.47-4.41-8.23-.48-.91-.86-1.86-1.29-2.8.09-.06.19-.12.28-.18.8.78,1.6,1.55,2.39,2.33,1.25,1.23,2.52,2.43,3.71,3.71,1.34,1.44,2.62,2.94,3.9,4.43.28.33.52.75.63,1.16.68,2.64,1.28,5.3,2,7.93.22.81.74,1.53,1.12,2.29-.09.08-.17.15-.26.23Z"/>
      <path class="cls-1" d="M24.55,93.25c.37-.03.75-.11,1.11-.09,3.41.18,6.78.77,10.21.69,1.2-.03,2.4.36,3.6.58.18.03.33.21.49.32,1.61,1.04,3.22,2.07,4.81,3.13.41.27.75.64,1.25,1.07-.57,0-1.04.11-1.44-.02-1.55-.5-3.26-.27-4.73-1.09-.13-.07-.29-.09-.44-.11-1.83-.14-3.53-.68-5.24-1.34-1.51-.59-3.14-.85-4.7-1.32-1.65-.5-3.28-1.07-4.92-1.62,0-.07,0-.13,0-.2Z"/>
      <path class="cls-1" d="M173.28,93.87h1.02v8.27c-.72.51-1.11.13-1.48-.45-1.05-1.65-2.11-3.29-3.2-4.92-.18-.26-.47-.45-.96-.89-.38,2.27.06,4.34-.44,6.29-.48-1.04-.57-6.37-.29-8.28.67-.31,1,.06,1.32.59,1.11,1.8,2.25,3.58,3.58,5.69.6-2.28.03-4.32.44-6.31Z"/>
      <path class="cls-1" d="M42.84,95.01c-2.28-1.69-4.6-3.33-6.83-5.07-1.57-1.22-3.03-2.57-4.38-4.11.6.19,1.22.35,1.81.59,1.43.58,2.84,1.2,4.27,1.79,1.22.5,2.27,1.09,2.89,2.41.55,1.16,1.49,2.14,2.23,3.22.18.25.27.57.4.85-.13.11-.25.21-.38.32Z"/>
      <path class="cls-1" d="M237.1,86.92v-8.67c1.23-.34,2.45-.28,3.63-.09,1.27.2,2.27,1.26,2.37,2.74.06.91-.01,1.84.04,2.75.08,1.32-.69,2.18-1.56,2.98-.2.18-.55.27-.83.28-1.16.03-2.33.01-3.64.01ZM241.79,85.39c.4-1.57.45-3.2.19-4.83-.17-1.04-.99-1.78-2.05-1.84-.45-.02-.9.04-1.32.06-.19.35-.46.61-.47.88-.05,1.83-.1,3.67-.04,5.51.02.61.55.91,1.21.94.9.04,1.73-.11,2.48-.72Z"/>
      <path class="cls-1" d="M218.24,83.15c.58,1.18,1.16,2.36,1.74,3.55-.81.41-1.12.04-1.37-.56-.35-.84-.79-1.65-1.14-2.5-.33-.82-.99-.77-1.66-.72-.76.06-.83.66-.89,1.23-.06.61-.03,1.23-.08,1.84-.03.4-.06.84-.82.87-.19-1.4-.06-2.8-.09-4.2-.02-1.43,0-2.86,0-4.47,1.47-.19,2.91-.28,4.29,0,1.61.32,2.26,2.28,1.33,3.66-.28.41-.68.74-1.03,1.11-.1.07-.19.14-.29.21ZM215.16,82.31c.77,0,1.47-.02,2.17,0,.87.02,1.26-.51,1.51-1.22.25-.71.03-1.28-.48-1.79-.89-.9-1.95-.54-3.02-.52-.56,1.1-.57,2.17-.19,3.53Z"/>
      <path class="cls-1" d="M128.27,78.2c.87-.2.85.35.86.8.02,1.59.02,3.18.02,4.76,0,1.01,0,2.03,0,2.93-.66.35-.92.17-1.17-.26-.56-.96-1.16-1.9-1.77-2.82-.74-1.11-1.52-2.2-2.42-3.24-.55,2.17-.07,4.35-.46,6.69-.58-1.05-.72-6.55-.35-8.88.61-.19.88.11,1.19.62,1.14,1.87,2.36,3.7,3.7,5.51.5-2.05.08-4.13.39-6.11Z"/>
      <path class="cls-1" d="M215.62,102.53c-.3-.28-.69-.52-.9-.86-.36-.59-.62-1.24-.91-1.86-.58-1.21-1.23-1.56-2.59-.96-.06,1.06-.13,2.21-.21,3.58-.34-.29-.69-.44-.71-.62-.22-2.63-.16-5.26-.06-8.02,1.43,0,2.65-.08,3.85.03.83.07,1.57.57,1.82,1.42.23.78.3,1.61-.26,2.33-.38.49-1.06,1-1.05,1.5.01.68.54,1.36.86,2.03.18.37.4.72.61,1.08l-.45.35ZM211.26,97.75c.86,0,1.67-.01,2.48,0,.75.02,1.11-.48,1.3-1.06.18-.6.1-1.17-.47-1.64-.97-.82-2.04-.73-3.3-.52v3.23Z"/>
      <path class="cls-1" d="M205.09,97.89h2.55c.3,1.1.44,2.19-.14,3.23-.72,1.29-1.92,1.56-3.28,1.37-1.21-.17-2.21-1.04-2.37-2.43-.18-1.6-.37-3.22.32-4.82.25-.59.61-.95,1.08-1.15,1.57-.65,3.27-.64,4.29.94.25.39.42.81-.11,1.36-.29-.39-.56-.72-.8-1.07-.56-.82-1.36-1.1-2.27-.88-.81.19-1.14.84-1.39,1.62-.47,1.43-.4,2.81.04,4.21.31,1.01,1,1.62,1.93,1.6.91-.02,1.9-.85,2.06-1.77.12-.66-.18-1.08-.8-1.28-.42-.13-.96-.07-1.1-.93Z"/>
      <path class="cls-1" d="M181.8,102.41c-1.69.11-3.38.18-5.22-.11-.1-2.86-.14-5.63.02-8.39,1.92-.3,4.17-.24,5.41.18-1.4.59-2.74.07-4.09.42-.15.41-.41.87-.48,1.35-.17,1.22.36,1.78,1.59,1.81.7.01,1.4,0,2.1,0,.03.11.06.21.09.32-.19.15-.38.42-.59.44-.66.07-1.33.02-1.99.06-.98.05-1.17.24-1.22,1.18-.06,1.16.12,2.29,2,2.13.78-.07,1.58.05,2.38.08,0,.17,0,.35,0,.52Z"/>
      <path class="cls-1" d="M165.62,98.38c-.02,1.09.2,2.2-.7,3.13-.84.87-2.19,1.3-3.48.88-1.11-.36-1.81-1.24-1.87-2.48-.05-1.17-.07-2.35,0-3.52.1-1.7,1.23-2.65,3.01-2.65,1.77,0,2.9.96,3.03,2.65.05.66,0,1.32,0,1.99ZM164.6,98.31s.05,0,.08,0c-.07-.81-.11-1.63-.23-2.44-.12-.89-.88-1.2-1.58-1.43-.68-.23-1.29.04-1.75.61-1.12,1.39-1.3,4.12-.35,5.63.59.94,1.33,1.42,2.09,1.17.83-.26,1.74-.83,1.74-2.01,0-.51,0-1.02,0-1.53Z"/>
      <path class="cls-1" d="M198.46,80.23c-.31,2.4.06,4.54-.25,6.63-.16.11-.32.21-.48.32-.04-.2-.11-.41-.11-.61,0-2.8,0-5.6,0-8.74.56.38.99.54,1.19.84,1.23,1.83,2.4,3.7,3.6,5.55.04.07.18.07.5.17.52-2.06-.1-4.2.41-6.46.26.35.5.53.5.71.01,2.65,0,5.31-.03,7.96,0,.08-.11.15-.22.29-.61-.02-.92-.55-1.19-.96-.91-1.38-1.71-2.83-2.6-4.21-.3-.47-.75-.85-1.32-1.47Z"/>
      <path class="cls-1" d="M92.03,102.3c-.53-.94-.64-6.29-.28-8.57.32.15.71.21.86.43.97,1.41,1.87,2.85,2.82,4.27.36.53.76,1.03,1.23,1.66.64-1.05.25-2.12.33-3.12.08-1.04.05-2.08.08-3.37.71.89.73.89.71,4.43-.01,1.44.14,2.9-.3,4.38-2.15-1.76-2.92-4.52-5.12-6.53-.29,2.29.01,4.39-.33,6.42Z"/>
      <path class="cls-1" d="M170.18,82.51c0-.72-.06-1.44.01-2.15.16-1.48,1.03-2.25,2.55-2.29.56-.01,1.22-.11,1.66.13.67.37,1.34.81,1.49,1.79.25,1.64.37,3.23-.01,4.87-.41,1.74-2.9,2.9-4.35,1.87-.65-.46-1.42-1.03-1.35-2.08.05-.71,0-1.43,0-2.15,0,0,0,0,0,0ZM175.1,82.55s0,0,0,0c0-.61.03-1.23,0-1.84-.08-1.1-1.01-1.97-2.09-1.99-1.17-.02-1.83.54-1.92,1.86-.09,1.32-.07,2.65.01,3.97.07,1.13.75,1.63,1.98,1.64,1.17.01,1.88-.54,2-1.66.07-.66.01-1.33.01-1.99Z"/>
      <path class="cls-1" d="M136.15,80.14c-1.1-1.37-1.98-1.76-2.92-1.39-.79.32-1.02,1.03-.79,2.71.77.25,1.61.58,2.48.78,1.27.29,2.13,1.25,2.05,2.42-.07,1.11-1.25,2.22-2.38,2.3-2.09.15-2.78-.34-3.4-1.82-.07-.16,0-.38,0-.86.48.44.83.68,1.09,1,.71.89,1.83,1.2,2.84.77.62-.26.79-.76.8-1.35.02-.63,0-1.27-.73-1.53-.48-.17-.98-.28-1.48-.36-1.97-.3-2.61-1.23-2.29-3.15.11-.65.49-.94.98-1.24.98-.59,2.81-.47,3.55.25q.37.36.21,1.48Z"/>
      <path class="cls-1" d="M155.5,78.19h1.17c0,1.58,0,3.11,0,4.63,0,.31,0,.61,0,.92.02,1.61.64,2.43,1.84,2.45,1.24.02,2.33-1.08,2.38-2.49.04-1.38,0-2.76.02-4.15,0-.47.08-.94.13-1.4.11,0,.22-.01.33-.02.08.2.24.41.24.61,0,1.89.02,3.79-.04,5.68-.04,1.11-.98,2.25-1.91,2.48-1.33.34-2.76-.08-3.38-1.08-.48-.77-.86-1.55-.8-2.55.1-1.67.03-3.36.03-5.09Z"/>
      <path class="cls-1" d="M205.66,87.03c.05-.52.02-.83.11-1.1.87-2.37,1.75-4.73,2.66-7.08.11-.28.41-.48.63-.72.24.23.6.41.7.69.74,2.05,1.41,4.12,2.13,6.17.2.58.5,1.14.84,1.92-1.44-.18-1.35-1.2-1.74-2h-3.72q-.65,1.56-1.61,2.12ZM210.25,84.08c.23-1.62-.45-3.23-1.71-3.83.16,1.36-1.18,2.37-.53,3.83h2.24Z"/>
      <path class="cls-1" d="M188.53,95.77c-.78-1.02-1.59-1.82-2.94-1.33-.87.32-1.08.98-.88,2.66.78.2,1.64.46,2.51.62.96.19,1.95,1.2,2.05,2.13.12,1.05-.67,2.27-1.74,2.54-1.81.45-3.27-.08-4-1.58-.1-.2-.04-.47-.07-1.11.54.58.82.91,1.13,1.19.63.59,1.28,1.17,2.26.96.7-.15,1.41-.89,1.47-1.58.06-.65-.41-1.36-1.15-1.61-.43-.14-.9-.16-1.35-.24-1.37-.23-2.22-1.23-2.08-2.52.16-1.45.91-2.31,2.35-2.18.69.06,1.35-.04,2.02.44.65.46.63.9.41,1.58Z"/>
      <path class="cls-1" d="M226.31,93.75c1.05,0,2.01.04,2.98-.01.89-.05,1.69.21,2.06.97.47.98.66,2.16-.21,2.99-.96.93-.84,1.74-.28,2.76.31.56.97,1.09.46,2.04-.26-.3-.52-.51-.67-.78-.41-.74-.78-1.5-1.15-2.26-.27-.55-.69-.85-1.31-.89-1.05-.08-1.35.19-1.43,1.26-.06.82.16,1.68-.22,2.64-.51-1.09-.63-6.55-.22-8.72ZM226.9,97.78c.83,0,1.59.03,2.34,0,1.25-.06,1.63-.42,1.64-1.5.01-1-.61-1.78-1.59-1.86-.74-.06-1.49-.01-2.39-.01v3.38Z"/>
      <path class="cls-1" d="M250.4,78.66h-3.64c-.28.57-.58,1-.7,1.48-.25,1,.48,1.9,1.53,1.97.66.04,1.33.06,1.99.11.08,0,.14.12.32.29-.3.11-.53.26-.78.28-.46.04-.92.01-1.38.02-1.56.03-2.16.84-1.63,2.27.23.61.6,1.05,1.36,1.03.72-.03,1.44-.02,2.15.03.3.02.59.2,1.03.35-1.07.55-3.4.62-5.26.24v-8.57c1.67-.15,3.33-.14,5-.01,0,.17,0,.34.01.51Z"/>
      <path class="cls-1" d="M194.04,84.8c-.82,0-1.64.04-2.45-.01-.88-.05-1.34.27-1.43,1.17-.06.59-.28,1.1-1.21.76,1.03-2.94,2.11-5.8,3.27-8.75,1.38,1.64,3.4,7.38,3.18,9.14-.51-.86-.91-1.55-1.36-2.3ZM193.58,84.07c.39-1.66-.62-2.71-1.18-3.95-.42.82-.72,1.65-1.02,2.48-.54,1.48-.49,1.55,1.11,1.54.35,0,.69-.05,1.09-.08Z"/>
      <path class="cls-1" d="M225.56,82.38c.11-.97-.24-2.16.55-3.22.75-1.01,1.88-1.43,3.5-1.04,1.06.25,1.62,1.13,1.72,2.06.17,1.51.14,3.05.04,4.57-.07,1.09-1.28,2.05-2.31,2.22-2.29.38-3.66-1.19-3.51-3.2.03-.41,0-.81,0-1.38ZM230.76,82.75c-.08-.85-.08-1.52-.21-2.16-.26-1.25-.96-1.85-2.03-1.88-.99-.03-1.88.49-2.04,1.66-.2,1.43-.12,2.93.03,4.37.1.88,1.14,1.48,2.02,1.48.86,0,1.64-.52,1.9-1.41.21-.72.24-1.48.33-2.06Z"/>
      <path class="cls-1" d="M119.64,95.81c-.41-.28-.75-.44-1-.69-.71-.73-1.59-1-2.28-.66-.94.47-1.19,1.1-.93,2.57.78.22,1.64.51,2.52.69,1.24.25,2.1,1.2,2.07,2.41-.04,1.36-.78,2.2-2.15,2.31-.65.05-1.34.04-1.98-.1-1.16-.27-1.43-.85-1.12-2.13.45.42.86.88,1.35,1.24,1.07.79,2.57.47,3.12-.69.25-.51.28-1.14-.28-1.52-.41-.29-.88-.5-1.35-.67-.33-.12-.71-.09-1.06-.17-1.73-.39-2.55-2-1.84-3.61.04-.09.07-.2.14-.27.93-.97,2.15-.91,3.29-.72.83.14,1.57.66,1.5,1.99Z"/>
      <path class="cls-1" d="M197.35,93.58c1.23,2.97,2.39,5.68,3.15,8.75-.47-.12-.59-.11-.64-.17-.43-.54-.75-1.43-1.28-1.57-.95-.25-2.03-.13-3.04.02-.27.04-.53.68-.66,1.09-.17.58-.46.75-1.13.46.54-1.44,1.09-2.88,1.63-4.32.51-1.38.52-2.99,1.97-4.25ZM195.93,99.71h2.58c.03-1.52-.66-2.68-1.26-4.07-.83,1.32-1.59,2.47-1.32,4.07Z"/>
      <path class="cls-1" d="M221.09,93.7c1.56,2.48,1.99,5.31,3.02,7.9.08.2-.1.51-.24,1.11-.49-.91-.81-1.51-1.2-2.24-.61,0-1.26.02-1.92,0-1.14-.05-2.21-.03-2.31,1.53,0,.12-.43.22-.92.45.96-2.86,1.81-5.43,2.71-7.98.1-.28.5-.46.85-.77ZM221.01,95.56c-.61,1.5-1.56,2.6-1.34,4.18h2.5c.45-1.57-.5-2.67-1.16-4.18Z"/>
      <path class="cls-1" d="M142.86,93.55c1.26,1.32,1.25,2.99,1.9,4.34.65,1.36,1.06,2.83,1.58,4.28-.5.24-.83.22-1.04-.4-.41-1.26-.43-1.26-1.63-1.29-.81-.02-1.63,0-2.46,0-.37.64-.7,1.23-1.08,1.9-.35-1.19.89-5.17,2.73-8.82ZM141.91,99.72h2.79c-1.01-1.36-.54-3.01-2.07-4.16-.2,1.5-1.17,2.63-.72,4.16Z"/>
      <path class="cls-1" d="M187.23,83.96c.11,1.85-.68,2.86-2.03,2.99-2.35.24-3.83-1.1-3.86-3.5,0-.56.08-1.14-.02-1.69-.18-1.05.31-1.92.78-2.72.75-1.27,2.1-1.05,3.31-.94,1.04.09,1.83.96,1.98,2.01.03.2-.08.43-.18.87-.48-.62-.83-1.03-1.11-1.47-.57-.91-1.48-.97-2.31-.72-.79.24-1.3.92-1.3,1.85,0,1.22,0,2.44,0,3.66,0,.94.43,1.55,1.35,1.79.92.24,1.73.08,2.36-.68.31-.38.57-.79,1.05-1.46Z"/>
      <path class="cls-1" d="M243.6,102.16c-.69.28-1.07.14-1.11-.48-.06-1.02-.66-1.21-1.55-1.22-1.54,0-3.12-.21-3.51,2.2-.85-1.46.11-2.28.3-3.19.21-1.02.71-1.98,1.08-2.96.35-.92.69-1.85,1.18-3.15,1.05,1.6,1.55,3.01,2.04,4.44.48,1.43,1.03,2.84,1.58,4.35ZM239.99,95.78c-1.1,2.33-1.16,2.64-.78,3.93h2.39c-.02-1.19-.9-3.28-1.6-3.93Z"/>
      <path class="cls-1" d="M245.28,100.1c.48.47.83.88,1.24,1.2,1.13.88,1.93.81,2.89-.19.68-.71.66-1.5-.13-2.02-.41-.27-.92-.42-1.4-.56-.44-.13-.93-.11-1.34-.29-.82-.35-1.47-.84-1.38-1.92.08-.91-.06-1.99.99-2.32.84-.27,1.84-.3,2.71-.15.8.14,1.29.87,1.53,1.71-.55.3-.82.02-1.15-.36-1.03-1.17-2.14-1.21-3.03-.04-.32.41-.29,1.09-.46,1.82,1.12.3,2.02.58,2.94.79,1.05.24,1.85,1.18,1.86,2.27,0,1.39-.59,2.22-1.84,2.41-.6.09-1.23.09-1.84.02-1.28-.15-1.67-.73-1.58-2.34Z"/>
      <path class="cls-1" d="M136.42,94.33c-.41.02-.81.05-1.22.07-1.46.05-2.23.77-2.3,2.26-.05.97.04,1.95-.02,2.92-.09,1.4,1.31,2.49,2.42,2.31,1.3-.2,1.91-1.2,1.63-2.81-.41-.59-1.5-.01-1.74-1.14h2.36c.82,1.16.41,2.44-.16,3.54-.51.98-1.64,1.13-2.71,1.05-1.38-.11-2.22-.74-2.41-2.11-.18-1.31-.24-2.66-.12-3.97.25-2.75,1.88-2.84,3.88-2.61.14.02.25.35.37.54l.03-.03Z"/>
      <path class="cls-1" d="M112.5,101.89c-1.05.69-3.12.72-4.71.36v-8.39h4.74c-1.18.92-2.59.24-3.99.74v3c1.17.06,2.25.11,3.66.19-1.24,1.24-2.62.28-3.68.98-.03.14-.11.33-.12.52-.19,2.38-.07,2.5,2.32,2.52.59,0,1.18.06,1.78.09Z"/>
      <path class="cls-1" d="M153.85,100.12c-.96,2.22-1.66,2.65-3.69,2.37-1.14-.16-2.01-.91-2.09-2.08-.1-1.52-.11-3.07,0-4.59.1-1.29,1.07-2.06,2.37-2.06.84,0,1.78-.26,2.42.55.39.49.69,1.06,1.05,1.63-.49.33-.79.33-1.07-.12-.81-1.3-1.47-1.65-2.51-1.39-.92.23-1.64,1.24-1.68,2.47-.03.92-.05,1.84.02,2.76.08,1.16.84,2.03,1.79,2.19.98.17,1.84-.29,2.35-1.4.24-.51.5-.57,1.03-.32Z"/>
      <path class="cls-1" d="M105.47,93.85c-.57,2.95-1.37,5.82-2.62,8.78-.36-.38-.68-.58-.77-.85-.88-2.6-1.95-5.14-2.14-7.94,1.38,1.97,1.5,4.46,2.78,6.68,1.14-2.26,1.24-4.76,2.75-6.67Z"/>
      <path class="cls-1" d="M126.77,94.25c-.58.08-1.16.17-1.94.28-.37,2.52,0,5.12-.22,7.73h-1.15v-7.69c-.8-.14-1.4-.24-2-.35,0-.13.02-.26.03-.38,1.74-.2,3.49-.06,5.24-.07.01.16.03.32.04.48Z"/>
      <path class="cls-1" d="M150.48,78.86c-.74-.11-1.28-.19-2.07-.31.98-.77,1.9-.4,2.73-.46.9-.07,1.81-.02,2.9-.02-.48.94-1.22.43-1.69.73-.63.46-.74,1.14-.74,1.87,0,1.69.01,3.38-.01,5.06,0,.45.17,1.07-.74,1.19-.08-.33-.21-.64-.21-.95-.02-1.74,0-3.48-.02-5.22,0-.6-.08-1.2-.14-1.9Z"/>
      <path class="cls-1" d="M140.61,87.01c-.38-2.81.16-5.51-.33-8.14-.68-.12-1.24-.22-2.02-.36,1.21-.55,4.03-.59,5.57-.16-.51.57-1.19.23-1.72.45-.58.56-.72,1.29-.71,2.07.01,1.53.02,3.06-.01,4.59-.01.51.16,1.14-.77,1.54Z"/>
      <path class="cls-1" d="M168.94,78.59c-.59.07-1.19.14-2.01.24-.1.62-.28,1.29-.3,1.98-.05,1.53,0,3.07-.02,4.6,0,.54.08,1.12-.63,1.64-.12-.41-.27-.7-.28-1-.02-1.79,0-3.58-.02-5.36,0-.6-.1-1.19-.16-1.81-.74-.12-1.36-.22-2.2-.35,1.23-.56,4.3-.6,5.62.07Z"/>
      <path class="cls-1" d="M235.03,102.54c-.44-.22-.64-.25-.68-.34-.25-.62-.19-7.19.08-8.5.25.22.58.38.58.55.03,2.68.02,5.37.02,8.3Z"/>
      <path class="cls-1" d="M156.52,102.19c-.28-2.79-.41-5.54-.17-8.45.78.42.72.97.7,1.44-.1,2.35.3,4.73-.52,7.01Z"/>
      <path class="cls-1" d="M88.54,93.84c.44,1.26.42,7.42-.08,8.64-.67-.92-.3-1.9-.36-2.79-.06-1.02-.02-2.05-.01-3.07.01-.93.05-1.87.07-2.8.13,0,.25.01.38.02Z"/>
      <path class="cls-1" d="M146.26,78.16c.47,1.16.45,7.62-.11,8.91-.55-1.09-.26-2.1-.31-3.05-.05-.97-.02-1.94,0-2.9.01-.99.04-1.98.07-2.97.12,0,.24,0,.37.01Z"/>
      <path class="cls-1" d="M222.69,86.8c-.57-1.55-.52-7.48-.08-8.82.12.27.22.41.22.54.04,2.49.07,4.98.08,7.47,0,.27-.15.53-.23.8Z"/>
      <path class="cls-1" d="M119.57,87.12v-8.92l.38-.33c.03.2.1.4.1.61,0,2.71,0,5.42-.02,8.13,0,.07-.12.14-.45.51Z"/>
      <path class="cls-1" d="M129.3,93.9c.36,1.16.37,7.14-.03,8.56-.62-.98-.29-1.94-.34-2.83-.06-.97-.02-1.94-.01-2.91.01-.95.04-1.9.07-2.85.11,0,.21.02.32.03Z"/>
      <path class="cls-1" d="M136.39,94.36c1.27.14,1.45.43,1.06,2.11-.28-.91-1.17-1.23-1.02-2.15,0,0-.03.03-.03.03Z"/>
      <path class="cls-1" d="M324.07,40.86c0,8.57,0,16.8,0,25.03,0,6.3-.06,12.61.04,18.91.03,1.73-.45,2.74-2.06,3.52-14.18,6.86-28.33,6.86-42.51.03-1.26-.61-2.11-1.27-2.1-2.98.08-14.29.04-28.58.05-42.87,0-.49.1-.99.17-1.65h46.4ZM285.45,74.55h12.46c-1.81-1.83-3.24-3.58-5-4.87-.64-.47-2.36-.23-3.09.33-1.56,1.22-2.8,2.85-4.38,4.54ZM316.66,74.54c-1.85-1.8-3.16-3.36-4.76-4.52-.76-.55-2.44-.83-3.08-.37-1.78,1.27-3.24,3-5.16,4.89h13.01ZM303.52,63.56h12.51c-1.49-1.61-2.82-3.33-4.45-4.68-.61-.51-2.23-.59-2.85-.13-1.78,1.3-3.28,2.97-5.21,4.81ZM297.8,63.58c-1.69-1.74-2.97-3.34-4.55-4.54-.73-.55-2.42-.78-3.06-.31-1.77,1.29-3.21,3.02-5.06,4.85h12.67ZM298,52.6c-2.03-1.94-3.5-3.52-5.18-4.83-.55-.43-1.94-.53-2.45-.14-1.79,1.37-3.36,3.03-5.43,4.97h13.06ZM307.04,85.42c-1.73-1.73-2.96-3.28-4.51-4.37-.82-.57-2.56-.85-3.26-.36-1.72,1.21-3.08,2.93-4.86,4.72h12.63ZM316.47,52.51c-1.9-1.81-3.29-3.39-4.96-4.61-.66-.48-2.24-.57-2.84-.11-1.68,1.28-3.07,2.95-4.84,4.72h12.63Z"/>
      <path class="cls-1" d="M284.93,17.78c-1.92.4-3.25,2.06-3.64,4.34-.54,3.09,1.2,5.07,3.99,6.55-.87.39-1.53.69-2.19.98-3.6,1.53-4.33,1.22-5.92-2.45-3.07-7.06,2.29-14.88,10.03-14.73,1.07.02,2.16-.5,3.24-.8,1.83-.51,3.71-1.62,5.48-1.45,3.34.32,6.69-.37,9.88.03,4.69.6,9.46,1.74,13.79,3.59,5.83,2.49,7.34,10.02,3.75,15.29-1.07,1.56-2.11,2.2-3.89,1.04-.89-.59-1.98-.88-3.24-1.42,2.84-1.54,4.66-3.55,3.99-6.83-.48-2.33-1.89-3.83-3.74-4.16-.68,2.84-1.22,5.57-2.03,8.21-.43,1.41-1.52,2.05-3.18,1.46-1.39-.49-2.89-.66-4.81-1.08,2.91-1.32,4.65-2.95,4.59-5.9-.05-2.35-1.21-4-3.24-5-3.01-1.49-4.54-.53-4.55,2.77,0,1.35,0,2.69,0,4.04q0,4.38-4.81,3.69v-10.32c-3.06-1.3-5.85-.34-7.25,2.3-1.68,3.16-.55,5.9,3.68,8.49-2.06.44-3.91.95-5.8,1.18-.51.06-1.45-.65-1.63-1.19-.9-2.71-1.61-5.49-2.48-8.6Z"/>
      <path class="cls-1" d="M284.16,39.37c-.95-1.89-1.77-3.52-2.58-5.13,9.73-6.24,27.38-6.53,38.37-.07-.78,1.59-1.56,3.21-2.46,5.07-5.36-2.34-10.79-3.84-16.57-3.82-5.8.02-11.27,1.37-16.76,3.95Z"/>
      <path class="cls-1" d="M351.04,41.17c-.44,1.5-.65,2.21-.91,3.12-1.14-.22-2.17-.48-3.22-.63-3.02-.42-5.46,1.03-6.36,3.72-1.11,3.31-.08,7.79,2.28,8.86.83.37,2.04-.1,3.08-.19-.31-1.35,1.22-3.19-1.14-4.04-.59-.21-1.02-.84-1.96-1.64,1.23-.17,1.71-.3,2.2-.3,2.43-.02,4.85,0,7.36,0,0,.6.11,1.3-.02,1.34-2.59.95-2.05,3.14-1.89,5.02.16,1.88-.69,2.57-2.34,2.76-.75.09-1.5.22-2.25.29-5.85.53-9.66-2.33-10.34-7.75-.73-5.76,2.5-10.17,8.23-10.84,2.25-.26,4.58.15,7.27.28Z"/>
      <path class="cls-1" d="M344.27,82.49c-2.01,1.54-4.09,2.14-6.2.81-2.4-1.52-2.96-4-2.74-6.63.25-2.96,1.53-5.36,4.56-6.33,1.33-.42,2.77-.52,4.32-.79-.07-1.29.75-2.86-1.38-3.39.19-.58.3-1.61.59-1.66,1.46-.26,2.98-.27,4.89-.4,0,3.29,0,6.37,0,9.44,0,1.6.08,3.2-.02,4.79-.11,1.81-.13,3.48,2.12,4.04-1.69,2-4.86,2.07-6.16.12ZM344.29,76.97c0-.79.18-1.46-.04-1.95-.41-.94-1.04-1.79-1.58-2.68-.93.68-2.01,1.23-2.74,2.08-.41.47-.3,1.44-.31,2.18-.04,2.86.95,4.49,2.68,4.28,2.71-.32,1.77-2.53,1.99-3.91Z"/>
      <path class="cls-1" d="M374.43,46.41c4.45-1.83,7.19-1.08,8.56,2.01,1.65,3.73.2,8.36-3.18,10.03-.67.33-1.4.58-2.13.71-6.06,1.14-7.22.21-7.22-5.8,0-2.93.01-5.87,0-8.8,0-1.21.38-2.62-1.38-3.04.21-.55.33-1.51.65-1.58,1.45-.3,2.94-.36,4.71-.53v6.99ZM374.47,52.66c0,.25-.01.5,0,.75.09,1.43-.46,3.36,1.77,3.49,2.09.12,2.77-1.51,3.01-3.3.08-.57.11-1.17.05-1.74-.17-1.77-.7-3.54-2.79-3.51-2.25.03-2.05,1.97-2.05,3.57,0,.25,0,.5,0,.75Z"/>
      <path class="cls-1" d="M425,46.48c.94-.45,1.67-.89,2.45-1.17,3.62-1.26,6.44.62,6.62,4.43.08,1.68-.11,3.37.07,5.03.1.92.73,1.79,1.13,2.68.16.35.5.75.43,1.04-.07.27-.57.6-.89.61-2.15.05-4.3.03-6.44.03-.07-.54-.21-.95-.13-1.01,3.11-1.98,1.61-5.05,1.75-7.67.08-1.45-.81-2.6-2.53-2.48-1.64.12-2.31,1.13-2.27,2.74.04,1.68-.06,3.36.05,5.03.03.53.53,1.04.82,1.55.25.44.52.88.78,1.32-.43.18-.86.49-1.29.5-1.68.06-3.36.05-5.04,0-.35-.01-.87-.24-1-.51-.12-.26.09-.98.29-1.03,1.76-.48,1.35-1.86,1.36-3.05.02-1.59,0-3.19,0-4.79,0-1.1.15-2.2-1.38-2.54-.26-.06-.64-1.06-.47-1.33.65-1.07,4.91-.62,5.68.61Z"/>
      <path class="cls-1" d="M415.45,83.58c-2.41,0-4.81,0-7.22-.06-.04,0-.14-1.33-.07-1.34,1.88-.38,1.32-1.85,1.36-3,.05-1.34,0-2.69,0-4.03,0-1.62-.83-2.63-2.42-2.6-1.6.03-2.36,1.07-2.33,2.69.03,1.68-.06,3.37.05,5.04.03.56.49,1.09.79,1.62.24.44.53.86.8,1.29-.43.18-.86.51-1.29.52-2.05.06-4.11.02-6.38-.3,3.21-2.36,1.81-5.51,2-8.29.09-1.33.54-2.99-1.59-3.41-.09-.02-.21-1.18.05-1.42,1.02-.96,4.62-.44,5.32.4,1.7-.37,3.22-.94,4.75-.98,2.71-.08,4.2,1.49,4.29,4.18.05,1.51.07,3.03,0,4.54-.09,1.78-.17,3.49,2.13,4.2-.08.32-.16.64-.24.96Z"/>
      <path class="cls-1" d="M382.77,80.68c1.06,2,.25,2.67-1.36,3.08-4.05,1.02-8.34-.32-10.64-3.44-2.22-3-2.33-7.71-.25-10.93,2.01-3.11,6.77-4.91,10.71-3.88.64.17,1.39,1.03,1.55,1.7.26,1.1.07,2.3.07,4.07-1-.6-1.77-.8-2.04-1.27-1.41-2.49-3.76-2.81-5.62-.66-1.78,2.04-1.99,6.39-.45,9.06,1.32,2.29,3.44,3.06,6.77,2.46.4-.07.8-.13,1.26-.2Z"/>
      <path class="cls-1" d="M361.16,44.92c4.16,0,6.74,2.7,6.73,7.05-.01,4.43-2.86,7.5-7.02,7.54-4.08.04-6.85-2.75-6.91-6.97-.06-4.42,2.96-7.62,7.2-7.62ZM358.37,52.29c.1.77-.03,1.91.43,2.71.51.88,1.52,1.91,2.4,2.01.63.07,1.66-1.19,2.06-2.07.39-.85.34-1.98.27-2.97-.14-1.96.04-4.64-2.66-4.61-2.81.03-2.27,2.76-2.51,4.93Z"/>
      <path class="cls-1" d="M450.54,51.86c.05,4.38-2.83,7.56-6.92,7.65-4.17.09-6.87-2.57-6.96-6.86-.1-4.59,2.72-7.69,7.03-7.74,4.19-.04,6.8,2.61,6.85,6.94ZM446.25,52.35c-.02-3.26-1.2-5.46-2.88-5.06-2.8.65-2.42,3.14-2.34,5.14.07,1.91-.11,4.33,2.67,4.7,1.6.22,2.58-1.77,2.56-4.78Z"/>
      <path class="cls-1" d="M459.05,74.75c-.75-2.65-1.54-2.87-6.06-1.83-1.07-1.68-.72-2.77,1.34-3.07,1.23-.18,2.51-.31,3.75-.22,3.58.25,4.9,1.71,4.95,5.28.02,1.43-.13,2.87.06,4.27.11.8.77,1.51,1.11,2.29.22.5.49,1.09.4,1.58-.06.33-.68.67-1.11.79-.55.15-1.31.32-1.73.07-1.9-1.14-3.65-.43-5.57-.04-2.45.5-4.24-.76-4.69-2.72-.53-2.28.52-4.42,2.8-5.26,1.46-.54,3.05-.74,4.76-1.14ZM458.93,77.43c-1.83-.07-3.46.15-3.62,2.2-.04.51,1.38,1.7,1.98,1.61,2.26-.34,1.79-2.13,1.64-3.81Z"/>
      <path class="cls-1" d="M386.27,73.03c-.18-.89-.33-1.6-.64-3.09,2.8-.02,5.34-.29,7.81.04,1.9.26,2.88,1.91,2.94,3.88.05,1.51-.06,3.02.04,4.53.08,1.18-.64,2.59,1.33,3.31.79.29.75,2.03-.74,2.12-1.47.08-2.96-.32-5.08-.59-1.26.88-3.48,1.49-5.39.02-.98-.75-1.76-2.63-1.58-3.85.59-4.2,4.45-3.82,7.4-4.55-.34-2.7-1.45-3.04-6.08-1.81ZM392.34,77.42c-1.84.05-3.56.1-3.51,2.31.01.55,1.18,1.59,1.74,1.54,2.29-.21,1.95-1.98,1.77-3.84Z"/>
      <path class="cls-1" d="M417.36,70.25c1.8-.27,3.19-.59,4.59-.67,4.33-.25,6.17,1.54,6.21,5.91.01,1.35-.1,2.7.05,4.03.08.67.62,1.28.93,1.93.23.48.6,1,.56,1.47-.03.33-.65.88-.99.87-1.46-.07-2.9-.32-4.32-.8-1.93,1.04-4.2,1.78-6.23.24-.97-.73-1.67-2.64-1.52-3.89.54-4.27,4.5-3.72,7.38-4.52-.35-2.66-1.3-2.95-6.13-1.88-.15-.77-.31-1.53-.54-2.7ZM424.07,77.43c-1.9-.04-3.6.12-3.66,2.35-.01.51,1.24,1.55,1.82,1.48,2.4-.27,1.97-2.1,1.84-3.83Z"/>
      <path class="cls-1" d="M355.56,78.41c.62,2.7,2.16,3.21,6.78,2.13,1.27,1.77.56,2.66-1.32,3.2-4.77,1.37-8.94-.74-9.9-5.08-.99-4.46,1.67-8.58,6.03-9.08,1.2-.14,2.75-.09,3.62.57,1.13.86,2.34,2.38,2.39,3.67.04,1.14-1.2,2.81-2.32,3.4-1.54.81-3.49.83-5.27,1.2ZM355.03,75.75c2.01.07,3.84.32,4.29-1.88.11-.56-.99-1.95-1.56-1.96-2.28-.06-2.38,1.82-2.73,3.85Z"/>
      <path class="cls-1" d="M397.96,53.88c.9,2.78,2.15,3.17,6.77,2.06,1.28,1.76.59,2.69-1.3,3.21-3.81,1.05-7.61-.16-9.15-2.95-1.76-3.17-1.05-7.37,1.64-9.67,2.04-1.75,4.53-2.23,6.83-1.18,1.28.59,2.49,2.24,2.89,3.65.51,1.8-.86,3.22-2.59,3.79-1.64.54-3.39.74-5.09,1.09ZM397.48,51.08c1.96.08,3.83.39,4.27-1.85.11-.57-1.04-2-1.59-1.99-2.18.04-2.46,1.83-2.68,3.84Z"/>
      <path class="cls-1" d="M466.37,78.93c.74.59,1.23,1.1,1.82,1.41.87.45,1.8.92,2.75,1.05.37.05,1.08-.75,1.22-1.27.1-.37-.37-1.12-.79-1.36-1.01-.58-2.18-.88-3.21-1.44-2.46-1.34-2.78-4.45-.71-6.34,1.46-1.33,5.56-2.06,7.15-1.01.57.37.77,1.52.84,2.34.04.51-.48,1.06-.75,1.6-.45-.4-.84-.89-1.36-1.16-.67-.36-1.43-.71-2.16-.74-.33-.01-1.07.97-.98,1.13.33.59.91,1.07,1.46,1.5.32.24.77.31,1.17.46,2.14.79,3.72,1.99,3.43,4.59-.24,2.2-2.05,3.88-4.65,4.23-.5.07-1.01.04-1.51.04-4.1,0-4.42-.37-3.74-5.02Z"/>
      <path class="cls-1" d="M436.14,70.98c1.82-.57,3.37-1.06,5.44-1.72-.29,1.8-.47,2.83-.57,3.47-1.63.65-3.84.91-4.09,1.75-.62,2.08-.38,4.43-.38,6.67,0,.25.76.46,1.11.76.38.33.69.75,1.03,1.12-.4.23-.8.63-1.21.65-1.84.07-3.69.07-5.54,0-.43-.01-.85-.37-1.27-.56.22-.39.45-.79.66-1.18.36-.65.97-1.28,1.02-1.95.14-1.83.05-3.68.05-5.53,0-1.17.17-2.41-1.49-2.74-.19-.04-.48-1.08-.3-1.29,1.06-1.26,4.9-.63,5.52.53Z"/>
      <path class="cls-1" d="M413.33,56.95c.54.16,1.08.21,1.46.48.34.24.5.72.74,1.1-.33.2-.65.57-.98.57-2.02.05-4.04.09-6.05-.04-.28-.02-.5-.96-.75-1.47,2.1-.66,1.27-2.42,1.42-3.8.06-.58.03-1.18,0-1.76-.07-2.13.7-4.57-2.33-5.55,2.66-1.9,5.19-1.69,6.2,0,1.6-.6,3.14-1.17,5.27-1.97-.25,1.89-.4,2.99-.54,4.05-4.81.29-5.04.74-4.43,8.38Z"/>
      <path class="cls-1" d="M390.27,55.61c1.1,1.21,1.72,1.89,2.34,2.58-.97.44-1.94,1.21-2.92,1.24-2.12.05-3.48-1.03-3.45-3.38.02-2.01.15-4.04-.06-6.03-.1-.96-.86-1.85-1.3-2.79-.19-.4-.29-.84-.43-1.27,1.62-.28,3.23-.67,4.86-.72.3,0,.9,1.37.93,2.13.11,3.01.04,6.02.04,8.25Z"/>
      <path class="cls-1" d="M447.94,69.87c0,3.34-.09,6.43.07,9.52.04.7.93,1.36,1.44,2.03.3.4.89.81.87,1.19-.03.43-.5,1.04-.92,1.22-2.96,1.22-5.4-.45-5.48-3.72-.05-2.01,0-4.02-.02-6.04,0-.57.02-1.25-.26-1.69-1.47-2.27-1.5-2.27,1.25-2.5.9-.07,1.82-.01,3.06-.01Z"/>
      <path class="cls-1" d="M299.38,5.8c-.91-.06-1.64-.11-2.35-.16q-.34-2.28,2.31-2.66c.43-1.05-.29-3.44,2.5-2.39.1.73.22,1.52.35,2.44.86.1,1.67.2,2.63.32.05.7.09,1.34.15,2.13-.95.15-1.82.29-2.8.44-.1.84-.19,1.64-.28,2.47-2.63,1.01-2.26-.99-2.5-2.59Z"/>
      <path class="cls-1" d="M449.35,66.35c-1.67.92-2.64,1.9-3.48,1.79-.83-.11-2.09-1.23-2.17-2.02-.16-1.52,1.18-2.2,2.57-1.85.87.22,1.58,1.03,3.08,2.08Z"/>
      <path class="cls-1" d="M388.41,44.63c-1.23-1.38-2.49-2.18-2.43-2.89.06-.77,1.29-1.96,2.09-2.03.72-.07,2.05,1.03,2.21,1.8.15.7-.92,1.65-1.87,3.13Z"/>
    </g>
  </g>
</svg>