<?xml version="1.0" encoding="UTF-8"?>
<svg id="Capa_2" data-name="Capa 2" xmlns="http://www.w3.org/2000/svg" viewBox="0 0 449.68 109.11">
  <defs>
    <style>
      .cls-1 {
        fill: #fff;
      }
    </style>
  </defs>
  <g id="Capa_1-2" data-name="Capa 1">
    <g>
      <path class="cls-1" d="M94.41.8v67.03h31.97c-1.2,1.32-1.72,1.98-2.32,2.56-9.19,8.83-18.37,17.66-27.62,26.43-.86.81-2.13,1.67-3.23,1.68-9.98.13-19.96.08-30.32.08v-29.46c-1.68,1.54-2.74,2.48-3.77,3.46-8.27,7.93-16.55,15.84-24.76,23.84-1.59,1.55-3.2,2.24-5.47,2.2-9.48-.13-18.97-.06-28.73-.06-.06-.93-.16-1.77-.16-2.62C0,74.8-.03,53.65.07,32.49c0-1.27.71-2.87,1.63-3.77C10.62,19.91,19.65,11.21,28.67,2.5c.79-.76,1.75-1.36,3.24-2.5v67.72h30.89c0-1.31,0-2.46,0-3.61,0-10.38.06-20.76-.05-31.13-.02-2.08.66-3.44,2.13-4.84,8.85-8.46,17.6-17.02,26.4-25.54.76-.73,1.56-1.41,2.35-2.11.26.11.53.22.79.33Z"/>
      <path class="cls-1" d="M379.69,21.93v-12.93h7.07v35.41h-7.01c-.08-.9-.16-1.75-.29-3.1-2.79,2.64-5.81,3.86-9.4,3.5-3.53-.36-6.42-1.73-8.52-4.65-3.71-5.17-3.2-14.03,1.06-18.38,4.28-4.37,10.6-4.46,17.09.16ZM379.61,31.63c-.02-4.45-2.67-7.33-6.69-7.28-3.92.05-6.58,3.1-6.54,7.49.04,4.29,2.9,7.41,6.76,7.36,3.83-.05,6.5-3.17,6.48-7.58Z"/>
      <path class="cls-1" d="M157.72,10.93h7.24c.07,1.11.18,2.14.19,3.18.02,5.43-.03,10.86.02,16.29.05,5.34,3,8.4,7.87,8.31,4.58-.09,7.21-3.06,7.23-8.23.02-6.41,0-12.82,0-19.43h7.26c.09.68.25,1.34.25,1.99.01,6.22.16,12.44-.05,18.66-.28,8.53-6.31,13.66-15.46,13.43-8.89-.22-14.53-5.67-14.55-14.11-.02-6.6,0-13.2,0-20.09Z"/>
      <path class="cls-1" d="M449.67,44.47h-7.04c-.12-.99-.23-1.92-.38-3.25-2.85,2.99-6.17,4.32-9.8,3.41-2.56-.64-5.38-1.73-7.21-3.52-4.65-4.53-4.51-14.34-.2-19.04,4.26-4.65,10.82-4.84,17.31-.3v-12.92c2.2,0,4.13-.13,6.02.09.5.06,1.24,1.18,1.25,1.82.08,11.14.06,22.28.06,33.71ZM429.18,31.73c-.02,4.31,2.85,7.51,6.72,7.48,3.72-.02,6.49-3.13,6.54-7.34.05-4.45-2.61-7.52-6.55-7.54-4.01-.03-6.69,2.93-6.71,7.4Z"/>
      <path class="cls-1" d="M214.08,44.32c0-4.4.03-8.63,0-12.85-.04-4.3-2.02-6.64-5.49-6.57-3.46.07-5.83,2.78-5.86,6.79-.03,4.14,0,8.27,0,12.65h-7.16v-25.49h6.98c.1,1.08.2,2.12.34,3.57,2.66-2.55,5.51-4.14,9.14-4.02,5.27.17,8.9,3.29,9.09,8.53.21,5.71.05,11.43.05,17.39h-7.07Z"/>
      <path class="cls-1" d="M408.91,29.17c.37-5.5-4.06-6.57-12.97-3.18-.68-1.42-1.38-2.89-2.21-4.6,5.41-2.78,10.94-4.01,16.81-2.18,3.52,1.1,5.65,3.65,5.72,7.43.12,5.81.03,11.63.03,17.68h-6.82c-.13-.52-.32-1.22-.52-2-.32.12-.63.16-.84.33-2.85,2.26-6.12,2.56-9.54,1.98-3.83-.65-6.16-3.26-6.41-7.02-.27-4.02,1.4-6.69,5.35-7.73,2.25-.59,4.67-.55,7.01-.71,1.46-.1,2.92-.02,4.36-.02ZM408.93,33.44c-2.45,0-4.92-.26-7.29.12-1.03.16-2.37,1.51-2.6,2.54-.2.89.85,2.92,1.53,3.01,2.09.27,4.42.27,6.38-.41,2.17-.75,2.73-2.86,1.98-5.26Z"/>
      <path class="cls-1" d="M289.49,36.8c.96,1.24,1.97,2.56,3.02,3.92-3.27,4.68-13.81,5.51-19.01,1.77-4.87-3.5-6.71-11.24-3.81-17.09,2.87-5.78,9.97-8.44,16.81-6.3,5.69,1.79,8.74,7.43,7.61,14.57h-18.17c1.47,6.15,6.41,7.25,13.57,3.11ZM287.34,29.56c.06-3.74-1.99-5.87-5.5-5.91-3.49-.03-5.8,2.23-5.92,5.91h11.42Z"/>
      <path class="cls-1" d="M360.37,94.68c-6.21,4.95-13.12,5.06-17.45.45-4.19-4.46-4.23-12.95-.07-17.41,4.39-4.71,11.19-4.64,17.47.39.13-1.27.24-2.37.37-3.62h3.81c0,4.45,0,8.76,0,13.08,0,2.67-.14,5.34.02,8,.68,11.9-9.5,15.17-17.48,12.83-1.94-.57-3.71-1.71-5.85-2.72.7-1.22,1.21-2.11,1.78-3.1,4.31,3.16,8.85,4.54,13.66,1.91,3.7-2.02,4.32-5.62,3.76-9.81ZM360.54,86.4c-.02-5.24-3.59-8.98-8.55-8.95-4.91.03-8.62,3.92-8.61,9.03,0,4.97,3.91,9.02,8.7,9.01,4.86,0,8.49-3.9,8.47-9.09Z"/>
      <path class="cls-1" d="M340.09,21.35c-.73,1.46-1.47,2.94-2.14,4.29-2.54-.72-4.85-1.68-7.23-1.92-1.26-.13-2.65,1-3.98,1.56.96.95,1.76,2.2,2.9,2.77,1.92.96,4.1,1.39,6.1,2.22,3.32,1.36,4.7,3.51,4.68,6.77-.03,3.4-1.8,5.63-4.82,6.74-5.87,2.14-11.39,1.09-16.87-2.32.76-1.62,1.45-3.09,2-4.27,3.11.9,5.96,2,8.9,2.43,1.15.17,2.52-1.19,3.79-1.85-.95-.95-1.75-2.23-2.89-2.79-2.02-.99-4.3-1.43-6.38-2.33-2.27-.99-3.88-2.62-4.07-5.33-.21-2.96.47-5.43,3.13-7.15,4.37-2.82,11.76-2.39,16.87,1.16Z"/>
      <path class="cls-1" d="M266.45,19.06c-3.12,8.28-6.12,16.3-9.23,24.28-.23.58-1.29,1.12-2,1.18-1.95.16-3.93.06-5.95.06-3.26-8.59-6.46-17.03-9.83-25.9,2.28,0,4.26-.24,6.14.11.83.15,1.77,1.37,2.1,2.3,1.7,4.83,3.21,9.73,4.8,14.6.14.43.35.83.82,1.92,1.66-5.08,3.08-9.52,4.55-13.95q1.88-5.65,8.59-4.6Z"/>
      <path class="cls-1" d="M178.28,64.16h3.72v35.33h-3.38c-.1-1.21-.21-2.45-.36-4.34-2.73,3.32-5.99,4.81-9.88,4.72-3.97-.1-7.31-1.5-9.66-4.83-3.76-5.33-3-13.81,1.59-17.93,4.81-4.31,11.99-3.83,17.98,1.53v-14.47ZM169.24,77.56c-5.25.02-9.17,4.19-9.05,9.62.12,5.46,4.17,9.55,9.33,9.43,4.99-.11,8.89-4.3,8.9-9.56.01-5.48-3.9-9.53-9.18-9.5Z"/>
      <path class="cls-1" d="M444.52,84.86c.65-7.65-4.36-9.19-14.56-4.73-.42-.71-.86-1.44-1.27-2.14,3.94-3.97,11.79-5.08,16.27-2.35,2.38,1.45,3.59,3.69,3.66,6.41.13,4.83.07,9.67.09,14.51,0,.88,0,1.75,0,2.88h-3.71c-.11-.81-.22-1.64-.23-1.71-3.37.69-6.63,1.84-9.92,1.93-4.53.12-7.71-3.16-7.88-7.21-.16-3.88,2.69-6.84,7.32-7.44,1.65-.21,3.35-.13,5.03-.15,1.67-.02,3.33,0,5.21,0ZM444.41,87.8c-3.57.17-7.04.05-10.39.64-1.23.22-2.9,2.01-3.04,3.24-.14,1.28.98,3.26,2.14,4.02,2.84,1.86,5.91,1.1,8.63-.6,2.49-1.55,3.56-3.85,2.65-7.31Z"/>
      <path class="cls-1" d="M208.86,93.4c.74.67,1.36,1.24,1.93,1.77-3.78,4.86-11.62,6.06-16.96,2.96-5.21-3.02-7.45-10.4-4.99-16.4,2.38-5.8,8.81-8.83,15.18-7.16,5.9,1.55,8.95,6.63,8.06,13.78h-19.99c.02,3.33,1.54,5.5,3.97,6.93,4.42,2.61,8.52,1.38,12.8-1.88ZM208.53,85.26c-.06-5.15-3.66-8.17-8.85-7.76-4.6.36-7.87,3.83-7.21,7.76h16.06Z"/>
      <path class="cls-1" d="M334.32,99.6h-3.41c-.19-.91-.36-1.74-.6-2.9-3.46,2.73-7.24,3.69-11.38,2.84-4.62-.94-7.18-5.21-5.86-9.61.86-2.85,3.91-4.85,8.01-5.02,3.03-.13,6.08-.02,10.28-.02-1.24-2.57-1.63-5.07-3.07-6.07-4.27-2.97-8.46-.9-12.49,1.43-.54-.8-1.02-1.52-1.48-2.22,3.68-4.2,12.19-5.07,15.88-2.48,1.83,1.28,3.76,3.72,3.94,5.78.53,5.96.19,12,.19,18.26ZM330.24,87.77c-3.7.2-7.26.18-10.74.72-1.1.17-2.62,1.75-2.77,2.84-.17,1.3.53,3.29,1.55,4.06,2.82,2.12,6,1.6,8.9-.12,2.59-1.55,3.89-3.82,3.05-7.49Z"/>
      <path class="cls-1" d="M253.79,80.08c-1.75-1.55-1.8-2.65.54-3.86,3.78-1.95,7.66-2.59,11.76-1.59,3.12.76,5.69,2.67,5.87,5.92.35,6.27.1,12.57.1,19.01h-3.32c-.1-.89-.2-1.73-.23-1.93-3.33.72-6.58,1.9-9.86,2.03-4.6.19-7.73-2.99-7.88-7.1-.16-4.17,2.29-6.99,7.09-7.48,3.4-.35,6.86-.07,10.31-.07.64-2.79.01-4.75-1.78-6.26-2.46-2.06-6.49-1.61-12.59,1.32ZM268.37,88.25c-3.64,0-7.1-.28-10.48.15-1.27.16-3.07,1.85-3.27,3.07-.21,1.26.86,3.28,2,4.11,2.66,1.96,5.71,1.3,8.39-.22,2.58-1.46,4.02-3.73,3.36-7.11Z"/>
      <path class="cls-1" d="M422.43,99.51h-3.78c0-4.79.02-9.52,0-14.24-.02-4.11-1.68-6.38-5.18-7.22-3.38-.81-7.39.76-8.85,3.85-.82,1.73-1.24,3.76-1.34,5.67-.2,3.92-.06,7.85-.06,11.94h-3.62v-25h3.44c.11,1.31.22,2.53.36,4.28,3.11-3.86,6.91-5,11.26-4.52,4.2.47,7.44,3.18,7.69,7.35.35,5.88.09,11.8.09,17.87Z"/>
      <path class="cls-1" d="M389.49,74.45h3.46v25.07c-1.05.06-2.08.12-3.45.2-.1-1.44-.19-2.75-.33-4.77-2.47,3.42-5.47,4.76-9.08,4.85-5.46.13-9.14-2.44-9.62-7.85-.51-5.74-.11-11.56-.11-17.48h3.73c0,3.61,0,7.22,0,10.83,0,.99,0,1.97,0,2.96.07,4.81,2.23,7.54,6.22,7.88,4.43.37,8.17-2.5,8.63-7.09.39-3.91.25-7.87.36-11.81.02-.86.12-1.73.19-2.79Z"/>
      <path class="cls-1" d="M300.2,18.82h6.87c.18,1.24.34,2.37.46,3.25,2.64-1.4,5.26-2.79,8.39-4.44v7.11c-7.39,1.46-8.55,2.86-8.55,10.21,0,3.05,0,6.1,0,9.38h-7.17v-25.51Z"/>
      <path class="cls-1" d="M227.99,18.96q7.15-.9,7.13,5.83c0,6.47,0,12.95,0,19.6h-7.13v-25.43Z"/>
      <path class="cls-1" d="M290.78,66.09h3.73c0,4.67,0,9.19,0,13.71,0,4.35.17,8.7-.06,13.04-.14,2.71.85,3.4,3.38,3.27,3.73-.19,7.48-.05,11.42-.05v3.45h-18.48v-33.42Z"/>
      <path class="cls-1" d="M346.44,18.86h6.8v25.46h-6.8v-25.46Z"/>
      <path class="cls-1" d="M247.12,96.06v3.46h-18.29v-33.43c1.06-.05,2.1-.1,3.52-.17.06,1.16.17,2.2.17,3.24,0,7.91.07,15.81-.05,23.72-.04,2.39.61,3.36,3.14,3.24,3.73-.19,7.48-.05,11.52-.05Z"/>
      <path class="cls-1" d="M353.76,10.98c.04,2.36-1.43,3.92-3.75,3.98-2.49.06-4.08-1.5-4.05-3.97.03-2.33,1.59-3.89,3.9-3.88,2.36,0,3.85,1.49,3.9,3.88Z"/>
      <path class="cls-1" d="M231.49,7.13c2.42-.04,3.85,1.34,3.92,3.78.07,2.45-1.3,3.96-3.64,4.04-2.52.09-4.11-1.43-4.1-3.92,0-2.41,1.43-3.87,3.82-3.91Z"/>
    </g>
  </g>
</svg>