<?xml version="1.0" encoding="UTF-8"?>
<svg id="Capa_2" data-name="Capa 2" xmlns="http://www.w3.org/2000/svg" viewBox="0 0 322.96 110.47">
  <defs>
    <style>
      .cls-1 {
        fill: #fff;
      }
    </style>
  </defs>
  <g id="Capa_1-2" data-name="Capa 1">
    <g>
      <path class="cls-1" d="M0,110.47V0c107.64,0,215.29,0,322.93,0,0,.25.02.5.02.75,0,36.28,0,72.55,0,108.83,0,1.06.07.87-.88.87-107.08,0-214.16,0-321.23,0-.28,0-.56.02-.84.03ZM73.42,107.88h246.99c0-.3,0-.58,0-.86,0-34.51,0-69.03,0-103.54,0-1.11.05-.91-.9-.91-81.74,0-163.48,0-245.21,0-.17,0-.33,0-.5,0-.13,0-.25.03-.38.05v105.26ZM19.02,28.91v.67c0,8.84,0,17.68,0,26.52,0,1.68.27,3.3.77,4.89,2.65,8.33,11.1,13.22,19.71,11.43,7.57-1.58,13.31-8.5,13.34-16.16.03-8.92,0-17.85,0-26.77,0-.19-.03-.38-.05-.61-2.58,0-5.1,0-7.63.02-.1,0-.27.22-.28.35-.03.63,0,1.26-.02,1.89-.01.38.14.49.5.48,1.13-.02,2.26,0,3.39,0,.44,0,.89,0,1.38,0,0,.26,0,.46,0,.65,0,7.76.02,15.52-.02,23.28,0,1.19-.14,2.39-.39,3.55-1.61,7.33-9.15,12.23-16.46,10.74-6.82-1.39-11.53-7.08-11.55-14.03-.03-7.86,0-15.72-.02-23.58,0-.47.11-.64.61-.63,1.38.03,2.76.02,4.14,0,.17,0,.47-.16.47-.25.04-.81.02-1.61.02-2.44h-7.93ZM34.59,18.58v.71c0,11.61,0,23.23.01,34.84,0,.51-.13.65-.63.64-2.19-.03-4.39,0-6.58-.02-.52,0-.67.16-.63.65.04.46,0,.93,0,1.4q0,.7.71.7c5.64,0,11.27,0,16.91,0,.12,0,.23,0,.35,0,.28.01.38-.12.38-.39-.01-.58-.03-1.17,0-1.74.03-.49-.16-.62-.63-.61-2.13.02-4.26,0-6.38,0q-.82,0-.82-.81c0-11.5,0-22.99,0-34.49,0-.2.03-.41-.02-.6-.03-.11-.16-.27-.26-.27-.79-.02-1.59-.01-2.42-.01ZM32.01,36.72c.02-.16.03-.24.03-.32,0-1.91.2-3.85-.06-5.72-.65-4.65-3.34-7.76-7.79-9.3-.82-.28-1.68-.47-2.61-.45,0,.81-.01,1.57.02,2.33,0,.1.22.25.36.28.48.13.98.18,1.45.32,3.82,1.16,6.19,4.9,6.02,8.13-.07,1.41-.01,2.82,0,4.23,0,.22-.07.49.31.49.74,0,1.49,0,2.28,0ZM50.2,20.88c-.4.05-.73.07-1.04.12-4.48.82-7.47,3.41-8.97,7.69-.88,2.53-.38,5.17-.48,7.76,0,.08.14.25.22.25.79.02,1.58.01,2.4.01,0-1.79,0-3.5,0-5.21,0-.43.05-.86.15-1.28.85-3.64,3.58-6.1,7.35-6.7.14-.02.34-.22.35-.35.03-.73.02-1.46.02-2.3ZM26.77,62.55h.6c4.64,0,9.28,0,13.92,0,1.11,0,2.23-.01,3.34,0,.38,0,.5-.12.48-.48-.02-.51,0-1.03,0-1.54q0-.71-.71-.71c-5.65,0-11.31,0-16.96,0-.12,0-.25-.03-.34.01-.12.06-.3.18-.31.28-.03.79-.01,1.59-.01,2.44ZM47.8,87.45s.05,0,.08,0c.26,1.16.51,2.33.8,3.48.29,1.19-.02.97,1.31,1.01.31,0,.46-.11.51-.4.1-.49.21-.97.32-1.46.2-.86.4-1.71.6-2.57.09,1.13.09,2.24.1,3.35.01,1.28-.14,1.03,1.08,1.09.5.02.61-.17.6-.63-.02-1.78,0-3.55,0-5.33,0-1.14,0-1.15-1.12-1.14-.48,0-1.09-.13-1.4.11-.3.24-.3.87-.41,1.33-.2.8-.38,1.61-.57,2.41-.34-1.16-.62-2.3-.87-3.45-.07-.31-.2-.41-.51-.41-.55.02-1.1.03-1.64,0-.46-.03-.56.16-.56.58.02,1.79,0,3.59,0,5.38,0,1.36-.19,1.11,1.16,1.16.44.02.53-.17.52-.56-.02-1.31,0-2.62,0-3.93ZM28.23,82.93c1.5-.06,2.94-.08,4.37-.18.68-.05,1.18-.5,1.34-1.17.1-.43.15-.95.01-1.35-.15-.43-.54-.77-.79-1.11.17-.31.48-.67.57-1.07.27-1.21-.48-2.1-1.76-2.14-1.1-.03-2.19,0-3.29,0-.14,0-.29.03-.45.05v6.98ZM44.19,79.39c0,1,0,1.99,0,2.99,0,.02,0,.03,0,.05-.04.34.11.47.46.46.86-.02,1.73.01,2.59-.01,1.51-.04,2.55-.89,2.73-2.37.1-.81.06-1.66-.08-2.47-.23-1.35-1.12-2.07-2.49-2.12-.93-.04-1.86,0-2.79-.01-.33,0-.43.14-.42.45.01,1.01,0,2.02,0,3.04ZM57.35,79.37s-.04,0-.06,0c0-.15,0-.3,0-.45-.05-1.46-.84-2.58-2.08-2.97-1.47-.46-3-.06-3.79,1-.49.65-.65,1.4-.68,2.19-.1,2.13.88,4.02,3.65,3.85,1.31-.08,2.36-.84,2.71-2.1.14-.49.18-1,.26-1.51ZM24.82,91.93c-.09-.31-.15-.49-.21-.68-.54-1.62-1.08-3.24-1.63-4.85-.17-.51-.25-1.21-.61-1.47-.38-.26-1.06-.06-1.6-.1-.35-.02-.49.13-.6.45-.67,2.05-1.36,4.09-2.04,6.14-.05.15-.07.3-.12.52.45,0,.81,0,1.17,0,.82,0,.81,0,1.07-.79.05-.15.21-.36.34-.37.59-.04,1.19-.02,1.8-.02.08.3.14.58.25.84.05.13.19.31.3.32.59.03,1.19.01,1.88.01ZM39.81,91.93c0-.15.02-.24,0-.31-.72-2.15-1.44-4.31-2.18-6.46-.05-.14-.3-.29-.46-.31-.41-.04-.83.01-1.24-.02-.41-.04-.58.14-.7.51-.66,2.02-1.33,4.02-2,6.04-.05.15-.08.31-.13.55.65,0,1.24.01,1.83-.01.1,0,.22-.18.27-.29.32-.86.32-.86,1.24-.86.13,0,.27.02.4,0,.54-.11.78.13.86.65.03.18.18.48.3.49.6.05,1.21.02,1.84.02ZM27.65,82.87c-.01-.14,0-.2-.03-.26-.72-2.13-1.44-4.26-2.19-6.39-.05-.14-.27-.29-.42-.3-.48-.04-.96,0-1.44-.02-.32-.01-.46.11-.56.42-.68,2.03-1.38,4.04-2.07,6.07-.05.14-.07.28-.12.49.65,0,1.24.01,1.83-.01.1,0,.24-.16.29-.27.32-.82.32-.82,1.22-.82.17,0,.34.02.5,0,.48-.07.73.11.8.61.02.18.19.47.31.48.62.05,1.24.02,1.89.02ZM53.66,91.93c.65,0,1.24.01,1.83-.01.1,0,.23-.17.28-.29.32-.86.31-.87,1.23-.87.13,0,.27.02.4,0,.53-.09.8.1.86.65.02.18.18.48.3.49.62.05,1.24.02,1.92.02-.07-.25-.11-.41-.16-.56-.55-1.65-1.09-3.3-1.64-4.95-.17-.51-.25-1.21-.61-1.47-.37-.26-1.05-.07-1.6-.11-.37-.03-.52.14-.63.47-.66,2.03-1.35,4.05-2.02,6.08-.05.15-.08.31-.15.54ZM18.85,79.97c-.13.31-.22.58-.35.83-.2.38-.55.51-.96.48-.4-.02-.73-.18-.86-.56-.3-.85-.34-1.74,0-2.57.32-.79,1.42-.93,1.8-.21.29.55.6.48,1.03.35.22-.06.44-.14.67-.18.33-.05.35-.21.24-.49-.4-1.09-1.17-1.67-2.32-1.83-1.68-.23-3.13.65-3.52,2.22-.1.4-.15.82-.16,1.23-.05,2.05.87,3.92,3.53,3.76,1.29-.08,2.32-.88,2.57-2.15.02-.11-.04-.32-.12-.35-.5-.19-1.02-.35-1.55-.52ZM28.2,88.37c0,1,.02,1.99-.01,2.99-.01.45.12.6.58.59,1.43-.02,1.43,0,1.43-1.44q0-1.11,1.1-1.15c1.28-.05,1.97-.62,2.19-1.81.29-1.53-.44-2.55-2-2.67-.94-.07-1.89-.01-2.84-.04-.39-.01-.47.15-.47.5.02,1.01,0,2.02,0,3.04ZM14.91,90.1c-.01-.2-.02-.31-.02-.43,0-1.46,0-2.92,0-4.38,0-.34-.11-.48-.46-.46-.36.02-.73.03-1.09,0-.4-.03-.51.13-.5.52.02,2.02.02,4.05,0,6.07,0,.44.16.53.55.52,1.05-.02,2.09,0,3.14,0,1.38,0,1.36,0,1.35-1.37,0-.38-.13-.48-.5-.47-.81.02-1.62,0-2.47,0ZM42.41,90.1c0-.23,0-.41,0-.59,0-1.05,0-2.09,0-3.14,0-1.59,0-1.58-1.58-1.54-.35,0-.46.13-.45.47.01,2.06.01,4.12,0,6.18,0,.35.11.47.46.46,1.08-.01,2.16,0,3.24,0,1.37,0,1.36,0,1.33-1.39,0-.35-.11-.46-.46-.45-.81.02-1.63,0-2.54,0ZM38.42,75.91v6.96h3.81c1.2,0,1.17,0,1.2-1.2.02-.52-.15-.66-.65-.63-.77.04-1.55.01-2.37.01,0-.27,0-.47,0-.67,0-1.33,0-2.66-.01-3.98,0-.16-.16-.46-.26-.47-.57-.05-1.15-.02-1.73-.02ZM37.12,79.42v-2.04c0-1.49,0-1.47-1.49-1.48-.45,0-.6.13-.6.59.02,1.91,0,3.82,0,5.73,0,.67,0,.67.69.67.28,0,.57-.02.85,0,.41.04.56-.1.55-.53-.03-.98,0-1.96,0-2.94Z"/>
      <path class="cls-1" d="M126.45,43.38c.49.12.99.22,1.48.36,3.28.91,5.96,2.7,7.97,5.47.48.66.92,1.34,1.36,2.03.09.13.12.39.05.52-.89,1.55-1.8,3.09-2.77,4.74.04-4.9-2.08-8.37-6.43-10.39-2.47-1.14-5.06-1.48-7.88-.75.33.21.53.34.73.47,3.93,2.48,7.37,5.47,9.75,9.51.72,1.22,1.27,2.55,1.86,3.84.08.18.09.48,0,.65-.89,1.57-1.82,3.12-2.79,4.78-6.13-10.44-12.22-20.82-18.36-31.28h36.71c-2.31,3.93-4.58,7.81-6.89,11.75-.09-.58-.15-1.09-.24-1.59-.36-2.07-1.6-3.45-3.43-4.36-1.39-.69-2.86-1.06-4.42-1.05-.13,0-.27,0-.4.02-.03,0-.05.04-.14.11.25.16.47.31.71.44,3.52,1.98,5.58,4.96,6.19,8.94.02.14.03.32-.03.44-.22.42-.47.82-.74,1.29-.67-3.17-2.39-5.37-5.41-6.43-2.34-.81-4.64-.64-6.88.37,0,.05,0,.09-.01.14Z"/>
      <path class="cls-1" d="M132.02,63.47c.9-1.06,1.91-1.81,3.01-2.43,2.98-1.69,6.17-2.57,9.62-2.39,2.9.15,5.71.62,8.32,1.97,2.06,1.06,3.83,2.49,5.18,4.35.91,1.25,1.66,2.63,2.4,4.03-4.28-2.62-8.8-4.54-13.69-5.54-4.9-1.01-9.81-.67-14.84,0Z"/>
      <path class="cls-1" d="M140.01,91.81v-11.68c.14-.02.26-.04.39-.04,1.99,0,3.99-.01,5.98,0,2.08.02,3.4,1.79,2.83,3.78-.22.78-.74,1.32-1.55,1.66.11.08.15.12.2.14,1.93.79,2.59,2.97,1.44,4.72-.45.69-1.07,1.16-1.9,1.21-1.52.1-3.04.15-4.57.2-.91.03-1.83,0-2.81,0ZM143.24,86.93c0,.75-.01,1.43.01,2.1,0,.11.17.31.26.31.69,0,1.39.02,2.08-.08.65-.09,1.01-.61.98-1.23-.03-.59-.44-1.05-1.08-1.1-.72-.05-1.45-.01-2.25-.01ZM143.24,82.44c0,.71-.02,1.35.02,1.99,0,.1.22.27.35.27.53.02,1.06,0,1.59-.04.61-.06.96-.51.96-1.13,0-.59-.36-1.04-.95-1.08-.62-.05-1.25-.01-1.96-.01Z"/>
      <path class="cls-1" d="M138.55,91.81c-1.04,0-2.05.01-3.06-.01-.13,0-.31-.17-.36-.3-.14-.4-.24-.83-.34-1.25-.06-.26-.19-.39-.47-.39-1.03.01-2.06-.01-3.09.02-.15,0-.38.18-.44.34-.15.35-.24.73-.3,1.1-.06.38-.22.52-.62.5-.91-.03-1.83,0-2.82,0,.17-.53.32-1.01.48-1.49,1.1-3.23,2.21-6.46,3.3-9.69.14-.4.31-.58.76-.55.88.04,1.76,0,2.64.03.16,0,.42.15.47.29,1.29,3.72,2.56,7.46,3.84,11.19.02.05,0,.1.02.23ZM134,87.35c-.39-1.38-.76-2.72-1.14-4.06-.05,0-.1,0-.15,0-.37,1.34-.74,2.67-1.13,4.05h2.41Z"/>
      <path class="cls-1" d="M160.38,57c-8.71-1.69-17.25-1.99-25.54,1.62-.03-.04-.05-.08-.08-.11.33-.4.63-.82,1-1.18,3.07-3.01,6.68-5,10.94-5.72,1.89-.32,3.76-.02,5.6.5,3.03.87,5.54,2.61,7.87,4.65.06.05.1.12.2.24Z"/>
      <path class="cls-1" d="M120.54,83.29c-.91.22-1.74.44-2.58.62-.11.02-.32-.09-.37-.19-.58-1.08-1.26-1.52-2.17-1.37-.95.16-1.69.95-1.78,2.13-.08.98-.04,1.99.08,2.96.14,1.06.83,1.63,1.78,1.71.94.07,1.63-.38,2.03-1.36.12-.29.2-.59.3-.92.86.28,1.69.54,2.51.84.12.04.25.31.22.44-.55,2.11-1.91,3.65-4.4,3.64-.81,0-1.64-.04-2.41-.24-1.73-.45-2.66-1.77-3.14-3.38-.51-1.71-.47-3.44.06-5.15.63-2.01,2.37-3.31,4.48-3.32.77,0,1.57.03,2.32.21,1.72.42,2.54,1.72,3.08,3.38Z"/>
      <path class="cls-1" d="M161.16,50.97c-7.93-2.52-15.56-2.33-22.87,1.86l-.08-.15c.23-.35.42-.73.68-1.05,2.37-3,5.36-5.09,9.11-5.96,2.44-.56,4.78-.03,7.02.98,2.24,1.01,4.17,2.46,5.97,4.1.03.03.05.08.15.23Z"/>
      <path class="cls-1" d="M169.07,28.73c-7.59.26-14.04,2.91-19.28,8.4.1-.4.16-.81.3-1.19,1.05-3.06,2.89-5.53,5.52-7.42,1.41-1.01,3.03-1.42,4.71-1.56,3.01-.25,5.86.49,8.61,1.62.03.01.04.04.14.15Z"/>
      <path class="cls-1" d="M160.51,47.85c-1.39-.83-2.67-1.68-4.01-2.39-2.05-1.07-4.19-1.94-6.5-2.25-2.06-.27-4.07.01-6.05.58-.48.14-.95.29-1.52.47.09-.21.13-.36.21-.49,1.65-2.69,4-4.31,7.19-4.53,1.46-.1,2.76.49,3.96,1.27,2.21,1.43,3.89,3.4,5.44,5.5.42.57.82,1.17,1.28,1.82Z"/>
      <path class="cls-1" d="M122.28,85.94c0-1.78.01-3.55,0-5.33,0-.41.11-.55.53-.54.75.03,1.5.02,2.24,0,.33,0,.48.08.48.44,0,3.62,0,7.24,0,10.86,0,.31-.1.44-.43.43-.78-.02-1.56-.03-2.34,0-.39.01-.48-.14-.48-.49.01-1.79,0-3.59,0-5.38Z"/>
      <path class="cls-1" d="M260.98,58.65c1.1.69,1.39,1.31,1.15,2.35-.23.99-1.11,1.8-2.25,1.88-1.34.1-2.68.08-4.03.11-.27,0-.34-.1-.3-.37.43-2.53.85-5.06,1.29-7.58.02-.14.2-.35.3-.36,1.24-.02,2.49-.06,3.73.03.98.08,1.52.62,1.66,1.39.16.86-.27,1.8-1.03,2.26-.15.09-.31.17-.52.29ZM257,61.87c1.01-.05,1.9-.04,2.78-.14.69-.09,1.11-.72,1.06-1.41-.04-.59-.45-.96-1.2-1.02-.61-.04-1.22-.05-1.84-.04-.14,0-.39.13-.41.24-.15.74-.26,1.49-.4,2.37ZM257.63,58.18c.89-.05,1.66-.06,2.43-.16.3-.04.61-.27.84-.48.33-.3.41-.73.25-1.15-.16-.42-.54-.57-.96-.58-.61-.01-1.23-.01-1.84,0-.12,0-.33.1-.34.18-.14.68-.24,1.36-.37,2.19Z"/>
      <path class="cls-1" d="M287.05,62.31c-.18.12-.33.21-.47.31-.75.55-1.57.63-2.4.24-.78-.37-1.03-1.07-1.08-1.88-.11-1.8.82-3.34,2.32-3.76,1.18-.33,2.26.06,3.31.55.09.04.16.25.14.37-.28,1.7-.54,3.4-.87,5.09-.37,1.88-1.77,2.46-3.32,2.41-.6-.02-1.2-.19-1.76-.29-.03-.13-.05-.17-.04-.19.37-.87.36-.85,1.27-.73.42.06.86.08,1.28,0,1.01-.17,1.63-.98,1.63-2.13ZM284.36,60.62c-.04,1.08.75,1.62,1.75,1.19.5-.22.85-.61.99-1.12.17-.62.28-1.26.38-1.89.02-.1-.11-.3-.2-.32-.44-.09-.91-.24-1.34-.17-.93.15-1.53,1.11-1.57,2.31Z"/>
      <path class="cls-1" d="M204.32,62.25c-.27.19-.43.29-.59.41-1.17.88-3.31.46-3.42-1.59-.1-1.82.77-3.39,2.28-3.83,1.2-.36,2.29.05,3.35.54.09.04.15.26.13.38-.28,1.7-.53,3.4-.87,5.09-.39,1.94-1.83,2.43-3.28,2.4-.62-.01-1.23-.19-1.92-.31.21-.43.36-.75.53-1.1,1.03.31,2.04.52,2.97-.17.54-.4.71-1.01.83-1.82ZM201.55,60.68c0,1,.68,1.49,1.63,1.17.62-.21.99-.67,1.15-1.27.16-.57.25-1.16.34-1.75.02-.11-.09-.32-.17-.34-.42-.11-.88-.27-1.29-.22-1,.14-1.66,1.16-1.66,2.4Z"/>
      <path class="cls-1" d="M198.86,62.92c-.08.04-.1.05-.11.05-1.1.08-1.14.08-1.33-.99-.09-.52-.3-.68-.82-.65-.89.04-1.79.02-2.69,0-.32,0-.54.09-.67.39-.06.14-.14.26-.22.39-.55.98-.59.99-1.84.8.09-.19.17-.36.26-.52,1.35-2.49,2.71-4.98,4.07-7.46.07-.12.22-.26.35-.27.46-.03.92-.01,1.32-.01.56,2.79,1.11,5.52,1.67,8.25ZM196.96,60.2c-.23-1.32-.46-2.59-.69-3.95-.72,1.36-1.39,2.62-2.09,3.95h2.79Z"/>
      <path class="cls-1" d="M201.43,31.65c.13-.74.27-1.45.39-2.16.17-1.02.04-.81,1-.84.1,0,.2,0,.38.02-.04.29-.06.56-.11.82-.4,2.43-.81,4.86-1.21,7.29-.04.25-.13.42-.44.4-.27-.02-.45-.04-.45-.37,0-.09-.06-.18-.11-.33-.19.13-.36.24-.51.35-.63.48-1.33.57-2.08.41-.77-.16-1.33-.82-1.43-1.66-.09-.82,0-1.62.33-2.39.7-1.61,2.32-2.28,3.96-1.64.07.03.15.05.29.1ZM198,34.78c.08.51.15.95.59,1.21.47.27.96.21,1.42-.05.49-.28.78-.73.91-1.26.13-.53.22-1.07.3-1.61.02-.12-.09-.32-.2-.38-.86-.51-1.99-.25-2.48.62-.25.45-.37.97-.54,1.47Z"/>
      <path class="cls-1" d="M181.09,57.43c.18-1,.35-1.95.52-2.94h1.26c-.12.77-.23,1.5-.35,2.22-.32,1.92-.65,3.85-.98,5.77-.08.46-.36.68-.69.47-.17-.11-.21-.4-.35-.68-.13.09-.27.19-.41.29-.48.36-1.01.55-1.62.53-1.08-.04-1.89-.73-1.94-1.81-.03-.67.03-1.37.22-2,.47-1.6,2.02-2.75,4.35-1.85ZM177.75,60.6c0,1.16.93,1.73,1.92,1.1.35-.22.63-.63.81-1.02.19-.39.24-.86.31-1.3.14-.89.04-1.02-.88-1.15-.16-.02-.33-.02-.49.01-1,.18-1.66,1.12-1.67,2.35Z"/>
      <path class="cls-1" d="M274.09,36.07c-.14.2-.26.41-.43.59-.63.65-1.4.78-2.24.55-.71-.19-1.1-.7-1.24-1.41-.57-2.9,1.68-5.05,4.53-4.32.29.07.57.18.86.23.34.05.4.24.35.52-.28,1.63-.55,3.26-.83,4.91h-.81v-.95c-.06-.04-.12-.08-.18-.11ZM273.5,32.48s-.01-.05-.02-.07c-.31.1-.64.15-.92.31-.73.39-1.31,1.65-1.19,2.47.11.77.68,1.16,1.39.9.27-.1.52-.3.72-.51.58-.61.8-1.4.98-2.19.16-.71.03-.86-.7-.92-.08,0-.17,0-.25,0Z"/>
      <path class="cls-1" d="M259.59,37.12v-.94c-.07-.05-.14-.1-.2-.15-.08.16-.14.34-.25.47-.6.73-1.39.93-2.29.74-.92-.19-1.48-1.06-1.42-2.23.02-.44.11-.89.24-1.31.58-1.81,2.13-2.69,4.01-2.3.4.08.8.22,1.2.29.37.06.41.27.35.57-.24,1.42-.47,2.84-.71,4.26-.12.7-.13.7-.94.6ZM258.83,32.48l-.03-.09c-.35.13-.74.2-1.03.41-.8.58-1.11,1.44-1.06,2.39.05.85.87,1.26,1.6.8.34-.21.65-.54.84-.89.28-.54.47-1.12.63-1.71.19-.69.04-.86-.69-.91-.08,0-.17,0-.25,0Z"/>
      <path class="cls-1" d="M302.66,61.82c-.1.17-.17.37-.3.51-.68.75-1.59.96-2.49.61-.75-.29-1.17-1-1.15-2.02,0-.38.04-.77.13-1.13.51-2.05,2.17-3.06,4.24-2.59.47.11,1.11.11,1.34.42.21.28-.01.9-.08,1.37-.19,1.21-.41,2.42-.59,3.63-.06.38-.31.42-.57.35-.12-.03-.23-.24-.27-.39-.05-.18-.01-.39-.01-.58l-.24-.17ZM299.96,60.87c.01.32.1.75.58.97.48.22.92.07,1.29-.24.69-.58.97-1.4,1.17-2.25.21-.9-.06-1.2-1.01-1.13-.08,0-.16.02-.24.04-1.01.22-1.76,1.26-1.78,2.61Z"/>
      <path class="cls-1" d="M207.72,37.18v-1.12c-.25.24-.41.39-.56.54-1.09,1.15-2.98.9-3.45-.51-.44-1.33-.09-2.57.75-3.64.82-1.06,1.98-1.26,3.23-1.08.46.07.9.24,1.35.33.32.06.36.23.32.5-.26,1.55-.52,3.1-.79,4.65-.1.56-.51.22-.86.33ZM204.8,34.95c.03.45.1.88.55,1.09.44.21.87.13,1.26-.17.16-.12.31-.26.42-.42.56-.75.82-1.61.91-2.53,0-.1-.1-.27-.19-.32-.7-.33-1.61-.15-2.15.41-.52.54-.72,1.21-.8,1.93Z"/>
      <path class="cls-1" d="M279.26,50.09v-1.15c-.23.21-.38.32-.5.45-.49.55-1.1.87-1.84.8-1.19-.11-1.83-.85-1.84-2.06-.02-1.88.9-3.34,2.38-3.8,1.13-.35,2.19,0,3.26.31.09.03.19.26.17.38-.24,1.55-.52,3.1-.77,4.65-.09.57-.5.26-.85.41ZM276.32,47.7c-.02.6.09,1.02.56,1.25.48.23.92.09,1.29-.23.24-.2.47-.45.59-.72.25-.57.46-1.16.63-1.76.18-.67.12-.73-.54-.86-.1-.02-.2-.03-.3-.03-1.22-.05-2.21,1.05-2.23,2.35Z"/>
      <path class="cls-1" d="M246.32,37.11v-1.05c-.24.22-.4.35-.53.5-.62.69-1.4.86-2.27.67-.78-.17-1.35-.87-1.36-1.75,0-.62.06-1.27.25-1.85.6-1.84,2.19-2.64,4.21-2.19,1.36.3,1.37.3,1.16,1.68-.17,1.14-.38,2.29-.57,3.43-.12.67-.13.67-.89.57ZM243.4,34.92c0,.51.12.93.57,1.14.45.21.9.12,1.26-.19.9-.78,1.18-1.85,1.32-2.97.01-.09-.11-.24-.2-.28-.72-.34-1.66-.15-2.2.46-.48.54-.7,1.19-.75,1.85Z"/>
      <path class="cls-1" d="M250.38,61.84c-.11.16-.19.35-.32.49-.65.72-1.57.95-2.44.63-.78-.29-1.2-.96-1.18-1.99,0-.43.04-.87.15-1.28.51-1.96,2.14-2.93,4.15-2.51.51.11,1.02.27,1.55.41-.28,1.71-.56,3.37-.83,5.03-.06.37-.3.38-.58.36-.36-.02-.25-.28-.25-.48,0-.17,0-.35,0-.52-.08-.05-.15-.09-.23-.14ZM247.68,60.77c-.03.44.09.84.53,1.06.47.23.91.09,1.29-.22.17-.13.36-.28.43-.47.31-.79.6-1.6.87-2.4.03-.09-.09-.31-.17-.33-.38-.08-.79-.2-1.16-.14-1.06.17-1.79,1.23-1.79,2.5Z"/>
      <path class="cls-1" d="M252.16,44.71c-.27,1.68-.55,3.31-.8,4.94-.06.38-.29.42-.6.39-.35-.03-.26-.27-.26-.47,0-.16-.01-.32-.03-.63-.24.24-.4.37-.53.51-.65.7-1.44.92-2.35.64-.72-.22-1.14-.76-1.24-1.48-.13-.95,0-1.88.48-2.74.77-1.39,2.21-1.96,3.94-1.55.46.11.92.25,1.39.38ZM247.45,47.77s.08.04.12.05c-.02.47.07.9.54,1.13.48.23.91.08,1.29-.22.17-.13.36-.29.43-.47.31-.79.6-1.6.86-2.41.03-.09-.12-.3-.23-.35-.85-.37-1.82-.13-2.33.66-.31.49-.47,1.07-.7,1.6Z"/>
      <path class="cls-1" d="M176.46,37.17c.16-.96.3-1.82.45-2.68.3-1.75.59-3.49.9-5.24.02-.14.23-.34.35-.34,1.69-.02,3.39-.01,5.08,0,.05,0,.09.03.14.04-.04.8-.3,1.05-1.05,1.05-.96,0-1.93.01-2.89,0-.35,0-.52.1-.57.45-.1.72-.22,1.43-.35,2.24h3.45c.02.12.04.15.03.18q-.15.96-1.12.96c-.71,0-1.43,0-2.14,0-.32,0-.46.1-.51.45-.1.77-.28,1.53-.37,2.31-.05.44-.19.67-.67.6-.21-.03-.43,0-.74,0Z"/>
      <path class="cls-1" d="M240.29,35.73c.07.29.16.58.19.86.01.1-.1.28-.2.32-1,.38-2.03.53-3.08.29-1.22-.27-1.99-1.2-2.12-2.52-.14-1.39.12-2.71.85-3.92,1.19-1.98,3.58-2.59,5.76-1.46-.01.06-.01.12-.04.18q-.41.84-1.29.57c-1.34-.4-2.55.05-3.26,1.25-.6,1.02-.83,2.13-.68,3.3.15,1.17,1.11,1.74,2.48,1.48.45-.09.9-.23,1.39-.35Z"/>
      <path class="cls-1" d="M182.02,48.66c.07.33.15.66.23,1.05-1.33.48-2.65.78-4,.14-.87-.41-1.3-1.19-1.42-2.1-.2-1.44.05-2.81.79-4.07,1.03-1.74,2.9-2.44,4.91-1.84.3.09.59.21.9.32-.03.1-.05.16-.07.22q-.4.82-1.26.57c-1.46-.42-2.71.09-3.4,1.43-.49.96-.75,1.98-.56,3.07.18,1.1.87,1.65,1.99,1.54.62-.06,1.23-.22,1.89-.34Z"/>
      <path class="cls-1" d="M205.72,47.86c-.01-1.01.26-1.86.85-2.6.8-.99,2.33-1.35,3.49-.84.73.32,1.11.92,1.18,1.66.13,1.3-.17,2.5-1.18,3.39-.91.81-2.01.95-3.12.51-.96-.38-1.26-1.21-1.22-2.13ZM206.98,47.7c-.02.49.06.94.53,1.2.5.28,1,.18,1.46-.1.74-.44,1.23-1.72,1.01-2.58-.18-.7-.76-1.03-1.49-.84-.91.24-1.5,1.14-1.51,2.31Z"/>
      <path class="cls-1" d="M219.05,34.85c.24-.69.4-1.43.74-2.07.69-1.27,2.27-1.79,3.62-1.29.8.3,1.22.91,1.31,1.73.11.95-.08,1.85-.58,2.67-.72,1.17-2.09,1.7-3.41,1.33-1.03-.29-1.55-1.07-1.54-2.32-.05-.02-.09-.03-.14-.05ZM220.32,34.77s.08.03.12.05c0,.86.38,1.33,1.11,1.34.53,0,.98-.19,1.31-.6.51-.62.7-1.35.61-2.13-.06-.52-.41-.88-.88-.94-.66-.08-1.26.1-1.6.67-.29.5-.46,1.07-.68,1.61Z"/>
      <path class="cls-1" d="M282.12,59.5c0,.8-.2,1.54-.63,2.22-.76,1.19-2.26,1.69-3.58,1.21-.82-.3-1.23-.93-1.33-1.77-.1-.84.06-1.65.45-2.41.69-1.34,2.15-1.96,3.58-1.55,1.01.29,1.51,1.06,1.5,2.29ZM280.86,59.61c.02-.52-.07-1.01-.6-1.26-.59-.28-1.15-.12-1.62.28-.63.54-.84,1.29-.83,2.1.01.93.7,1.41,1.59,1.14.85-.26,1.44-1.17,1.45-2.26Z"/>
      <path class="cls-1" d="M267.47,46.77c-.05.96-.33,1.83-1.01,2.53-.89.91-1.98,1.11-3.16.73-.97-.31-1.49-1.15-1.37-2.38.07-.67.27-1.38.58-1.98.67-1.27,2.2-1.79,3.56-1.33.98.33,1.48,1.2,1.39,2.42ZM266.23,46.72c.05-1.09-.75-1.66-1.77-1.26-.82.31-1.46,1.61-1.28,2.59.15.79.71,1.15,1.49.96.9-.22,1.51-1.1,1.56-2.28Z"/>
      <path class="cls-1" d="M269.43,63.09c-1.93,0-2.78-.84-2.79-2.34,0-.85.19-1.64.67-2.35.75-1.11,2.14-1.58,3.43-1.18.91.29,1.44.99,1.47,2.08.02,1-.24,1.94-.89,2.73-.6.73-1.39,1.04-1.89,1.05ZM267.89,60.58c-.03,1.13.84,1.69,1.86,1.2.77-.37,1.36-1.64,1.18-2.55-.16-.79-.71-1.14-1.5-.94-.91.22-1.51,1.12-1.54,2.29Z"/>
      <path class="cls-1" d="M187.37,61.72c.03.32.06.65.09,1.01-.96.32-1.9.54-2.87.2-.82-.28-1.23-.91-1.35-1.75-.19-1.37.45-3.52,2.22-3.93.56-.13,1.19-.12,1.77-.04.69.1,1.13.63,1.2,1.22.1.85-.22,1.55-.97,1.83-.58.22-1.21.3-1.83.43-.27.06-.56.08-.84.11-.29.03-.36.17-.27.44.17.47.52.7.99.68.59-.03,1.18-.13,1.85-.21ZM184.63,59.9c.71-.13,1.42-.21,2.09-.41.2-.06.41-.42.45-.67.06-.36-.27-.48-.57-.56-.7-.18-1.89.4-1.96,1.64Z"/>
      <path class="cls-1" d="M233.06,48.79c.33,1,.3,1.08-.67,1.28-.4.08-.83.16-1.23.12-1.58-.15-2.37-1.16-2.15-2.77.08-.56.25-1.14.51-1.65.66-1.32,2.27-1.91,3.66-1.42.62.22,1,.65,1.04,1.32.05.72-.18,1.37-.87,1.64-.65.26-1.37.35-2.06.51-.18.04-.36.05-.54.08-.54.09-.63.35-.27.77.36.41.84.43,1.33.36.42-.06.84-.16,1.25-.25ZM230.39,47.01c.71-.13,1.41-.23,2.09-.39.32-.08.54-.34.49-.71-.05-.4-.36-.53-.71-.56-.92-.1-1.74.6-1.87,1.66Z"/>
      <path class="cls-1" d="M185.17,47.97c-.02.7.36,1.1,1.09,1.08.56-.01,1.11-.15,1.71-.24.04.27.1.56.11.84,0,.09-.12.25-.2.26-.75.09-1.51.24-2.25.2-.88-.05-1.49-.59-1.67-1.47-.29-1.38-.02-2.67,1.02-3.67.84-.81,1.9-.96,3.02-.63.61.18,1,.57,1.06,1.23.06.71-.08,1.4-.78,1.68-.69.28-1.46.39-2.2.56-.29.07-.59.09-.91.14ZM185.25,47c.71-.12,1.36-.2,2-.34.36-.08.64-.33.59-.75-.06-.42-.4-.54-.77-.56-.89-.06-1.67.61-1.82,1.66Z"/>
      <path class="cls-1" d="M190.06,37.17c.31-1.88.6-3.68.92-5.47.09-.52.52-.12.78-.3.06.28.11.48.18.77.19-.13.32-.21.44-.31.58-.46,1.25-.61,1.97-.51.98.13,1.5.81,1.4,1.89-.08.84-.25,1.67-.38,2.51-.02.13-.04.26-.06.39-.17,1.14-.19,1.16-1.45.98.11-.71.22-1.42.34-2.13.08-.46.17-.91.24-1.37.14-.89-.44-1.37-1.3-1.07-.82.28-1.15.96-1.31,1.74-.16.8-.3,1.6-.39,2.4-.05.38-.18.53-.56.49-.24-.03-.49,0-.81,0Z"/>
      <path class="cls-1" d="M226.84,37.14h-1.27c.32-1.91.63-3.78.95-5.67h.75c.06.2.11.42.19.7.2-.15.34-.25.48-.35.66-.47,1.39-.61,2.17-.4.73.2,1.17.7,1.11,1.45-.09,1.1-.29,2.2-.44,3.29-.05.32-.12.65-.18.99h-1.24c.08-.56.15-1.09.24-1.62.1-.62.21-1.24.31-1.86.16-.96-.4-1.43-1.32-1.1-.78.28-1.1.93-1.24,1.67-.19.96-.34,1.92-.5,2.91Z"/>
      <path class="cls-1" d="M252.47,37.17c.14-.88.27-1.69.4-2.5.06-.36.13-.72.17-1.08.1-.94-.45-1.36-1.35-1.02-.71.27-1.05.85-1.19,1.54-.19.92-.33,1.86-.49,2.79-.01.08-.04.16-.06.25h-1.25c.32-1.92.63-3.79.93-5.64.62-.21.91,0,.91.67.22-.16.37-.25.51-.35.57-.44,1.23-.57,1.93-.48,1.04.14,1.57.95,1.39,2.14-.16,1.08-.4,2.15-.54,3.23-.05.41-.23.49-.58.46-.23-.02-.46,0-.77,0Z"/>
      <path class="cls-1" d="M189.41,31.44c-.18,1.1-.34,2.14-.51,3.18-.11.65-.22,1.3-.34,1.96-.11.62-.11.62-.84.56-.05-.19-.11-.39-.19-.66-.18.13-.33.21-.47.32-.62.49-1.34.58-2.08.45-.86-.14-1.41-.96-1.27-1.9.18-1.2.38-2.39.6-3.57.02-.13.24-.29.38-.32.29-.05.59-.01.95-.01-.16.95-.31,1.84-.45,2.73-.06.39-.14.79-.15,1.18-.01.54.31.82.85.81.7-.02,1.23-.38,1.47-1.01.24-.64.35-1.34.5-2.01.09-.42.17-.85.2-1.27.02-.36.18-.45.51-.43.26.02.52,0,.84,0Z"/>
      <path class="cls-1" d="M222.62,57.24c-.18,1.1-.35,2.11-.51,3.12-.02.11-.05.23-.06.34-.04.42-.12.86.33,1.11.44.25.88.13,1.28-.11.69-.41.91-1.11,1.03-1.85.15-.85.28-1.7.42-2.59h1.26c-.09.61-.18,1.19-.27,1.77-.18,1.11-.37,2.22-.56,3.33-.05.28,0,.6-.47.61-.46.01-.45-.28-.5-.58,0-.03-.03-.06-.09-.14-.13.08-.25.19-.39.25-.45.19-.9.48-1.37.54-1.39.18-2.24-.77-2.01-2.18.17-1.06.39-2.12.54-3.19.05-.41.23-.49.58-.46.23.02.46,0,.78,0Z"/>
      <path class="cls-1" d="M270.17,44.93c.55-.24,1.05-.54,1.59-.67,1.45-.35,2.46.66,2.2,2.12-.18,1.04-.38,2.09-.52,3.14-.06.44-.23.57-.64.53-.23-.02-.46,0-.74,0,.19-1.14.38-2.21.55-3.28.03-.21.06-.43.05-.64-.02-.48-.31-.77-.8-.77-.75,0-1.3.39-1.54,1.06-.24.66-.35,1.37-.49,2.07-.09.4-.11.82-.22,1.22-.04.14-.22.31-.36.33-.29.05-.59.02-.95.02.17-1.08.33-2.11.5-3.13.11-.69.24-1.37.35-2.06.04-.25.03-.49.4-.51.36-.02.52.12.54.47,0,.06.05.11.06.13Z"/>
      <path class="cls-1" d="M221.47,50.04c.2-1.19.38-2.29.57-3.4.07-.42.13-.85-.27-1.14-.39-.28-.83-.19-1.23.01-.67.34-.95.96-1.08,1.64-.16.8-.3,1.59-.39,2.4-.05.39-.2.52-.57.49-.24-.02-.49,0-.8,0,.18-1.13.35-2.2.53-3.27.11-.67.25-1.33.34-2.01.04-.27.1-.43.41-.42.28,0,.5.03.49.39,0,.08.08.17.09.2.57-.24,1.09-.55,1.65-.68,1.33-.3,2.29.55,2.15,1.9-.13,1.2-.35,2.39-.56,3.58-.02.12-.22.28-.35.3-.29.05-.59.01-.98.01Z"/>
      <path class="cls-1" d="M235.88,57.27h1.26c-.09.57-.16,1.1-.25,1.63-.11.65-.23,1.3-.34,1.96-.13.77.4,1.26,1.17,1.05.86-.23,1.25-.89,1.42-1.69.16-.76.28-1.53.4-2.3.11-.68.1-.68.79-.67.16,0,.33,0,.58,0-.08.48-.15.91-.22,1.34-.22,1.34-.44,2.68-.67,4.01-.02.14-.14.34-.24.36-.17.04-.43.03-.55-.08-.12-.11-.11-.35-.17-.63-.18.11-.29.21-.43.27-.45.19-.89.48-1.36.54-1.41.18-2.19-.69-1.99-2.22.16-1.18.39-2.35.6-3.57Z"/>
      <path class="cls-1" d="M241.42,44.94c.53-.23,1.01-.54,1.54-.67,1.42-.36,2.42.52,2.24,1.98-.14,1.15-.36,2.29-.54,3.44-.04.25-.15.38-.43.36-.28-.02-.56,0-.92,0,.13-.79.25-1.52.37-2.24.08-.46.17-.91.23-1.37.11-.79-.41-1.25-1.18-1.04-.89.24-1.26.93-1.43,1.75-.16.78-.31,1.56-.39,2.35-.05.46-.23.61-.66.56-.21-.02-.43,0-.71,0,.11-.65.2-1.25.3-1.84.18-1.11.37-2.22.56-3.33.04-.24,0-.53.42-.54.37,0,.51.13.52.48,0,.06.06.11.08.13Z"/>
      <path class="cls-1" d="M191.47,44.41c.04.2.08.37.14.63.18-.12.3-.22.44-.28.43-.19.86-.47,1.32-.53.99-.14,2.2.3,2.04,1.83-.14,1.31-.39,2.62-.59,3.95h-1.29c.12-.77.23-1.5.35-2.23.07-.46.17-.91.24-1.37.12-.75-.4-1.22-1.15-1.04-.74.18-1.18.69-1.35,1.39-.2.82-.32,1.66-.47,2.49q-.15.82-.99.79c-.11,0-.23-.02-.4-.04.12-.74.22-1.45.34-2.16.15-.95.32-1.89.47-2.84.11-.68.16-.73.9-.59Z"/>
      <path class="cls-1" d="M225.51,45.48c-.28-.03-.47-.06-.68-.08.03-.24.05-.45.08-.66.03-.26.16-.43.45-.4.31.03.41-.15.42-.42,0-.07,0-.13.02-.2.16-.96.35-1.12,1.46-1.21-.08.59-.16,1.17-.24,1.79.48.03.92.05,1.41.08-.05.32-.05.6-.14.85-.03.1-.25.19-.38.2-1.1.06-1.1.06-1.3,1.14-.1.55-.21,1.11-.28,1.66-.1.74.02.85.83.79.05.31.24.82.12.9-.28.2-.71.29-1.06.25-1.02-.12-1.41-.78-1.21-1.86.17-.92.31-1.85.48-2.83Z"/>
      <path class="cls-1" d="M234.52,57.27c0,.16,0,.27,0,.39-.02.45-.15.7-.71.68-.89-.04-.86-.21-1.02.82-.1.65-.23,1.3-.34,1.96-.11.61,0,.69.61.85.19.05.32.42.41.67.03.08-.14.31-.27.35-1.23.46-2.2-.29-2.04-1.58.09-.79.25-1.57.37-2.35.03-.21.05-.42.08-.68-.2-.03-.38-.06-.64-.1.04-.31.08-.63.13-.94.06-.03.1-.08.14-.07.58.09.67-.28.73-.73.12-.85.49-1.13,1.45-1.12-.09.58-.18,1.16-.28,1.8.48.02.92.04,1.38.06Z"/>
      <path class="cls-1" d="M199.15,49.02c.03.09.05.15.07.21.27.78.08,1.03-.77,1-.95-.04-1.48-.53-1.4-1.48.08-1,.28-2,.43-3,.01-.08,0-.16,0-.26-.21-.03-.4-.05-.63-.08.04-.3.05-.58.13-.84.04-.11.25-.21.38-.21.31,0,.41-.16.44-.42,0-.07.03-.13.04-.2.15-.98.37-1.18,1.46-1.23-.08.59-.17,1.16-.26,1.79.49.02.93.04,1.43.07-.06.37-.12.7-.18,1.07-.34,0-.64.03-.93,0-.44-.06-.58.14-.63.53-.1.75-.23,1.5-.37,2.25-.12.7.04.89.79.79Z"/>
      <path class="cls-1" d="M215.17,31.72c-.05.12-.09.22-.13.31-.31.66-.3.64-1,.5-.76-.16-1.48-.05-1.97.61-.54.73-.79,1.54-.44,2.43.21.53.71.63,1.21.58.44-.04.88-.14,1.36-.23.05.28.12.55.14.82,0,.1-.09.27-.18.3-.77.25-1.55.37-2.35.17-1.14-.3-1.71-1.23-1.57-2.58.04-.44.15-.89.3-1.3.7-1.82,2.76-2.54,4.63-1.6Z"/>
      <path class="cls-1" d="M257.91,44.6c-.1.24-.2.45-.28.66-.11.27-.28.3-.55.24-.4-.08-.83-.18-1.22-.11-1.18.22-1.99,1.91-1.5,3.01.22.49.74.73,1.38.64.2-.03.39-.08.58-.12.19-.04.38-.09.59-.14.03.08.06.13.08.2.22.82.17.92-.66,1.11-.68.16-1.35.18-2.01-.07-.79-.3-1.26-.89-1.29-1.72-.02-.6,0-1.24.17-1.81.59-2.03,2.61-2.84,4.71-1.89Z"/>
      <path class="cls-1" d="M219.91,57.48c-.12.25-.23.45-.31.67-.11.29-.31.33-.56.24-1.85-.69-2.98.98-2.8,2.55.07.62.46.99,1.09,1,.26,0,.53-.04.79-.08.26-.04.51-.1.75-.15.04.06.07.09.08.12.2.98.2,1-.78,1.18-.37.07-.76.1-1.14.08-1.22-.08-1.95-.81-2.06-2.02-.14-1.61.57-3.08,1.81-3.64,1.02-.46,2.05-.38,3.12.07Z"/>
      <path class="cls-1" d="M297.04,61.72c.29,1.03.26,1.1-.74,1.27-.42.07-.87.12-1.28.06-1.23-.17-1.82-.85-1.91-2.1-.14-1.8.79-3.32,2.32-3.73.79-.22,1.58-.15,2.34.15.09.03.19.26.16.36-.2.68-.31.74-1.03.57-.78-.18-1.47-.03-1.97.61-.55.7-.74,1.52-.46,2.39.15.47.57.65,1.03.63.51-.03,1.01-.13,1.54-.21Z"/>
      <path class="cls-1" d="M275.72,54.45c-.39,2.32-.76,4.56-1.14,6.79-.05.3-.17.57.27.77.18.08.22.55.24.85,0,.07-.37.21-.57.22-.94.03-1.42-.51-1.27-1.44.37-2.27.76-4.54,1.12-6.8.04-.26.13-.39.4-.38.3.01.59,0,.95,0Z"/>
      <path class="cls-1" d="M229.76,54.45c-.17,1-.31,1.91-.47,2.82-.23,1.4-.48,2.8-.7,4.21-.02.14.04.4.12.42.5.13.34.58.45.89.02.05-.13.21-.22.25-.88.32-1.76-.29-1.65-1.22.15-1.35.41-2.68.63-4.02.15-.9.34-1.79.45-2.69.06-.5.23-.75.77-.67.17.03.36,0,.63,0Z"/>
      <path class="cls-1" d="M284.31,41.56c-.23,1.35-.44,2.62-.66,3.89-.18,1.04-.36,2.09-.52,3.13-.02.14.04.39.13.42.52.22.35.68.46,1.03-1.24.47-2.06-.12-1.88-1.34.34-2.28.74-4.54,1.13-6.81.02-.12.19-.29.31-.31.32-.04.65-.01,1.03-.01Z"/>
      <path class="cls-1" d="M214.66,50c.46-2.73.91-5.44,1.37-8.17h1.3c-.13.82-.25,1.63-.39,2.44-.28,1.66-.57,3.33-.86,4.99-.16.92,0,.77-.94.79-.13,0-.26-.02-.48-.04Z"/>
      <path class="cls-1" d="M262.91,31.46h.77c.06.28.13.56.22.95.65-.65,1.31-1.13,2.26-1.06-.02.25-.03.47-.05.7-.03.27-.14.4-.47.44-.85.09-1.4.65-1.65,1.41-.28.86-.44,1.76-.64,2.64-.04.19-.08.38-.12.59h-1.25c.32-1.91.63-3.79.94-5.68Z"/>
      <path class="cls-1" d="M243.53,58.2c.68-.68,1.33-1.14,2.21-1.05.12.81.02.97-.7,1.16-.72.19-1.19.69-1.41,1.36-.26.78-.46,1.59-.61,2.4-.19,1.03-.21,1.07-1.4.84.08-.54.15-1.09.24-1.64.2-1.21.4-2.41.6-3.62.05-.29.17-.42.49-.42.31,0,.46.1.46.42,0,.14.06.28.12.54Z"/>
      <path class="cls-1" d="M211.06,57.18c-.04.27-.03.52-.11.75-.05.13-.23.29-.36.31-.95.16-1.52.75-1.79,1.61-.26.82-.46,1.66-.57,2.51-.07.56-.3.71-.8.64-.17-.02-.35,0-.6,0,.14-.87.27-1.66.4-2.46.15-.9.29-1.8.45-2.69.12-.66.13-.66.87-.54.06.24.12.49.2.84.7-.53,1.34-1.15,2.31-.96Z"/>
      <path class="cls-1" d="M202.79,45.17c.51-.3.97-.6,1.45-.83.23-.11.51-.11.87-.17-.05.38-.07.7-.15,1.01-.02.08-.2.15-.31.17-.81.13-1.43.56-1.67,1.32-.33,1.02-.53,2.07-.78,3.11-.02.06-.03.13-.05.23h-1.25c.09-.61.17-1.19.27-1.77.19-1.14.39-2.28.57-3.43.05-.31.16-.47.5-.46.32,0,.45.14.46.45,0,.14.06.27.09.38Z"/>
      <path class="cls-1" d="M234.87,50.04c.31-1.82.61-3.55.88-5.28.05-.32.17-.42.47-.43.33-.01.44.16.48.44.02.13.04.25.08.45.39-.27.71-.55,1.09-.72.36-.17.77-.23,1.26-.37-.05.41-.07.71-.14.98-.03.1-.2.22-.31.23-.92.14-1.52.69-1.79,1.53-.28.86-.47,1.76-.62,2.65-.07.43-.22.57-.63.53-.23-.02-.46,0-.75,0Z"/>
      <path class="cls-1" d="M216.89,32.62c-.22-.03-.41-.05-.67-.08.04-.3.07-.61.14-.9.02-.08.19-.19.29-.19.54-.02,1.09,0,1.72,0-.07.49-.13.93-.21,1.38-.22,1.29-.46,2.57-.65,3.86-.06.4-.21.54-.6.49-.21-.03-.43,0-.76,0,.25-1.54.49-3.03.74-4.55Z"/>
      <path class="cls-1" d="M267.06,37.17c.26-1.57.51-3.05.76-4.56-.24-.02-.42-.04-.66-.06.05-.37.09-.7.14-1.07h1.98c-.08.57-.16,1.12-.25,1.66-.2,1.19-.4,2.38-.6,3.58-.05.32-.17.51-.54.46-.24-.03-.49,0-.83,0Z"/>
      <path class="cls-1" d="M264.33,58.35c-.24-.03-.4-.05-.64-.07.04-.3.07-.59.12-.87.01-.07.13-.16.21-.16.59-.01,1.18,0,1.81,0-.31,1.84-.59,3.61-.91,5.38-.02.14-.26.28-.43.34-.16.06-.36,0-.54.01-.3.02-.36-.09-.3-.39.22-1.2.42-2.41.62-3.62.03-.19.04-.39.06-.63Z"/>
      <path class="cls-1" d="M211.92,62.98c.26-1.6.51-3.09.76-4.62-.25-.03-.42-.06-.67-.09.04-.3.07-.59.13-.86.02-.07.17-.16.26-.16.56-.01,1.12,0,1.75,0-.14.89-.27,1.73-.42,2.56-.15.88-.33,1.75-.45,2.64-.05.42-.2.59-.62.54-.22-.03-.45,0-.75,0Z"/>
      <path class="cls-1" d="M290.05,62.98c.26-1.59.51-3.07.76-4.59-.22-.04-.41-.08-.66-.13.04-.28.06-.57.13-.85.02-.07.17-.16.26-.17.56-.02,1.12,0,1.75,0-.11.69-.2,1.34-.31,1.98-.18,1.09-.4,2.18-.56,3.28-.05.38-.19.53-.57.49-.24-.02-.48,0-.8,0Z"/>
      <path class="cls-1" d="M258.89,50.04c.26-1.55.5-3.03.75-4.54-.22-.04-.39-.07-.65-.11.04-.26.06-.53.12-.8.02-.09.13-.22.2-.23.57-.02,1.15-.01,1.8-.01-.13.85-.24,1.61-.37,2.37-.15.9-.35,1.79-.45,2.69-.06.51-.25.7-.75.63-.19-.03-.39,0-.64,0Z"/>
      <path class="cls-1" d="M224.63,28.65c-.55.62-.96,1.18-1.48,1.6-.24.2-.7.13-1.06.18-.02-.04-.05-.08-.07-.12.35-.51.69-1.04,1.08-1.52.1-.12.39-.12.59-.14.27-.02.54,0,.94,0Z"/>
      <path class="cls-1" d="M281.88,54.57c-.43.48-.82,1.01-1.32,1.41-.25.2-.7.16-1.06.23-.03-.05-.06-.1-.09-.15.37-.52.65-1.13,1.13-1.51.28-.23.86-.08,1.31-.11.01.04.02.09.03.13Z"/>
      <path class="cls-1" d="M264.68,55.18c0-.56.27-.83.81-.82.49,0,.67.2.67.7,0,.54-.3.85-.81.84-.46,0-.67-.24-.67-.72Z"/>
      <path class="cls-1" d="M214.48,55.07c0,.54-.31.85-.81.84-.46-.01-.67-.24-.66-.73,0-.56.27-.83.81-.82.49,0,.67.21.66.71Z"/>
      <path class="cls-1" d="M291.12,55.18c0-.54.29-.83.82-.82.47,0,.69.24.68.71-.02.53-.33.85-.83.84-.45,0-.68-.26-.68-.73Z"/>
      <path class="cls-1" d="M269.64,29.29c0,.54-.3.82-.84.81-.45,0-.72-.28-.7-.71.02-.5.4-.86.86-.84.45.02.68.28.68.74Z"/>
      <path class="cls-1" d="M217.93,30.1c-.5,0-.71-.18-.72-.65-.01-.55.31-.91.82-.9.42,0,.66.25.67.68.01.56-.25.86-.77.87Z"/>
      <path class="cls-1" d="M260.74,41.47c.48,0,.71.21.72.67,0,.54-.27.85-.79.85-.46,0-.74-.24-.74-.67,0-.51.32-.85.82-.86Z"/>
    </g>
  </g>
</svg>