<?xml version="1.0" encoding="UTF-8"?>
<svg id="Capa_2" data-name="Capa 2" xmlns="http://www.w3.org/2000/svg" viewBox="0 0 501.11 99.65">
  <defs>
    <style>
      .cls-1 {
        fill: #fff;
      }
    </style>
  </defs>
  <g id="Capa_1-2" data-name="Capa 1">
    <g>
      <path class="cls-1" d="M48.43,93.2c.58-.05,1.11-.09,1.33.68.06.22.48.37.76.49.66.29,1.51.25,1.78,1.16.03.1.21.17.34.21.13.04.31-.02.42.05.57.36,1.09.79,1.68,1.11.58.31,1.45.03,1.76.93.07.19.45.37.7.38,1.08.03,2.16,0,3.24-.02.17,0,.46-.1.49-.21.24-.91,1.08-.77,1.69-1,.43-.16.93-.19,1.08-.78.05-.18.3-.34.49-.43,1.05-.47,1.8-1.51,3.05-1.57.14-1.01,1.61-.86,1.72-1.93.01-.12.41-.17.59-.3.24-.18.44-.4.65-.61.21-.2.41-.42.61-.62.21-.2.42-.4.62-.61.21-.21.41-.59.63-.61.82-.06.56-.93.99-1.2.44-.27,1.18-.1,1.21-.92,0-.13.12-.35.18-.35,1.01,0,1.03-1.26,1.89-1.47.17-.04.38-.31.42-.5.08-.5.54-.57.78-.85.65-.75,1.85-1.1,1.84-2.2.48-.37.87-.64,1.23-.95.4-.35.96-.67,1.1-1.12.16-.54.4-.82.81-1.18.32-.28.38-.92.45-1.42.14-.91.04-1.87,1.02-2.47.23-.14.28-.69.28-1.04-.03-2.59-.08-5.17-.15-7.76-.01-.46-.02-.95-.63-1.13-.18-.05-.4-.3-.42-.48-.06-.54-.26-.86-.83-.97-.16-.03-.3-.31-.41-.49-.07-.11-.04-.38-.1-.39-.8-.21-1.11-.96-1.65-1.42-.38-.33-.84-.47-.9-1.07-.01-.12-.26-.29-.41-.3-.44-.05-.61-.29-.78-.68-.12-.29-.49-.47-.73-.72-.18-.18-.33-.39-.51-.57-.2-.21-.42-.41-.62-.62-.21-.21-.41-.43-.63-.64-.25-.24-.5-.48-.76-.72-.16-.15-.46-.27-.47-.42-.08-.84-.71-.73-1.3-.74-.29-.49-.22-1.29-1.07-1.29-.15,0-.45-.3-.44-.45.08-.84-.7-.74-1.25-1.06-.05-1.52-.14-3.07-.13-4.61.01-1.79.11-3.57.19-5.36.02-.5,0-.98.64-1.28.31-.15.42-.74.47-.86.64-.56,1.05-.95,1.51-1.29.21-.15.5-.26.76-.27.84-.03,1.69-.01,2.38-.01.6.58,1.1,1.06,1.82,1.76.12.64.06,1.68.95,2.46.3.27.26.97.29,1.49.08,1.5.11,3.01.18,4.51.02.5-.05,1.04.62,1.28.19.07.33.42.39.66.09.41.07.84.13,1.26.06.42.02.98.27,1.21.81.77,1.03,1.72,1.16,2.75.02.17.3.31.45.47.2.22.39.45.59.68.19.22.37.46.58.67.13.13.4.19.43.33.16.76,1.03.83,1.3,1.28.36.6.68.91,1.34.92.08,0,.2.09.22.15.34,1.18,1.37.97,2.2,1.06,2.58.27,5.17.26,7.74-.13.63-.1,1.32-.07,1.69-.81.09-.18.46-.26.71-.31.51-.1,1.02-.14,1.61-.21.28-.43.4-1.13,1.2-1.07.14.01.36-.17.43-.32.44-.88,1.27-1.03,2.2-1.16.17-.53.44-.97.85-1.43.75-.82,1.91-1.39,2.08-2.73.05-.38.6-.7,1.02-1.16q.29-1.88,1.21-2.41c.06-.62.08-1.28.21-1.93.11-.57.12-1.17.71-1.61.3-.22.42-.81.43-1.24.09-2.26.16-4.51.16-6.77,0-2.45-.07-4.89-.13-7.34-.01-.6,0-1.19-.6-1.64-.28-.21-.37-.74-.43-1.14-.11-.74-.11-1.5-.19-2.25-.07-.63.03-1.33-.77-1.68-.2-.09-.31-.55-.35-.85-.08-.6-.05-1.22-.14-1.83-.04-.3-.19-.75-.4-.82-.76-.24-.8-.84-.89-1.45-.08-.56-.12-1.12-.84-1.31-.17-.04-.32-.44-.34-.68-.05-.65-.03-1.31-.03-1.97l-.04.04c.64-.11,1.12-.02,1.17.79.04.76.19,1.49.98,1.9.16.08.28.38.31.59.1.8.19,1.55.98,2.07.21.14.16.69.22,1.06.1.64.13,1.2.78,1.7.41.31.47,1.17.57,1.8.12.79.02,1.64,1.09,1.85.57,1.47,1.85,1.16,2.97,1.16,6.26,0,12.52-.03,18.78-.04.66,0,1.29.04,1.77-.62.17-.23.68-.26,1.04-.27,1.13-.03,2.26-.02,3.39-.01.74,0,1.49-.12,2.04.64.16.22.68.24,1.04.25,1.27.02,2.54,0,3.81,0,.83,0,1.69.16,2.32-.68.16-.21.7-.2,1.07-.2,2.21-.01,4.43,0,6.64,0,.53,0,.99.03,1.36.54.37.51.93.52,1.3.01.37-.5.82-.56,1.36-.55.85,0,1.7-.01,2.54.01.32,0,.74,0,.94.19,1.46,1.4,3.22.45,4.83.65.17.02.39-.22.57-.36.84-.66,1.69-.65,2.52-.05.32.23.74.46,1.1.44,1.12-.04,2.36.42,3.27-.73.15-.18.62-.14.94-.14,2.5-.01,4.99,0,7.49,0,.53,0,1.01.02,1.38.51.17.22.55.31.85.38.32.06.66.02.99.02,33.42.03,66.85.06,100.27.09.88,0,1.76,0,2.81,0,.05.83.13,1.52.13,2.21,0,12.05,0,24.09,0,36.14,0,1.11-.2,2.26.76,3.16-.57.61-1.21.67-1.86.68-.89.01-1.79,0-2.68,0-55.83,0-111.67,0-167.5,0-10.17,0-20.34.01-30.51.02-.94,0-1.87,0-2.81,0,.03.1.06.2.09.3-.48.44-.95.88-1.43,1.32-.1-.04-.19-.07-.29-.11,0,1.07.02,2.15,0,3.22-.02.69.08,1.42-.73,1.84-.18.09-.25.48-.29.74-.06.42-.09.85-.06,1.27.08,1.34-.81,2.19-1.71,2.85-.53.39-.77.71-.82,1.3-.05.63-.16,1.21-.95,1.37-.19.04-.34.29-.5.46-1.11,1.17-2.38,2.26-3.28,3.55-.9,1.3-2.47,1.87-3.16,3.33-.13.26-.72.37-1.11.43-.58.09-.94.49-1.38.74-.93.53-1.18,1.68-2.27,2.03-.54.18-1.12.77-1.32,1.31-.32.85-.88,1-1.61,1.06-.48.04-.77.39-1.15.65-1.08.76-1.97,1.94-3.54,1.83-1.26-.09-2.54-.04-3.8-.09-.91-.03-1.73-.35-2.48-.87-.29-.2-.66-.3-1-.43-.21-.09-.59-.13-.61-.24-.18-.93-1.02-.84-1.61-1.14-.31-.16-.58-.4-.84-.62-.1-.08-.14-.35-.2-.35-.98.03-1.22-.99-1.86-1.3-.77-.37-.81-.78-.67-1.43,0,0-.04.04-.04.04ZM268.3,44.45c-.87.09-1.52.16-2.23.24-.21.55-.31,1.2-1.1,1.26-.15.01-.28.41-.42.64-.11.19-.19.52-.33.55-.86.18-.74.86-.79,1.44-.06.56-.02,1.14-.13,1.68-.05.25-.36.45-.55.67-.16-.2-.42-.38-.46-.6-.18-.96-.3-1.94-.4-2.64-.47-.45-.93-.68-1-.99-.12-.57-.4-.78-.91-.9-.19-.05-.43-.26-.48-.45-.16-.59-.6-.65-1.08-.71-.42-.05-.83-.11-1.34-.18-.14-1.19-1.06-1.22-1.98-1.23-1.04-.01-2.07.02-3.11-.02-.92-.03-1.68.15-1.82,1.22-.78.09-1.47.18-1.83.22-.56.49-.85.83-1.21,1.05-.72.46-.93,1.4-1.78,1.79-.22.1-.31.77-.81.98-.19.08-.33.44-.36.68-.44,3.28-.55,6.56-.02,9.84.05.29.19.77.37.81.68.16.65.66.8,1.15.14.46.4,1.03.77,1.26.67.4,1.71.26,1.91,1.35,0,.05.16.1.24.12.91.14,1.88.14,2.43,1.11.07.13.44.11.67.11,1.6,0,3.2,0,4.8-.02.27,0,.68-.03.78-.2.56-.98,1.62-.81,2.48-1.12.21-.52.3-1.14,1.07-1.12.13,0,.39-.22.38-.33-.06-.81.74-.74,1.16-1.14-.02-1.16.69-2.34-.03-3.59h-3.26c-.45.54-.75.92-1.08,1.27-.33.35-.68.68-1.12,1.12h-5.57c-.56-.51-.89-.79-1.21-1.09-.19-.18-.47-.36-.51-.58-.09-.46-.29-.71-.71-.94-.47-.26-.39-.77.12-.92.58-.17,1.19-.28,1.8-.28,2.92-.02,5.84-.03,8.76.02,1.42.02,2.8.08,3.82-1.15.08-.1.24-.15.31-.19,0-.64-.03-1.16,0-1.67.05-.78.08-.78.98-.63.24.44.41,1.13.66,1.16.81.1.81.8,1.08,1.24.54.06,1.02.08,1.47.17.26.05.63.15.72.34.37.82,1.13.77,1.8.87.65.1,1.32.04,1.97.13.4.06.94.15,1.12.43.38.6.89.61,1.45.65.46.03.91.12,1.5.19-.06.75-.12,1.42-.17,2.12-2.48.33-4.8.35-7.16,0-.2-.79-.38-1.5-.55-2.16-1.71-.47-3.28-.29-4.92-.05-.14.99-.32,1.88.7,2.51.23.14.36.5.44.79.15.49.23,1,.32,1.41.43.2,1.02.3,1.06.51.21,1.11,1.12.95,1.84,1.18.28.09.68.24.77.46.22.59.66.6,1.14.6,1.55.01,3.11.06,4.66.01.75-.02,1.67.19,2.01-.87.03-.09.23-.18.36-.19.99-.11,1.9-.31,2.36-1.38.12-.27.68-.34.84-.62.44-.76.21-1.88,1.29-2.29.05-.02.09-.18.07-.26-.19-1.15.73-2.57-.81-3.41-.09-.05-.14-.24-.16-.37-.15-1.09-1.37-1.24-1.79-2.09-.76.07-.82-.63-1.1-1.1-.84-.05-1.64-.06-2.42-.17-.39-.05-.95-.16-1.11-.44-.36-.62-.88-.62-1.44-.67-.7-.06-1.41-.11-2.11-.19-1.62-.18-1.85-.51-1.54-2.25,1.94-.38,3.88-.32,5.85.04.13.37.26.7.37,1.02.58.15,1.25.01,1.35.83.02.14.35.32.54.33.87.04,1.8.3,2.38-.72.16-.29.57-.43.9-.67-.05-.73-.11-1.42-.16-2.13-.63-.17-1.22-.27-1.17-1.06,0-.14-.2-.4-.31-.41-.8-.02-.83-.77-1.15-1.21-.8-.07-1.54-.14-2.38-.22-.06-1.21-.95-1.22-1.82-1.24-.99-.02-1.98-.02-2.97,0-.87.02-1.76.03-1.82,1.24ZM182.76,33.09c-.11.23-.15.54-.31.63-1.17.63-.93,1.71-.93,2.72,0,8.42,0,16.84,0,25.27,0,.42-.03.85.03,1.27.04.25.18.51.35.71.35.41.74.78,1.12,1.17h3.38c.25-.46.36-.95.67-1.15.62-.42.64-.99.64-1.61,0-4.94.01-9.88-.02-14.82,0-.53-.21-1.09-.45-1.57-.34-.68-.36-1.3-.08-1.97.64.45,1.2.85,1.87,1.32,0-.02.02.12.05.25.17.76-.1,1.78,1.13,1.95.09.01.22.22.21.33-.07.8.53.99,1.07,1.15.27.93-.02,2.06,1.24,2.36.1.02.23.23.22.33-.1.84.66.88,1.09,1.14.12.71.23,1.36.35,2.05.59.18,1.19.36,1.15,1.16,0,.14.18.4.31.42.73.14.79.74.9,1.28.11.57.28.93.85,1.31.56.37.78,1.24,1.5,1.61.1.05.08.35.12.53.09.41.19.82.3,1.3.49.21,1.18.28,1.15,1.11,0,.16.37.34.57.51.2.17.5.3.59.52.21.51.6.54,1.03.54.52,0,1.04,0,1.55,0,1.51-.02,2.59-1.05,2.59-2.53,0-9.03.02-18.07,0-27.1,0-.68-.16-1.36-.26-2.12h-4.55c-.51.75-.91,1.34-1.36,2,.95.56.88,1.5.88,2.44,0,4.7.02,9.41.02,14.11,0,.38.02.76-.05,1.13-.08.47-.66.64-.79.25-.23-.72-.84-.78-1.34-.98-.33-.93-.06-2.11-1.29-2.49-.06-.02-.11-.17-.1-.25.08-.84-.63-.92-1.1-1.15-.4-.77-.13-1.71-1.09-2.23-.63-.34-.38-1.64-1.39-1.62-.45-.9.01-2.11-1.27-2.41-.16-.8-.68-1.31-1.36-1.7-.08-.05-.11-.27-.1-.4.14-1.31-1.41-1.71-1.55-2.87-.99-.23-1.02-1.09-1.22-1.84-.05-.18-.12-.47-.22-.49-.87-.14-.86-1-1.26-1.56h-4.84ZM156.02,33.12c-.27.47-.38.98-.69,1.16-.63.36-.62.87-.61,1.45.02.71.01,1.41.01,2.12,0,7.24,0,14.49.01,21.73,0,.46-.09,1.14.17,1.35.83.69.7,1.56.77,2.44.04.49.23.97.38,1.54h2.09c4.33,0,8.66,0,12.99,0,1.83,0,3.67,0,5.5,0,.65,0,2.17-1.04,2.21-1.59.09-1.11.19-2.23-.22-3.48h-17.62c-.2-3-.06-5.83-.13-8.77.74-.05,1.29-.11,1.84-.11,3.95,0,7.9,0,11.86-.01.55,0,1.09-.08,1.7-.13.34-1.68.38-3.23,0-4.98h-15.22c-.24-2.65-.21-5.1-.04-7.66,5.58-.07,11.01.03,16.37-.05.6-1.77.59-3.33.06-4.98h-21.43ZM211.2,33.15c-.53,1.16-.34,2.3-.34,3.42,0,8.51,0,17.02,0,25.53,0,.65.12,1.3.22,1.94.09.53.44.82.99.82,1.21,0,2.42,0,3.79,0,.14-1.1.34-2.07.36-3.03.04-2.44-.01-4.89,0-7.34,0-.64.08-1.29.13-2.07.79-.06,1.48-.15,2.17-.15,2.92-.04,5.83-.05,8.75-.08.6,0,1.23.08,1.52-.71.06-.18.45-.25.71-.34.79-.26,1.84-.1,2.1-1.26.02-.08.24-.15.37-.16.46-.03.65-.27.71-.71.03-.21.15-.5.32-.59.98-.54,1.03-1.47,1.13-2.41.04-.41.06-1,.31-1.17.86-.58.65-1.4.66-2.17,0-.8.29-1.7-.68-2.28-.22-.14-.22-.68-.28-1.04-.09-.55-.11-1.12-.22-1.67-.05-.24-.21-.58-.41-.66-.5-.19-.76-.46-.85-1-.03-.19-.38-.32-.58-.47-.2-.16-.53-.29-.57-.49-.13-.63-.58-.63-1.05-.72-.54-.1-1.35-.14-1.55-.48-.5-.87-1.22-.77-1.94-.78-4.75-.03-9.5-.04-14.25-.05-.51,0-1.02.07-1.51.11ZM132.94,56.23c.35-.27.79-.46.98-.79.32-.59.8-.56,1.32-.56,2.92,0,5.83,0,8.75.02.45,0,.91.08,1.44.13.09.61.15,1.12.24,1.62.04.22.09.56.24.62.93.4.83,1.27.99,2.02.17.79-.07,1.73.97,2.15.13.05.17.41.2.63.08.5.14,1.01.17,1.2.58.57.94.95,1.34,1.29.19.16.46.32.71.33.98.04,1.96.02,2.7.02.53-.53.88-.9,1.24-1.24.53-.5.55-.86-.09-1.16-.45-.21-.63-.47-.72-.92-.15-.78.04-1.71-.99-2.12-.18-.07-.2-.59-.25-.91-.08-.51-.07-1.04-.19-1.54-.06-.29-.23-.7-.45-.78-.73-.24-.67-.81-.74-1.36-.06-.45-.07-1.18-.32-1.29-.97-.44-.79-1.27-.92-2.03-.12-.7.03-1.54-.93-1.87-.17-.06-.28-.45-.32-.71-.09-.55-.12-1.11-.18-1.73-.76-.09-1.03-.53-1.04-1.24,0-.51-.08-1.03-.19-1.53-.07-.36-.15-.92-.38-1.01-.84-.31-.79-.99-.81-1.62-.03-.75-.26-1.27-1.09-1.32-.05-.61-.09-1.12-.14-1.63-.03-.23-.03-.6-.16-.65-1.23-.53-.99-1.67-1.18-2.65-.07-.36-.14-.95-.33-1-.77-.23-.82-.93-1.05-1.44h-4.68c-.53.6-.88.99-1.21,1.4-.14.17-.28.37-.33.58-.27,1.18.01,2.57-1.32,3.33-.14,1.09-.41,2.07-1.15,2.98-.41.51-.29,1.44-.44,2.17-.06.3-.16.77-.36.84-.71.26-.65.84-.74,1.38-.07.41-.03,1.06-.26,1.18-1.02.53-.86,1.46-1,2.31-.11.68-.07,1.43-.94,1.74-.17.06-.25.47-.29.73-.08.51-.11,1.02-.17,1.61-.96.31-1.08,1.13-1.11,2.01-.04.95-.12,1.88-1.23,2.15-.07.75-.13,1.41-.18,2.04-.34.27-.88.5-.91.78-.17,1.45-.78,2.94.14,4.53,1.02,0,2.09.03,3.16,0,1.15-.04,1.36-.24,1.63-1.35.09-.36.05-.97.23-1.05,1.11-.46.88-1.42,1-2.27.1-.68.04-1.43.92-1.74.17-.06.26-.47.3-.73.08-.51.11-1.02.15-1.52ZM237.83,64.94c.93-.08,1.65.03,2.2-.23.58-.27,1.18-.82,1.42-1.39.24-.58.05-1.34.05-2.2-1.09-.07-2.06-.15-3.03-.18-.56-.02-.89.29-.86.87.05.97.13,1.94.22,3.12Z"/>
      <path class="cls-1" d="M11.62,52.09c.18.08.47.2.77.33.31.89.25,1.86,1.33,2.46.72.41,1.11,1.42,1.57,2.22.38.36,1.27.11,1.21,1.06,0,.13.28.32.47.42.2.11.48.09.64.23,1.17,1.02,1.17,1.03,2.39,1.18.18.86.81,1.16,1.69,1.16,2.63,0,5.26.06,7.88.02.86-.01,1.78-.03,2.23-1.1.1-.24.74-.26,1.17-.39.2-.4.17-1.02.88-1.07.16-.01.4-.29.42-.46.04-.52.36-.72.72-1.05.42-.38.54-1.13.69-1.74.16-.67.08-1.39.86-1.81.2-.11.26-.57.29-.87.11-1.17.16-2.34.27-3.51.07-.77,0-1.59.8-2.14.22-.15.22-.69.24-1.05.08-1.31.1-2.63.18-3.94.03-.54-.04-1.15.71-1.38.17-.05.26-.44.33-.69.14-.54.24-1.09.36-1.66.63-.11,1.36-.02,1.7-.34.88-.85,1.51-.99,2.42-.01.32.35,1.16.21,1.53.26.56.56.99.99,1.66,1.65.15.67.12,1.76,1,2.59.29.28.24.98.25,1.49.02.75-.04,1.5-.09,2.25-.02.27-.02.65-.19.8-.87.74-.8,1.75-.87,2.72-.06.75-.08,1.5-.12,2.27-.3.44-1.19.26-1.13,1.09.01.16-.34.44-.56.5-.4.11-.7.25-.73.71,0,.09-.04.26-.07.26-1.13.05-1.17,1.24-1.82,1.81-.83.73-1.97,1.32-2.17,2.64-.05.29-.44.52-.67.78-.17.19-.32.4-.49.6-.19.23-.38.45-.57.67-.22.26-.46.5-.67.77-.08.11-.12.36-.18.36-.85.03-1.13.63-1.36,1.3,0,.03-.08.05-.13.05-.83.04-.86.72-.91,1.26-.43.12-.74.2-1.1.3-.12.61-.05,1.35-.95,1.49-.13.02-.25.47-.27.73-.07.65-.08,1.31-.13,1.97-.07.9-.21,1.04-1.12,1.04-1.08,0-2.16-.06-3.25-.06-8.94,0-17.88,0-26.82,0-.6,0-1.2,0-1.91,0V28h8.85c0,.44.01.84,0,1.25-.08,2.63-.25,5.26-.24,7.89.01,2.49.2,4.98.33,7.46.02.32.05.81.24.92,1.01.56.73,1.52.86,2.36.11.74-.04,1.49.89,2.03.47.27.46,1.35.71,2.17Z"/>
      <path class="cls-1" d="M44.42,26.9c.68-.19,1.28-.26,1.61.61.07.19.53.32.83.34.89.06,1.79.08,2.68.08,6.97,0,13.93-.01,20.9-.01.51,0,1.04.03,1.54.13.16.03.32.31.36.51.02.11-.15.34-.29.41-.38.18-.78.3-1.17.47-.2.09-.52.22-.53.35-.05.82-.75.71-1.22.89-.31,1.29-1.89,1.87-1.64,3.35-.62.27-1.32.36-1.26,1.2,0,.11-.11.31-.21.33-1.1.25-.86,1.21-1.01,1.93-.17.81-.15,1.6-.8,2.32-.41.45-.39,1.31-.5,2-.09.6-.07,1.22-.11,1.83-.02.23,0,.58-.14.66-1.16.74-.78,1.9-.83,2.93-.02.47,0,.94.05,1.41.03.27.04.68.21.78.85.53.69,1.35.77,2.13.08.78.09,1.61,1.04,1.98.19.07.25.46.38.69.11.19.22.49.36.51.56.07.81.32.86.89.02.2.34.38.52.57.21.22.43.44.65.65.22.21.44.41.66.62.19.18.49.35.53.56.25,1.29,1.05,1.91,2.32,2.05.27.61.46,1.25.8,1.79.32.51,1.13.64,1.17,1.44,0,.1.41.16.6.28.22.14.57.33.58.51.03.76.55.89,1.15.86.09.76.06,1.47.87,1.7.07.02.13.14.15.23.37,1.46.6,2.92-.24,4.54-.74-1.43-1.86-1.32-3.11-1.02-.06.17-.11.39-.21.59-.34.66-1.06.74-1.35.09-.19-.43-.37-.68-.83-.82-.21-.06-.33-.4-.51-.6-.2-.23-.37-.57-.62-.64-.41-.13-.66-.28-.72-.73-.02-.15-.19-.4-.31-.41-.85-.05-.81-.8-1.04-1.34-.91-.34-2.22.02-2.4-1.49-4.16-.35-8.23-.17-12.35-.05-.3.58-.26,1.42-1.2,1.35-.12,0-.35.21-.37.35-.07.56-.37.79-.91.88-.21.04-.49.33-.52.54-.07.51-.29.71-.8.78-.18.02-.32.37-.48.56-.16.2-.31.56-.49.59-.78.1-.74.73-.92,1.29-.97.07-1.96.4-2.57-.79-.07-.13-.49-.09-.72-.12-.59,1.24-.46,2.22.77,2.87-.75.7-.93.75-2.31.56-.03-.43-.01-.89-.1-1.34-.06-.34-.21-.69-.39-.99-.18-.29-.63-.52-.64-.79-.04-.88.06-1.77.1-2.66,1.18-.63.79-1.88,1.15-2.95.51-.15,1.27-.17,1.22-1.08,0-.08.19-.25.29-.25.89.01.8-.75.96-1.28.36-.08.68-.15,1.05-.23.12-.57.19-1.21,1.02-1.25.11,0,.2-.37.31-.56.13-.22.25-.61.41-.63.57-.06.81-.32.91-.87.04-.2.38-.34.59-.5.17-.13.5-.26.5-.39,0-.91.73-.82,1.08-.89,1.48-1.84,2.5-3.77,4.31-5.3.15-4.4.37-8.95-.04-13.58-.64-.18-1.35-.28-1.3-1.17,0-.14-.32-.29-.48-.44-.19-.18-.49-.33-.54-.54-.09-.42-.25-.64-.67-.79-.22-.08-.38-.38-.51-.61-.39-.67-.78-1.25-1.45-1.78-.7-.55-1.3-1.21-2.14-1.6-.18-.08-.29-.35-.38-.56-.34-.83-.87-1.46-1.75-1.79-1.01-.38-1.06-1.31-1.16-2.2,0,0-.04.04-.04.04Z"/>
      <path class="cls-1" d="M393.94,57.32c1.11.02,2.23.04,3.43.07.05.58.12.99.12,1.39.01,2.58,0,5.17.01,7.75,0,.52-.12.9-.53,1.34-.46.5-.57,1.31-.89,2.16-1.88.39-3.9.31-6.05.07,0-.67-.06-1.23.02-1.77.06-.45.69-.6.83-.23.53,1.37,1.7.85,2.64.96.45.05.92-.13,1.54-.24.03-.74.07-1.5.11-2.37-1.67-.07-3.19-.14-4.7-.2-.21-.69-.34-1.23-.54-1.75-.11-.27-.3-.63-.53-.7-.64-.2-.75-.64-.75-1.19,0-.7-.1-1.42,0-2.11.09-.66.13-1.37.92-1.76.32-.16.44-.74.77-1.35.34-.16,1.33.06,1.12-1.08h2.19c.11.34.21.69.32,1.04-1.34-.35-1.58,1.27-2.44,1.33-.41,1.2-.77,2.24-1.05,3.08.42,1.1.8,2.07,1.19,3.08,1.03.16,2.09.31,3.19-.21.51-1.92.6-3.86.11-5.96-.71-.09-1.31-.42-1.03-1.35Z"/>
      <path class="cls-1" d="M337.59,66.28c-.08-.43-.14-.79-.22-1.2-.29-.1-.59-.21-.89-.32-.04-.14-.08-.27-.11-.4-.18-.75-.07-1.63-1.07-1.96-.16-.05-.23-.36-.33-.56-.09-.21-.12-.58-.25-.61-1.18-.31-.87-1.4-1.21-2.28-.46-.32-1.23-.49-1.33-1.34,0-.08-.47-.11-.85-.18-.41,2.99-.04,5.9-.22,8.88h-1.31v-12.5q.88-.31,2.31.04c.09.36.21.76.27,1.16.07.48.13.92.73,1.06.19.05.49.29.48.42-.05.83.63.92,1.12,1.12.12.71.24,1.36.36,2.08.79.08,1.31.46,1.23,1.19.68.46,1.27.86,1.93,1.3.56-.54.53-1.29.53-2.02,0-1.83-.01-3.67,0-5.5,0-.61.09-1.18,1.12-.87.19,4.1-.02,8.25.06,12.49h-2.34Z"/>
      <path class="cls-1" d="M432.27,34.46c2.05.07,4.06-.41,6.07.14.28.83.34,1.77,1.22,2.28.16.09.26.4.26.61,0,1.17-.05,2.34-.09,3.51-.02.44-.13.81-.61,1.01-.18.07-.38.31-.42.5-.09.45-.27.68-.75.86-.34.13-.53.67-.91,1.2h-3.66c-.05.91-.1,1.69-.16,2.62-.72-.04-1.34-.08-2.06-.12-.05-.46-.12-.82-.12-1.18,0-2.77.01-5.54,0-8.31,0-.9-.05-1.77.84-2.36.19-.13.25-.47.39-.76ZM435.2,35.56c-.59.5-1.01.83-1.39,1.2-.18.18-.38.43-.41.67-.17,1.48-.23,2.97.04,4.11.72.64,1.2,1.07,1.83,1.63,1.59.13,1.79-.01,2.2-1.67.06-.26.12-.68.27-.73.69-.22.78-.72.77-1.31,0-.61.08-1.22-.71-1.5-.16-.06-.23-.47-.29-.73-.12-.49-.2-.99-.32-1.58-.78-.03-1.52-.07-2-.09Z"/>
      <path class="cls-1" d="M317.45,32.05c.24-.34.46-.7.73-1.01.54-.63.92-.59,1.41.04.27.35.62.64,1.07,1.09.03.35.05.92.15,1.46.06.29.22.74.42.79.96.25.82,1.01.9,1.69.1.84-.1,1.74.91,2.33.34.2.33,1.02.44,1.57.17.83-.13,1.84.98,2.26.09.68.18,1.36.27,1.99-.48.3-.97.42-1.04-.03-.13-.79-.64-1.05-1.29-1.19-.08-.77-.15-1.47-.24-2.24-.57-.27-1.39-.21-1.62-1.06-.03-.13-.41-.23-.63-.22-1.11.05-2.37-.49-3.17.83-.13.22-.59.24-.95.37-.07.49-.12.99-.22,1.49-.05.26-.16.7-.31.73-.89.18-.69,1-.97,1.58-.33-.02-.64-.03-1.16-.06.12-.99.22-1.91.33-2.82.01-.09.01-.23.07-.27.97-.71,1.03-1.77,1.14-2.83,0-.05.01-.11.04-.13,1.22-.66.93-1.92,1.16-2.96.1-.46.15-.89.67-1.16.23-.11.37-.51.44-.8.12-.5.15-1.02.22-1.53.09.03.18.05.27.08ZM316.99,38.15h3.9c-.14-.56-.12-1.23-.36-1.34-.84-.38-.82-1.06-.87-1.75-.05-.68-.15-1.35-.84-1.9-.16.33-.27.57-.4.8-.35.62-.07,1.66-1.17,1.82-.07,0-.14.24-.15.37-.05.64-.07,1.27-.11,2Z"/>
      <path class="cls-1" d="M423.22,66.28h-2.23c-.06-.31-.16-.58-.16-.84,0-3.38.01-6.75.04-10.13,0-1.42.21-1.74,1.56-1.76,2.29-.04,4.58.07,6.58.11.67.58,1.12.98,1.76,1.54v4.39c-.55.32-1.35.23-1.51,1.06-.03.15-.56.27-.87.28-.98.05-1.97.03-2.95.07-.69.02-1.38.09-2.22.16v5.13ZM428.24,54.8h-4.95c-.23,1.73-.38,3.34.14,5.03h4.34c.67-.66,1.14-1.12,1.69-1.66.19-1.4.17-1.38-.81-2.47-.2-.22-.26-.57-.41-.9Z"/>
      <path class="cls-1" d="M410.67,44.48c-.47-1.73-.45-12.36.03-13.79h8.5c.11,1.05.06,1.12-.84,1.11-1.41-.03-2.82-.1-4.23-.08-1.92.03-2.37.52-2.39,2.47,0,.05,0,.09,0,.14,0,2.19.42,2.62,2.64,2.64,1.08,0,2.17-.02,3.25,0,.42,0,.85.05,1.26.15.13.03.32.28.3.4-.04.19-.21.47-.36.49-.6.07-1.22.08-1.83.08-1.64,0-3.28,0-4.92,0-.47,1.27-.37,2.4-.27,3.51.05.55,1.57,1.66,2.17,1.66,1.55,0,3.11-.03,4.66,0,.85.01.88.1.65,1.24h-8.63Z"/>
      <path class="cls-1" d="M408.52,67.6c-.79-1.62-2.06-1.01-3.02-1.34-.45-1.66-.4-3.17.18-4.73,1.38-.65,2.94-.1,4.34-.42.71-1.2.72-2.36.03-3.68-.56-.03-1.24-.06-1.81-.09-.34.51-.63,1.22-.82,1.2-.98-.13-.66,1.82-1.95,1.09v-1.83c.43-.52,1.35-.25,1.43-1.12.01-.15.53-.34.83-.36.89-.05,1.79-.04,2.68-.04.56,0,1.1-.05,1.33.73.08.27.66.39,1.18.68.3,2.73,0,5.62.19,8.67-1.06,0-1.94.02-2.82,0-.75-.02-1.41.06-1.77,1.26ZM406.59,65.01h3.85c-.48-1.26.77-1.33,1.22-2.14-1.65-.93-3.26-.48-4.95-.31-.04.8-.08,1.49-.13,2.45Z"/>
      <path class="cls-1" d="M400.45,44.37c-.5-2.79.06-5.67-.36-8.55-1.11-.42-2.21-.32-3.47-.07-.09.64-.25,1.32-.28,2-.05,1.36-.03,2.73-.05,4.09-.01.56-.02,1.13-.12,1.68-.06.33-.23.8-.47.9-.46.18-.49-.44-.74-.62-1.21-.87-.94-2.1-.93-3.28,0-1.46,0-2.92,0-4.38,0-.46.04-.92.07-1.53,2.41-.24,4.73-.43,6.86-.15.5.59.91,1,1.22,1.48.21.33.36.76.37,1.15.04,1.69.02,3.39.02,5.08,0,.44-.04.81-.49,1.08-.24.15-.4.49-.51.78-.2.55-.56.54-1.12.33Z"/>
      <path class="cls-1" d="M389.85,31.32c-.38.17-.74.34-1.23.57v2.38c1.31-.35,1.56,1.12,2.54,1.39.12.03.14.41.21.63.07.21.1.53.25.62,1.43.85.6,2.19.75,3.31,0,.04-.02.11-.05.12-1.16.56-.86,1.74-1.11,2.75-.81.09-1.45.4-1.25,1.41h-3.49c-.86-.89-1.55-1.71-2.35-2.39-.37-.32-.52-.62-.52-1.06,0-1.22-.07-2.45.02-3.66.05-.69-.03-1.58,1.01-1.76.04,0,.12-.03.12-.06.15-1.15,1.15-1.18,1.94-1.43.56-.18.7-.56.73-1.06.04-.75.08-1.49.12-2.21,1.49-.43,1.8-.38,2.33.46ZM386.16,35.78c-.26.93-.02,2.05-1.12,2.58l.15,2.16c.82.17.68.89.84,1.45.3,1.07.45,1.19,1.55,1.26.28.02.56-.02.83-.04.2-.35.32-.73.58-.96.26-.22.65-.28,1.03-.42.06-1.09.22-2.12.16-3.14-.19-3.16-.6-3.46-3.77-3.02-.04,0-.08.04-.24.13Z"/>
      <path class="cls-1" d="M310.53,66.32h-5.94c-.48-.52-.92-.97-1.33-1.44-.11-.13-.18-.33-.2-.5-.21-2.25-.27-4.5.26-6.71.43-.36,1.17-.2,1.3-.97.03-.19.61-.37.95-.4.79-.06,1.6,0,2.39-.04,1.23-.08,1.32-.21,1.4-1.43.02-.37.06-.74.1-1.18.35-.02.66-.03,1.06-.05v12.73ZM304.66,59.04c-.13,0-.25,0-.38,0,0,1.31-.02,2.62.02,3.93,0,.29.18.61.36.85.33.41.74.77,1.11,1.14h2.22c.19-.64.23-1.29.99-1.46.15-.03.32-.36.33-.56.03-.84.23-1.78-.07-2.5-.28-.68-.95-1.24-1.42-1.88-.23-.32-.81-.46-1.11-.93-.25-.38-.63-.22-.92.14-.35.45-.75.85-1.13,1.27Z"/>
      <path class="cls-1" d="M446.09,57.38c-.01-.82.34-1.23,1.2-1.13.33.04.66.04.99.02,1.5-.07,1.63-.18,1.77-1.69.06-.66.19-1.14,1.11-.77v12.46h-5.98c-.39-.45-.79-.88-1.16-1.33-.14-.17-.26-.39-.28-.6-.09-.94-.23-1.84-1.23-2.47,1.6-1.1.88-2.91,1.66-4.42.6-.03,1.29-.07,1.97-.1.45,1.02-.32,1.28-1.13,1.54,0,1.59-.06,3.13.02,4.67.05,1.04.34,1.31,1.37,1.44.73.09,1.48.02,1.92.02.56-.72.92-1.22,1.31-1.69.67-.82.54-2.63-.25-3.35-.19-.17-.48-.39-.49-.6-.03-.64-.33-.93-.92-1.03-.11-.02-.27-.15-.3-.26-.23-.92-.92-.76-1.58-.71Z"/>
      <path class="cls-1" d="M438.56,57.31c.42.02.85,0,1.25.08.76.16,1.25.61,1.28,1.45.01.42.06.84.06,1.26.01,1.14-.88,2.13-2.05,2.16-1.4.04-2.8,0-4.11,0-.54.95,0,1.61.08,2.34,1.19.55,2.38.56,3.6.35.46-.08.91-.15,1.12-.7.22-.59.69-.51,1.28-.28-.03.7-.07,1.42-.11,2.22-2.47.3-4.84.31-7.27-.02-.1-.54-.23-1.03-.28-1.53-.05-.49-.13-.88-.62-1.17-.22-.13-.4-.53-.4-.81,0-.83.1-1.67.16-2.5,1.05-.44.85-1.43,1-2.27.02-.09.06-.17.12-.33.48-.24,1.31-.04,1.48-.94.03-.16.55-.31.85-.33.74-.05,1.49-.02,2.36-.02.08.37.15.71.23,1.06-.74,0-1.48,0-1.91,0-.72.69-1.22,1.17-1.78,1.71-.14,2.1-.06,2.19,2.12,2.19.14,0,.28.02.42,0,.36-.07.82-.05,1.04-.27.44-.45.79-1.01,1.1-1.56.06-.11-.2-.54-.39-.61-.77-.29-.74-.86-.65-1.49Z"/>
      <path class="cls-1" d="M445.17,35.51c-.81,1.24-1.02,1.34-2.56,1.19-.12-.54-.33-1.09.56-1.21.09-.01.23-.06.24-.12.36-1.4,1.51-.95,2.41-1,.89-.05,1.78-.01,2.46-.01.52.54.92.89,1.24,1.3.19.23.37.55.37.83.03,2.35.03,4.69.03,7.04,0,.14.02.31-.05.41-.14.21-.32.45-.53.52-.12.05-.42-.16-.53-.32-.77-1.14-.76-1.14-1.39.04-.04.08-.13.13-.35.32-1.05,0-2.26,0-3.47,0-.61,0-.88-.3-1-.92-.26-1.31-.25-2.6-.07-3.56.63-.6,1.01-1.03,1.46-1.35.32-.22.73-.37,1.12-.42.78-.09,1.57-.09,2.44-.14v-2.48c-.78-.04-1.55-.08-2.38-.12ZM443.7,40.75c0,.4-.07.74.01,1.03.15.56.17,1.25.97,1.36.72.1,1.49.4,1.91-.57.08-.18.37-.25.53-.41.18-.18.45-.39.47-.6.05-.67,0-1.35,0-2.04-.95-.17-1.94-.42-2.39.23-.4.59-.81.9-1.5.99Z"/>
      <path class="cls-1" d="M459.39,61.21c.65,0,1.31,0,1.96,0,.7,0,1.44.11,1.69-.85.04-.16.34-.33.54-.37.75-.15.68-.64.53-1.21-.44-.32-1.16-.28-1.3-1.08-.1-.53-.78-.48-1.05-.23-.68.61-1.26,1.35-1.98,2.15-.7-.07-.79-.29-.57-2.12.45-.23,1.06-.24,1.33-.97.13-.35,1.08-.62,1.61-.54.74.1,1.7-.06,2.12.99.12.29.66.41,1.19.72,0,1.72-.02,3.54.01,5.36.01.78-.3,1.68.81,2.14.43.18.19.91-.3,1.07-.04.01-.09.02-.14.02-2.29,0-4.59,0-6.88-.02-.22,0-.43-.15-.81-.28-.1-1.06-.19-2.16-.29-3.25.1.03.2.05.3.08.42-.42.83-.85,1.25-1.27,0-.11,0-.22,0-.33ZM460.18,64.82c2.02.46,2.42.34,3.79-1.03.44-.44.33-.9.1-1.34h-3.74c-.05.86-.1,1.58-.15,2.37Z"/>
      <path class="cls-1" d="M364.22,43.22c.02.4.04.8.06,1.26h-3.28c-.51-.96-.92-1.77-1.36-2.56-.23-.41-.35-.89.09-1.11.48-.24.55-.82.82-.99.83-.54,1.3-1.67,2.55-1.6.78.04,1.58-.08,2.45-.13v-2.42h-3.45c-.09.21-.23.4-.26.61-.09.58-.49.64-.94.56-.5-.09-.52-.5-.45-.88.07-.41.22-.81.36-1.34,1.95-.41,3.94-.35,6.09-.1.09.81.23,1.58.26,2.36.04,1.17,0,2.35,0,3.53,0,.57.04,1.05.55,1.5.74.64.35,1.55.34,2.48h-2.17c-.19-.88-.73-1.35-1.69-1.13.11-.83.68-1.23,1.5-1.45-.04-.79-.07-1.51-.1-2.13-1.68-.83-2.73.14-3.66,1.03-.69.66-.06,1.57.03,2.51h2.27Z"/>
      <path class="cls-1" d="M454.09,33.09c-.27-.75-.25-1.15.43-1.39.45-.16.84-.51,1.35-.83.43,1.12,1.3,1.05,2.28.88.71-.13,1.03.18.92.85-.15.92-.38,1.77.85,2.16.21.07.35.66.35,1.01.02,2.67.01,5.35-.02,8.02,0,.59-.07.59-1,.61-.05-.78-.13-1.56-.14-2.35-.02-1.17-.14-2.37.03-3.52.2-1.28-.74-1.91-1.26-2.78-.09-.15-.41-.2-.63-.21-.61-.03-1.21,0-1.67,0-.51.67-.94,1.23-1.36,1.78l-.31-.11v7.23c-.44.05-.74.08-1.16.12v-10.2c.71-.01,1.39-.04,2.08-.04.33,0,.65.08.98.07.44,0,.7-.25.71-.7,0-.46-.26-.69-.71-.68-.55.01-1.11.05-1.71.08Z"/>
      <path class="cls-1" d="M481.92,44.5h-3.27c-.49-.63-.92-1.18-1.54-1.97v-2.61c.53-.2,1-.39,1.48-.56.22-.08.6-.06.66-.2.56-1.28,1.7-.87,2.67-.97.42-.04.83-.09,1.36-.15v-2.36h-3.53c-.12.35-.24.69-.36,1.03-.85.17-1.59.1-2.44-.57.48-.24.88-.34,1.13-.59.24-.25.33-.65.54-1.1h5.9c.08,1.03.2,1.95.22,2.86.05,1.55.06,3.1.05,4.66,0,.7-.06,1.41-.21,2.09-.11.49-.68.58-.99.21-.26-.32-.17-1.1-.86-.84-.32.12-.49.63-.81,1.07ZM479.76,43.16h1.83c.67-.64,1.14-1.08,1.7-1.6v-1.96c-3.19-.84-4.53.52-3.53,3.56Z"/>
      <path class="cls-1" d="M43.38,5.07c.53-.01,1.07-.06,1.1.72,0,.16.15.41.27.44,1.02.22.89,1.1,1.01,1.79.14.78.1,1.58.94,2.08.2.12.26.58.27.89.03,1.36.04,2.72.02,4.08,0,.56-.06,1.1-.7,1.42-.22.1-.29.54-.39.84-.21.61-.25,1.3-.95,1.64-.18.09-.34.36-.36.56-.11.88-.11,1.8-1.04,2.3.03.77-.25,1.83.14,2.25.85.9.85,1.8.73,2.84,0,0,.04-.04.03-.04-.54-.11-1.09-.11-1.21-.91-.05-.32-.62-.56-1.09-.96-.39-1.67-.22-3.54-.09-5.42.01-.18.06-.38.17-.52q1.06-1.38,1.26-2.57c.9,0,1-.7,1.11-1.42.17-1.11.39-2.2.58-3.3,0-.05.05-.09.05-.13-.23-1.28-.42-2.56-.74-3.82-.08-.3-.62-.49-1.05-.8v-1.99l-.04.04Z"/>
      <path class="cls-1" d="M385.79,66.29h-5.74c-.13-.64-.24-1.18-.36-1.71-.06-.27-.09-.67-.26-.77-.89-.5-.75-1.33-.74-2.11,0-.73-.04-1.4.6-2.05.46-.47.5-1.36.64-1.81.6-.5,1.04-.85,1.46-1.23.56-.5,2.81-.56,3.12.05.33.64.85.64,1.24.92.37.43.81.82,1.1,1.3.25.43.43.95.46,1.44.06,1.03.05,2.07-.05,3.09-.06.6-.04,1.3-.9,1.58-.28.09-.36.77-.57,1.28ZM380.99,58.81c-.13,2.07-.27,4.03.13,6,1.28.26,2.46.41,3.65-.03.2-.97.02-2.01,1.09-2.62.39-.22.19-1.95-.22-2.06-.83-.22-.69-.89-.86-1.45-.51-.27-1.18-.23-1.42-1-.14-.44-.83-.45-.94.07-.17.81-.88.74-1.44,1.08Z"/>
      <path class="cls-1" d="M320.69,66.21c-.56.07-1.02.16-1.48.17-1.5.02-3,0-4.53,0-.38-.63-.07-1.8-1.46-1.4,0-2.02,0-3.84,0-5.67,0-.22.07-.49.21-.64.79-.83,1.71-1.54,2.6-2.23.46-.36,1.48,0,2.25.04.44.96,1.39.8,2.28,1.03.12.64.25,1.32.39,2.09.33.15.7.31,1.05.47.23.73,0,1.09-.76,1.15-.69.06-1.37.09-1.86.78-.17.25-.77.25-1.17.26-1.16.03-2.33.01-3.53.01-.19.78-.37,1.3.5,1.6.3.1.46.61.79,1.07.44.03,1.04.12,1.65.11.56,0,1.12-.09,1.7-.15.43-.3.28-1.47,1.38-.9v2.19ZM319.56,59.12c-.72-.66-1.23-1.13-1.85-1.71-1.16-.1-1.15-.09-1.95.92-.13.17-.35.29-.54.41-.74.46-.76.6-.18,1.17.22.22.36.52.6.72.3.24.63.48.99.6.29.1.65.02.97.03,1.68,0,1.8-.1,1.98-1.77.02-.18-.02-.37-.02-.36Z"/>
      <path class="cls-1" d="M336.34,35.74c.35-.18.83-.27.89-.48.25-.94.97-.89,1.66-.9,1.12-.02,2.24,0,3.43,0,.14.89.46,1.47,1.47,1.33.23,2.21.29,4.35.02,6.49-.03.26-.22.73-.31.72-1.27-.12-.96,2.02-2.41,1.66-.49-.12-1.03,0-1.54,0-.56,0-1.12,0-1.7,0-.33-.7-.37-1.6-1.43-1.44-.07-.55-.08-1.03-.2-1.47-.1-.37-.27-.76-.52-1.06-.45-.56-.74-1.69-.26-2.17.74-.75.8-1.65.9-2.68ZM340.97,43.15c.27-.49.41-1.11.73-1.23.77-.29.78-.87.8-1.47.03-1.07,0-2.14,0-3.21-.1.04-.2.07-.3.11-.4-.55-.8-1.11-1.25-1.73h-1.95c-.46.46-.84.78-1.16,1.15-.19.23-.4.54-.41.82-.04,1.39-.02,2.78-.02,4.18.09-.03.18-.07.27-.1.46.46.92.91,1.5,1.48h1.77Z"/>
      <path class="cls-1" d="M427.81,34.45c.56.74.98,1.3,1.4,1.85-1.53.81-1.88.73-2.43-.68h-2.34c-.04.3-.12.52-.1.74.02.51.09,1.02.14,1.62.45.07.85.13,1.26.19.54.07,1.13,0,1.38.73.06.19.44.3.69.38.49.15,1,.26,1.61.41v3.28c-.7.18-1.28.57-1.28,1.5h-4.61c-.13-.38-.19-.82-.43-1.12-.17-.21-.59-.21-1.07-.36,0-.5-.04-1.05.02-1.59.03-.22.26-.53.45-.58.19-.04.6.16.64.32.12.53.39.75.89.93.3.11.46.62.77,1.08h1.88c.43-.54.79-1,1.15-1.44.35-.42.27-.77-.26-.94-.31-.1-.64-.14-.96-.21-.18-.04-.39-.05-.52-.15-1.21-.95-1.2-.96-2.65-1.16-.22-.59-.41-1.32-1.38-1.2v-2.27c.56-.25,1.33-.39,1.27-1.33h4.48Z"/>
      <path class="cls-1" d="M328.73,43.19h2.34c.2-.58.2-1.2.9-1.5.46-.2.32-.74-.19-.91-.31-.1-.64-.14-.96-.21-.18-.04-.48-.05-.52-.15-.52-1.35-1.79-.9-2.49-1.08-.59-.61-1-1.04-1.62-1.68v-1.71c.48-.46.95-.9,1.58-1.51h4.15c.49.71.86,1.25,1.29,1.87-.46.47-1.07.51-1.81.43-.15-.35-.3-.72-.49-1.15h-2.24c-.6.76-.04,1.53-.07,2.37.4.06.75.12,1.11.18.63.1,1.16.13,1.65.8.36.49,1.33.53,2.17.82v3.21q-1.06.37-1.51,1.51h-4.41c-.13-.37-.26-.75-.41-1.19-.29-.1-.64-.21-1-.33v-2.09c.26-.03.66-.1.67-.07.24,1.11,1.88,1.01,1.85,2.38Z"/>
      <path class="cls-1" d="M496.2,57.35c.03-.31.06-.63.09-1.01h3.06c.51.47.98.91,1.45,1.35.1-.04.2-.08.3-.12v8.74c-2.37.04-4.83.22-7.48-.05v-3.47c.54-.51.96-.91,1.59-1.5.48-.03,1.28-.05,2.06-.13.6-.06,1.23-.09,1.45-.87.05-.19.42-.3.65-.44.53-.34.6-.88.07-1.02-.79-.21-.73-.9-1.1-1.5h-2.19l.04.04ZM499.67,62.35c-.97,0-1.98-.05-3,.01-1.65.09-2.02.67-1.58,2.56h3.5c.2-.51.15-1.06.83-1.23.63-.15.47-.68.24-1.34Z"/>
      <path class="cls-1" d="M370.68,66.34h-4.91c-.24-.68-.3-1.54-1.42-1.49,0-1.82-.03-3.55.01-5.28.02-.83,1.11-2.04,1.9-2.28.22-.07.48-.1.64-.24.92-.81.91-.82,2.37-.75.3,1.16,1.47.94,2.49,1.34.12.61.32,1.29.35,1.97.06,1.36.05,2.72.02,4.08-.01.58.05,1.21-.79,1.46-.28.08-.4.69-.67,1.19ZM369.25,65c.5-.52.83-.82,1.1-1.16.19-.23.42-.52.43-.78.04-1.35.02-2.71.02-4.06l-.31.09c-.4-.46-.78-.94-1.21-1.36-.17-.16-.57-.32-.7-.24-.6.39-1.18.84-1.7,1.33-.41.39-.72.88-1.26,1.57,0,.62-.03,1.56.02,2.49.01.29.17.62.37.83.38.42.84.77,1.42,1.29h1.83Z"/>
      <path class="cls-1" d="M462.95,35.78c.89-.09,1.44-.36,1.4-1.31h4.46c.56.54.99.95,1.65,1.59v6.89c-.8.19-1.39.57-1.37,1.51h-4.56c-.18-.69-.27-1.3-1.1-1.5-.26-.06-.45-.89-.47-1.37-.05-1.87-.02-3.75-.02-5.8ZM465.56,35.61c-.25.61-.12,1.3-.89,1.43-.15.03-.35.35-.35.53-.02,1.17,0,2.33.04,3.5,0,.2.19.41.33.59.36.44.74.87,1.27,1.48h1.53c.67-.63,1.18-1.1,1.81-1.7,0-1.13.02-2.45-.02-3.76,0-.29-.15-.63-.34-.85-.34-.41-.76-.75-1.26-1.23h-2.12Z"/>
      <path class="cls-1" d="M376.93,34.4c.23.72.22,1.39,1.05,1.33.1,0,.29.32.32.51.02.13-.15.39-.27.41-.55.11-1.14.29-1.65.16-.31-.08-.5-.67-.83-1.16.09.04,0-.02-.08-.03-3.7-.24-3.17.07-3.52,3.04-.11.91.08,1.87.18,2.8.02.19.21.51.35.53.69.11.8.68.93,1.17h1.93c.81-.9,1.44-1.64,2.12-2.31.14-.13.51-.02.87-.02-.06.93.43,1.92-.93,2.34-.32.1-.46.75-.76,1.27h-4.32c-.1-.76-.4-1.41-1.36-1.32-.09-.53-.17-.99-.26-1.44-.05-.23-.06-.57-.2-.65-1.39-.79-.67-2.06-.75-3.14-.01-.17.05-.47.15-.51.86-.33.85-1.13,1.04-1.82.21-.81.81-1.12,1.56-1.14,1.45-.03,2.9-.01,4.43-.01Z"/>
      <path class="cls-1" d="M351.82,36.74c-.13-.43-.22-.74-.31-1.03-.12-.05-.2-.11-.29-.11-.65,0-1.31,0-1.79,0-.53.6-.97,1.09-1.56,1.75v4.08c.59.61,1.07,1.1,1.71,1.76h1.8c.3-.45.33-1.25,1.2-1.26.15,0,.26-.43.43-.63.16-.19.38-.33.57-.48.17.23.46.46.49.71.05.45-.05.92-.09,1.48-.87.07-1.4.51-1.31,1.48h-4.5c-.24-.62-.23-1.31-1.11-1.48-.27-.05-.5-.96-.52-1.48-.06-1.55-.02-3.1,0-4.64,0-.33.06-.65.11-1.07.63-.19,1.35-.38,1.29-1.35h4.73c.26.58.34,1.25,1.16,1.27.11,0,.21.59.36,1.03h-2.35Z"/>
      <path class="cls-1" d="M348.99,61.26c.03.81-.42,1.05-1.16,1.03-1.22-.02-2.43,0-3.67,0-.24.77-.41,1.28.42,1.63.33.14.53.6.93,1.08.68,0,1.55.03,2.42-.01.55-.02,1.13-.05,1.24-.85.02-.15.65-.22,1.21-.38-.07,1-.13,1.72-.19,2.55h-6.11c-.12-.35-.25-.73-.39-1.13-.34-.11-.68-.22-1.13-.36,0-1.9-.07-3.78.02-5.65.07-1.4.91-1.89,2.76-1.81l-.04-.04c.05.5.17,1-.42,1.34-1.02.59-1,.61-.19,1.42.13.13.27.27.33.44.24.65.76.74,1.35.75.88,0,1.76.03,2.65.04l-.04-.04Z"/>
      <path class="cls-1" d="M489.72,57.3c-.74.04-1.48.08-2.27.13-.24.67-.35,1.47-1.33,1.3-.34,2.07-.38,3.97.06,5.91,1.11.59,2.27.47,3.5.35.22-1.08,1.03-1.34,1.98-1.29.26.01.65.26.71.47.06.22-.18.77-.32.78-.84.05-.9.69-1.07,1.39-1.95.07-3.9.21-5.91-.2-.16-.63-.39-1.21-.43-1.8-.07-.94-.12-1.86-1.16-2.48,1.67-1.12.78-2.92,1.45-4.34.5-.17,1.2-.1,1.36-.9.03-.15.47-.29.72-.3.83-.04,1.67-.01,2.58-.01.03.4.06.72.08,1.03l.04-.03Z"/>
      <path class="cls-1" d="M377.07,66.27h-2.23v-12.49h1.99c.06.71.15,1.35.15,1.99,0,2.63-.02,5.26-.02,7.89,0,.83.07,1.66.11,2.61Z"/>
      <path class="cls-1" d="M400.61,53.83c.64-.12,1.22-.23,1.91-.36.06.44.1.74.15,1.11-.43.12-.82.24-1.18.34-.47,1.72-.35,2.06,1.04,2.79v8.51c-.68.06-1.36.11-2.24.18-.08-4.22-.11-8.31.32-12.58Z"/>
      <path class="cls-1" d="M355.39,66.25h-1.3c0-.64,0-1.19,0-1.74,0-1.55,0-3.1,0-4.65,0-.53-.04-.97-.64-1.27-.57-.29-.77-1.99-.25-2.22,1.05-.48.85-1.32.94-2.13.02-.18.08-.36.12-.51,2.01-.63,2.26-.55,2.37.81-.35.13-.72.27-1.1.41-.16.6-.16,1.02.51,1.4.81.46.79,1.62-.02,2-.63.29-.64.73-.64,1.25,0,1.74,0,3.48,0,5.22,0,.46,0,.92,0,1.43Z"/>
      <path class="cls-1" d="M470.56,64.79c1.48.5,1.55.81.69,2.39-.6-.34-1.21-.69-1.97-1.11v-7.06c-1.19-.32-1.4-1.15-1.22-2.15.04-.21.14-.56.28-.59,1.01-.24.89-1.08.99-1.79.08-.58.27-.89,1.02-.61.07.63.15,1.32.23,2.01,1.51,1.01,1.51,2.04-.03,3v5.93Z"/>
      <path class="cls-1" d="M479.81,57.48c.64-.03,1.31-.06,2.1-.09v8.86h-1.97c-.07-.35-.17-.66-.18-.97-.05-2.42-.09-4.85-.13-7.27,0-.13.08-.26.17-.52Z"/>
      <path class="cls-1" d="M355.56,34.57c.45-.03.77-.09,1.08-.06.9.09,1.02.21,1.04,1.15.02,1.27,0,2.54,0,3.81,0,.28.03.64-.12.82-.72.82-.79,1.57.14,2.19q-1.15,1.94-2.04,1.93c-.3-3.25-.08-6.51-.08-9.84Z"/>
      <path class="cls-1" d="M474.49,37.61c0,1.55.02,3.09,0,4.64,0,.61-.08,1.22-.2,1.81-.03.16-.32.38-.48.38-.16,0-.41-.24-.45-.42-.11-.5-.19-1.02-.19-1.53-.02-3.33-.02-6.66-.01-9.99,0-.46.06-.94.17-1.39.04-.18.34-.46.44-.43.22.07.52.27.57.47.12.54.16,1.11.17,1.67.02,1.59,0,3.19,0,4.78h0Z"/>
      <path class="cls-1" d="M475.61,66.4c-.58-.03-.91,0-1.23-.07-1.06-.21-1.12-.46-.59-1.39.24-.42.35-.95.37-1.44.09-1.78.11-3.57.17-5.35,0-.23.08-.45.14-.75.38-.05.74-.13,1.11-.15.49-.02.89-.12,1.2-.58.15-.22.53-.35.81-.37.41-.03.68.52.39.79-.68.64-1.42,1.22-2.37,2.03v7.27Z"/>
      <path class="cls-1" d="M360.56,57.29c.2,1.03-.05,1.92-.8,2.67-.07.07-.17.13-.18.21-.22,1.57-.5,3.19.17,4.68.5,1.12.52,1.33-.67,1.5-.27.04-.56,0-.95,0v-8.75c.8-.4,1.63-.39,2.47-.28l-.04-.04Z"/>
      <path class="cls-1" d="M455.24,66.36c-.52-.03-.87-.05-1.26-.07v-8.84c1.19-.13,1.26-.1,1.27.89.02,1.87,0,3.74-.01,5.61,0,.74,0,1.47,0,2.41Z"/>
      <path class="cls-1" d="M379.86,34.64c.85-.3,1.11.03,1.12.68,0,.94,0,1.88,0,2.81,0,1.41,0,2.81,0,4.22,0,.47,0,.95-.1,1.4-.06.26-.28.66-.48.69-.54.09-.53-.4-.54-.77,0-2.99,0-5.99,0-9.04Z"/>
      <path class="cls-1" d="M39.34,84.21c-.27-.05-.55-.11-.86-.17-.28-.44-.07-1.28-.93-1.33-.42-1.01-1.87-1.31-1.81-2.65.02-.38-.03-.79.48-.85.44-.05.54.25.58.61.01.14.03.32.12.39.38.28,1.06.47,1.14.8.16.68.73.63,1.24.98v2.25l.04-.04Z"/>
      <path class="cls-1" d="M347.86,57.34h2.28c.09.62.18,1.07.22,1.52.04.52.08.94.72,1.17.5.18.45.74-.06.89-.65.19-1.35.23-2.03.33,0,0,.04.04.04.04v-2.42c-.81-.25-1.53-.56-1.13-1.56l-.03.04Z"/>
      <path class="cls-1" d="M43.42,5.03c-1.03,0-2.06.02-2.59-1.15-.07-.16-.41-.17-.57-.31-.21-.19-.52-.43-.52-.66-.01-.52.43-.51.82-.46.37.05.74.11,1.19.17.12.71.44,1.29,1.36,1.15.1.48.19.88.28,1.29,0,0,.04-.04.04-.04Z"/>
      <path class="cls-1" d="M99.62,6.14h-1.93c-.44-.63-.57-1.47-1.51-1.54-.14-.01-.24-.55-.36-.84l-.03.04h2.09c.4.56.45,1.42,1.4,1.41.1,0,.2.64.3.98l.04-.04Z"/>
      <path class="cls-1" d="M489.68,57.34c.44.06,1.26.07,1.27.17.11.88,1.69.95,1.13,2.12-1.95.34-2.55-.25-2.36-2.33,0,0-.03.03-.03.03Z"/>
      <path class="cls-1" d="M360.59,57.33c-.03-.66.18-1.09.94-1.05.41.02.82,0,1.35,0,0,.58.07,1.09-.02,1.57-.12.64-.74.78-1.09.21-.31-.52-.69-.71-1.23-.76,0,0,.03.04.03.04Z"/>
      <path class="cls-1" d="M74.71,23.02c.64,1.01.55,2.08.34,3.14-.02.09-.23.22-.32.2-.16-.03-.42-.16-.43-.26-.06-1.03-.23-2.09.4-3.08Z"/>
      <path class="cls-1" d="M496.16,57.31c-.01,1.35-.72,1.84-1.93,1.31-.15-.07-.36-.25-.36-.37.01-.2.15-.51.29-.55.67-.16,1.35-.25,2.03-.36,0,0-.04-.04-.04-.04Z"/>
      <path class="cls-1" d="M72.81,18.81c0-.09,0-.19,0-.28.02-.37-.02-.86.52-.79.19.02.43.43.48.7.08.41.08.85,0,1.25-.04.19-.37.32-.56.48-.13-.17-.33-.33-.38-.52-.07-.27-.02-.56-.02-.84-.01,0-.02,0-.03,0Z"/>
      <path class="cls-1" d="M103.5,11.31c-.75-.02-1.22-.34-1.24-1.15-.01-.5-.04-1-.06-1.5l-.04.04c.82.05,1.19.53,1.23,1.31.02.45.04.9.06,1.34,0,0,.04-.04.04-.04Z"/>
      <path class="cls-1" d="M74.15,7.65c-.19.7-.38,1.4-.6,2.22-1.05-.63-.68-1.36-.65-2.18.48,0,.89,0,1.29,0,0,0-.04-.04-.04-.04Z"/>
      <path class="cls-1" d="M345.35,57.34c.03-.31.06-.62.09-.91,2.06-.39,2.25-.32,2.42.91,0,0,.03-.04.03-.04-.86,0-1.72,0-2.58,0,0,0,.04.04.04.04Z"/>
      <path class="cls-1" d="M106.08,14.96c-.62.02-1.09-.14-1.17-.87-.05-.46-.17-.9-.26-1.35l-.04.04c1.2-.06,1.21-.06,1.36.97.06.41.05.83.07,1.25,0,0,.04-.04.04-.04Z"/>
      <path class="cls-1" d="M24.23,1.22c.2.02.4,0,.56.07.14.07.31.24.32.38.01.14-.12.39-.24.43-.39.13-.81.23-1.23.25-.18,0-.51-.21-.51-.32,0-.23.12-.55.3-.67.21-.14.54-.1.8-.14Z"/>
      <path class="cls-1" d="M355.69,30.5c.68.13,1.25.24,1.94.37-.11.3-.14.55-.24.58-.43.16-.89.37-1.33.34-.71-.05-.51-.6-.37-1.29Z"/>
      <path class="cls-1" d="M461.56,53.63c.91.04,1.41.03,1.9.11.16.03.31.28.4.46.04.08-.07.33-.14.34-.53.1-1.07.23-1.59.2-.15-.01-.28-.53-.56-1.11Z"/>
      <path class="cls-1" d="M481.84,54.63h-1.94c.02-.31-.01-.68.07-.71.42-.15.87-.27,1.32-.28.63-.02.65.06.56.99Z"/>
      <path class="cls-1" d="M78.91,3.23c-.8.34-1.4.57-2.03,0,.73-.76,1.09-.78,2.03,0Z"/>
      <path class="cls-1" d="M75.37,6.31c-.16-.82.08-1.51.62-2.18.63,1.37.53,1.64-.66,2.14l.04.04Z"/>
      <path class="cls-1" d="M72.06,12.75c-.6-.97-.44-1.63-.12-2.48.66.81.59,1.47.12,2.48Z"/>
      <path class="cls-1" d="M72.03,14.13c.43.69.64,1.37.02,2.17-.61-.79-.42-1.48-.02-2.17Z"/>
      <path class="cls-1" d="M10.73,21.23c-.52-.7-.48-1.38-.07-2.24.73.84.52,1.54.07,2.24Z"/>
      <path class="cls-1" d="M99.58,6.18c.36.06.73.12,1.13.18.1.43.2.83.29,1.23,0,0,.04-.04.04-.04q-1.37-.09-1.42-1.41s-.04.04-.04.04Z"/>
      <path class="cls-1" d="M39.3,84.24c.23-.04.46-.1.69-.1.18,0,.36.05.68.11.04.44.09.89.13,1.34,0,0,.04-.04.04-.04q-1.23-.18-1.49-1.34s-.04.04-.04.04Z"/>
      <path class="cls-1" d="M20.18,4.8c-.05.4-.09.81-.14,1.25-.47.05-.88.1-1.29.15l.04.04q.19-1.27,1.43-1.39l-.04-.04Z"/>
      <path class="cls-1" d="M43.41,88.05q-1.35-.07-1.44-1.39l-.04.04c.36.03.72.06,1.15.09.1.44.19.87.29,1.3,0,0,.04-.04.04-.04Z"/>
      <path class="cls-1" d="M453.98,54.72c-.16-.77-.12-1.24.66-1.2.46.02.71.3.62.74-.17.8-.76.41-1.28.46Z"/>
      <path class="cls-1" d="M88.75,0c.21.24.34.4.48.55-.2.14-.39.36-.6.39-.13.02-.31-.24-.47-.38.17-.16.35-.33.59-.56Z"/>
      <path class="cls-1" d="M381.27,31.08c-.43.36-.63.63-.87.69-.41.09-.63-.21-.55-.59.04-.21.28-.53.44-.54.24-.02.49.21.98.45Z"/>
      <path class="cls-1" d="M10.07,24.74c-.26.24-.44.4-.62.57-.15-.2-.41-.4-.41-.59,0-.19.28-.38.43-.58.17.17.34.35.6.6Z"/>
      <path class="cls-1" d="M11.98,17.84c-.21-.39-.42-.61-.4-.8.02-.2.28-.37.43-.55.15.19.4.37.41.57.01.19-.22.4-.44.78Z"/>
      <path class="cls-1" d="M75.33,6.27c-.05.35-.11.69-.17,1.07-.34.1-.68.2-1.01.31,0,0,.04.04.04.04-.02-.18-.07-.37-.06-.55.04-.96.05-.96,1.23-.83,0,0-.04-.04-.04-.04Z"/>
      <path class="cls-1" d="M104.65,12.73c-.33-.1-.67-.2-1.01-.31-.05-.41-.09-.76-.13-1.11,0,0-.04.04-.04.04q1.19-.03,1.15,1.41s.04-.04.04-.04Z"/>
      <path class="cls-1" d="M95.82,3.76c-.38-.11-.77-.22-1.14-.33-.19-.43-.15-.79.36-.81.26-.01.61.17.76.38.12.18.01.52,0,.79,0,0,.03-.04.03-.04Z"/>
      <path class="cls-1" d="M46.96,92.13q1.32-.22,1.48,1.06s.04-.04.04-.04q-1.29.04-1.48-1.06l-.04.04Z"/>
      <path class="cls-1" d="M14.39,11.08c.33.41.56.57.61.78.09.34-.01.7-.47.66-.17-.01-.44-.25-.45-.4-.01-.26.14-.53.3-1.05Z"/>
      <path class="cls-1" d="M44.49,89.5q-1.25-.19-1.08-1.45s-.04.04-.04.04q1.08.09,1.07,1.45l.04-.04Z"/>
      <path class="cls-1" d="M44.45,89.54q1.2-.04,1.51,1.05s.04-.04.04-.04q-1.36.17-1.51-1.05s-.04.04-.04.04Z"/>
      <path class="cls-1" d="M46.99,92.1c-1-.15-1.4-.24-1-1.54,0,0-.04.04-.03.04q1.15.2,1,1.54s.04-.04.04-.04Z"/>
      <path class="cls-1" d="M80.5,1.76c-.37.21-.57.4-.78.4-.14,0-.43-.32-.4-.39.08-.2.28-.46.46-.49.17-.02.37.23.71.48Z"/>
      <path class="cls-1" d="M22.94,3.14c-.37.21-.6.44-.78.41-.19-.03-.33-.32-.5-.49.19-.15.37-.43.56-.43.19,0,.38.26.72.52Z"/>
      <path class="cls-1" d="M74.77,72.72c.22.34.47.56.44.73-.03.18-.35.44-.53.43-.17,0-.45-.32-.45-.5,0-.18.28-.36.54-.66Z"/>
      <path class="cls-1" d="M20.22,4.84c.01-.23-.06-.52.05-.68.13-.19.41-.31.64-.37.09-.02.37.26.35.33-.07.23-.2.49-.4.61-.17.11-.46.06-.69.07,0,0,.04.04.04.04Z"/>
      <path class="cls-1" d="M41.98,86.66q-1.15,0-1.14-1.12s-.04.04-.04.04q1.09-.05,1.14,1.12s.04-.04.04-.04Z"/>
      <path class="cls-1" d="M18.75,6.2c.02.18.1.4.03.54-.11.21-.29.44-.5.53-.1.04-.49-.27-.47-.32.09-.26.24-.53.44-.71.1-.09.35,0,.54,0,0,0-.04-.04-.04-.04Z"/>
      <path class="cls-1" d="M102.21,8.66q-1.21.13-1.16-1.1s-.04.04-.04.04c.84-.11,1.12.37,1.16,1.1,0,0,.04-.04.04-.04Z"/>
      <path class="cls-1" d="M39.35,1.88c-.18.09-.38.28-.54.25-.16-.03-.3-.26-.44-.41.19-.15.37-.37.58-.41.19-.04.42.13.63.21-.08.12-.15.24-.23.36Z"/>
      <path class="cls-1" d="M17.09,7.43c.22.4.42.61.42.82,0,.13-.29.37-.44.37-.15,0-.43-.26-.43-.39.01-.21.22-.41.45-.8Z"/>
      <path class="cls-1" d="M16.32,9.36c-.19.24-.31.4-.44.56-.14-.14-.38-.27-.4-.41-.01-.17.18-.36.28-.54.16.11.32.23.56.39Z"/>
      <path class="cls-1" d="M35,77.92c.17.26.36.43.33.54-.05.17-.25.3-.38.45-.09-.14-.25-.28-.26-.43,0-.14.15-.28.31-.55Z"/>
      <path class="cls-1" d="M13.91,14.58c-.26.1-.47.25-.6.2-.16-.06-.3-.27-.35-.45-.02-.07.22-.3.34-.3.12,0,.24.2.61.55Z"/>
      <path class="cls-1" d="M92.09,1.78c.15-.08.31-.2.35-.17.12.09.19.24.27.37-.11.04-.24.13-.34.1-.1-.02-.16-.16-.28-.3Z"/>
      <path class="cls-1" d="M256.8,48.53c.02.96.51,1.3,1.25,1.24.18,1.16.17,1.23-.69,1.24-2.59.04-5.18.03-7.77.02-.37,0-.78-.08-1.09-.25-.2-.11-.26-.48-.41-.8.58-.15.99-.24,1.39-.36.22-.06.58-.11.63-.25.38-1.08,1.34-.92,2.12-.94,1.45-.04,2.91.06,4.57.11Z"/>
      <path class="cls-1" d="M228.32,39.8c.6,1.91.61,3.81.25,5.49-.64.59-1.12,1.05-1.61,1.5-3.4.45-6.9.45-10.35.29-.46-1.14-.54-6.97-.14-8.78,3.49-.34,7.04-.11,10.4-.09.57.63,1.01,1.11,1.45,1.59Z"/>
      <path class="cls-1" d="M135.71,49.74c-.59-1.11.33-1.19.79-1.54.07-.54.12-1.05.22-1.55.05-.26.14-.61.33-.73.78-.51.87-1.28.93-2.08.06-.79,0-1.61.93-2.01.15-.06.15-.42.25-.63.18-.38.18-.38,1.14-.39.07.76.13,1.54.21,2.31.08.77.2,1.51,1.22,1.57.06.48.1.9.15,1.31.07.53.05.98.71,1.36.72.42.49,1.4.41,2.32-2.48.15-4.93.12-7.3.05Z"/>
    </g>
  </g>
</svg>