<?xml version="1.0" encoding="UTF-8"?>
<svg id="Capa_2" data-name="Capa 2" xmlns="http://www.w3.org/2000/svg" viewBox="0 0 151.26 169.04">
  <defs>
    <style>
      .cls-1 {
        fill: #fff;
      }
    </style>
  </defs>
  <g id="Capa_1-2" data-name="Capa 1">
    <g>
      <path class="cls-1" d="M23.38,121.14c-.89,1.2-2.08,1.57-3.44,1.23-1.41-.36-2.3-1.32-2.52-2.76-.27-1.81.57-3.08,2.22-3.89-.31-.66-.47-1.31-.2-2,.25-.66.76-1.07,1.42-1.32v-33.45c-.44-.02-.86-.04-1.38-.07v-5.33c-.06-.03-.11-.05-.17-.08-3.25,2.7-6.5,5.4-9.89,8.22,0-.71,0-1.24,0-1.76,0-.71.03-1.43-.01-2.14-.03-.49.16-.79.53-1.09,2.55-2.1,5.09-4.23,7.64-6.34,21.46-17.87,42.93-35.73,64.39-53.6,6.5-5.41,12.99-10.81,19.49-16.22.19-.16.39-.31.69-.54.03.3.07.51.07.72,0,1.68,0,3.36,0,5.04v71.2c-.33-.26-.53-.4-.72-.56-10.16-8.69-20.31-17.38-30.48-26.05-.44-.37-.58-.75-.58-1.3.02-5.7.01-11.4.01-17.11v-1c-.35.28-.56.44-.77.61-11.43,9.51-22.85,19.02-34.28,28.53-3.8,3.16-7.58,6.33-11.4,9.46-.51.42-.69.84-.68,1.48.04,2.32.01,4.63.01,6.95v.9c-.46.03-.88.05-1.35.08v33.41c.16.1.36.2.55.33.86.56,1.19,1.61.82,2.55-.38.97-1.36,1.49-2.41,1.28-.27-.05-.61-.22-.79-.12-.31.19-.56.51-.75.84-.57,1.01-.44,2.24.32,3.14.82.97,1.87,1.26,3.1.96.1-.02.19-.06.29-.1.09-.03.18-.07.27-.1Z"/>
      <path class="cls-1" d="M65.84,56.1c.02.36.05.61.05.86,0,20.79,0,41.59.02,62.38,0,.61-.21.89-.75,1.12-7.41,3.19-15.07,5.58-23.02,6.98-2.53.44-5.09.7-7.64,1.04-.1.01-.2,0-.39,0,0-.32-.02-.61-.02-.91,0-8.2,0-16.39,0-24.59,0-6.39,0-12.78-.01-19.17,0-.56.16-.93.59-1.3,10.19-8.64,20.37-17.3,30.56-25.96.17-.14.35-.26.62-.47Z"/>
      <path class="cls-1" d="M138.36,68.92v.73c0,9.19,0,18.37.01,27.56,0,.58-.16.98-.59,1.39-13.16,12.41-28.36,21.43-45.42,27.35-6.04,2.1-12.2,3.75-18.5,4.84-2.58.45-5.19.71-7.79,1.04-.3.04-.61.03-.92.03-6.87,0-13.73,0-20.71,0,19.79-2.57,37.9-9.35,54.42-20.32,16.57-11.01,29.54-25.37,39.33-42.65.06,0,.11.02.17.03Z"/>
      <path class="cls-1" d="M138.33,108.89v22.81s-.04.05-.06.07c-.02.02-.04.04-.06.04-.07.02-.15.05-.22.05-19.19,0-38.38,0-57.57,0h-.38v.06c3.43-.6,6.86-1.16,10.27-1.83,3.47-.68,6.89-1.56,10.26-2.66,3.33-1.08,6.67-2.19,9.92-3.48,3.26-1.29,6.47-2.71,9.62-4.26,3.17-1.56,6.27-3.27,9.3-5.08,3.01-1.79,5.91-3.78,8.92-5.73Z"/>
      <path class="cls-1" d="M33.51,146.12c-.43.28-.81.52-1.22.79-.11-.13-.22-.23-.29-.35-1.19-2.06-4.48-2.47-6.35-.74-2.36,2.18-2.23,6.4.28,8.41,1.97,1.58,4.82,1.15,6.23-.94.07-.1.14-.21.25-.37.43.23.85.45,1.32.7-.22.65-.62,1.13-1.1,1.54-1.99,1.69-5.67,2.44-8.35-.37-2.43-2.54-2.66-6.49-.52-9.23,1.69-2.16,4.72-2.94,7.23-1.85,1.1.48,1.94,1.26,2.52,2.4Z"/>
      <path class="cls-1" d="M0,155.85c.19-.67.36-1.3.55-1.99.26.1.46.16.66.25.65.28,1.32.35,2.02.29.88-.07,1.49-.52,1.72-1.37.14-.53.22-1.1.23-1.65.04-2.34.03-4.68.04-7.01,0-.3,0-.6,0-.95h2.46c.03.16.07.3.07.44,0,2.49,0,4.98-.03,7.47,0,.68-.1,1.37-.25,2.04-.45,2.04-1.45,2.97-3.51,3.24-1.35.18-2.69.1-3.96-.76Z"/>
      <path class="cls-1" d="M8.57,155.84c.11-.41.2-.8.31-1.19.07-.24.15-.48.24-.78.26.09.49.17.71.26.65.28,1.33.33,2.02.26.81-.08,1.4-.5,1.62-1.29.15-.53.25-1.1.26-1.65.04-2.36.04-4.73.05-7.09,0-.3,0-.6,0-.95h2.46c.03.15.07.3.07.44,0,2.49,0,4.98-.03,7.47,0,.68-.1,1.37-.25,2.04-.45,2.04-1.45,2.97-3.51,3.24-1.2.16-2.39.11-3.5-.47-.15-.08-.29-.19-.46-.3Z"/>
      <path class="cls-1" d="M140.76,153.95c.39.11.8.23,1.21.34-.49,1.62-3.04,3.07-5.81,2.19-2.52-.8-3.89-3.6-3.1-6.24.77-2.56,3.43-4,6.13-3.3,2.25.58,3.84,3.06,3.36,5.34h-7.88c-.14,1.19.7,2.46,1.9,2.99,1.46.64,2.86.2,4.18-1.33ZM141.18,151.16c-.13-1.31-.72-2.25-1.84-2.82-1.25-.63-2.46-.49-3.57.36-.84.65-1.29,1.68-1.11,2.46h6.52Z"/>
      <path class="cls-1" d="M34.63,151.75c0-2.87,2.11-4.98,4.94-4.97,2.76.01,4.85,2.16,4.85,5,0,2.87-2.1,4.97-4.95,4.95-2.8-.02-4.85-2.13-4.84-4.98ZM36.26,151.78c.01.2.02.41.04.61.18,1.46,1.38,2.74,2.72,2.92,1.5.2,2.86-.58,3.46-2.05.54-1.32.42-2.6-.42-3.76-1.19-1.64-3.39-1.8-4.77-.35-.69.73-1.04,1.61-1.03,2.63Z"/>
      <path class="cls-1" d="M111.48,151.76c0-2.87,2.1-4.99,4.93-4.98,2.76,0,4.86,2.16,4.86,4.99,0,2.87-2.09,4.98-4.94,4.96-2.8-.01-4.85-2.12-4.85-4.97ZM113.12,151.78c.01.2.02.41.04.61.18,1.46,1.37,2.75,2.71,2.93,1.5.21,2.86-.58,3.46-2.05.54-1.32.42-2.6-.42-3.76-1.19-1.65-3.39-1.8-4.77-.36-.7.73-1.05,1.61-1.03,2.63Z"/>
      <path class="cls-1" d="M77.71,146.95h1.5c.01.26.03.5.03.74,0,1.48,0,2.95,0,4.43,0,.48.04.97.13,1.44.28,1.44,1.28,2.07,2.69,1.71,1.13-.29,1.93-1,2.4-2.06.11-.24.13-.54.13-.82.01-1.5,0-3,0-4.5,0-.28,0-.56,0-.9h1.6c0,.28,0,.56,0,.83,0,2.14,0,4.28,0,6.41,0,.42-.05.81.38,1.16.21.17.11.71.16,1.1-.62.25-1.22.28-1.58-.22-.29-.4-.33-.97-.5-1.51-.13.14-.28.3-.43.46-1.18,1.25-2.64,1.69-4.3,1.42-.9-.14-1.55-.7-1.85-1.54-.24-.69-.41-1.43-.44-2.15-.06-1.91-.02-3.82-.02-5.72,0-.07.03-.14.07-.29Z"/>
      <path class="cls-1" d="M122.97,146.96h1.33v1.9c.24-.21.37-.31.47-.43,1.02-1.18,2.32-1.7,3.85-1.66,1.17.03,1.99.61,2.36,1.71.18.55.31,1.14.32,1.71.04,2.01.02,4.02.02,6.03,0,.07-.03.14-.06.28h-1.51c-.01-.29-.03-.54-.03-.79,0-1.53.02-3.05-.01-4.58-.01-.55-.07-1.12-.22-1.65-.24-.87-.86-1.25-1.77-1.26-1.47-.02-3.41,1.66-3.26,3.3.13,1.39.03,2.79.02,4.19,0,.25-.02.5-.04.8h-1.44c-.16-.61-.18-8.76-.03-9.56Z"/>
      <path class="cls-1" d="M47.58,156.52h-1.57v-9.54h1.41v1.72s.09.03.14.04c.09-.1.19-.2.28-.31,1.03-1.2,2.36-1.73,3.92-1.66,1.09.05,1.9.58,2.26,1.63.18.52.31,1.09.32,1.63.04,2.03.03,4.07.04,6.1,0,.1-.03.2-.06.36h-1.51c0-.28,0-.55,0-.82,0-1.42.03-2.85-.01-4.27-.02-.65-.09-1.32-.27-1.95-.23-.86-.83-1.2-1.71-1.23-1.41-.05-3.44,1.58-3.27,3.27.14,1.38.03,2.79.03,4.19v.83Z"/>
      <path class="cls-1" d="M55.81,155.16c.21-.38.39-.71.6-1.09.28.2.51.38.76.54,1.13.76,2.35,1.07,3.69.72.24-.06.49-.16.69-.3.84-.57.78-1.66-.14-2.07-.55-.25-1.16-.37-1.73-.56-.65-.22-1.3-.43-1.93-.69-2.04-.87-1.62-3.39-.3-4.22,1.07-.67,2.24-.8,3.45-.65.98.12,1.87.47,2.64,1.27-.22.35-.45.7-.7,1.09-.75-.7-1.58-1.14-2.56-1.13-.52,0-1.06.08-1.57.22-.53.15-.83.57-.84,1.15-.01.56.3.92.78,1.11.61.25,1.25.43,1.87.65.6.21,1.22.37,1.79.64,1.61.74,1.89,2.87.53,4.02-.32.27-.72.51-1.12.63-1.76.49-3.47.37-5.06-.62-.29-.18-.54-.44-.85-.69Z"/>
      <path class="cls-1" d="M150.38,149.19c-.77-.72-1.6-1.14-2.59-1.14-.5,0-1.01.07-1.5.21-.53.15-.85.54-.88,1.12-.03.59.29.97.8,1.17.61.24,1.25.43,1.87.64.6.21,1.22.38,1.79.64,1.57.73,1.86,2.83.54,3.97-.32.28-.71.53-1.11.64-1.84.53-3.62.39-5.26-.7-.23-.15-.43-.35-.69-.57.2-.37.39-.72.6-1.11.31.23.57.43.84.6,1.12.72,2.32,1.01,3.63.65.26-.07.53-.2.75-.35.64-.46.76-1.6-.17-2-.42-.18-.86-.29-1.29-.44-.82-.28-1.65-.52-2.44-.85-2-.85-1.59-3.31-.32-4.18,1.6-1.1,4.82-.95,6.12.63-.2.31-.42.64-.69,1.06Z"/>
      <path class="cls-1" d="M106.71,149.13c-.53.17-.99.31-1.44.46-.08-.06-.15-.09-.19-.15-.82-1.09-1.91-1.5-3.23-1.17-1.31.33-2.09,1.24-2.38,2.53-.25,1.1-.11,2.18.56,3.14,1.26,1.81,3.68,1.91,5.07.19.05-.06.1-.11.21-.24.45.13.93.27,1.48.42-.1.22-.15.43-.28.57-.28.33-.55.68-.9.92-1.62,1.14-3.38,1.26-5.13.44-1.73-.81-2.64-2.28-2.74-4.18-.13-2.43,1.14-4.36,3.26-5.03,1.39-.44,2.76-.37,4.06.34.7.38,1.27.92,1.64,1.76Z"/>
      <path class="cls-1" d="M96.88,149.11c-.55.18-1.02.33-1.52.49-.5-.66-1.08-1.18-1.9-1.36-1.27-.27-2.52.2-3.29,1.27-1,1.4-.9,3.45.25,4.75,1.32,1.5,3.53,1.45,4.79-.1.06-.08.13-.15.23-.28.47.14.95.28,1.49.44-.33.79-.85,1.34-1.52,1.71-1.8.99-3.63,1.02-5.35-.11-1.73-1.14-2.43-2.86-2.17-4.88.45-3.52,3.8-4.96,6.64-3.98,1.02.35,1.8,1.01,2.33,2.05Z"/>
      <path class="cls-1" d="M67.35,148.16c0,.95,0,1.73,0,2.52,0,1.07,0,2.14,0,3.2.01,1.12.6,1.56,1.69,1.3.27-.06.53-.17.84-.27.07.18.15.36.21.55.06.19.11.39.18.65-1.06.57-2.14.81-3.3.45-.79-.24-1.18-.83-1.19-1.76-.02-1.55,0-3.1,0-4.65,0-.61,0-1.22,0-1.9-.44-.05-.83-.09-1.28-.14v-1.14c.39-.03.79-.06,1.28-.1v-3.16h1.53c.11,1.01,0,2.05.08,3.16h2.1v1.29h-2.13Z"/>
      <path class="cls-1" d="M72.99,156.53c-.37,0-.65,0-.92,0-.2,0-.4-.03-.63-.04v-9.54h1.41v1.75l.14.06c.12-.13.24-.26.35-.4.5-.66,1.1-1.21,1.91-1.45.37-.11.78-.12,1.22-.19v1.44c-.21.04-.43.08-.64.12-.9.17-1.68.56-2.27,1.28-.38.47-.59.97-.58,1.6.03,1.5.01,3,0,4.5,0,.25,0,.5,0,.88Z"/>
      <path class="cls-1" d="M108.35,146.93h1.52v9.6h-1.52v-9.6Z"/>
      <path class="cls-1" d="M133.65,166.19c.24-1.23-.39-2-1.52-1.9-.37.03-.72.21-1.08.32-.15.04-.29.08-.54.14.47-.67,1.42-1.01,2.21-.85.73.15,1.26.56,1.4,1.33.08.45.08.91.1,1.36.03.75.06,1.5.09,2.25-.48.12-.4-.38-.6-.63-.57.47-1.21.79-1.95.71-.36-.04-.77-.14-1.05-.35-.8-.59-.71-1.73.15-2.23.65-.38,1.36-.38,2.08-.28.24.04.49.08.73.12ZM131.94,168.67c.37-.12.72-.19,1.03-.34.62-.3.89-.8.77-1.42-.03-.14-.16-.34-.29-.38-.74-.23-1.5-.32-2.23.02-.81.38-.89,1.34-.13,1.82.24.16.56.2.85.3Z"/>
      <path class="cls-1" d="M85.69,166.36c.02-1.41,1.11-2.51,2.46-2.47,1.32.03,2.38,1.21,2.34,2.61-.04,1.44-1.09,2.48-2.47,2.45-1.37-.03-2.35-1.12-2.32-2.59ZM90.02,166.43c0-1.4-1.23-2.45-2.45-2.07-.79.24-1.41,1.07-1.45,1.96-.05.95.48,1.81,1.3,2.13,1.27.49,2.6-.54,2.6-2.01Z"/>
      <path class="cls-1" d="M121.44,166.42c0-1.43,1.05-2.54,2.4-2.54,1.33,0,2.4,1.14,2.4,2.55,0,1.43-1.04,2.52-2.41,2.51-1.38,0-2.39-1.07-2.38-2.52ZM125.78,166.56c0-1.23-.77-2.15-1.73-2.26-.96-.11-1.85.56-2.12,1.59-.28,1.09.32,2.25,1.34,2.58.96.32,1.99-.22,2.36-1.25.09-.26.12-.54.14-.66Z"/>
      <path class="cls-1" d="M95.26,168.81c0-.26,0-.56,0-.85-.02-.84,0-1.68-.08-2.51-.11-1.05-.84-1.43-1.81-.99-.8.36-1.3.96-1.28,1.89.01.83,0,1.66,0,2.69-.23-.23-.39-.31-.4-.4-.03-.33-.02-.66-.02-.99,0-1.02,0-2.04,0-3.05,0-.2-.11-.47.3-.6.06.29.11.56.18.9.16-.13.27-.25.41-.34.3-.19.59-.41.92-.53,1.17-.43,2,.03,2.13,1.26.11,1.08.07,2.18.09,3.27,0,.21-.08.34-.44.25Z"/>
      <path class="cls-1" d="M111.65,164.04c.46-.03.41.22.41.4,0,.74,0,1.47,0,2.21.01.72.05,1.44.08,2.19-.62.03-.39-.54-.55-.91-.17.15-.29.31-.46.4-.42.22-.84.49-1.3.57-1.04.18-1.72-.31-1.8-1.36-.09-1.16-.02-2.33-.02-3.48.33-.12.38.08.38.3,0,.76,0,1.52.01,2.29,0,.35.04.71.14,1.05.21.71.76.99,1.49.82.98-.23,1.6-1,1.6-2.03,0-.81,0-1.62,0-2.45Z"/>
      <path class="cls-1" d="M84.91,165.13c-.28-.1-.48-.12-.58-.23-.65-.67-1.4-.8-2.22-.42-.78.37-1.17,1.21-1.08,2.17.08.89.66,1.6,1.48,1.84.71.21,1.29-.04,1.81-.5.15-.14.25-.43.54-.2-.26.82-1.11,1.25-2.2,1.13-1.14-.13-2.01-1.11-2.1-2.35-.09-1.23.63-2.28,1.78-2.6,1.06-.29,2.02.1,2.58,1.17Z"/>
      <path class="cls-1" d="M117.6,165.15c-.27-.12-.48-.15-.58-.27-.66-.76-1.72-.7-2.3-.36-.75.45-1.13,1.33-.97,2.3.14.85.8,1.56,1.63,1.71.65.12,1.19-.12,1.66-.56.15-.14.26-.43.53-.16-.34.87-1.27,1.29-2.38,1.08-1.08-.2-1.89-1.22-1.93-2.43-.04-1.23.72-2.26,1.88-2.54,1.04-.25,1.99.17,2.47,1.22Z"/>
      <path class="cls-1" d="M100.31,164.75c-.15-.08-.29-.15-.44-.24-.54-.3-1.12-.31-1.7-.17-.46.11-.72.47-.71.88,0,.42.27.64.64.76.51.16,1.03.29,1.53.47.7.24.97.57.96,1.11,0,.56-.36,1.07-.96,1.24-.86.25-1.71.21-2.48-.31-.14-.09-.23-.26-.34-.4.04-.05.09-.1.13-.15.18.1.36.2.55.31.6.34,1.23.45,1.9.22.42-.14.71-.39.75-.86.03-.4-.19-.67-.73-.85-.48-.16-.98-.27-1.46-.43-.68-.23-.91-.52-.91-1.06,0-.58.33-1.05.93-1.25.81-.27,1.6-.23,2.31.31.08.06.11.18.17.28-.04.04-.09.09-.13.13Z"/>
      <path class="cls-1" d="M102.13,162.27c.56.48.05,1.15.41,1.66.3.04.63.08.96.13,0,.06,0,.12,0,.18-.32.04-.65.08-1.06.13-.01.29-.04.59-.04.88,0,.79,0,1.58,0,2.36.01.84.24,1.02,1.08.85.09-.02.19-.03.41-.06-.12.19-.16.35-.25.39-.18.08-.39.13-.59.14-.75.05-1.09-.25-1.11-1-.02-.89,0-1.78,0-2.67,0-.28,0-.55,0-.86-.25-.07-.45-.12-.64-.17,0-.04,0-.09,0-.13.17-.06.35-.12.55-.19.27-.48-.1-1.09.28-1.63Z"/>
      <path class="cls-1" d="M120.85,168.43c-.35.5-.95.63-1.38.42-.4-.19-.49-.54-.48-.96.01-.92,0-1.83,0-2.75,0-.25,0-.5,0-.74-.26-.08-.46-.14-.83-.25.37-.14.57-.21.8-.29.02-.5.05-1,.07-1.51q.29.1.45,1.54c.34.05.69.11,1.04.17,0,.06,0,.11,0,.17-.33.04-.65.08-1.02.13-.03.13-.08.27-.08.41,0,.97-.01,1.93,0,2.9,0,.74.27.94,1,.81.14-.02.28-.04.42-.06Z"/>
      <path class="cls-1" d="M109.87,144.91h-1.53v-1.9h1.53v1.9Z"/>
      <path class="cls-1" d="M127.64,164.01c.07.27.13.55.21.88.28-.23.53-.48.81-.66.27-.18.58-.32,1.04-.11-.16.13-.26.25-.39.3-1.2.42-1.52.86-1.52,2.13,0,.66,0,1.32,0,1.99,0,.19-.03.37-.41.3-.01-1.58-.04-3.18.02-4.78.08-.02.16-.03.24-.05Z"/>
      <path class="cls-1" d="M107.16,164.25c-.38.13-.6.18-.81.27-.73.33-1.19.85-1.18,1.7,0,.74,0,1.48,0,2.21,0,.18.06.44-.27.42-.22-.66-.2-4.32.04-4.84.37.17.12.57.32.85.28-.22.55-.47.85-.66.28-.18.61-.33,1.06.05Z"/>
    </g>
  </g>
</svg>