<?xml version="1.0" encoding="UTF-8"?>
<svg id="Capa_2" data-name="Capa 2" xmlns="http://www.w3.org/2000/svg" xmlns:xlink="http://www.w3.org/1999/xlink" viewBox="0 0 189.42 185.3">
  <defs>
    <style>
      .cls-1, .cls-2, .cls-3, .cls-4 {
        fill: #fff;
      }

      .cls-2 {
        fill-rule: evenodd;
      }

      .cls-5 {
        clip-path: url(#clippath-3);
      }

      .cls-6 {
        fill: none;
        stroke: #fff;
        stroke-miterlimit: 10;
        stroke-width: 3px;
      }

      .cls-3 {
        clip-rule: evenodd;
      }

      .cls-7 {
        clip-path: url(#clippath-2);
      }

      .cls-8 {
        clip-path: url(#clippath);
      }

      .cls-4 {
        font-family: Avenir-Black, Avenir;
        font-size: 14.88px;
        font-weight: 800;
      }
    </style>
    <clipPath id="clippath">
      <polygon class="cls-3" points="65.76 72.87 65.6 73.03 65.44 73.51 65.28 73.83 64.96 74.8 64.8 75.44 64.64 75.92 64.32 77.2 64 78.81 63.84 79.77 63.84 91.8 64 91.8 64 92.6 64.16 92.6 64.16 93.4 64.32 93.4 64.32 94.2 64.48 94.2 64.48 94.69 64.64 94.69 64.64 95.17 64.8 95.17 64.8 95.81 64.96 95.81 64.96 96.29 65.12 96.29 65.12 96.77 65.28 96.77 65.28 97.09 65.44 97.09 65.44 97.57 65.6 97.57 65.6 97.89 65.76 97.89 65.76 98.53 65.92 98.53 65.92 98.86 66.08 98.86 66.08 99.34 66.25 99.34 66.25 99.66 66.41 99.66 66.41 99.98 66.73 99.98 66.73 100.46 66.89 100.46 66.89 100.78 67.05 100.78 67.05 101.1 67.21 101.1 67.21 101.42 67.37 101.42 67.37 101.74 67.69 101.74 67.69 102.22 67.85 102.22 68.01 102.38 68.01 102.71 68.17 102.71 68.33 102.87 68.33 103.19 68.65 103.19 68.65 103.67 68.97 103.67 68.97 104.15 69.13 104.15 69.93 104.95 69.93 105.27 70.09 105.27 72.18 107.36 72.5 107.52 72.98 108 73.3 108.16 73.62 108.48 73.94 108.64 74.1 108.8 74.43 108.96 74.75 109.28 75.39 109.6 75.55 109.76 76.83 110.4 76.99 110.57 77.95 111.05 78.44 111.21 78.76 111.37 79.24 111.53 79.56 111.69 80.04 111.85 80.36 112.01 81 112.17 81.48 112.33 83.41 112.81 85.33 113.13 86.46 113.29 88.54 113.45 90.79 113.61 91.59 113.77 91.59 113.61 92.87 113.45 95.12 113.29 96.56 113.13 97.2 112.97 98.81 112.65 100.73 112.17 101.21 112.01 101.53 111.85 102.98 111.37 103.3 111.21 104.26 110.89 104.9 110.57 105.06 110.4 107.31 109.28 107.47 109.12 108.11 108.8 108.27 108.64 108.59 108.48 108.91 108.16 109.23 108 109.39 107.84 109.71 107.68 110.04 107.36 110.36 107.2 110.52 107.04 110.84 106.88 111.16 106.55 111.48 106.39 113.4 104.47 113.72 104.31 114.05 103.99 114.21 103.67 115.01 102.87 115.17 102.54 116.13 101.58 116.29 101.26 116.77 100.78 116.93 100.46 117.09 100.3 117.25 99.98 117.41 99.82 117.57 99.5 117.89 99.18 118.06 98.86 118.22 98.7 118.38 98.37 118.54 98.21 118.7 97.89 118.86 97.73 119.02 97.41 119.18 97.25 119.66 96.29 119.82 96.13 120.14 95.49 120.3 95.33 120.78 94.36 120.94 94.2 121.58 92.92 121.74 92.44 122.87 90.19 123.03 89.71 123.35 89.07 123.51 88.59 123.67 88.27 123.83 87.79 123.99 87.47 124.15 86.99 124.31 86.67 125.59 82.82 125.75 82.49 125.92 82.01 126.08 81.37 126.24 80.89 126.4 80.25 126.56 79.77 126.72 79.13 126.88 78.64 127.04 78 127.2 77.52 127.36 76.88 127.52 76.08 128 74.15 128.16 73.35 128.32 72.87 128.16 72.87 128 73.03 126.72 76.88 126.56 77.2 126.4 77.68 126.24 78 126.08 78.48 125.92 78.81 125.75 79.29 125.27 80.25 125.11 80.73 123.67 83.62 123.51 83.78 123.03 84.74 122.87 84.9 122.39 85.86 122.23 86.02 122.07 86.34 121.9 86.5 121.74 86.83 121.58 86.99 121.42 87.31 121.26 87.47 121.1 87.79 120.94 87.95 120.78 88.27 120.46 88.59 120.3 88.91 120.14 89.07 119.82 89.71 119.34 90.19 119.18 90.51 118.54 91.16 118.38 91.48 117.73 92.12 117.57 92.44 114.21 95.81 113.88 95.97 113.56 96.29 113.24 96.45 112.92 96.77 112.6 96.93 112.28 97.25 111.96 97.41 111.64 97.73 111.32 97.89 111.16 98.05 110.84 98.21 110.52 98.53 109.87 98.86 109.71 99.02 108.43 99.66 108.27 99.82 106.67 100.62 106.51 100.78 105.86 101.1 105.38 101.26 104.74 101.58 104.26 101.74 103.94 101.9 101.05 102.87 98.49 103.51 97.68 103.67 95.76 103.99 94.32 104.15 92.23 104.31 88.86 104.47 87.9 104.63 87.9 104.47 87.26 104.31 84.85 104.15 83.41 103.99 82.12 103.83 81.48 103.67 79.88 103.35 78.92 103.03 78.6 102.87 78.11 102.71 75.87 101.58 75.71 101.42 75.39 101.26 75.23 101.1 74.91 100.94 74.59 100.62 74.27 100.46 73.94 100.14 73.62 99.98 72.18 98.53 71.86 98.53 71.86 98.05 71.54 97.73 71.38 97.73 71.38 97.41 71.06 97.09 70.9 97.09 70.9 96.77 70.74 96.61 70.58 96.61 70.58 96.29 70.42 96.29 70.42 95.97 70.26 95.81 70.09 95.81 70.09 95.49 69.93 95.49 69.93 95.17 69.77 95.17 69.77 94.85 69.61 94.69 69.45 94.69 69.45 94.36 69.29 94.36 69.29 93.88 69.13 93.88 69.13 93.56 68.97 93.56 68.97 93.24 68.81 93.24 68.81 92.76 68.65 92.76 68.65 92.44 68.49 92.44 68.49 91.96 68.33 91.96 68.33 91.48 68.17 91.48 68.17 91 68.01 91 68.01 90.51 67.85 90.51 67.85 90.03 67.69 90.03 67.69 89.39 67.53 89.39 67.53 88.75 67.37 88.75 67.37 88.11 67.21 88.11 67.21 87.31 67.05 87.31 67.05 86.34 66.89 86.34 66.89 85.38 66.73 85.38 66.73 84.26 66.57 84.26 66.57 82.65 66.41 82.65 66.41 76.88 66.25 76.88 66.25 74.15 66.41 72.87 65.76 72.87"/>
    </clipPath>
    <clipPath id="clippath-2">
      <polygon class="cls-3" points="101.69 41.27 100.57 41.43 99.45 41.59 98.65 41.75 97.36 42.07 96.56 42.23 92.71 43.52 92.39 43.68 91.91 43.84 91.27 44.16 90.79 44.32 88.54 45.44 88.38 45.6 87.1 46.24 86.94 46.4 86.62 46.56 86.3 46.89 85.97 47.05 85.81 47.21 85.17 47.53 85.01 47.69 84.69 47.85 84.37 48.17 84.05 48.33 83.73 48.65 83.41 48.81 83.25 48.97 82.93 49.13 82.61 49.45 82.29 49.61 81.64 50.25 81.32 50.41 80.52 51.22 80.2 51.38 77.79 53.78 77.47 53.94 77.31 54.1 77.15 54.42 75.87 55.71 75.71 56.03 74.91 56.83 74.75 57.15 74.27 57.63 74.1 57.95 73.62 58.43 73.46 58.75 72.98 59.24 72.82 59.56 72.66 59.72 72.5 60.04 72.34 60.2 72.02 60.84 71.7 61.16 71.54 61.48 71.22 61.8 71.06 62.12 70.9 62.28 70.42 63.25 70.26 63.41 70.09 63.73 69.93 63.89 69.61 64.53 69.45 64.69 69.29 65.01 69.13 65.17 68.81 65.81 68.65 65.97 67.21 68.86 67.05 69.34 66.57 70.3 66.41 71.11 66.25 72.07 66.08 72.87 65.92 73.99 65.76 75.76 65.76 80.57 65.92 80.57 65.92 82.49 66.08 82.49 66.08 84.1 66.25 84.1 66.25 85.06 66.41 85.06 66.41 86.02 66.57 86.02 66.57 86.83 66.73 86.83 66.73 87.47 66.89 87.47 66.89 88.11 67.05 88.11 67.05 88.75 67.21 88.75 67.21 89.39 67.37 89.39 67.37 89.87 67.53 89.87 67.53 90.35 67.69 90.35 67.69 90.84 67.85 90.84 67.85 91.16 68.01 91.16 68.01 91.64 68.17 91.64 68.17 92.12 68.33 92.12 68.33 92.44 68.49 92.44 68.49 92.92 68.65 92.92 68.65 93.24 68.81 93.24 68.81 93.56 68.97 93.56 68.97 93.88 69.13 93.88 69.13 94.36 69.29 94.36 69.29 94.69 69.45 94.69 69.45 95.01 69.61 95.01 69.77 95.17 69.77 95.49 69.93 95.49 69.93 95.81 70.09 95.81 70.09 96.13 70.26 96.13 70.26 96.45 70.42 96.45 70.58 96.61 70.58 96.93 70.74 96.93 70.74 97.25 70.9 97.25 71.22 97.57 71.22 97.89 71.38 97.89 71.54 98.05 71.54 98.53 71.86 98.53 71.86 99.02 72.18 99.02 72.5 99.34 72.5 99.82 72.82 99.82 73.46 100.46 73.46 100.94 73.78 100.94 74.43 101.58 74.75 101.74 75.87 102.87 76.19 103.03 76.51 103.35 76.83 103.51 77.15 103.83 77.47 103.99 77.63 104.15 78.92 104.79 79.08 104.95 79.4 105.11 80.36 105.43 80.68 105.59 81.16 105.75 83.09 106.23 85.65 106.55 87.74 106.72 91.43 106.88 92.71 107.04 92.71 106.88 93.35 106.72 95.28 106.55 96.56 106.39 97.52 106.23 98.33 106.07 99.29 105.91 99.93 105.75 100.41 105.59 101.69 105.27 102.18 105.11 102.5 104.95 103.94 104.47 104.26 104.31 104.74 104.15 105.38 103.83 105.86 103.67 107.47 102.87 107.63 102.71 108.27 102.38 108.43 102.22 109.07 101.9 109.23 101.74 109.87 101.42 110.04 101.26 110.68 100.94 110.84 100.78 111.16 100.62 111.48 100.3 111.8 100.14 112.28 99.66 112.6 99.5 113.24 98.86 113.56 98.7 114.21 98.05 114.53 97.89 116.13 96.29 116.29 95.97 117.89 94.36 118.06 94.04 118.38 93.72 118.54 93.4 118.86 93.08 119.02 92.76 119.34 92.44 119.5 92.12 119.66 91.96 119.82 91.64 120.14 91.32 120.3 91 120.46 90.84 120.62 90.51 120.78 90.35 121.1 89.71 121.26 89.55 121.42 89.23 121.58 89.07 121.9 88.43 122.07 88.27 122.55 87.31 122.71 87.15 124.47 83.62 124.63 83.14 124.95 82.49 125.11 82.01 125.27 81.69 125.43 81.21 125.59 80.89 125.75 80.41 125.92 80.09 126.4 78.64 126.56 78.32 127.04 76.88 127.2 76.24 127.68 74.8 127.84 74.15 128 73.67 128.32 72.39 128.8 69.98 128.96 69.34 129.12 69.02 128.96 69.02 128.8 69.18 128.48 69.82 128.32 69.98 128.16 70.3 128 70.46 127.84 70.79 127.68 70.95 127.52 71.27 127.2 71.59 127.04 71.91 126.72 72.23 126.56 72.55 126.24 72.87 126.08 73.19 125.92 73.35 125.75 73.67 125.43 73.99 125.27 74.31 124.79 74.8 124.63 75.12 123.83 75.92 123.67 76.24 122.87 77.04 122.71 77.36 117.73 82.33 117.41 82.49 116.77 83.14 116.45 83.3 115.81 83.94 115.49 84.1 115.17 84.42 114.85 84.58 114.69 84.74 114.37 84.9 114.05 85.22 113.72 85.38 113.4 85.7 112.76 86.02 112.6 86.18 111.96 86.5 111.8 86.67 111.48 86.83 111.32 86.99 108.11 88.59 107.63 88.75 107.31 88.91 105.38 89.55 104.58 89.71 103.3 90.03 102.18 90.19 100.41 90.35 99.29 90.51 99.29 90.35 97.84 90.19 96.72 90.03 94.8 89.55 94.32 89.39 93.67 89.07 93.19 88.91 92.55 88.59 92.07 88.43 91.43 88.11 91.27 87.95 90.95 87.79 90.63 87.47 90.31 87.31 89.66 86.67 89.18 86.67 89.18 86.18 88.86 85.86 88.54 85.86 88.54 85.38 88.22 85.06 87.9 85.06 87.9 84.58 87.74 84.42 87.42 84.42 87.42 83.94 87.1 83.94 87.1 83.62 86.94 83.62 86.94 83.3 86.78 83.3 86.78 82.98 86.62 82.98 86.62 82.65 86.46 82.65 86.46 82.17 86.3 82.17 86.3 81.85 86.14 81.85 86.14 81.53 85.97 81.53 85.97 81.21 85.81 81.21 85.81 80.73 85.65 80.73 85.65 80.09 85.49 80.09 85.49 79.45 85.33 79.45 85.33 78.81 85.17 78.81 85.17 78.16 85.01 78.16 85.01 77.52 84.85 77.52 84.85 76.08 84.69 76.08 84.69 74.47 84.53 74.47 84.53 70.3 84.69 68.38 85.01 66.13 85.17 65.33 86.14 61.48 86.78 59.56 86.94 59.24 87.58 57.31 88.38 55.71 88.54 55.23 89.5 53.3 89.66 53.14 89.98 52.5 90.15 52.34 90.47 51.7 90.63 51.54 90.95 50.9 91.11 50.73 91.43 50.09 92.23 49.29 92.39 48.97 92.71 48.65 93.03 48.01 93.51 47.53 93.67 47.21 94.96 45.92 95.28 45.76 96.56 44.48 96.88 44.32 97.2 44 97.52 43.84 97.68 43.68 98 43.52 98.17 43.36 99.13 42.87 99.29 42.71 100.57 42.07 101.05 41.91 101.69 41.75 102.66 41.43 103.46 41.27 101.69 41.27"/>
    </clipPath>
    <clipPath id="clippath-3">
      <rect class="cls-1" x="65.76" y="41.27" width="63.68" height="66.25"/>
    </clipPath>
  </defs>
  <g id="Capa_1-2" data-name="Capa 1">
    <g>
      <text class="cls-4" transform="translate(13.32 60.81) rotate(110.24)"><tspan x="0" y="0"> </tspan></text>
      <text class="cls-4" transform="translate(11.71 65.22) rotate(107.08)"><tspan x="0" y="0"> </tspan></text>
      <text class="cls-4" transform="translate(10.33 69.73) rotate(103.89)"><tspan x="0" y="0"> </tspan></text>
      <text class="cls-4" transform="translate(9.21 74.29) rotate(100.73)"><tspan x="0" y="0"> </tspan></text>
      <text class="cls-4" transform="translate(8.35 78.9) rotate(97.58)"><tspan x="0" y="0"> </tspan></text>
      <text class="cls-4" transform="translate(7.74 83.53) rotate(94.46)"><tspan x="0" y="0"> </tspan></text>
      <text class="cls-4" transform="translate(7.38 88.24) rotate(91.34)"><tspan x="0" y="0"> </tspan></text>
      <text class="cls-4" transform="translate(7.28 92.92) rotate(88.25)"><tspan x="0" y="0"> </tspan></text>
      <text class="cls-4" transform="translate(7.43 97.6) rotate(85.15)"><tspan x="0" y="0"> </tspan></text>
      <text class="cls-4" transform="translate(7.83 102.28) rotate(82.01)"><tspan x="0" y="0"> </tspan></text>
      <text class="cls-4" transform="translate(8.49 106.92) rotate(78.86)"><tspan x="0" y="0"> </tspan></text>
      <text class="cls-4" transform="translate(9.4 111.52) rotate(75.71)"><tspan x="0" y="0"> </tspan></text>
      <text class="cls-4" transform="translate(10.58 116.09) rotate(72.52)"><tspan x="0" y="0"> </tspan></text>
      <text class="cls-4" transform="translate(11.99 120.56) rotate(69.36)"><tspan x="0" y="0"> </tspan></text>
      <text class="cls-4" transform="translate(13.65 124.95) rotate(66.2)"><tspan x="0" y="0"> </tspan></text>
      <text class="cls-4" transform="translate(15.56 129.25) rotate(63.03)"><tspan x="0" y="0"> </tspan></text>
      <text class="cls-4" transform="translate(17.7 133.43) rotate(59.88)"><tspan x="0" y="0"> </tspan></text>
      <text class="cls-4" transform="translate(20.06 137.49) rotate(56.73)"><tspan x="0" y="0"> </tspan></text>
      <text class="cls-4" transform="translate(22.65 141.42) rotate(53.6)"><tspan x="0" y="0"> </tspan></text>
      <text class="cls-4" transform="translate(25.43 145.18) rotate(50.47)"><tspan x="0" y="0"> </tspan></text>
      <text class="cls-4" transform="translate(28.42 148.79) rotate(47.35)"><tspan x="0" y="0"> </tspan></text>
      <text class="cls-4" transform="translate(31.6 152.23) rotate(44.23)"><tspan x="0" y="0"> </tspan></text>
      <text class="cls-4" transform="translate(34.98 155.51) rotate(41.09)"><tspan x="0" y="0"> </tspan></text>
      <text class="cls-4" transform="translate(38.52 158.59) rotate(37.97)"><tspan x="0" y="0"> </tspan></text>
      <text class="cls-4" transform="translate(42.22 161.47) rotate(34.84)"><tspan x="0" y="0"> </tspan></text>
      <text class="cls-4" transform="translate(46.08 164.14) rotate(31.69)"><tspan x="0" y="0"> </tspan></text>
      <text class="cls-4" transform="translate(50.17 166.75) rotate(26.97)"><tspan x="0" y="0">6</tspan></text>
      <text class="cls-4" transform="translate(58.57 170.99) rotate(20.64)"><tspan x="0" y="0">6</tspan></text>
      <text class="cls-4" transform="translate(67.36 174.27) rotate(14.32)"><tspan x="0" y="0">0</tspan></text>
      <text class="cls-4" transform="translate(76.36 176.45) rotate(9.57)"><tspan x="0" y="0"> </tspan></text>
      <text class="cls-4" transform="translate(81.13 177.33) rotate(4.85)"><tspan x="0" y="0">6</tspan></text>
      <text class="cls-4" transform="translate(90.47 178.09) rotate(-1.34)"><tspan x="0" y="0">3</tspan></text>
      <text class="cls-4" transform="translate(99.86 177.84) rotate(-7.58)"><tspan x="0" y="0">5</tspan></text>
      <text class="cls-4" transform="translate(108.99 176.51) rotate(-12.3)"><tspan x="0" y="0"> </tspan></text>
      <text class="cls-4" transform="translate(113.75 175.55) rotate(-17.06)"><tspan x="0" y="0">9</tspan></text>
      <text class="cls-4" transform="translate(122.75 172.75) rotate(-23.41)"><tspan x="0" y="0">4</tspan></text>
      <text class="cls-4" transform="translate(131.34 169) rotate(-29.7)"><tspan x="0" y="0">7</tspan></text>
      <g>
        <g>
          <g>
            <g>
              <polygon class="cls-2" points="65.76 72.87 65.6 73.03 65.44 73.51 65.28 73.83 64.96 74.8 64.8 75.44 64.64 75.92 64.32 77.2 64 78.81 63.84 79.77 63.84 91.8 64 91.8 64 92.6 64.16 92.6 64.16 93.4 64.32 93.4 64.32 94.2 64.48 94.2 64.48 94.69 64.64 94.69 64.64 95.17 64.8 95.17 64.8 95.81 64.96 95.81 64.96 96.29 65.12 96.29 65.12 96.77 65.28 96.77 65.28 97.09 65.44 97.09 65.44 97.57 65.6 97.57 65.6 97.89 65.76 97.89 65.76 98.53 65.92 98.53 65.92 98.86 66.08 98.86 66.08 99.34 66.25 99.34 66.25 99.66 66.41 99.66 66.41 99.98 66.73 99.98 66.73 100.46 66.89 100.46 66.89 100.78 67.05 100.78 67.05 101.1 67.21 101.1 67.21 101.42 67.37 101.42 67.37 101.74 67.69 101.74 67.69 102.22 67.85 102.22 68.01 102.38 68.01 102.71 68.17 102.71 68.33 102.87 68.33 103.19 68.65 103.19 68.65 103.67 68.97 103.67 68.97 104.15 69.13 104.15 69.93 104.95 69.93 105.27 70.09 105.27 72.18 107.36 72.5 107.52 72.98 108 73.3 108.16 73.62 108.48 73.94 108.64 74.1 108.8 74.43 108.96 74.75 109.28 75.39 109.6 75.55 109.76 76.83 110.4 76.99 110.57 77.95 111.05 78.44 111.21 78.76 111.37 79.24 111.53 79.56 111.69 80.04 111.85 80.36 112.01 81 112.17 81.48 112.33 83.41 112.81 85.33 113.13 86.46 113.29 88.54 113.45 90.79 113.61 91.59 113.77 91.59 113.61 92.87 113.45 95.12 113.29 96.56 113.13 97.2 112.97 98.81 112.65 100.73 112.17 101.21 112.01 101.53 111.85 102.98 111.37 103.3 111.21 104.26 110.89 104.9 110.57 105.06 110.4 107.31 109.28 107.47 109.12 108.11 108.8 108.27 108.64 108.59 108.48 108.91 108.16 109.23 108 109.39 107.84 109.71 107.68 110.04 107.36 110.36 107.2 110.52 107.04 110.84 106.88 111.16 106.55 111.48 106.39 113.4 104.47 113.72 104.31 114.05 103.99 114.21 103.67 115.01 102.87 115.17 102.54 116.13 101.58 116.29 101.26 116.77 100.78 116.93 100.46 117.09 100.3 117.25 99.98 117.41 99.82 117.57 99.5 117.89 99.18 118.06 98.86 118.22 98.7 118.38 98.37 118.54 98.21 118.7 97.89 118.86 97.73 119.02 97.41 119.18 97.25 119.66 96.29 119.82 96.13 120.14 95.49 120.3 95.33 120.78 94.36 120.94 94.2 121.58 92.92 121.74 92.44 122.87 90.19 123.03 89.71 123.35 89.07 123.51 88.59 123.67 88.27 123.83 87.79 123.99 87.47 124.15 86.99 124.31 86.67 125.59 82.82 125.75 82.49 125.92 82.01 126.08 81.37 126.24 80.89 126.4 80.25 126.56 79.77 126.72 79.13 126.88 78.64 127.04 78 127.2 77.52 127.36 76.88 127.52 76.08 128 74.15 128.16 73.35 128.32 72.87 128.16 72.87 128 73.03 126.72 76.88 126.56 77.2 126.4 77.68 126.24 78 126.08 78.48 125.92 78.81 125.75 79.29 125.27 80.25 125.11 80.73 123.67 83.62 123.51 83.78 123.03 84.74 122.87 84.9 122.39 85.86 122.23 86.02 122.07 86.34 121.9 86.5 121.74 86.83 121.58 86.99 121.42 87.31 121.26 87.47 121.1 87.79 120.94 87.95 120.78 88.27 120.46 88.59 120.3 88.91 120.14 89.07 119.82 89.71 119.34 90.19 119.18 90.51 118.54 91.16 118.38 91.48 117.73 92.12 117.57 92.44 114.21 95.81 113.88 95.97 113.56 96.29 113.24 96.45 112.92 96.77 112.6 96.93 112.28 97.25 111.96 97.41 111.64 97.73 111.32 97.89 111.16 98.05 110.84 98.21 110.52 98.53 109.87 98.86 109.71 99.02 108.43 99.66 108.27 99.82 106.67 100.62 106.51 100.78 105.86 101.1 105.38 101.26 104.74 101.58 104.26 101.74 103.94 101.9 101.05 102.87 98.49 103.51 97.68 103.67 95.76 103.99 94.32 104.15 92.23 104.31 88.86 104.47 87.9 104.63 87.9 104.47 87.26 104.31 84.85 104.15 83.41 103.99 82.12 103.83 81.48 103.67 79.88 103.35 78.92 103.03 78.6 102.87 78.11 102.71 75.87 101.58 75.71 101.42 75.39 101.26 75.23 101.1 74.91 100.94 74.59 100.62 74.27 100.46 73.94 100.14 73.62 99.98 72.18 98.53 71.86 98.53 71.86 98.05 71.54 97.73 71.38 97.73 71.38 97.41 71.06 97.09 70.9 97.09 70.9 96.77 70.74 96.61 70.58 96.61 70.58 96.29 70.42 96.29 70.42 95.97 70.26 95.81 70.09 95.81 70.09 95.49 69.93 95.49 69.93 95.17 69.77 95.17 69.77 94.85 69.61 94.69 69.45 94.69 69.45 94.36 69.29 94.36 69.29 93.88 69.13 93.88 69.13 93.56 68.97 93.56 68.97 93.24 68.81 93.24 68.81 92.76 68.65 92.76 68.65 92.44 68.49 92.44 68.49 91.96 68.33 91.96 68.33 91.48 68.17 91.48 68.17 91 68.01 91 68.01 90.51 67.85 90.51 67.85 90.03 67.69 90.03 67.69 89.39 67.53 89.39 67.53 88.75 67.37 88.75 67.37 88.11 67.21 88.11 67.21 87.31 67.05 87.31 67.05 86.34 66.89 86.34 66.89 85.38 66.73 85.38 66.73 84.26 66.57 84.26 66.57 82.65 66.41 82.65 66.41 76.88 66.25 76.88 66.25 74.15 66.41 72.87 65.76 72.87"/>
              <g class="cls-8">
                <rect class="cls-1" x="63.84" y="72.87" width="65.28" height="41.38"/>
              </g>
            </g>
            <g>
              <polygon class="cls-2" points="101.69 41.27 100.57 41.43 99.45 41.59 98.65 41.75 97.36 42.07 96.56 42.23 92.71 43.52 92.39 43.68 91.91 43.84 91.27 44.16 90.79 44.32 88.54 45.44 88.38 45.6 87.1 46.24 86.94 46.4 86.62 46.56 86.3 46.89 85.97 47.05 85.81 47.21 85.17 47.53 85.01 47.69 84.69 47.85 84.37 48.17 84.05 48.33 83.73 48.65 83.41 48.81 83.25 48.97 82.93 49.13 82.61 49.45 82.29 49.61 81.64 50.25 81.32 50.41 80.52 51.22 80.2 51.38 77.79 53.78 77.47 53.94 77.31 54.1 77.15 54.42 75.87 55.71 75.71 56.03 74.91 56.83 74.75 57.15 74.27 57.63 74.1 57.95 73.62 58.43 73.46 58.75 72.98 59.24 72.82 59.56 72.66 59.72 72.5 60.04 72.34 60.2 72.02 60.84 71.7 61.16 71.54 61.48 71.22 61.8 71.06 62.12 70.9 62.28 70.42 63.25 70.26 63.41 70.09 63.73 69.93 63.89 69.61 64.53 69.45 64.69 69.29 65.01 69.13 65.17 68.81 65.81 68.65 65.97 67.21 68.86 67.05 69.34 66.57 70.3 66.41 71.11 66.25 72.07 66.08 72.87 65.92 73.99 65.76 75.76 65.76 80.57 65.92 80.57 65.92 82.49 66.08 82.49 66.08 84.1 66.25 84.1 66.25 85.06 66.41 85.06 66.41 86.02 66.57 86.02 66.57 86.83 66.73 86.83 66.73 87.47 66.89 87.47 66.89 88.11 67.05 88.11 67.05 88.75 67.21 88.75 67.21 89.39 67.37 89.39 67.37 89.87 67.53 89.87 67.53 90.35 67.69 90.35 67.69 90.84 67.85 90.84 67.85 91.16 68.01 91.16 68.01 91.64 68.17 91.64 68.17 92.12 68.33 92.12 68.33 92.44 68.49 92.44 68.49 92.92 68.65 92.92 68.65 93.24 68.81 93.24 68.81 93.56 68.97 93.56 68.97 93.88 69.13 93.88 69.13 94.36 69.29 94.36 69.29 94.69 69.45 94.69 69.45 95.01 69.61 95.01 69.77 95.17 69.77 95.49 69.93 95.49 69.93 95.81 70.09 95.81 70.09 96.13 70.26 96.13 70.26 96.45 70.42 96.45 70.58 96.61 70.58 96.93 70.74 96.93 70.74 97.25 70.9 97.25 71.22 97.57 71.22 97.89 71.38 97.89 71.54 98.05 71.54 98.53 71.86 98.53 71.86 99.02 72.18 99.02 72.5 99.34 72.5 99.82 72.82 99.82 73.46 100.46 73.46 100.94 73.78 100.94 74.43 101.58 74.75 101.74 75.87 102.87 76.19 103.03 76.51 103.35 76.83 103.51 77.15 103.83 77.47 103.99 77.63 104.15 78.92 104.79 79.08 104.95 79.4 105.11 80.36 105.43 80.68 105.59 81.16 105.75 83.09 106.23 85.65 106.55 87.74 106.72 91.43 106.88 92.71 107.04 92.71 106.88 93.35 106.72 95.28 106.55 96.56 106.39 97.52 106.23 98.33 106.07 99.29 105.91 99.93 105.75 100.41 105.59 101.69 105.27 102.18 105.11 102.5 104.95 103.94 104.47 104.26 104.31 104.74 104.15 105.38 103.83 105.86 103.67 107.47 102.87 107.63 102.71 108.27 102.38 108.43 102.22 109.07 101.9 109.23 101.74 109.87 101.42 110.04 101.26 110.68 100.94 110.84 100.78 111.16 100.62 111.48 100.3 111.8 100.14 112.28 99.66 112.6 99.5 113.24 98.86 113.56 98.7 114.21 98.05 114.53 97.89 116.13 96.29 116.29 95.97 117.89 94.36 118.06 94.04 118.38 93.72 118.54 93.4 118.86 93.08 119.02 92.76 119.34 92.44 119.5 92.12 119.66 91.96 119.82 91.64 120.14 91.32 120.3 91 120.46 90.84 120.62 90.51 120.78 90.35 121.1 89.71 121.26 89.55 121.42 89.23 121.58 89.07 121.9 88.43 122.07 88.27 122.55 87.31 122.71 87.15 124.47 83.62 124.63 83.14 124.95 82.49 125.11 82.01 125.27 81.69 125.43 81.21 125.59 80.89 125.75 80.41 125.92 80.09 126.4 78.64 126.56 78.32 127.04 76.88 127.2 76.24 127.68 74.8 127.84 74.15 128 73.67 128.32 72.39 128.8 69.98 128.96 69.34 129.12 69.02 128.96 69.02 128.8 69.18 128.48 69.82 128.32 69.98 128.16 70.3 128 70.46 127.84 70.79 127.68 70.95 127.52 71.27 127.2 71.59 127.04 71.91 126.72 72.23 126.56 72.55 126.24 72.87 126.08 73.19 125.92 73.35 125.75 73.67 125.43 73.99 125.27 74.31 124.79 74.8 124.63 75.12 123.83 75.92 123.67 76.24 122.87 77.04 122.71 77.36 117.73 82.33 117.41 82.49 116.77 83.14 116.45 83.3 115.81 83.94 115.49 84.1 115.17 84.42 114.85 84.58 114.69 84.74 114.37 84.9 114.05 85.22 113.72 85.38 113.4 85.7 112.76 86.02 112.6 86.18 111.96 86.5 111.8 86.67 111.48 86.83 111.32 86.99 108.11 88.59 107.63 88.75 107.31 88.91 105.38 89.55 104.58 89.71 103.3 90.03 102.18 90.19 100.41 90.35 99.29 90.51 99.29 90.35 97.84 90.19 96.72 90.03 94.8 89.55 94.32 89.39 93.67 89.07 93.19 88.91 92.55 88.59 92.07 88.43 91.43 88.11 91.27 87.95 90.95 87.79 90.63 87.47 90.31 87.31 89.66 86.67 89.18 86.67 89.18 86.18 88.86 85.86 88.54 85.86 88.54 85.38 88.22 85.06 87.9 85.06 87.9 84.58 87.74 84.42 87.42 84.42 87.42 83.94 87.1 83.94 87.1 83.62 86.94 83.62 86.94 83.3 86.78 83.3 86.78 82.98 86.62 82.98 86.62 82.65 86.46 82.65 86.46 82.17 86.3 82.17 86.3 81.85 86.14 81.85 86.14 81.53 85.97 81.53 85.97 81.21 85.81 81.21 85.81 80.73 85.65 80.73 85.65 80.09 85.49 80.09 85.49 79.45 85.33 79.45 85.33 78.81 85.17 78.81 85.17 78.16 85.01 78.16 85.01 77.52 84.85 77.52 84.85 76.08 84.69 76.08 84.69 74.47 84.53 74.47 84.53 70.3 84.69 68.38 85.01 66.13 85.17 65.33 86.14 61.48 86.78 59.56 86.94 59.24 87.58 57.31 88.38 55.71 88.54 55.23 89.5 53.3 89.66 53.14 89.98 52.5 90.15 52.34 90.47 51.7 90.63 51.54 90.95 50.9 91.11 50.73 91.43 50.09 92.23 49.29 92.39 48.97 92.71 48.65 93.03 48.01 93.51 47.53 93.67 47.21 94.96 45.92 95.28 45.76 96.56 44.48 96.88 44.32 97.2 44 97.52 43.84 97.68 43.68 98 43.52 98.17 43.36 99.13 42.87 99.29 42.71 100.57 42.07 101.05 41.91 101.69 41.75 102.66 41.43 103.46 41.27 101.69 41.27"/>
              <g class="cls-7">
                <g>
                  <rect class="cls-1" x="65.76" y="41.27" width="63.68" height="66.25"/>
                  <g class="cls-5">
                    <rect class="cls-1" x="65.76" y="41.27" width="63.68" height="66.25"/>
                  </g>
                </g>
              </g>
            </g>
            <path class="cls-2" d="M85.16,85.06l.16.16v-.16h-.16ZM85.48,84.9l.16.16v-.16h-.16ZM102.32,41.27l-.64.16-.96.16-.8.16-.96.32-.64.16-1.44.48-1.28.64-.16.16-.32.16-.16.16-2.25,1.12-.48.16-1.92.96-.48.16-1.92.96-.48.16-1.92.96-.96.96-1.44,2.89-.96,2.89-.16.8v4.17l.16-.16.16-.32,1.12-1.12.32-.16.64-.64.32-.16.64-.64.64-.32.16-.16.96-.48.16-.16.96-.48.48-.16.32-.16.48-.16.64-.16.48-.16.8-.16h3.05l.64.16.48.16.96.48,1.12,1.12v.48h.32v.48h.16v.48h.16v.32h.16v.48h.16v.8h.16v.8h.16l-.16,3.85-.16,1.28-.16.8-.16.64-.16.48-.16.64-.48,1.44-.16.32-.16.48-.16.32-.16.48-1.44,2.89-.16.16-.32.64-.16.16-.32.64-.32.32-.16.32-.16.16-.16.32-.16.16-.32.64-.16.16-.16.32-.16.16-.16.32-.8.8-.16.32-.8.8-.16.32-2.41,2.41-.32.16-.48.48-.32.16-.32.32-.32.16-.16.16-.32.16-.16.16v.32l.32-.32.32-.16.16-.16,1.6-.8.16-.16.64-.32.16-.16.64-.32.16-.16.32-.16.16-.16.32-.16.16-.16.64-.32.16-.16.32-.16.16-.16.32-.16.16-.16.32-.16.32-.32.32-.16.16-.16.32-.16.16-.16.32-.16.32-.32.32-.16.16-.16.32-.16.32-.32.32-.16.32-.32.32-.16.32-.32.32-.16.32-.32.32-.16.32-.32.32-.16.48-.48.32-.16.64-.64.32-.16.48-.48.32-.16,1.6-1.6.32-.16,1.6-1.6.32-.16,2.41-2.41.32-.64.96-.96.16-.32,1.28-1.28.16-.32.32-.32.16-.32.16-.16.16-.32.32-.32.16-.32.16-.16.16-.32.16-.16.32-.64.16-.16.48-.96.16-.16.16-.32.16-.48.16-.32.32-.96.32-.64.48-1.92.16-4.65h-.16v-.64h-.16v-.48h-.16v-.32h-.16v-.48h-.16v-.48h-.16v-.32h-.16v-.32l-.16-.16h-.16v-.32h-.16v-.32h-.16v-.32l-.16-.16h-.16v-.32l-.16-.16h-.16v-.32l-.32-.32h-.16v-.32l-1.92-1.92-.32-.16-.16-.16-1.28-.64-.16-.16-.32-.16-1.44-.48-.8-.16h-3.69Z"/>
          </g>
          <g>
            <path class="cls-1" d="M80.95,122.81c-.8,0-1.28.16-1.76.32-.49.33-.81.49-1.13.97-.48.32-.64.64-.96,1.13-.16.48-.16.96-.16,1.61,0,.48,0,.96.16,1.44.32.49.48.97.96,1.29.32.32.64.64,1.13.81.48.16.96.32,1.76.32.48,0,.96-.16,1.45-.32.48-.17.8-.49,1.28-.81.32-.32.64-.8.8-1.29.16-.48.32-.96.32-1.44,0-.65-.16-1.13-.32-1.61-.16-.49-.48-.81-.8-1.13-.48-.48-.8-.64-1.28-.97-.49-.16-.97-.32-1.45-.32ZM80.95,120.39c.8,0,1.61.16,2.42.48.8.32,1.44.81,2.1,1.45.48.48.96,1.13,1.28,1.93.32.81.48,1.61.48,2.59,0,.8-.16,1.6-.48,2.42-.32.8-.8,1.45-1.28,2.1-.65.48-1.29.97-2.1,1.29-.8.32-1.61.48-2.42.48-1.12,0-1.93-.16-2.74-.48-.8-.32-1.44-.81-1.92-1.29-.65-.64-1.13-1.29-1.45-2.1-.32-.81-.48-1.61-.48-2.42,0-.97.16-1.77.48-2.59.32-.8.8-1.45,1.45-1.93.48-.64,1.12-1.13,1.92-1.45.8-.32,1.61-.48,2.74-.48Z"/>
            <path class="cls-1" d="M68.07,120.39c.96,0,1.76.16,2.58.48.96.32,1.6.81,2.09,1.45.16.16.16.32.16.48.16.16.16.32.16.32,0,.33-.16.65-.48.97-.16.32-.48.32-.8.32s-.64,0-.8-.32c-.48-.32-.81-.64-1.29-.8-.48-.33-.96-.49-1.6-.49-.48,0-.97.16-1.45.32-.48.33-.96.49-1.28.97-.32.32-.64.64-.8,1.13-.16.48-.33.96-.33,1.61,0,.48.17.96.33,1.44.16.49.48.97.8,1.29.32.32.8.64,1.28.81.48.16.97.32,1.45.32.64,0,1.12-.16,1.6-.32.48-.17.81-.49,1.13-.81.16-.16.32-.32.48-.32.16-.16.32-.16.48-.16.32,0,.64.16.96.48.16.16.32.48.32.81s-.16.64-.32.8c-.64.64-1.28,1.13-2.09,1.45-.81.32-1.61.48-2.58.48-.81,0-1.61-.16-2.42-.48-.8-.32-1.45-.81-2.1-1.29-.48-.64-.96-1.29-1.28-2.1-.32-.81-.48-1.61-.48-2.42,0-.97.16-1.77.48-2.59.32-.8.8-1.45,1.28-1.93.64-.64,1.29-1.13,2.1-1.45.8-.32,1.6-.48,2.42-.48Z"/>
            <path class="cls-1" d="M54.07,122.81c-.32,0-.8.16-1.12.32-.49.17-.81.33-1.13.65-.32.16-.64.48-.8.8-.32.32-.48.81-.48,1.13h7.24c0-.32-.16-.81-.48-1.13-.16-.32-.48-.64-.8-.8-.32-.32-.64-.48-1.13-.65-.32-.16-.8-.32-1.28-.32ZM54.07,120.39c.96,0,1.77.16,2.58.48.64.32,1.44.81,1.93,1.29.64.64,1.12,1.29,1.44,1.93.32.8.48,1.61.48,2.42,0,.49-.16.81-.32.97-.16.16-.48.32-.96.32h-8.69c0,.48.16.81.32,1.13.32.32.64.64.96.96.32.16.64.32,1.13.49.32.16.8.32,1.12.32.64,0,1.12-.16,1.61-.32.32-.17.8-.49,1.12-.81.16-.16.32-.32.48-.32.16-.16.32-.16.48-.16.32,0,.64.16.81.48.32.16.32.48.32.81v.48c0,.16-.16.32-.32.48-.49.64-1.13.97-1.93,1.29-.8.32-1.61.48-2.58.48-.8,0-1.61-.16-2.42-.48-.8-.32-1.44-.81-2.1-1.29-.48-.64-.96-1.29-1.28-2.1-.32-.81-.48-1.61-.48-2.42,0-.97.16-1.77.48-2.59.32-.8.8-1.45,1.28-1.93.65-.64,1.29-1.13,2.1-1.45.8-.32,1.61-.48,2.42-.48Z"/>
            <path class="cls-1" d="M135.51,120.72c.64,0,1.12.32,1.12.97.48-.33.96-.65,1.45-.97.64-.16,1.12-.32,1.76-.32.8,0,1.77.16,2.42.48.64.16,1.12.65,1.6,1.13.49.48.81.96.97,1.77.32.64.32,1.29.32,2.1v5.8c0,.32,0,.65-.32.97-.16.16-.48.32-.8.32-.49,0-.65-.16-.97-.32-.16-.32-.32-.65-.32-.97v-5.8c0-.32,0-.8-.16-1.13-.16-.32-.32-.64-.64-.96-.16-.32-.64-.48-.96-.65-.33-.16-.81-.32-1.13-.32-.48,0-.8.16-1.12.32-.48.17-.81.33-1.13.65-.16.16-.32.48-.48.96-.16.33-.32.65-.32,1.13v5.8c0,.32,0,.65-.32.97-.16.16-.48.32-.8.32-.48,0-.65-.16-.97-.32-.16-.32-.32-.65-.32-.97v-10c0-.33.16-.49.32-.65.16-.32.49-.32.81-.32Z"/>
            <path class="cls-1" d="M126.17,122.81c-.64,0-1.12.16-1.6.32-.48.33-.8.49-1.29.97-.32.32-.48.64-.8,1.13-.16.48-.32.96-.32,1.61,0,.48.16.96.32,1.44.32.49.48.97.8,1.29.49.32.81.64,1.29.81.48.16.96.32,1.6.32.49,0,.97-.16,1.45-.32.32-.17.8-.49,1.12-.81s.65-.8.81-1.29c.16-.48.16-.96.16-1.44,0-.65,0-1.13-.16-1.61-.16-.49-.49-.81-.81-1.13-.32-.48-.8-.64-1.12-.97-.48-.16-.96-.32-1.45-.32ZM132.3,131.68c0,.32-.17.65-.33.81-.16.32-.48.48-.96.48-.32,0-.64-.16-.8-.48-.32-.16-.32-.49-.32-.81v-.16c-.32.32-.48.48-.81.65-.16.16-.48.32-.8.48-.32.16-.64.32-1.12.32-.32.16-.64.16-.97.16-.96,0-1.92-.16-2.57-.48-.81-.32-1.45-.81-2.1-1.29-.48-.64-.96-1.29-1.29-2.1-.32-.81-.48-1.61-.48-2.42,0-.97.16-1.77.48-2.59.33-.8.81-1.45,1.29-1.93.64-.64,1.28-1.13,2.1-1.45.8-.32,1.6-.48,2.57-.48.81,0,1.45.16,2.1.48.64.16,1.13.65,1.61.97,0-.32,0-.65.32-.81.16-.32.48-.32.8-.32.48,0,.8,0,.96.32.16.16.33.49.33.81v9.83Z"/>
            <path class="cls-1" d="M112.18,122.81c-.48,0-.97.16-1.29.32-.48.17-.8.33-1.12.65-.32.16-.64.48-.8.8-.32.32-.49.81-.49,1.13h7.25c0-.32-.16-.81-.48-1.13-.16-.32-.48-.64-.81-.8-.32-.32-.64-.48-1.12-.65-.32-.16-.8-.32-1.12-.32ZM112.18,120.39c.8,0,1.6.16,2.42.48.8.32,1.44.81,1.92,1.29.64.64,1.13,1.29,1.45,1.93.32.8.48,1.61.48,2.42,0,.49-.16.81-.32.97-.16.16-.48.32-.97.32h-8.69c0,.48.17.81.49,1.13.16.32.48.64.8.96.32.16.64.32,1.12.49.32.16.81.32,1.29.32s.96-.16,1.44-.32c.32-.17.8-.49,1.13-.81.16-.16.32-.32.48-.32.16-.16.32-.16.48-.16.32,0,.64.16.8.48.32.16.32.48.32.81v.48c0,.16-.16.32-.32.48-.48.64-1.12.97-1.92,1.29-.81.32-1.61.48-2.42.48-.97,0-1.77-.16-2.58-.48-.8-.32-1.45-.81-1.93-1.29-.64-.64-1.12-1.29-1.44-2.1-.32-.81-.48-1.61-.48-2.42,0-.97.16-1.77.48-2.59.32-.8.8-1.45,1.44-1.93.48-.64,1.13-1.13,1.93-1.45.8-.32,1.6-.48,2.58-.48Z"/>
            <path class="cls-1" d="M103.96,131.68c0,.32,0,.65-.32.81-.16.32-.48.48-.8.48-.49,0-.65-.16-.97-.48-.16-.16-.32-.49-.32-.81v-14.52c0-.48.16-.8.32-.96.32-.17.48-.33.97-.33.32,0,.64.16.8.33.32.16.32.48.32.96v14.52Z"/>
            <path class="cls-1" d="M94.95,120.39c.8,0,1.76.16,2.58.48.8.32,1.44.81,1.92,1.45.16.16.16.32.33.48v.32c0,.33-.17.65-.33.97-.32.32-.64.32-.96.32s-.48,0-.8-.32-.8-.64-1.29-.8c-.48-.33-.96-.49-1.44-.49-.64,0-1.12.16-1.61.32-.48.33-.8.49-1.12.97-.48.32-.64.64-.96,1.13-.16.48-.16.96-.16,1.61,0,.48,0,.96.16,1.44.32.49.48.97.96,1.29.32.32.64.64,1.12.81.49.16.97.32,1.61.32.48,0,.96-.16,1.44-.32.49-.17.97-.49,1.29-.81.16-.16.16-.32.32-.32.16-.16.32-.16.48-.16.32,0,.64.16.96.48.16.16.33.48.33.81s0,.64-.33.8c-.64.64-1.28,1.13-2.09,1.45-.81.32-1.61.48-2.42.48-.96,0-1.77-.16-2.58-.48-.8-.32-1.44-.81-1.93-1.29-.64-.64-1.12-1.29-1.44-2.1-.32-.81-.48-1.61-.48-2.42,0-.97.16-1.77.48-2.59.32-.8.8-1.45,1.44-1.93.49-.64,1.13-1.13,1.93-1.45.8-.32,1.61-.48,2.58-.48Z"/>
          </g>
          <path class="cls-1" d="M124.81,145.15c0,.32-.16.81-.48.97-.32.32-.96.48-1.61.48s-1.12-.16-1.44-.32v-.49c.16,0,.48.17.64.17h.8c.49,0,.81,0,1.13-.17.16-.16.32-.32.32-.64,0-.16,0-.32-.16-.48,0-.16-.16-.16-.48-.32-.16-.16-.49-.16-.81-.33-.48-.16-.8-.48-1.12-.64-.16-.32-.32-.64-.32-.96,0-.49.16-.81.48-.97.32-.32.8-.48,1.28-.48s1.13.16,1.61.32l-.16.64c-.48-.32-1.12-.32-1.45-.32s-.64,0-.8.16-.32.32-.32.65c0,.16,0,.32.16.48,0,0,.16.16.32.32.16,0,.48.16.81.32.64.16,1.12.32,1.28.65.16.16.32.48.32.96ZM113.54,143.86c0,.65.16,1.29.48,1.61.32.32.65.49,1.29.49s1.12-.17,1.44-.49c.16-.32.32-.96.32-1.61,0-.8-.16-1.28-.32-1.77-.32-.32-.8-.48-1.44-.48s-.97.16-1.29.48c-.32.49-.48.97-.48,1.77ZM117.89,143.86c0,.81-.32,1.45-.81,1.93-.32.49-.96.81-1.76.81s-1.45-.32-1.77-.81c-.48-.48-.64-1.12-.64-1.93,0-.96.16-1.61.64-2.1.32-.48.97-.8,1.77-.8s1.44.32,1.92.8c.33.48.65,1.13.65,2.1ZM108.39,146.45v-5.32h.65v5.32h-.65ZM103.4,141.6c-.64,0-1.13.16-1.45.48-.32.49-.48.97-.48,1.77,0,.65.16,1.13.48,1.61.32.32.81.49,1.45.49.32,0,.8,0,1.28-.17v.65c-.32,0-.8.16-1.44.16-.81,0-1.29-.32-1.77-.81-.48-.48-.64-1.12-.64-1.93,0-.64,0-1.12.32-1.61.16-.32.48-.64.8-.96.48-.16.97-.32,1.45-.32.64,0,1.12.16,1.44.32l-.16.64c-.48-.32-.8-.32-1.28-.32ZM96.32,146.45v-5.32h.65v5.32h-.65ZM92.46,141.12h.64l-1.92,5.32h-.65l-1.92-5.32h.64l1.28,3.55c.16.32.16.8.33,1.12,0-.48.16-.8.32-1.28l1.28-3.39ZM82.64,143.7h.96c.32,0,.64,0,.96-.32.16-.16.33-.32.33-.8,0-.33-.17-.49-.33-.65-.32-.16-.64-.32-1.12-.32h-.8v2.1ZM82.64,144.19v2.26h-.64v-5.32h1.6c.64,0,1.12.16,1.45.32.32.32.48.64.48,1.13,0,.8-.48,1.28-1.13,1.44l1.45,2.43h-.8l-1.29-2.26h-1.12ZM78.29,146.45h-3.06v-5.32h3.06v.48h-2.42v1.77h2.26v.64h-2.26v1.94h2.42v.48ZM71.53,145.15c0,.32-.16.81-.48.97-.32.32-.8.48-1.45.48s-1.12-.16-1.44-.32v-.49c.16,0,.48.17.8.17h.64c.48,0,.81,0,.97-.17.32-.16.32-.32.32-.64v-.48c-.16-.16-.32-.16-.48-.32-.16-.16-.49-.16-.81-.33-.48-.16-.8-.48-.96-.64-.32-.32-.32-.64-.32-.96,0-.49,0-.81.32-.97.32-.32.8-.48,1.28-.48.65,0,1.13.16,1.45.32l-.16.64c-.48-.32-.8-.32-1.29-.32-.32,0-.64,0-.8.16-.16.16-.32.32-.32.65,0,.16.16.32.16.48.16,0,.16.16.32.32.16,0,.48.16.8.32.65.16.97.32,1.13.65.32.16.32.48.32.96Z"/>
        </g>
        <text class="cls-4" transform="translate(22.11 62.05) rotate(-62.99)"><tspan x="0" y="0">w</tspan></text>
        <text class="cls-4" transform="translate(27.55 51.32) rotate(-54.41)"><tspan x="0" y="0">w</tspan></text>
        <text class="cls-4" transform="translate(34.52 41.53) rotate(-45.9)"><tspan x="0" y="0">w</tspan></text>
        <text class="cls-4" transform="translate(42.31 33.67) rotate(-40.88)"><tspan x="0" y="0">.</tspan></text>
        <text class="cls-4" transform="translate(45.43 30.85) rotate(-36.43)"><tspan x="0" y="0">e</tspan></text>
        <text class="cls-4" transform="translate(52.12 25.94) rotate(-31)"><tspan x="0" y="0">c</tspan></text>
        <text class="cls-4" transform="translate(58.05 22.31) rotate(-25.36)"><tspan x="0" y="0">o</tspan></text>
        <text class="cls-4" transform="translate(66.03 18.56) rotate(-19.71)"><tspan x="0" y="0">c</tspan></text>
        <text class="cls-4" transform="translate(72.62 16.25) rotate(-15.88)"><tspan x="0" y="0">l</tspan></text>
        <text class="cls-4" transform="translate(76.15 15.15) rotate(-11.54)"><tspan x="0" y="0">e</tspan></text>
        <text class="cls-4" transform="translate(84.27 13.49) rotate(-5.82)"><tspan x="0" y="0">a</tspan></text>
        <text class="cls-4" transform="translate(91.92 12.74) rotate(-.93)"><tspan x="0" y="0">n</tspan></text>
        <text class="cls-4" transform="translate(100.28 12.69) rotate(5.1)"><tspan x="0" y="0">s</tspan></text>
        <text class="cls-4" transform="translate(106.89 13.23) rotate(10.42)"><tspan x="0" y="0">e</tspan></text>
        <text class="cls-4" transform="translate(115.06 14.77) rotate(15.5)"><tspan x="0" y="0">r</tspan></text>
        <text class="cls-4" transform="translate(120.72 16.28) rotate(20.51)"><tspan x="0" y="0">v</tspan></text>
        <text class="cls-4" transform="translate(128.26 19.18) rotate(24.72)"><tspan x="0" y="0">i</tspan></text>
        <text class="cls-4" transform="translate(131.65 20.67) rotate(28.56)"><tspan x="0" y="0">c</tspan></text>
        <text class="cls-4" transform="translate(137.75 24.05) rotate(32.36)"><tspan x="0" y="0">i</tspan></text>
        <text class="cls-4" transform="translate(140.92 25.93) rotate(36.83)"><tspan x="0" y="0">o</tspan></text>
        <text class="cls-4" transform="translate(147.97 31.26) rotate(42.33)"><tspan x="0" y="0">s</tspan></text>
        <text class="cls-4" transform="translate(152.91 35.82) rotate(46.22)"><tspan x="0" y="0">.</tspan></text>
        <text class="cls-4" transform="translate(155.88 38.79) rotate(50.66)"><tspan x="0" y="0">n</tspan></text>
        <text class="cls-4" transform="translate(161.16 45.2) rotate(56.56)"><tspan x="0" y="0">e</tspan></text>
        <text class="cls-4" transform="translate(165.69 52.15) rotate(61.6)"><tspan x="0" y="0">t</tspan></text>
        <text class="cls-4" transform="translate(168.48 57.35) rotate(65.24)"><tspan x="0" y="0"> </tspan></text>
        <text class="cls-4" transform="translate(170.26 61.2) rotate(68.28)"><tspan x="0" y="0"> </tspan></text>
        <text class="cls-4" transform="translate(171.85 65.17) rotate(71.35)"><tspan x="0" y="0"> </tspan></text>
        <text class="cls-4" transform="translate(173.22 69.23) rotate(74.43)"><tspan x="0" y="0"> </tspan></text>
        <text class="cls-4" transform="translate(174.37 73.33) rotate(77.49)"><tspan x="0" y="0"> </tspan></text>
        <text class="cls-4" transform="translate(175.29 77.49) rotate(80.55)"><tspan x="0" y="0"> </tspan></text>
        <text class="cls-4" transform="translate(176 81.69) rotate(83.59)"><tspan x="0" y="0"> </tspan></text>
        <text class="cls-4" transform="translate(176.48 85.94) rotate(86.62)"><tspan x="0" y="0"> </tspan></text>
        <text class="cls-4" transform="translate(176.71 90.18) rotate(89.07)"><tspan x="0" y="0"> </tspan></text>
        <text class="cls-4" transform="translate(176.76 94.48) rotate(92.63)"><tspan x="0" y="0"> </tspan></text>
        <text class="cls-4" transform="translate(176.57 98.73) rotate(95.64)"><tspan x="0" y="0"> </tspan></text>
        <text class="cls-4" transform="translate(176.16 102.98) rotate(98.69)"><tspan x="0" y="0"> </tspan></text>
        <text class="cls-4" transform="translate(175.52 107.2) rotate(101.74)"><tspan x="0" y="0"> </tspan></text>
        <text class="cls-4" transform="translate(174.65 111.38) rotate(104.81)"><tspan x="0" y="0"> </tspan></text>
        <text class="cls-4" transform="translate(173.57 115.51) rotate(107.88)"><tspan x="0" y="0"> </tspan></text>
        <text class="cls-4" transform="translate(172.26 119.57) rotate(110.95)"><tspan x="0" y="0"> </tspan></text>
        <text class="cls-4" transform="translate(170.73 123.57) rotate(114.02)"><tspan x="0" y="0"> </tspan></text>
        <text class="cls-4" transform="translate(169 127.47) rotate(117.08)"><tspan x="0" y="0"> </tspan></text>
        <text class="cls-4" transform="translate(167.07 131.25) rotate(120.12)"><tspan x="0" y="0"> </tspan></text>
        <text class="cls-4" transform="translate(164.93 134.94) rotate(123.16)"><tspan x="0" y="0"> </tspan></text>
        <text class="cls-4" transform="translate(162.59 138.53) rotate(126.21)"><tspan x="0" y="0"> </tspan></text>
        <text class="cls-4" transform="translate(160.08 141.96) rotate(129.23)"><tspan x="0" y="0"> </tspan></text>
        <text class="cls-4" transform="translate(157.38 145.28) rotate(132.27)"><tspan x="0" y="0"> </tspan></text>
        <text class="cls-4" transform="translate(154.5 148.44) rotate(135.3)"><tspan x="0" y="0"> </tspan></text>
        <text class="cls-4" transform="translate(151.47 151.45) rotate(138.33)"><tspan x="0" y="0"> </tspan></text>
        <text class="cls-4" transform="translate(148.3 154.28) rotate(141.34)"><tspan x="0" y="0"> </tspan></text>
        <text class="cls-4" transform="translate(144.96 156.96) rotate(144.39)"><tspan x="0" y="0"> </tspan></text>
        <path class="cls-6" d="M47.79,162.42c-22.31-14.87-37.02-40.27-37.02-69.1,0-8.59,1.31-16.88,3.73-24.68"/>
        <path class="cls-6" d="M173.15,63.09c3.67,9.37,5.68,19.57,5.68,30.24,0,28.64-14.51,53.9-36.59,68.81"/>
      </g>
    </g>
  </g>
</svg>