<?xml version="1.0" encoding="UTF-8"?>
<svg id="Capa_2" data-name="Capa 2" xmlns="http://www.w3.org/2000/svg" viewBox="0 0 271.74 136.52">
  <defs>
    <style>
      .cls-1 {
        fill: #fff;
      }
    </style>
  </defs>
  <g id="Capa_1-2" data-name="Capa 1">
    <g>
      <path class="cls-1" d="M19.76,96.62c-2.31,1.47-4.13,2.63-6.01,3.83.48.78.64,1.42,1,1.58,12.78,5.56,26.04,10.95,39.95,6.4,15.11-4.94,15.5-8.61,8.31-21.26-2.36-4.16-6.32-7.81-10.34-10.54-7.45-5.08-14-10.99-18.2-18.84-2.05-3.82-3.53-9.18-2.53-13.15,2.43-9.59,5.64-19.2,10.06-28.03C47.6,5.46,58.63,1.79,70.26.36c9.81-1.2,19.27.67,28.2,4.85,8.35,3.92,9.93,7.83,8,16.78-1.83,8.48-5.75,14.41-14.78,16.79-4.66,1.23-8.79,4.44-14.32,6.37.9-1.73,1.57-3.65,2.78-5.14,1.34-1.66,3.1-2.99,4.79-4.33,1.76-1.39,3.64-2.61,6.89-4.92-4.56-1.24-7.57-2.36-10.68-2.85-10.37-1.63-20.61-1.6-29.99,4.04-2.1,1.26-4.08,2.92-5.68,4.78-4.58,5.33-3.99,9.75.89,14.77,7.85,8.08,16.44,15.73,22.86,24.86,11.55,16.43,8.97,36.48-4.81,50.66-4.99,5.13-11.07,7.86-18.02,8.79-13.4,1.79-26.27.34-37.92-7.08-8.7-5.55-10.67-12.62-6.04-21.85,1.77-3.52,4.01-6.95,6.68-9.83,2.84-3.07,6.5-3.4,10.65-.44Z"/>
      <path class="cls-1" d="M109.67,106.37c4.8-3.44,9.44-7.15,14.46-10.22,3.02-1.85,6.56-3.2,10.03-3.9,3.97-.79,6.46,1.03,5.33,6.12,5.79-2.94,10.51-8.05,18.43-5.5-1.61,1.79-3.16,3.11-4.17,4.76-.92,1.51-1.25,3.38-1.84,5.1,1.63-.38,3.71-.24,4.81-1.21,6.2-5.48,12.1-11.3,18.22-16.88,11.17-10.19,22.22-20.53,33.75-30.3,3.54-3,8.36-4.72,12.85-6.25,1.96-.67,5.85-.12,6.6,1.18,1.03,1.8.82,5.51-.45,7.19-3.28,4.33-6.97,8.63-11.33,11.79-10.77,7.8-22.08,14.84-33.01,22.44-3.47,2.42-6.41,5.61-9.59,8.44.3.43.59.85.89,1.28,1.39-.85,2.7-1.86,4.17-2.52,4.36-1.97,8.65-4.27,13.22-5.49,2.11-.56,4.81,1.1,7.24,1.76-.77,2.38-1.13,5.02-2.42,7.08-1.7,2.7-4.13,4.95-6.25,7.39.32.4.65.8.97,1.2,3.64-2.41,7.39-4.68,10.91-7.26,7.21-5.27,14.8-9.91,23.92-10.28,5.15-.21,10.34,1.36,15.58.09.89-.22,2.04.66,3.07,1.03-.52,1.1-.84,2.36-1.58,3.29-2.79,3.51-6.03,6.7-8.5,10.41-2.53,3.79-1.53,5.7,2.98,6.61,2.68.54,5.45.6,8.44.9-4.67,5.34-20.72,1.58-23.73-5.13-14.26,7.13-19.61,6.73-21.57-1.16-4.5,1.85-8.94,4.23-13.67,5.38-2.25.54-5.8-.6-7.36-2.28-.9-.96.51-4.85,1.77-6.85,1.75-2.76,4.35-4.98,6.27-8.19-1.18.49-2.49.81-3.53,1.51-6.33,4.29-12.72,8.51-18.85,13.09-3.7,2.76-7.46,3.13-12.44,1.91,1.23-2.6,2.32-4.88,3.4-7.15-8.59,1.83-10.94.94-13.91-5.75-4.52,3.54-9.09,6.8-13.28,10.51-3.65,3.24-7.56,3.71-13.38,2.28,3.95-5.26,7.52-10.01,11.09-14.76-.12-.15-.24-.3-.36-.45-3.81,2.77-7.37,6.01-11.48,8.22-8.58,4.62-17.92,7.47-27.59,8.3-2.83.24-7.78-2.04-8.43-4.18-.81-2.64.98-7.22,3.18-9.42,6.98-6.97,15.91-9.36,25.68-8.03,4.23.58,6.09,4.31,4.2,8.15-.87,1.77-2.13,3.35-3.21,5.01.15.26.29.51.44.77ZM224.67,51.81c-.58-.63-1.15-1.27-1.73-1.9-14.09,7.46-22.76,20.86-33.42,32.08,12.82-8.85,26.44-16.82,35.15-30.18ZM106.54,94.88c-8.2,2.79-14.53,7.73-18.61,16.18,11.3-.04,12.97-10.42,18.61-16.18ZM231.71,95.47c-6.98.04-17.92,8.9-19.27,15.13,8.43-2.36,14.05-7.79,19.27-15.13Z"/>
      <path class="cls-1" d="M256.62,91.41c3.4-1.68,7.6-.88,11.37,2.47,3.93,3.49,4.58,8.03,2.86,11.83-.81-2.75-.91-7.72-3.44-10.3-2.59-2.64-7.57-2.92-10.79-4Z"/>
      <path class="cls-1" d="M258.85,109.54c3.18-8.9.67-12.33-8.07-11.87,4-2.04,7.01-1.33,9.19,1.53,2.31,3.03,2.05,6.26-1.13,10.35Z"/>
      <path class="cls-1" d="M252.68,111.04c2.12-5.95.45-8.25-5.4-7.94,2.68-1.36,4.69-.89,6.15,1.02,1.55,2.02,1.37,4.19-.75,6.92Z"/>
    </g>
  </g>
</svg>