<?xml version="1.0" encoding="UTF-8"?>
<svg id="Capa_2" data-name="Capa 2" xmlns="http://www.w3.org/2000/svg" viewBox="0 0 591.93 241.83">
  <defs>
    <style>
      .cls-1 {
        fill: #fff;
      }
    </style>
  </defs>
  <g id="Capa_1-2" data-name="Capa 1">
    <path class="cls-1" d="M384.18,15.37v141.82s-.33.36-.36.36h-42.82v-10.55c-5.53,5.68-11.67,9.61-19.62,10.96-27.43,4.65-49.59-18.95-50.92-45.11-.7-13.91,2.07-27.61,10.71-38.71,10.29-13.21,26.66-22.36,43.76-17.41,6.25,1.81,11.44,5.78,16.07,10.19V26.88l43.18-11.51ZM320.55,59.56c-4.8.32-8.03,2.74-10.7,6.56-8.12,11.65-9.03,36.74-7.72,50.54,1.37,14.44,8.74,30.82,25.07,32.01,5.73.42,10.52-2.3,13.79-6.83v-63.29c-1.6-8.63-11.07-19.62-20.44-18.99Z"/>
    <path class="cls-1" d="M260.12,136.72c-2.45,11.5-12.93,20.99-24.8,21.79-8.55.57-16.49-1.41-21.35-8.87-18.66,15.97-46.92,9.46-60.53-9.75-12.31-17.37-11.06-43.62,3.19-59.54,11.66-13.03,29.48-20.51,46.66-13.9-1.57-4.04-6.01-6.71-10.31-5.99.74-1.76,3.2-2.82,4.91-3.36,13.63-4.28,35.21,3.13,44.5,13.8,13.28,15.24,3.92,37.06,8.47,55.07,1.29,5.11,4.05,9.14,9.25,10.77ZM194.6,67.95c-15.31,1.45-17.86,27.14-18.19,38.88-.41,14.32,1.95,33.81,16.72,40.62,5.48,2.52,9.87,2.7,14.94-.58,4.63-3,2.53-3.65,1.34-7.77-4.26-14.72-1.49-36.4-2.27-52.16-.19-3.92-.58-12.1-1.93-15.57-.36-.91-2.24-1.67-3.19-2.09-2.62-1.14-4.5-1.6-7.41-1.33Z"/>
    <path class="cls-1" d="M540.83,55.89v23.74l2.58-4.25c7.08-10.18,19.68-17.44,32.12-12.34,7.21,2.96,13.23,9.7,16.39,16.71l-15.71,16.18c-.52.09-.28-.1-.38-.33-2.47-5.55-4.25-10.39-8.49-15.02-9.15-9.98-20.57-8.74-25.43,4.32-.2.54-1.08,2.9-1.08,3.23v69.41h-43.18v-90.39l43.18-11.27Z"/>
    <path class="cls-1" d="M487.06,122.34c.65,1.02-2.1,8.57-2.73,10.03-7.55,17.53-24.75,26.9-43.65,25.18-49.21-4.47-62.88-68.68-22.17-95.04,17.45-11.3,38.89-11.77,56.05.29,4.69,3.3,8.06,5.9,3.42,11.44-2.46,2.94-5.86,5.86-8.51,8.75-6.6,7.22-21.54,24.33-23.75,33.33-1.99,8.12,2.02,13.44,10.11,14.6,10.58,1.51,20.71-2.54,28.51-9.48.4.2,2.63.76,2.73.91ZM437.67,119.91v-5.15c0-8.01,17.96-21.99,23.26-28.06,4.05-4.63,3.64-7.49,1.99-13.24-2.97-10.35-11.5-22.62-22.97-13.24-12.18,9.97-13.33,35.73-8.22,49.44,1.34,3.6,3.35,7.41,5.94,10.25Z"/>
    <path class="cls-1" d="M64.87,241.7c-10.23-.69-21.9-5.53-30.4-11.21C4.23,210.26-.36,171.8,3.96,138.28c.26-2.02.75-7.05,1.39-8.68.79-2,3.96-2.16,4.75-.16,2.33,10.28,6.82,21.31,16.31,26.86,17.14,10.04,38.48,7.66,56.98,12.82,21.37,5.97,36.09,24.71,27.48,47.22-5.74,15.01-21.77,24.3-37.36,25.36-2.49.17-6.15.17-8.64,0Z"/>
    <path class="cls-1" d="M.09,60.68c-.12-2.09-.12-4.86,0-6.95C2.49,12.77,45.95-13.14,82.78,6.94c39.49,21.52,41.35,80.41,1.44,102.46C46.74,130.11,2.5,101.88.09,60.68Z"/>
    <path class="cls-1" d="M110.26,172.11c-.33-.33-1.05-3.63-1.38-4.49-6.38-16.81-29.59-6.49-39.82-18.7-7.87-9.4-1.53-21.69,9.3-24.76,13.46-3.82,27.41,5.33,32.21,17.81,3.05,7.95,3.75,20.84,1.78,29.1-.24.99-1.27,1.86-2.08,1.04Z"/>
    <path class="cls-1" d="M237.72,207.42l4.2,11.99,4.68-11.99h4.44v17.98h-3.84v-11.99l-3.86,10.76c-.94-.1-3.06.4-3.54-.37l-3.88-10.87v12.47h-3.12v-17.98h4.92Z"/>
    <path class="cls-1" d="M211.93,225.4c-.17-.15-.99-3.52-1.46-4.18-.27-.38-.39-.35-.81-.39-1.98-.23-4.43.17-6.46.05-.6.21-1.63,4.34-1.86,4.49-.37.23-2.46-.1-3.09.03l7.31-18,3.7.05,6.98,17.95h-4.32ZM209.29,218.21l-2.4-6.47c-1.41,1.79-1.74,4.44-2.88,6.47h5.28Z"/>
    <path class="cls-1" d="M172.1,225.4c-.19-.13-1.13-3.8-1.56-4.32-.22-.27-.41-.22-.71-.25-.74-.09-5.99-.1-6.45.05-.76.26-1.64,4.3-1.86,4.49-.21.18-2.56-.08-3.09.02,1.08-1.99,6.34-17.88,7.31-18,1.12-.14,2.55.11,3.7.04l6.74,17.96h-4.08ZM169.46,218.21c-1.14-2.03-1.46-4.69-2.88-6.47l-2.4,6.47h5.28Z"/>
    <path class="cls-1" d="M266.86,225.4c-.33-.91-1.05-3.71-1.56-4.32-.22-.27-.41-.22-.71-.25-.74-.09-5.99-.1-6.45.05-.74.25-1.51,4.17-1.87,4.49-.21.19-2.55-.07-3.09.03,1.14-1.97,6.34-17.88,7.31-18,1.11-.14,2.55.11,3.7.05l6.74,17.95h-4.08ZM258.95,218.21h5.28l-2.52-6.48-2.76,6.48Z"/>
    <path class="cls-1" d="M188.9,218.45v6.95h-3.84v-17.98h8.04c.21,0,1.6.38,1.9.5,3.02,1.24,3.08,5.93,1.34,8.25-.67.89-2.89,2.28-3.96,2.28h-3.48ZM188.9,215.81c5.83.66,6.34-6.63,0-5.75v5.75Z"/>
    <polygon class="cls-1" points="222.48 207.42 222.48 222.76 230.4 222.76 230.4 225.4 218.4 225.4 218.4 207.42 222.48 207.42"/>
    <polygon class="cls-1" points="148.59 207.42 148.59 222.76 156.51 222.76 156.51 225.4 144.75 225.4 144.75 207.42 148.59 207.42"/>
    <path class="cls-1" d="M315.44,177.93c8.03,1.08,8.48,14,1.97,17.07-.56.27-2.17.91-2.68.91h-8.04v-17.98c2.73.26,6.11-.36,8.76,0ZM309.57,193.75h4.92c.24,0,1.58-.57,1.88-.76,3.45-2.13,3.56-10.21-.15-12.24-.35-.19-1.68-.67-1.97-.67h-4.68v13.67Z"/>
    <path class="cls-1" d="M281.74,177.93c.81.11,2.14-.28,2.76.24l8.52,12.95v-13.19h2.4v17.98c-.81-.11-2.14.28-2.76-.24l-8.52-12.95v13.19h-2.4v-17.98Z"/>
    <path class="cls-1" d="M346.51,195.91v-17.98h8.52c.42,0,2.05.6,2.53.83,6.84,3.29,4.42,17.15-3.25,17.15h-7.8ZM354.07,180.09c-1.49-.21-3.38.15-4.92,0v13.67h4.92c1.2,0,2.84-1.29,3.44-2.32,2.05-3.56,1.57-10.64-3.44-11.35Z"/>
    <path class="cls-1" d="M268.25,177.51c12.75-1.74,13.37,17.87,2.55,18.85-11.94,1.08-12.26-17.52-2.55-18.85ZM268.48,179.66c-5.42.92-5.76,13.49.24,14.51,5.73.97,7.39-5.15,6.52-9.63-.7-3.56-3.06-5.51-6.76-4.88Z"/>
    <path class="cls-1" d="M491.83,177.51c12.78-1.75,13.37,17.87,2.55,18.85-11.86,1.08-12.28-17.52-2.55-18.85ZM492.07,179.66c-3.91.66-4.37,6.27-3.99,9.39.81,6.64,9.28,7.15,10.71.45,1.03-4.8-.7-10.85-6.72-9.84Z"/>
    <path class="cls-1" d="M183.8,177.51c5.12-.7,9.32,2.33,9.86,7.52.65,6.24-2.24,11.87-9.2,11.35-9.92-.74-10.21-17.57-.66-18.87ZM184.03,179.66c-6.72,1.16-5.54,17.66,3.42,14.21,5.1-1.97,5.11-15.67-3.42-14.21Z"/>
    <path class="cls-1" d="M446.49,177.51c12.6-1.73,13.11,17.83,2.55,18.85-11.96,1.15-12.53-17.48-2.55-18.85ZM446.73,179.66c-6.77,1.15-5.56,17.66,3.42,14.21,4.98-1.92,5.15-15.66-3.42-14.21Z"/>
    <path class="cls-1" d="M438.15,195.91h-3.36l-4.66-7.21c-.61-.44-1.57-.15-2.3-.22v7.43h-2.88v-17.98h7.32c.57,0,2.11.83,2.52,1.32,2.42,2.85.71,6.93-2.4,8.39l5.75,8.27ZM427.84,186.32c2.32.17,5.2-.75,5.29-3.48.1-3.01-3.12-2.89-5.29-2.75v6.23Z"/>
    <path class="cls-1" d="M558.11,195.91h-3.36l-4.66-7.21c-.61-.44-1.57-.15-2.3-.22v7.43h-2.88v-17.98h7.32c.57,0,2.11.83,2.52,1.32,2.4,2.82.69,6.95-2.4,8.39l5.75,8.27ZM547.79,186.32c2.32.17,5.2-.75,5.29-3.48.1-3.01-3.12-2.89-5.29-2.75v6.23Z"/>
    <path class="cls-1" d="M422.56,195.91h-3.36l-4.66-7.21c-.61-.44-1.57-.15-2.3-.22v7.43h-2.88v-17.98h7.32c.57,0,2.11.83,2.52,1.32,2.37,2.79.69,6.98-2.4,8.39l5.75,8.27ZM412.24,186.32c2.32.17,5.2-.75,5.29-3.48.1-3.01-3.12-2.89-5.29-2.75v6.23Z"/>
    <path class="cls-1" d="M519.6,177.93c4.99.79,4.25,8.08.13,9.71l5.74,8.27c-.82-.15-2.72.26-3.36-.12-.89-.53-3.63-5.99-4.68-7.07-.6-.5-1.75-.14-2.52-.24v7.43h-2.64v-17.98c2.23.25,5.18-.34,7.32,0ZM514.92,186.32c2.42.19,5.34-.65,5.44-3.51.03-1-.87-2.72-1.96-2.72h-3.48v6.23Z"/>
    <path class="cls-1" d="M235.92,195.91c-.69-.12-2.38.23-2.89-.11-.37-.25-1.58-4.19-1.94-4.89-1.02.07-7.14-.26-7.43.12-.36.62-1.68,4.69-1.93,4.85-.38.23-2.02-.08-2.6.04,1.18-2,6.36-17.36,7.19-17.86.4-.24,2.47-.23,2.76.12l6.84,17.74ZM230.16,188.96l-2.76-7.2-3,7.2h5.76Z"/>
    <path class="cls-1" d="M406.97,195.91c-.62-.13-2.45.2-2.84-.04-.25-.16-1.57-4.22-1.93-4.85-.29-.38-6.41-.05-7.43-.12-.36.71-1.57,4.64-1.94,4.89-.49.33-2,0-2.65.11l7.19-17.87c.77-.13,2.39-.4,2.87.27l6.74,17.6ZM401.45,188.96l-3-7.2-2.76,7.2h5.76Z"/>
    <path class="cls-1" d="M161.31,195.91c-.62-.13-2.45.2-2.84-.04-.25-.16-1.57-4.22-1.93-4.85-.29-.38-6.41-.05-7.43-.12-.36.71-1.57,4.64-1.94,4.89-.47.31-1.79,0-2.41.11l6.95-17.87c.77-.13,2.39-.39,2.87.27l6.74,17.6ZM155.79,188.96c-1.09-2.09-1.65-4.47-2.63-6.61-.11-.24-.16-.56-.49-.59l-2.64,7.19h5.76Z"/>
    <path class="cls-1" d="M577.06,195.91c-.69-.12-2.38.23-2.89-.11-.31-.2-1.47-4.13-1.88-4.78-.29-.37-6.41-.06-7.42-.11-.41.63-1.73,4.79-2,4.95-.38.23-2.02-.08-2.6.04l7.19-17.87c.78-.13,2.39-.39,2.87.27l6.74,17.6ZM571.3,188.96l-2.76-7.2-2.76,7.2h5.52Z"/>
    <path class="cls-1" d="M530.52,177.93v13.31c0,.27.8,1.76,1.08,2.04,1.85,1.84,6.6,1.03,6.6-1.8v-13.55h2.64v11.87c0,.5-.34,2.29-.49,2.86-1.36,4.93-10.27,4.98-12.1.37-.19-.47-.6-2.11-.6-2.52v-12.59h2.88Z"/>
    <path class="cls-1" d="M335.48,177.93c0,.4.14,2.16-.36,2.16h-7.08v5.27h5.88c.5,0,.36,1.76.36,2.16h-6.24v6.23h7.92v2.16h-10.8v-17.98h10.32Z"/>
    <path class="cls-1" d="M251.99,180.8c-3.58-1.12-8.47-2.69-10.75,1.37-1.86,3.32-1.49,9.92,2.52,11.53,2.93,1.18,5.45-.05,8.23-.91.46,2.49-.79,2.76-2.87,3.24-5.68,1.3-10.67-.68-11.7-6.78-.88-5.22,1.16-11.09,7.04-11.78,1.25-.15,6.41.07,7.3.81.49.41.14,1.87.23,2.52Z"/>
    <polygon class="cls-1" points="375.06 177.93 375.06 180.09 367.62 180.09 367.62 185.36 373.86 185.36 373.86 187.52 367.62 187.52 367.62 193.75 375.54 193.75 375.54 195.91 364.98 195.91 364.98 177.93 375.06 177.93"/>
    <path class="cls-1" d="M210.7,178.19c.17.2-.07,2.13.02,2.61-5.75-2.21-11.38-2.04-11.76,5.38s5.66,9.91,11.76,6.37c.39,2.75-.52,2.96-2.87,3.48-4.27.95-8.81.2-10.76-4.11-2.51-5.55-.73-13.57,6.15-14.4,1.03-.12,6.99.12,7.47.68Z"/>
    <path class="cls-1" d="M173.54,180.56c-1.82-.71-6.42-2.06-7.14.66-.87,3.29,5.62,4.5,7.34,6.93,2.61,3.7-.22,7.79-4.43,8.2-1.06.1-4.85-.17-5.61-.81-.44-.37-.34-2.73.12-2.76.14,0,1.89.97,2.47,1.12,2.05.53,5.37.6,5.58-2.21.28-3.73-7.2-4.24-8.07-8.26-.62-2.9,1.14-5.59,4.11-5.99.85-.11,5.08.07,5.51.69.31.44,0,1.81.1,2.41Z"/>
    <path class="cls-1" d="M388.01,180.56c-1.79-.5-5.27-1.92-6.72-.12-2.43,3.02,3.53,5,5.27,6.26,4.63,3.36,2.69,9.09-2.77,9.66-1.06.11-4.86-.18-5.61-.81-.5-.42-.13-2.08-.23-2.76,2.19,1.09,6.64,2.71,8.12-.15,2.15-4.15-7.21-5.21-7.87-9.34-.74-4.64,3.06-6.22,7.03-5.83,2.45.24,3.14.41,2.79,3.09Z"/>
    <path class="cls-1" d="M462.62,177.93v15.82h7.56c.5,0,.36,1.76.36,2.16h-10.8v-17.98h2.88Z"/>
    <path class="cls-1" d="M582.34,177.93v15.82h7.56c.5,0,.36,1.76.36,2.16h-10.8v-17.98h2.88Z"/>
    <polygon class="cls-1" points="475.58 177.93 475.58 193.75 483.5 193.75 483.5 195.91 472.94 195.91 472.94 177.93 475.58 177.93"/>
    <rect class="cls-1" x="214.09" y="177.93" width="2.88" height="17.98"/>
    <rect class="cls-1" x="255.35" y="177.93" width="2.88" height="17.98"/>
    <path class="cls-1" d="M273.1,172.9c-1.57,1.63-2.58,4.21-5.28,3.59-.19-.16,2.17-3.37,2.4-3.48.7-.34,2.07,0,2.88-.12Z"/>
  </g>
</svg>