<?xml version="1.0" encoding="UTF-8"?>
<svg id="Capa_1" xmlns="http://www.w3.org/2000/svg" version="1.1" viewBox="0 0 283.5 283.5">
  <!-- Generator: Adobe Illustrator 29.3.1, SVG Export Plug-In . SVG Version: 2.1.0 Build 151)  -->
  <defs>
    <style>
      .st0 {
        fill-rule: evenodd;
      }

      .st0, .st1 {
        fill: #fff;
      }
    </style>
  </defs>
  <path class="st0" d="M73.9,185.9h0v-36l-51.1-28.7v28.9c6.3,1,22.1-4.9,23.7,16.7,0,10-3.4,15.8-6.5,19.1h33.9ZM104.7,129.8v56h-16.4v-42.4L22.8,106.8v-9.1h57.5c-10.5,19.2,4.8,33.9,24.4,32.2"/>
  <path class="st0" d="M110.6,171.3h150.1v14.5H110.6v-14.5ZM124.1,182.1v-1.3h-.1c-1.8,2.9-7,1.3-6.6-2.2-.5-4.1,6.6-5,7.1-1.3h-.8c-.9-3-6-1.9-5.6,1.3-.4,3.9,5.8,3.8,5.8.6h-2.6v-.7h3.2v3.6h-.6ZM130.4,179.3l-1.5-3.5-1.6,3.5h3.1ZM131.6,182.1l-.9-2.1h-3.7l-1,2.1h-.8l3.2-7h.8l3.2,7h-.8ZM133.2,182.1v-7h3.8c2.2-.4,3.3,2.9.9,3.6h0c1.6,0,1,2.5,1.5,3.4h-.8c-.1-3.9-1.4-3-4.7-3.1v3.1h-.7ZM133.9,175.8v2.6c1.2-.3,4.6.8,4.6-1.4,0-2.1-3.4-1-4.6-1.2ZM146.8,182.1v-1.3h-.1c-1.8,2.9-7,1.3-6.6-2.2-.5-4.1,6.6-5,7.1-1.3h-.8c-.9-3-6-1.9-5.6,1.3-.4,3.9,5.8,3.8,5.8.6h-2.6v-.7h3.2v3.6h-.6ZM153.1,179.3l-1.5-3.5-1.6,3.5h3.1ZM154.3,182.1l-.9-2.1h-3.7l-1,2.1h-.8l3.2-7h.8l3.2,7h-.8ZM155.8,182.1v-7h.9l4.9,6h0v-6h.7v7h-.8l-4.9-6h0v6h-.7ZM165.7,182.1v-6.3h-2.7v-.7h6.2v.7h-2.7v6.3h-.7ZM173.8,179.3l-1.5-3.5-1.6,3.5h3.1ZM175.9,182.1l-3.2-7h-.8l-3.2,7h.8l1-2.1h3.7l.9,2.1h.8ZM184,182.1v-7h.9l4.9,6h0v-6h.7v7h-.8l-4.9-6h0v6h-.7ZM196.2,179.3l-1.5-3.5-1.6,3.5h3.1ZM197.4,182.1l-.9-2.1h-3.7l-1,2.1h-.8l3.2-7h.8l3.2,7h-.8ZM199,182.1v-7h3.8c2.2-.4,3.3,2.9.9,3.6h0c1.6,0,1,2.5,1.5,3.4h-.8c-.1-3.9-1.4-3-4.7-3.1v3.1h-.7ZM199.7,175.8v2.6c1.2-.3,4.6.8,4.6-1.4,0-2.1-3.4-1-4.6-1.2ZM206.2,175.1h.7v7h-.7v-7ZM207.7,181.4l5.2-5.7h-4.9v-.7h5.8v.7l-5.2,5.7h5.3v.7h-6.3v-.7ZM221.4,178.6c0-4.9,7.7-4.9,7.6,0,0,4.9-7.7,4.9-7.6,0M222.2,178.6c0,4.1,6.1,4.1,6,0,0-4.1-6.1-4.1-6,0M230.1,175.1h.7v7h-.7v-7ZM232.2,182.1v-7c2.7,0,6.8-.5,6.5,3.5.3,3.9-3.8,3.6-6.5,3.5ZM232.9,175.8v5.7c2.2-.1,5,.8,5-2.8.3-3.3-2.8-2.9-5-2.8ZM239.5,178.6c0-4.9,7.7-4.9,7.6,0,0,4.9-7.7,4.9-7.6,0M240.3,178.6c0,4.1,6.1,4.1,6,0,0-4.1-6.1-4.1-6,0M252.9,177.1c0-2-4.1-2-4.2-.3-.1,2,5.3.7,5.1,3.3-.1,3.2-6.2,2.9-6.1-.3h.7c.7,4.5,8.6-.2,2-1-7.2-1.5,2.3-7,3.1-1.7h-.7Z"/>
  <g>
    <path class="st1" d="M127.6,98.3c1.2.5,2.5,1.2,3.8,2.3l-2.3,2.7c-1.8-1.5-3.8-2.2-5.8-2.2s-4.5,1-6,2.9c-1.5,1.9-2.3,5-2.3,9.2s.8,7.1,2.3,9.1c1.5,2,3.5,2.9,6,2.9s2.4-.2,3.3-.7,2-1,3-1.8l2,2.6c-.9,1-2.1,1.8-3.6,2.4-1.4.6-3.1,1-5,1s-4.6-.6-6.5-1.8-3.4-3-4.4-5.3c-1.1-2.3-1.6-5.1-1.6-8.4s.6-6.1,1.7-8.4c1.1-2.3,2.6-4.1,4.5-5.3,1.9-1.2,4-1.8,6.3-1.8s3.3.2,4.5.7Z"/>
    <path class="st1" d="M141,98.1v26.3h12.3l-.5,3.6h-16v-29.9h4.1Z"/>
    <path class="st1" d="M162.7,98.1v29.9h-4.1v-29.9h4.1Z"/>
    <path class="st1" d="M192.3,128.1h-5.5l-12.2-25.4c.2,2,.3,3.8.4,5.5s.2,3.7.2,6.2v13.7h-3.9v-29.9h5.4l12.3,25.5c0-.8-.2-2.1-.3-4-.1-1.9-.2-3.6-.2-5.2v-16.3h3.9v29.9Z"/>
    <path class="st1" d="M205.2,98.1v29.9h-4.1v-29.9h4.1Z"/>
    <path class="st1" d="M228.9,98.3c1.2.5,2.5,1.2,3.8,2.3l-2.3,2.7c-1.8-1.5-3.8-2.2-5.8-2.2s-4.5,1-6,2.9c-1.5,1.9-2.3,5-2.3,9.2s.8,7.1,2.3,9.1c1.5,2,3.5,2.9,6,2.9s2.4-.2,3.3-.7,2-1,3-1.8l2,2.6c-.9,1-2.1,1.8-3.6,2.4s-3.1,1-5,1-4.6-.6-6.5-1.8c-1.9-1.2-3.4-3-4.4-5.3-1.1-2.3-1.6-5.1-1.6-8.4s.6-6.1,1.7-8.4c1.1-2.3,2.6-4.1,4.5-5.3,1.9-1.2,4-1.8,6.3-1.8s3.3.2,4.5.7Z"/>
    <path class="st1" d="M254.1,128.1l-2.3-7.5h-11.3l-2.3,7.5h-4.2l9.6-29.9h5.2l9.6,29.9h-4.3ZM241.5,117.2h9.3l-4.7-15.6-4.7,15.6Z"/>
    <path class="st1" d="M129.4,149.9c1.2,1,1.8,2.6,1.8,4.8,0,5.3-3.7,8-11.1,8h-7.8v-28.1h6.7c3.6,0,6.3.6,8.2,1.8,1.9,1.2,2.8,3,2.8,5.3s-.5,3-1.5,4.1c-1,1.1-2.3,1.8-3.7,2.1,1.9.3,3.5,1,4.7,2ZM116.2,137.6v8.9h4.2c1.6,0,3-.4,4-1.2,1-.8,1.6-1.9,1.6-3.3s-.6-2.8-1.7-3.4c-1.1-.6-2.8-.9-5-.9h-3.2ZM125.3,158.5c1.2-.7,1.8-2,1.8-3.9s-.6-3.2-1.8-4c-1.2-.8-2.7-1.2-4.6-1.2h-4.6v10.1h3.9c2.3,0,4-.3,5.2-1Z"/>
    <path class="st1" d="M151.9,162.7l-2.1-7.1h-10.6l-2.1,7.1h-3.9l9-28.1h4.9l9,28.1h-4.1ZM140,152.5h8.8l-4.4-14.7-4.4,14.7Z"/>
    <path class="st1" d="M168.5,150.8h-4.4v11.9h-3.9v-28.1h7.4c3.5,0,6.2.7,8,2,1.8,1.3,2.7,3.3,2.7,6s-.5,3.5-1.5,4.8c-1,1.2-2.5,2.1-4.6,2.8l7.6,12.6h-4.6l-6.7-11.9ZM168.1,147.8c2,0,3.6-.4,4.6-1.2,1-.8,1.6-2.2,1.6-4s-.5-3-1.6-3.8c-1-.8-2.7-1.2-5-1.2h-3.5v10.2h3.9Z"/>
    <path class="st1" d="M199.9,162.7l-2.1-7.1h-10.6l-2.1,7.1h-3.9l9-28.1h4.9l9,28.1h-4.1ZM188.1,152.5h8.8l-4.4-14.7-4.4,14.7Z"/>
    <path class="st1" d="M212.8,158.8c0,2.8-.6,4.9-1.8,6.2-1.2,1.4-3.1,2.5-5.5,3.3l-1-2.8c1.3-.5,2.2-1,2.8-1.6.6-.6,1.1-1.3,1.3-2.1.2-.8.4-1.9.4-3.2v-24h3.9v24.2Z"/>
    <path class="st1" d="M235.7,162.7l-2.1-7.1h-10.6l-2.1,7.1h-3.9l9-28.1h4.9l9,28.1h-4.1ZM223.9,152.5h8.8l-4.4-14.7-4.4,14.7Z"/>
    <path class="st1" d="M255.9,134.9c1.3.5,2.6,1.4,3.9,2.5l-2.1,2.4c-1.1-.8-2.1-1.5-3.1-1.9-1-.4-2.1-.6-3.3-.6s-2.7.3-3.6,1-1.4,1.7-1.4,3,.2,1.5.5,2.1c.3.6.9,1.1,1.8,1.5.9.5,2.2,1,3.9,1.5,1.8.5,3.2,1.1,4.4,1.8,1.2.6,2.1,1.5,2.8,2.6.7,1.1,1.1,2.5,1.1,4.2s-.4,3.1-1.2,4.3c-.8,1.3-2,2.2-3.5,2.9-1.5.7-3.3,1.1-5.4,1.1-3.9,0-7.1-1.2-9.5-3.6l2.1-2.4c1.1.9,2.3,1.6,3.5,2.1,1.2.5,2.5.7,3.9.7s3.2-.4,4.3-1.3c1.1-.9,1.7-2.1,1.7-3.7s-.2-1.7-.5-2.3-1-1.2-1.8-1.7c-.9-.5-2.1-1-3.7-1.5-2.9-.9-5-1.9-6.3-3.1-1.3-1.2-2-2.9-2-5s.4-2.7,1.1-3.8c.7-1.1,1.8-2,3.1-2.6,1.3-.6,2.9-.9,4.6-.9s3.5.3,4.8.8Z"/>
  </g>
</svg>