<?xml version="1.0" encoding="UTF-8"?>
<svg id="Capa_2" data-name="Capa 2" xmlns="http://www.w3.org/2000/svg" viewBox="0 0 223.88 250.08">
  <defs>
    <style>
      .cls-1 {
        fill: #fff;
      }

      .cls-2 {
        fill: none;
      }
    </style>
  </defs>
  <g id="s">
    <g>
      <path class="cls-2" d="M65.64,161.38c-11.33-.75-8.3,6.43.33,8.05,1.11.21,2.24.46,3.35.12-.47-.81-1.93-.63-2.73-1.35-1.88-1.7-2.15-4.69-.95-6.82Z"/>
      <path class="cls-2" d="M167.91,153.14c-2.46,1.59-4.08.33-6.47.73.4-1.48-1.94-2.66-2.19-4.47l-23.63.31.42,20h32.47c.08-2.98-.1-5.99-.02-8.98.07-2.45,1.65-5.83-.59-7.59ZM153.93,161.37c-.84.2-1.41-.87-2.17-.73-1.64.29-5.83,4.58-8.04,4.82l7.36-5.51-8.58-5.93,9.36,5.54,4.12-1.86-3.27,2.66,1.22,1.02Z"/>
      <path class="cls-2" d="M132.67,129.47c2.55,1.12,9.72,2.49,7.86-2.33-1.24-3.2-8.24-8.88-11.12-5.02,2,.22,3.13,2.23,2.86,4.09-.87-.4-.59-1.67-1.41-2.47-.98-.96-3.71-1.07-4.62-.29-.39.34-.99,2.75-.95,3.38.11,1.96,2.74,3.29,4.43,2.34l3.37-2.55-.41,2.85Z"/>
      <path class="cls-2" d="M23.23,147.88v-20.44c-7.11,5.79-8.12,14.99,0,20.44Z"/>
      <path class="cls-2" d="M209.51,156.27c0-4.02-6.57-12.95-9.41-15.96-.74-.79-1.78-2.12-2.87-2.24v22.9c2.92.38,12.28-.78,12.28-4.7Z"/>
      <path class="cls-2" d="M82.82,213.92c-.45,1.18.93-.36.82.81-.12,1.19-.35,2.88-1.23,3.69l1.22.4c-2.6,2.84-.88,7.3-1.28,10.78-.21.33-5.44,1.4-6.4,1.61-2.76.59-9.8,2.47-12.43,3.78-.53.27-.48,1-1,1.16-.4.12-.97-.28-1.39-.13-.26.09-4.17,3.21-4.29,3.47-.67,1.5,2.21,3.68,3.38,3.98,4.37,1.12,8.33.23,12.57.07,1.38-.05,5.07.45,5.81.32,6.52-1.19,13.01-1.42,19.33-2.91,2.14-.5,4.12-1.91,6.13-2.51.62-.18,1.21.31,1.55.16.22-.1,3.51-2.69,3.77-2.99,2.42-2.76-.39-6.82-2.05-9.41-.42-.66-1.43-1.15-1.75-1.96-.37-.94.32-2.1-.3-3.15l-.81,1.22c-.31-1.32.5-3.04.36-4.24-.14-1.16-1.12-2.84-1.09-3.81.02-.61.73-.98.65-1.47-.06-.39-.77-.8-.79-1.71-.02-.96.77-1.62.81-2.44.04-1.01-.59-2.34-.39-3.73.11-.78.83-.55.87-.84.11-.84-.7-1.74-.74-2.47-.04-.79.8-5.46.97-6.56.43-2.79,1.29-5.43.97-8.3l-21.07-.02c.11,4.3-.69,8.59-.99,12.9-.29,4.17.17,10.63-1.22,14.31Z"/>
      <path class="cls-2" d="M28.64,180.71h13.9c-1.57-1.98-3.75-3.53-5.3-5.53-2.66-3.43-3.39-7.46-8.17-9.01l-.83.44v13.08c0,.14.54.62.41,1.02Z"/>
      <path class="cls-2" d="M121.93,217.26c0,.76-.62,1.22-.65,1.94-.12,3.28.68,4.2-.79,7.87-1.54,3.85-7.1,9.12-2.08,12.55,6.43,4.39,26.34,6.89,34.49,7.58,1.62.14,4.25.46,5.73.47,2.75.03,5.76-1.14,8.5-1.34,1.47-1,1.57-2.85,1.92-4.42-1.97.09-3.34-1.63-4.77-2.39-3.14-1.68-6.59-2.94-9.86-4.03-3.37-1.13-7.16-2.39-10.71-2.57l-2.46-25.55,1.23,1.02c-.45-.7.04-1.79-.03-2.19-.05-.3-.68-.26-.76-.57-.92-3.91-1.22-9.68-1.63-13.86-.08-.81.23-4.77-.03-5.04h-20.44c.4,5.6,1.18,11,1.59,16.61.32,4.35.79,9.58.75,13.95Z"/>
      <path class="cls-2" d="M207.64,37.04c.6-.09,2.16-.44,2.59-1.05-6.09,2.09-13.12.79-18.32-5.52-.22-.26-.42-.53-.62-.8,3.16,5.22,9.28,8.42,16.34,7.36Z"/>
      <path class="cls-2" d="M2.7,29.51c-.06.33,1.45,3.11,1.76,3.34.41.31,1.27.32,1.9.75,1.81,1.25,3.51,2.62,5.33,3.87l-4.31-7.74c-1.39-1.23-3.11-1.19-4.67-.23Z"/>
      <path class="cls-2" d="M52.1,39.93c1.93-.39,1.72-.88,1.93-2.68l-.31-15.72-4.49.41v16.77c1.29-.12,3.25-.7,2.87,1.23Z"/>
      <path class="cls-2" d="M46.23,38.71V8.86c-1.75-.18-3.26-.44-5,0v29.85h5Z"/>
      <polygon class="cls-2" points="37.23 22.39 36.28 21.74 32.36 22.13 31.95 39.71 37.26 39.71 37.23 22.39"/>
      <path class="cls-2" d="M1.95,36.14c-.74,2.74,6.44,7.03,8.32,8.7l1.39-5.68c-2.21-.77-4.83-4.2-6.91-4.79-.94-.26-2.59.94-2.81,1.77Z"/>
      <path class="cls-2" d="M57.47,122.94l-18.73,2.23c.3,1.81,3.16,10.4,5.39,9.97l13.34-12.2Z"/>
      <path class="cls-2" d="M191.72,43.21c1.25,1.16,3.4,1.46,3.48,4.08-3.26-1.1-5.52-4.43-8.13.28-1.6,2.88,5.26,2.44,5.27,5.44-2.89-.28-5.71-2.49-8.49-.72-1.79,4.96,3.52,4.45,6.79,5.93.59.27,1.11-.24.89.93-2.72-1.37-6.27-.43-8.78-2.45-2.54-2.05,0-5.48-.21-5.72-.46-.55-1.27,1.02-1.73,1.32-2.21,1.45-5.23.04-5.56-2.45-.28-2.08,5.72-6.02,6.48-8.28-.41-.3-2.92.75-2.85-.21.05-.7,3.33-.97,4.08-1.23,5.8-2.03,1.87-9.94-3.24-6.51-6.19,4.16-8.5,10.2-10.44,16.96-1.1,3.85-5.48,2.06-5.91,3.51.35,5.33,7.13,14.83,12.54,15.61,3.07.44,2.61-1.59,4.19-3.39,2.31-2.64,3.8-1.64,6.63-2.36,4.95-1.26,9.09-4.57,11.22-9.22.89-1.95,2.68-6.97,1.7-8.82-.4-.75-3.91-5.2-4.64-5.99-4.67-5.01-6.19.6-3.29,3.29Z"/>
      <path class="cls-2" d="M58.9,122.94l-14.91,13.28c6.98,7.69,19.91,8.54,27.59,1.44l-.27-.95c-3.55-4.28-7.35-8.34-11.22-12.31-.44-.45-.66-1.08-1.19-1.46Z"/>
      <path class="cls-1" d="M167.01,103.3l-22.43-.78-.42,8.32-1.25.63c2.43-.4,3.8,1.88,5.72,2.87.73-.76-3.04-2.46-3.13-3.04l-.14-7.59h20.23s1.42-.4,1.42-.4Z"/>
      <path class="cls-1" d="M161.07,88.2c-1.74-.02-3.96-.35-5.72-.36-.32,0-1.43.24-1.42.54l11.29.57,6.29-.77c-3.47-.05-6.96.05-10.44.02Z"/>
      <path class="cls-1" d="M210.23,35.99s.08-.09.1-.14c-9.52,3.47-20.54-3.47-20.85-13.72-.04-1.3.32-2.13.41-3.26.04-.45.3-1.53-.4-1.42-1.05,4.53-.25,8.81,1.81,12.23.2.27.4.54.62.8,5.2,6.3,12.22,7.61,18.32,5.52Z"/>
      <path class="cls-1" d="M183.97,87.71h-12.06c-.11.62,1.17.56,1.58.57,1.86.06,4.05-.17,5.96-.14,2.31.04,4.65.83,7.16-.03-.13-.62-2.02-.39-2.65-.4Z"/>
      <path class="cls-1" d="M147.08,88.71h-41.62c13.9.47,27.86.56,41.62,0Z"/>
      <path class="cls-1" d="M83.85,87.71H29.23v1h76.23c-7.23-.25-14.45-.59-21.61-1Z"/>
      <path class="cls-1" d="M223.42,23.72c.23-1.12,1.03-4.19-.22-4.67-.81,8.34-6.33,14.66-12.96,16.94-.43.61-1.99.96-2.59,1.05-7.06,1.06-13.19-2.14-16.34-7.36-6.73-9.26-2.59-23.6,8.19-27.32,4.43-1.53,9.98-1.21,14.01,1.13,1.8,1.04,2.86,2.64,4.59,3.71l3.04,4.66C219.77,5.22,210.83-.26,204.58,0c-15.67.68-24.1,18.87-14.1,31.52l-3.66,3.6c-.51-4.66-3.43-6.61-7.49-4.15-3.94,2.38-8.41,8.83-10.16,13.17-.69,1.71-.76,4.36-1.55,5.59-1.3,2.03-4.74.15-6.36,2.29l2.26,8.03c-6.59,2.88-14.06,6.99-17.18,13.97-1.48-.82-2.67-.07-3.92-.06-6.57.02-13.08-.35-19.55-.32-6.52.03-12.99-.68-19.37-.62-11.48.11-23.38-1.29-34.56-.66-1.27.07-5.66.18-6.38-.74-.31-.39-3.94-7.61-4-8.06-.21-1.5,1.64-1.88,1.92-2.95.31-1.16-.64-2.59.06-3.92-1.9,1.21.61,3.94-1.93,5.01l-16.14-.27c-1.93-.94-.41-2.4-.21-3.52.05-.27-.34-2.9-.44-3.13-.38-.9-1-.77-1.42-1.25-.2-.22,0-.87-.35-1.11-.54-.37-1.64-.22-2.28-.47-1.34-.52-2.4-1.28-4.13-1.53-1.06-.15-2.77.74-4.07-.8-.74,2.1-1.01.04-1.26-.02-.3-.07-2.22-.09-2.99-.16-4.37-.41-9.86.23-12.85-3.74.21-2.07,0-3.79.45-5.88.18-.86.79-1.66,1-2.64.45-2.12-.65-6.6,2.96-5.99,1.53.26,2.37,2.78,2.23,4.06-.04.39-.62.84-.66,1.6-.11,2.37-.75,5.38,2.25,5.51,2.2.09,7.8-.52,10.13-.8.77-.09.55-.82.75-.8,3.77.31,4.14-.44,7.34-.82,1.81-.21,4.98.35,6.38-.03.39-.11.23-.78.27-.81.17-.13.79.75,1.41.81.96.1,1.94-.59,3.53-.32,5.72.97,10.31,7.04,9.64,12.8l1.17.46c.73-.96-.51-6.06-1.05-7.24-.77-1.7-5.31-5.75-5.42-6.3l.81-19.62h-7.4v18.08c0,.18-1.04,1.04-1.29.4l.86-31.48h-8.57v32.09l-1.29.2.86-19.29h-8.57v19.83c0,1.32-5.88-.63-7-.2v-11.67l5.63-.41c-.24,3.69-.16,7.5,0,11.25.02.5-.31,1.52.4,1.42l.85-12.88-.64-1.34h-7.24v14.43l-2.36.61c.4-3.57,1.68-11.05-3.88-11.07-3.47-.01-3.3,1.7-3.89,4.33-.14.64.28.71-.81.62-.02-1.64-2.68-6.29-4.01-6.94-.79-.39-4.91-.52-5.52-.06-1.61,1.22.95,5.45.54,6.18-.03.05-.62-.5-1.23.16-3.14,3.41,1.41,7.31,3.98,9.24,2.72,2.05,4.64,3.11,7.46,5.53,3.82,3.28,18.89,3.03,24.65,4.37.35.08,2.9,1.19,3.14,1.37,1.94,1.43-.35,5.63.65,7.11,1.78,2.63,5.35.71,6.52,2.08l3.88,8.58-20.65-.43c-2.67.49-5.06.44-6.11,3.3-1.06,2.89-.33,7.24-.36,10.35-.05,4.67-.56,9.5-.82,14.31-.25,4.76-.24,9.52-.33,14.3-11.54,8.7-22.01,22.81-11.13,36.64.97,1.23,4.5,4.09,4.89,4.93.12.27-1.39,3.43-.13,5.85,1.2,2.32,5.6,1.87,5.99,3,.97,5.74-3.06,20.84,5.57,21.82,6.77.77,14.16,0,20.89.04,8.44.06,16.87.43,25.31.39,2.85-.02,5.89-.51,8.78-.43.19.19-.33,4.5-.37,5.16-.12,2.19-.68,4.74-.72,6.56-.04,2.15.97,4.53.26,6.68l-.81-1.22c-.36,1.14.4,2.59.36,3.5-.21,4.59-1.45,10.15-1.85,15.17-.13,1.58.86,3.86-.1,5.62-.24.33-5.94,1.38-7,1.67-2.9.78-6.21,1.72-9.06,2.8-2.15.82-5.79,2.09-7.29,3.74-.32.36-.33,1.08-.63,1.43-.37.42-1.02.32-1.43.71-1.79,1.72-.49,5.06,1.55,6.16,5.38,2.9,18.14,2.44,24.42,1.72,5.61-.64,12.87-1.76,18.03-3.2,7.84-2.19,18.16-5.7,11.95-15.75-.54-.87-1.48-1.47-2.08-2.41-1.94-3.01-2.99-12.35-2.79-16.05.15-2.67,0-3.96.02-6.52.02-2.54.95-5.98,1.24-8.61.14-1.31-.35-6.2,1.08-6.69,2.02-.14,4.05,0,6.07-.06,1.54-.04,4.19-1.35,4.69,1.44.22,1.19.37,4.28.44,5.7.17,3.49-.27,7.63.09,11.01.09.83,1.26,1.42,1.14,2.47-.03.25-.8.03-.88.82-.17,1.58.68,2.7.68,3.7,0,1.54-1.6,2.98-.21,4.9-1.63.34.02,2.95-.05,4.48-.05.91-2.3,4.24-.38,3.09.39,1.47-1.02,1.41-1.56,2.33-1.22,2.08-2.19,4.5-2.97,6.77-.14.4-.75.18-.83.9-.44,3.95,2.59,8.12,6.58,8.41l-.41.81c2.32,1.18,6.21.81,8.27,1.67,2.99,1.25,6.65,1.45,9.62,2.39,3.67,1.17,7.43,1.05,10.77,1.84,5.37,1.28,11.77.35,17.04-.89.76-.18,1.55.15,2.62-.21,4.7-1.59,3.02-7.74-.51-9.91-1.4-.86-4.45-2.2-5.61-2.64-4.19-1.62-8.47-2.88-12.54-4.14-1.27-.4-3.61-.39-4.25-1.47-.54-.91-1.06-6.16-.92-7.33l.85-.78c-1.2-.98-1.06-2.84-.42-4.1l-1.21-.2c-.2-.98.67-1.66.69-2.57.04-1.17-.81-2.45-.95-3.43-.53-3.76-.6-8.67-.98-12.6l-1.22-12.88,16.16.84c6.52-.73,13.11-.37,19.62-.45,4.7-.06,10.25.52,14.93-.57,5.59-1.31,4.4-10.76,4.46-14.96,8.89-.46,21.45-3.14,22.07-14.12.63-11.23-13.71-26.22-21.68-32.7v-5.66h5.74l-.41-23.57c-.61-.06-.71,1.04-.78,1.46-1.03,6.53-.85,20.11-.85,20.11h-23.3s-.4-21-.4-21h21.25l-2.42-1.42-2.28-16.33-1.42.62c1.29.8.12,1.61.15,2.46.04,1.04,1.84,3.63-.16,4.7l-.41-3.68-.8,11.66h-14.91l-.41,24h15.21c1.42,1.33.24,3.46.19,5.13-.39,12.26.33,24.6.01,36.86-5.77-1.65-10.17-5.88-14.16-10.11l.18-.6c8.18-6.23-2.5-9.54-6.83-12.99-1.48-1.18-3.2-2.51-3.79-4.28h4.59v-27.74c-.75.15-.76.8-.83,1.41-.97,8.08-.86,16.19-.8,24.33h-4.5c-.12-6.21-4.05-12.87-8.78-16.75l-.19.81c2.32,1.59,4.58,5.11,5.92,7.76,3.38,6.69,1.63,10.52,8.58,15.94,2.9,2.26,10.43,4.58,7.32,9.38-1.15,1.77-11.27,6.11-13.46,6.15-3.24.06-3.95-4.8-5.52-7.14-2.93-4.36-3.94-3.22-8.33-3.93-1.15-.19-2.61-.82-3.72-.99-.24-.04-.6.53-1.04.44-.46-.09-3.04-2.16-3.25-2.56-.77-1.5.15-2.17-2.17-3.05-2.44-.93-10.9,1.4-10.48-2.95.06-.6.91-2.49,1.49-2.66,2.91.74,9.81,3.49,10.59-1.24.71-4.3-4.96-7.98-8.32-9.32-3.18-1.27-5.92,2.71-7.84,1.75-2.78-1.39,1.05-5.02,2.73-5.86,2.48-1.25,3.3-.71,5.74-.61.47.02,1.42.49,1.33-.28-2.99-.9-5-.87-7.84.52-2.61,1.28-6.4,5.11-2.37,7.03-4.12,3.65-1.61,9.15,3.68,9.2-2.23,8.12,8.69,3.77,11.82,6.35.7.58,1.09,1.88,1.86,2.63,3.79,3.68,11.3,1.75,13.86,4.52.96,1.04,1.42,2.72,2.27,3.86l-24.75-.21v23.21s36,0,36,0v-14.31c5.85,5.77,12.59,11.05,21,12.68v10.34c-.36.58-.82.56-1.41.63-7.33.86-18.06-.06-25.81-.04-32.21.08-66.09-1.25-98.19,0-1.9.07-3.92.78-5.29.88-2.52.18-5.71-2.04-7.78-3.32-.47.23.64,1.1.81,1.23,1.75,1.34,3.86,2.01,5.93,2.66-3.38,3.12-8.12,3.13-11.04-.61l1.22,1.84c.07.3-.42.28-.61.2-2.48-1.04-7.3-5.11-9.23-7.15-5.08-5.39-3.83-9.13-12.55-12.4-3.3-1.24-12.65-1.88-8.89-7.85,1.09-1.73,8.43-7.86,10.32-8.5,4.18-1.43,5.7,4.21,9.11,6.21,4.87,2.86,12.92-2.85,16.64,1.16.77.83.05,1.91,2.37,1.95,3.48.05,13.62-5.78,10.44,2.66-2.72.49-7.83-.44-9.37,2.49-2.73,5.19,8.48,9.83,12.21,8.13,1-.46,4.01-4.29,5.25-3.8.39.16,1.29,1.8,1.22,2.48-.5,4.58-6.03,6.83-10.14,6.45-.1.71.93.39,1.43.41,4.08.14,7.86-1.81,9.4-5.74,1.72-4.4-1.65-2.61-2.24-5.72l-4.07,2.71c-7.5-.04-2.25-10.7,2.27-5.2.55.67.32,1.6.99,1.67-1.31-3.54,1.72-4.12,3.9-6.15,4.77-4.45,9.09-9.45,13.96-13.82,1,.1,1.75.72,2.8.74,1.52.02,2.51-.99,3.39-1.16,1.47-.28,6.82,4.5,8.68,4.86-2.63,7.74,9.47,10.08,9.41,2.03-1.67,1.78-4.24,4.4-6.75,2.46-3.09-2.38.47-8.48,4.33-5.15.86.74.81,1.83,1.61,2.27l-.62-3.25,10.85-15.99-12.1,15.58c-2.12-1.86-4.82.71-6.4.31-1.84-.46-5-4.15-7.27-4.63l-.41-2.26c-1.55,2.5-7.12,4.64-7.78.59-.82-5.02,6.21-6.06,6.56-1,1.15-.5-.04-2.59-.55-3.13-3.13-3.27-8.57-.25-7.96,4.05.17,1.24,1.23,1.73.12,3.16l-17.26,16.73c-1.43-.04-2.33-1.03-3.8-.35.62-5.09-1.16-6.01-5.83-5.21-1.64.28-4.07,1.55-5.43,1.55-2.08-.01-4.22-2.93-7.4-3.24-3.02-.3-8.45,1.63-10.41,1-3.89-1.26-5.9-8.3-10.61-7.6v-57.53h-1v-11.5c0-.12.42-.99.69-1.07,2.43-.02,4.87.07,7.3.04,38.27-.49,77.11-.36,115.67-.46l24.3.02c.1-.74-.93-.4-1.42-.42-1.85-.08-5.41.37-6.88,0-.32-.08-.28-.85-.5-.86-.87-.05-2.3,1.27-4,.87-.31-.07-.25-.8-.44-.8-.93.03-2.57.69-3.72.79-.45.04-1.9.34-1.83-.41l12.64-6.59c2.31.88,5.34,3.66,7.9,3.12,2.37-.49,2.82-3.98,4.5-5.1,1.73-1.16,4.86-1.04,6.93-1.71,3.56-1.16,7.96-5.15,9.79-8.48,1.07-1.95,3.17-8.18,3.17-10.28,0-2.29-4.85-5.91-5.28-8.61,10.92,4.67,23.9-1.28,26.38-13.52ZM53.72,21.53l.31,15.72c-.22,1.8,0,2.29-1.93,2.68.39-1.93-1.58-1.35-2.86-1.23v-16.77s4.49-.41,4.49-.41ZM46.23,8.86v29.85s-5,0-5,0V8.86c1.74-.44,3.25-.18,5,0ZM32.36,22.13l3.92-.39.95.65.03,17.31h-5.31s.41-17.58.41-17.58ZM10.27,44.83c-1.88-1.66-9.06-5.96-8.32-8.7.22-.82,1.87-2.03,2.81-1.77,2.08.59,4.7,4.01,6.91,4.79l-1.39,5.68ZM6.36,33.61c-.63-.44-1.49-.45-1.9-.75-.31-.23-1.82-3.01-1.76-3.34,1.56-.97,3.28-1.01,4.67.23l4.31,7.74c-1.82-1.24-3.52-2.62-5.33-3.87ZM197.23,138.07c1.09.12,2.13,1.45,2.87,2.24,2.84,3.01,9.41,11.94,9.41,15.96,0,3.92-9.35,5.08-12.28,4.7v-22.9ZM125.28,126.83c-.04-.63.56-3.05.95-3.38.91-.77,3.64-.67,4.62.29.81.8.53,2.07,1.41,2.47.27-1.86-.86-3.87-2.86-4.09,2.88-3.85,9.88,1.83,11.12,5.02,1.87,4.82-5.31,3.45-7.86,2.33l.41-2.85-3.37,2.55c-1.69.95-4.32-.38-4.43-2.34ZM168.52,169.71h-32.47s-.42-20-.42-20l23.63-.31c.25,1.81,2.58,2.99,2.19,4.47,2.39-.4,4.01.86,6.47-.73,2.24,1.76.66,5.14.59,7.59-.09,2.98.1,5.99.02,8.97ZM140.03,186.71c.26.27-.05,4.23.03,5.04.41,4.18.71,9.95,1.63,13.86.07.31.7.28.76.57.07.4-.42,1.49.03,2.19l-1.23-1.02,2.46,25.55c3.56.18,7.34,1.44,10.71,2.57,3.27,1.09,6.73,2.35,9.86,4.03,1.43.77,2.8,2.49,4.77,2.39-.35,1.57-.45,3.42-1.92,4.42-2.75.2-5.76,1.37-8.5,1.34-1.48-.02-4.1-.34-5.73-.47-8.14-.69-28.06-3.19-34.49-7.58-5.03-3.43.54-8.71,2.08-12.55,1.47-3.67.67-4.59.79-7.87.03-.72.64-1.18.65-1.94.04-4.36-.43-9.6-.75-13.95-.41-5.6-1.18-11.01-1.59-16.61h20.44ZM85.04,186.71l21.07.02c.32,2.87-.55,5.51-.97,8.3-.17,1.1-1.01,5.76-.97,6.56.04.73.85,1.64.74,2.47-.04.29-.76.06-.87.84-.2,1.39.43,2.72.39,3.73-.03.82-.83,1.48-.81,2.44.02.91.73,1.32.79,1.71.07.49-.64.86-.65,1.47-.03.97.95,2.66,1.09,3.81.14,1.2-.67,2.92-.36,4.24l.81-1.22c.61,1.05-.08,2.21.3,3.15.32.82,1.33,1.3,1.75,1.96,1.66,2.59,4.47,6.65,2.05,9.41-.26.3-3.55,2.89-3.77,2.99-.34.16-.94-.34-1.55-.16-2.01.6-3.99,2.01-6.13,2.51-6.33,1.48-12.81,1.72-19.33,2.91-.73.13-4.43-.37-5.81-.32-4.24.16-8.2,1.05-12.57-.07-1.18-.3-4.05-2.48-3.38-3.98.11-.25,4.03-3.37,4.29-3.47.42-.15.99.25,1.39.13.51-.16.46-.89,1-1.16,2.63-1.31,9.66-3.19,12.43-3.78.96-.2,6.19-1.28,6.4-1.61.4-3.48-1.32-7.94,1.28-10.78l-1.22-.4c.88-.81,1.11-2.5,1.23-3.69.11-1.17-1.26.37-.82-.81,1.4-3.68.93-10.15,1.22-14.31.3-4.31,1.11-8.6.99-12.9ZM28.23,166.6l.83-.44c4.79,1.55,5.51,5.59,8.17,9.01,1.55,2,3.73,3.56,5.3,5.53h-13.9c.13-.4-.41-.89-.41-1.02v-13.08ZM23.23,147.88c-8.12-5.45-7.11-14.65,0-20.44v20.44ZM69.32,169.55c-1.11.35-2.24.09-3.35-.12-8.63-1.62-11.66-8.8-.33-8.05-1.2,2.13-.93,5.12.95,6.82.8.72,2.26.53,2.73,1.35ZM199.65,45.91c.98,1.86-.81,6.88-1.7,8.82-2.14,4.64-6.28,7.96-11.22,9.22-2.83.72-4.32-.27-6.63,2.36-1.58,1.8-1.12,3.83-4.19,3.39-5.41-.78-12.19-10.28-12.54-15.61.43-1.45,4.81.34,5.91-3.51,1.93-6.75,4.25-12.8,10.44-16.96,5.11-3.43,9.04,4.49,3.24,6.51-.75.26-4.03.53-4.08,1.23-.07.96,2.44-.09,2.85.21-.76,2.25-6.76,6.19-6.48,8.28.33,2.49,3.35,3.89,5.56,2.45.46-.3,1.27-1.87,1.73-1.32.2.24-2.34,3.67.21,5.72,2.51,2.02,6.06,1.08,8.78,2.45.22-1.16-.3-.66-.89-.93-3.27-1.48-8.58-.97-6.79-5.93,2.79-1.77,5.61.44,8.49.72,0-3-6.87-2.56-5.27-5.44,2.61-4.72,4.87-1.38,8.13-.28-.08-2.62-2.23-2.92-3.48-4.08-2.91-2.69-1.38-8.3,3.29-3.29.73.79,4.25,5.23,4.64,5.99Z"/>
      <path class="cls-1" d="M153.52,88.71h-2.56c.83.18,1.77.47,2.56,0Z"/>
      <path class="cls-1" d="M150.05,88.59c-.99.05-1.98.07-2.97.11h3.87c-.32-.07-.63-.13-.91-.11Z"/>
      <path class="cls-1" d="M79.54,120.29l-1.22-4.3c1.42,6.45.82,12.88-3.07,18.39l-14.33-11.84,10.45-15.76-.81-.6-11.25,16.35-.81-6.95c-1.24.98.65,5.93-.26,6.48l-19.09,1.63c-.97-.62.31-6.17.63-7.22,2.01-6.53,7.67-12.17,14.32-13.89,1.08-.28,3.29.52,2.97-.91-14.87,1.35-23.77,17.31-16.56,30.67,6.56,12.15,22.99,14.76,32.91,5.1l-12.67-13.69,15.11,11.44c2.94-4.87,4.11-9.16,3.68-14.92ZM38.74,125.17l18.73-2.23-13.34,12.2c-2.23.43-5.09-8.15-5.39-9.97ZM71.32,136.71l.27.95c-7.68,7.1-20.61,6.25-27.59-1.44l14.91-13.28c.53.37.76,1.01,1.19,1.46,3.87,3.97,7.67,8.03,11.22,12.31Z"/>
      <path class="cls-1" d="M64.11,96.46c-.68-.12-3.49-.39-3.8.16l-.38,21,11.38-15.84c.49-2.46-5.15-4.97-7.2-5.32Z"/>
      <path class="cls-1" d="M42.76,80.61c.75-.36,1.99.16,2.04-.6-1.57-.81-3.24.34-3.59,1.93-.96,4.35,5.18,4.84,5.23.52-.75.15-.54,1.21-1.23,1.82-2.55,2.26-5.16-2.37-2.44-3.67Z"/>
      <path class="cls-1" d="M50.29,80.79c1-.72,2.29.09,2.68-.78-3.47-1.54-5.9,3.61-2.54,5.23,1.3.63,3.6,0,3.16-1.55-2.37,3.16-6-.96-3.3-2.9Z"/>
      <path class="cls-1" d="M35,80.62c.76-.33,1.98.12,2.03-.62-4.05-1.53-5.26,5.13-1.27,5.53.48.05,2.84-.75,2.08-1.45-2.88,2.59-5.93-2.12-2.85-3.47Z"/>
      <path class="cls-1" d="M154.69,112.27c-.37-.23-.46-.56-.53-.6-.47-.27-2.37-1.7-2.69-.59l1.62.63,3.28,5.5c.44-1.38-1.01-2.57-1.15-3.57-.07-.53.4-1.29.34-1.33-.09-.07-.63.11-.87-.04Z"/>
      <path class="cls-1" d="M151.85,159.55l-9.36-5.54,8.58,5.93-7.36,5.51c2.22-.24,6.4-4.53,8.04-4.82.76-.14,1.33.93,2.17.73l-1.22-1.02,3.27-2.66-4.12,1.86Z"/>
    </g>
  </g>
</svg>