<?xml version="1.0" encoding="UTF-8"?>
<svg id="Capa_2" data-name="Capa 2" xmlns="http://www.w3.org/2000/svg" viewBox="0 0 263.92 323.92">
  <defs>
    <style>
      .cls-1 {
        fill: #fff;
      }
    </style>
  </defs>
  <g id="Capa_1-2" data-name="Capa 1">
    <g>
      <path class="cls-1" d="M25.65,323.92c-1.02-1.37-1.7-2.29-1.92-4.1-.89-7.51.69-16.67.02-24.37H6.33c-.25,0-1.43-.74-1.63-1.06l-.26-115.93c.35-.39,1.71-1.91,1.89-1.91h17.43v-23.4H1.89c-.18,0-1.54-1.52-1.89-1.91V48.17c.35-.39,1.71-1.91,1.89-1.91h21.86V2.93c0-.77,2.21-3.32,3.45-2.88h218.69c2.03-.41,4.72,1.53,4.72,3.51v12.97c3.59.6,12.4-1.92,13.29,2.86l-.31,114.14c-.35.39-1.71,1.91-1.89,1.91h-11.09l-.29,185.99-1.61,2.5H25.65ZM243.65,7.04H30.72v39.21h21.23l.95-.95v-20.87c0-.81,3.58-2.7,4.72-2.24,26.14,1.84,55.41-2.34,81.18,0,2.68.24,4.95.92,4.76,4.1l-.62,102.38c-.2.33-1.38,1.06-1.63,1.06h-50.38v21.19c0,.16-2.06,2.21-2.22,2.21H30.72v23.4h61.79c.25,0,1.43.74,1.63,1.06l.27,116.58c-.17.28-1.72,1.27-1.9,1.27H30.72v21.5h212.93v-181.52h-68.76c-.18,0-1.54-1.52-1.89-1.91V18.44c.35-.39,1.71-1.91,1.89-1.91h68.76V7.04ZM256.96,23.49h-77.31v104.99h77.31V23.49ZM137.19,29.18H59.24v17.08h29.47c.16,0,2.22,2.06,2.22,2.21v74.32h46.26V29.18ZM83.96,53.21H6.64v60.09l32.94-32.59,3.61-2.06c1.18-.1,1.94.8,2.76,1.43,2.55,1.95,14.45,15.26,15.6,15.46,3.6-1.53,7.41-8.91,11.34-8.86,2.88.03,8.14,8.02,11.07,9.54v-43.01ZM83.96,146.82v-19.29l-40.88-40.19L6.64,123.1v23.72h77.31ZM83.96,117.73v-10.44c0-.17.58-.57.52-1.17l-11.1-11.1c-1.49-.46-6.61,5.11-6.48,5.85l17.06,16.85ZM88.39,183.51H11.08v104.99h77.31v-104.99Z"/>
      <path class="cls-1" d="M231.46,164.05l.81,3.3-.16,108.68c-.75,1.58-2.11,2.57-3.95,2.39l-108.75-.32-1.92-1.25.2-112.8h113.77ZM225.28,169.59h-101.4v101.83h101.4v-101.83Z"/>
      <path class="cls-1" d="M123.88,292.3h101.4c-1.4-3.85,2.67-9.67,6.18-6.18,1.02,1.01,1.16,15.13.77,17.23-1.12,5.93-9.15,1.63-6.95-4.1h-101.4c2.18,5.98-5.84,10.05-6.95,4.1-.41-2.21-.3-14.09.26-16.17,1.33-4.88,9.03,0,6.69,5.12Z"/>
      <path class="cls-1" d="M246.04,33.76c1.09,1.09,1.07,4.75-.27,5.59l-52.53.62c-5.12-.67-4.18-6.86.66-7,15.8,1.03,33.23-1.33,48.84-.01.98.08,2.6.11,3.31.81Z"/>
      <path class="cls-1" d="M246.04,49.57c1.09,1.09,1.07,4.75-.27,5.59l-52.53.62c-5.12-.67-4.18-6.86.66-7,15.8,1.03,33.23-1.33,48.84-.01.98.08,2.6.11,3.31.81Z"/>
      <path class="cls-1" d="M246.04,97c1.09,1.09,1.07,4.75-.27,5.59l-52.53.62c-5.12-.67-4.18-6.86.66-7,15.8,1.03,33.23-1.33,48.84-.01.98.08,2.6.11,3.31.81Z"/>
      <path class="cls-1" d="M246.04,81.19c1.09,1.09,1.07,4.75-.27,5.59l-52.52.61c-1.98.06-3.11-1.72-3.41-3.51.24-2.2,1.9-3.45,4.06-3.49,15.8,1.03,33.23-1.33,48.84-.01.98.08,2.6.11,3.31.81Z"/>
      <path class="cls-1" d="M192.77,112.17c3.06-.71,22.96-.63,26.44-.09,4.24.65,4.48,6.34-.58,6.93s-20.71.67-25.32-.05-4.56-5.85-.54-6.78Z"/>
      <path class="cls-1" d="M192.77,64.73c2.64-.61,18.42-.56,21.37-.1,4.58.72,4.57,6.16,0,6.88-3.03.48-18.66.57-21.49.03-1.66-.32-2.56-1.88-2.82-3.46.18-1.7,1.27-2.96,2.94-3.35Z"/>
      <path class="cls-1" d="M246.04,65.38c1.87,1.87,1.19,5.62-2.11,6.13-2.81.43-15.67.52-18.32.03-3.96-.74-3.79-6.21.66-6.9,3.5-.55,12.73-.38,16.46-.07.98.08,2.61.11,3.31.81Z"/>
      <path class="cls-1" d="M22.94,193.13l51.21-.15c5.25.48,5.53,6.33,0,6.98-15.45,1.81-34.29-1.4-50.11.02-4.09-.53-4.81-5.07-1.1-6.86Z"/>
      <path class="cls-1" d="M22.94,208.94l51.21-.15c5.25.48,5.53,6.33,0,6.98-15.45,1.81-34.29-1.4-50.11.02-4.09-.53-4.81-5.07-1.1-6.86Z"/>
      <path class="cls-1" d="M22.94,240.56l51.21-.15c5.25.48,5.53,6.33,0,6.98-15.45,1.81-34.29-1.4-50.11.02-4.09-.53-4.81-5.07-1.1-6.86Z"/>
      <path class="cls-1" d="M23.57,256.38c15.9,1.12,35.06-1.96,50.57-.15,2.27.26,3.73,1.08,4.06,3.49l-1.49,2.89-52.68.62c-4.32-.51-4.87-5.89-.47-6.85Z"/>
      <path class="cls-1" d="M52.75,278.23c-.7.7-2.32.73-3.31.81-5.9.49-19.7.7-25.34-.08-4.28-.59-3.94-6.11.63-6.86,3.77-.62,21.51-.62,25.28,0,3.09.51,4.98,3.89,2.74,6.14Z"/>
      <path class="cls-1" d="M22.94,224.75c2.02-.58,20-.49,22.64-.09,4.24.65,4.48,6.34-.58,6.93-3.74.43-18.17.6-21.54-.03-3.65-.68-3.82-5.86-.52-6.81Z"/>
      <path class="cls-1" d="M57.16,224.75c2.3-.51,15.8-.51,18.1,0,3.71.82,3.93,6.07-.54,6.78-2.68.42-15.14.5-17.69.02-3.68-.68-4.11-5.88.12-6.81Z"/>
      <path class="cls-1" d="M185.78,246.14c7.2-.27,16.13-5.1,22.7-1,.03,1.55-5.77.85-6.99,1.01-7.31.98-17.76,3.96-24.57,6.83-1.12.47-1.92,1.88-3.08,2.18-5.66,1.44-1.36-5.26,1.91-6.01-2.89-1.95-2.23-6.71-1.82-9.85,1.86-14.28,15.85-50.32,31.35-54.15,15.05-3.72,6.95,18.99,4.38,25.75-5.19,13.69-13.43,25.14-23.88,35.23ZM208.44,187.42c-2.24-1.56-9.43,6.2-10.98,7.96-2.24,2.54-11.16,14.6-11.56,17.2-.14.94.61,2.08.55,2.17-.09.12-1.97.17-2.53.84s-4.17,13.15-4.64,15.06c-.58,2.37-4.03,16.28-1.18,16.84,1.55.3,8.61-6.5,10.01-8.01,9.07-9.73,18.23-26.98,20.72-40.06.84-4.4,1.45-7.69-.41-12Z"/>
      <path class="cls-1" d="M161.73,210.07c1.64-4.02,10.06-14.23,6.74-18.43s-17.04,5.47-20.11,8.07c-18.54,15.76-3.22,16.71,10.27,23.15,3.92,1.87,11.17,4.82,11.76,9.65.28,2.31-.98,4.12-.07,6.21-8.45,7.08-18.05,15.21-29.96,12.1-1.56-2.28,5.59-5.21,7.11-5.91,5.43-2.49,11.24-3.98,16.9-5.81,8.7-11.05-13.02-15.62-20.24-19.1-10.99-5.3-12.68-9.39-3.11-18.28,6.1-5.67,21.12-16.26,29.58-12.19,7.68,3.69-2.59,15.92-6.52,19.21-.75.63-1.08,1.62-2.34,1.33ZM163.07,240.81l-9.59,3.43-9.11,5.24c7.12.52,14.25-3.31,18.7-8.67Z"/>
    </g>
  </g>
</svg>