<?xml version="1.0" encoding="UTF-8"?>
<svg id="Capa_2" data-name="Capa 2" xmlns="http://www.w3.org/2000/svg" viewBox="0 0 248.56 320.16">
  <defs>
    <style>
      .cls-1 {
        fill: #fff;
      }
    </style>
  </defs>
  <g id="Capa_1-2" data-name="Capa 1">
    <g>
      <path class="cls-1" d="M75.19,296.66c.82-2.65,9.53-1.12,12.01-1.49,3.12-31.96-12.5-62.46-36.8-82.2v-4.07c22.08-35.14,42.18-71.6,64.37-106.65,2.43-3.84,7.73-16.16,12.3-10.46l70.97,117.12c.87,4.23-8.02,10.48-10.83,13.79-17.77,20.92-28.85,44.17-26.03,72.48,2.13.2,12.01-.89,12.01,1.49v22c0,.11-1.39,1.5-1.5,1.5h-95c-.11,0-1.5-1.39-1.5-1.5,0-4.5-.91-19.04,0-22ZM121.19,191.16v-85l-63.82,103.51c18.79,17.28,32.97,39.83,36.39,65.53l61.42-.05c2.16-25.73,17.48-48.28,35.83-65.48l-63.82-103.51v85c0,.29,3.93.99,5.53,1.97,10.43,6.41,12.45,19.77,3,28.05-18.84,16.51-42.34-14.36-20.06-28.05,1.6-.98,5.37-1.73,5.53-1.97ZM122.95,197.34c-13.7,1.88-12.02,22.47,1.72,21.89,14.83-.62,12.52-23.85-1.72-21.89ZM154.19,282.16h-60v13h60v-13ZM166.19,301.16h-84v13h84v-13Z"/>
      <path class="cls-1" d="M248.19,67.66c-.98,3.5-14.08,2.84-17.55,2.56-2.14-.17-3.51-1.93-4.77-1.87-2.16.1-14.08,5.71-18.28,6.7-32.06,7.54-38.36-6.17-62.09-19.69-11.22-6.39-20.72-6.24-33.29-4.19l79.29,46.25c5.7,1.84,9.55-5.82,18.22.72,10.61,8.01-.32,26.77-13.44,19.44-7.31-4.09-4.69-11.24-7.06-13.93l-82.29-47.71c-5.22-2.09-12.9,3.05-17.64,5.8-17.38,10.08-35.65,28.05-48.6,43.4-3.14,3.72-17.4,21.57-18.24,24.76-1.26,4.76,1.47,18.9-1.64,21.36-2.11,1.66-18.67,1.84-20.1-1.09-1-2.06-.96-18.59.44-19.57,2.53-1.76,10.62,1.06,13.63-1.37,21.13-30.78,46.92-62.14,81.43-78.09.56-2.38-.43-1.61-1.3-2.21-15.02-10.41-34.25-18-49.45-28.63-2.23-.46-4.59,2.96-8.75,2.95-16.06-.04-16.65-25.35,2.03-23.11,7.81.94,9.65,7.98,9.64,14.85l55.15,31.44c3.05,1.02,12.44-2.93,17.15-3.31,34.65-2.81,43.23,31.39,79.78,26.78,4.81-.61,21.51-5.89,25.14-8.64,2.49-1.89-2.39-11.72,3.57-13.65,2.79-.91,19.05-1.2,19.05,2.05,0,4.06.82,15.09,0,18Z"/>
    </g>
  </g>
</svg>