<?xml version="1.0" encoding="UTF-8"?>
<svg id="Capa_2" xmlns="http://www.w3.org/2000/svg" viewBox="0 0 786.12 896.72">
  <defs>
    <style>
      .cls-1 {
        fill: #fff;
      }
    </style>
  </defs>
  <g id="Capa_1-2" data-name="Capa_1">
    <path class="cls-1" d="M411.26,290.06c1.83,13.48,4,26.43,5.23,39.48,1.12,11.9,1.05,23.64-5.47,34.74-3.36,5.72-4.56,12.76-6.38,19.31-2.39,8.6-4.96,17.2-6.49,25.97-3.12,17.9-14.47,31.94-21.66,47.91-6.07,13.47-12.79,26.66-19.59,39.79-3.12,6.02-7.56,11.36-10.58,17.42-3.92,7.84-7.1,16.06-10.41,24.2-.52,1.27-.43,3.02-.04,4.38,2.78,9.71-4.38,18.41-10.67,21.32-3.52,1.63-7.07.88-8.79-2.33-3.8-7.09-7.01-14.5-10.29-21.85-1.36-3.05-3.02-6.26-3.22-9.49-.7-11.28,3.23-21.74,5.96-32.52,5.11-20.2,13.95-38.77,23.47-56.96,6.83-13.04,15.5-25.16,23.87-37.33,4.1-5.96,5.01-12.48,6.18-19.21,1.88-10.78,4.54-21.44,6.17-32.26,1.88-12.47,3.06-25.06,4.41-37.61.37-3.47,0-7.03.49-10.47,1.53-10.46.55-20.47-3.91-30.2-.86-1.89-.72-5.45.52-6.88,6.17-7.14,4.4-14.04.46-21.23-3.51-6.41-.93-12.69,6.04-15,6.25-2.08,10.24-.2,12.61,5.98,1.25,3.26,2.04,6.76,3.72,9.77,1.37,2.45,3.42,4.9,5.78,6.32,4.63,2.77,7.26,6.58,8.62,11.64,1.15,4.26,3.13,8.36,3.81,12.68.66,4.19.14,8.57.14,12.43Z"/>
    <path class="cls-1" d="M565.85,72.74v15.48c1.27-1.71,2.22-2.39,2.24-3.09.24-8.39,1.55-17.03-3.89-24.45-2.71-3.69-3.09-7.46-2.05-11.79,3.61-15.12,8.19-29.87,15.58-43.63.76-1.42,1.66-2.77,3.15-5.26,1.11,2.53,2,3.99,2.41,5.57,4.37,16.82,5.16,33.91,2.87,51.07-.39,2.96-3.21,5.56-4.72,8.41-1.25,2.36-3.04,4.8-3.22,7.31-2.59,35.2-4.5,70.46-7.51,105.62-2.68,31.36-6.59,62.61-9.73,93.94-.2,2.04,1.29,4.43,2.47,6.37,1.19,1.95,3.29,3.36,4.43,5.33,2.8,4.82.73,9.81-4.71,10.6-4.64.68-6.26,2.79-6.98,7.35-8.08,51.7-18.54,102.93-31.19,153.71-6.4,25.69-12.53,51.46-18.83,77.18-.65,2.64-1.65,5.2-3.52,7.62-.1-.55-.36-1.13-.27-1.65,5.64-30.76,11.07-61.56,17.08-92.25,2.62-13.35,7.07-26.35,9.59-39.71,4.25-22.57,7.74-45.29,11.32-67.99,1.4-8.87,2.18-17.85,3.2-26.78.18-1.53.18-3.08.26-4.63-.62-.09-1.23-.18-1.85-.27-1.23,7.44-2.45,14.88-3.68,22.32-.27-.03-.54-.07-.81-.1.83-5.89,1.66-11.78,2.47-17.67.25-1.81.56-3.63.6-5.45.05-2.59-1.2-3.73-3.82-2.77-17.79,6.5-35.63,3.23-53.64.95-9.39-1.19-17.63-4.77-25.88-8.59-8.08-3.74-14.46-9.19-19.31-17.28-4.5-7.51-11.03-14.07-17.6-20-5.26-4.75-4.62-10.27-4.62-15.94,0-.98,2.06-2.34,3.42-2.83,1.11-.4,2.79-.15,3.88.44,13.5,7.29,29.07,6.84,43.18,11.68,10.52,3.61,20.76,8.05,31.29,11.65,5.6,1.92,11.57,2.75,17.33,4.24,7.22,1.86,14.38,3.97,21.61,5.8,7.39,1.87,7.83,1.49,8.51-6.22,3.2-36.34,6.12-72.71,9.68-109.01,1.68-17.05,4.74-33.96,6.9-50.97,1.24-9.74,1.91-19.56,2.88-29.34.18-1.76.6-3.51.91-5.26.19.09.37.19.56.28Z"/>
    <path class="cls-1" d="M342.19,226.69c-9.71-.41-15-4.13-18.06-12.99-3.69-10.67-11.11-18.73-18.86-26.52-13.66-13.74-14.66-35.21-2.25-50.03,5.58-6.67,17.28-7.08,23.63-1.24,1.56,1.43,4.38,1.62,6.69,2.06,4.29.82,8.63,1.38,12.93,2.1,1.47.25,2.91.91,4.37.92,5.83.04,9.89,3.03,13.69,7.14,1.86,2.02,4.61,3.79,7.25,4.39,5.29,1.2,6.89,3.1,5.33,8.81-2.32,8.51-5.07,16.9-7.12,25.47-.68,2.85-.64,6.47.54,9.09,6.06,13.46,2.52,22.46-11.65,27.11-5.32,1.75-10.98,2.5-16.48,3.7Z"/>
    <path class="cls-1" d="M424.66,622.61c-6.47-1.05-9.44-3.66-9.57-9.36-.15-6.75-2.41-11.98-7.1-17.34-3.82-4.36-4.89-11.31-6.59-17.28-2.46-8.61-4.58-17.33-6.5-26.08-1.74-7.94-4.16-15.97-4.25-23.98-.13-12.39,1.44-24.79,2.34-37.18.41-5.62.86-11.23,1.42-16.83.48-4.78.85-9.6,1.81-14.3,1.07-5.25,4.16-6.74,9.44-5.51,1.74.41,3.63.19,5.44.29,5.68.32,8.04,3.52,7.97,9.2-.04,3.09,1.21,6.26,2.19,9.29,1,3.13,3.21,6.1,3.41,9.23.51,7.89.1,15.83.23,23.74.17,10.93.16,21.88.86,32.77.53,8.26,2.12,16.46,3.1,24.7.55,4.59,1.73,8.54,5.64,11.72,2.08,1.69,3.35,4.8,4.17,7.52,2.16,7.17,4,14.48.76,21.88-1.66,3.79-2.7,8.11-5.24,11.18-2.33,2.81-6.29,4.28-9.53,6.33Z"/>
    <path class="cls-1" d="M736.49,735.23c-2.99,0-6-.13-8.98.03-8.25.44-14.13-3.15-16.4-10.97-5.96-20.49-8.63-41.34-4.96-62.64.88-5.1,3.7-8.1,8.79-9.69,16.06-5,32.31-8.12,49.19-6.07,9.91,1.2,12.48,3.95,13.83,13.87.89,6.57-1.43,8.68-8.07,8.38-10.76-.48-21.55-.67-32.32-.62-2.22.01-6.1,1.32-6.34,2.59-.7,3.62-.14,7.56.46,11.29.1.63,2.9,1.26,4.4,1.15,5.31-.37,10.6-1.11,15.9-1.61,3.97-.37,7.91-.37,9.16,4.62,1.52,6.06-.45,11.46-5.37,12.94-5.23,1.58-10.72,2.24-16.09,3.37-2.4.5-5.78-.26-5.5,4.02.4,5.99,2.36,8.76,6.94,8.08,11.83-1.76,23.63-3.81,35.35-6.19,6.46-1.31,8.94.08,9.5,6.74.77,9.08-1.54,13.55-10.45,15.37-12.83,2.62-25.93,3.96-38.91,5.84-.04-.17-.08-.33-.12-.5Z"/>
    <path class="cls-1" d="M409.31,678.69c1.1-4.13,2.14-8.28,3.32-12.4.59-2.08,1.32-4.13,2.17-6.11,3.51-8.19,13.51-11.07,20.61-5.51,1.52,1.19,2.13,4.66,1.81,6.89-1.91,13.32-4.83,26.52-6.16,39.88-.83,8.34.23,16.94,1.01,25.36.67,7.23-.6,9.03-7.96,8.89-10.35-.2-13.88-2.99-17.04-12.54-5.37-16.23-13.34-31.19-22.89-45.33-.35-.51-.96-.85-2.2-1.9-.66,2.05-1.56,3.59-1.59,5.14-.21,13.61-.59,27.23-.23,40.82.21,7.96-.52,9.35-8.27,8.79-12.32-.89-16.87-4.98-17.36-17.3-.75-18.93,1.48-37.61,7.32-55.68,3.93-12.14,15.79-15.18,24.82-5.93,6.92,7.08,12.4,15.57,18.5,23.44.96,1.24,1.81,2.56,2.71,3.84.47-.12.94-.24,1.41-.37Z"/>
    <path class="cls-1" d="M239.68,716.91c1.19-13.26,5.77-28.22,11.33-42.88,2.59-6.82,5.61-13.56,9.19-19.91,7.13-12.64,23.49-14,31.99-2.04,6.1,8.58,11.05,18.22,15.03,27.99,4.57,11.2,8.17,22.91,10.95,34.69,2.72,11.49-2.51,17.72-14.2,19.33-4.27.59-7.14-.73-8.25-5.16-.93-3.71-2.13-7.36-3.03-11.08-.7-2.9-2.27-3.57-5.13-3.04-5.71,1.06-11.47,2.05-17.25,2.52-3.55.29-5.09,1.87-5.55,5.1-.23,1.65-.51,3.29-.79,4.93-1.25,7.23-3.39,8.77-10.53,7.59-10.16-1.67-13.89-5.88-13.77-18.05ZM278.76,683.04c-.75,0-1.5,0-2.26,0-2.35,6.83-4.8,13.63-6.9,20.54-.19.62,1.89,2.8,2.88,2.77,3.96-.11,7.95-.59,11.81-1.43,1.07-.23,2.77-2.58,2.48-3.3-2.46-6.27-5.3-12.4-8.02-18.57Z"/>
    <path class="cls-1" d="M53.24,715.36c-4.04-2.86-7-6.11-6.27-11.52.55-4.09,2.33-6.26,6.5-5.59,11.73,1.89,22.11,7.22,32.04,13.38,3.38,2.1,1.75,5.27-.06,7.88-8.18,11.76-19.41,16.99-33.74,16.78-23.23-.34-43.41-15.12-49.65-37.02-5.95-20.85,1.07-36.6,20.99-45.28,15.98-6.96,32.65-9.17,49.75-4.15,8.51,2.5,9.91,4.66,8.61,13.37-.39,2.59-1.13,5.22-2.23,7.6-2.58,5.56-4.99,6.49-10.78,4.53-10.76-3.64-21.36-3.33-31.55,1.72-7.07,3.51-11.54,9.19-10.97,17.49.59,8.64,3.73,16.06,12.55,19.3,4.48,1.65,9.29,2.43,13.94,3.6.29-.7.59-1.4.88-2.1Z"/>
    <path class="cls-1" d="M125.01,699.88c2.38-12.54,4.34-25.17,7.28-37.58,1.97-8.32,4.63-9.59,13.02-8.48,3.94.52,7.92,1.21,11.69,2.42,5.42,1.74,6.44,4.05,4.92,9.51-2.01,7.21-4.55,14.31-5.97,21.64-.9,4.62-.72,9.64,0,14.32.82,5.38,3.88,6.4,8.7,3.97,6.05-3.05,9.71-7.98,11.39-14.4,2.55-9.71,4.09-19.52,2.83-29.64-.86-6.92.56-9.08,6.99-12,.61-.28,1.22-.53,1.84-.76,10.67-4.1,15.11-1.84,15.36,9.41.5,21.62-2.86,42.6-15.11,61.06-8.93,13.45-24.33,19.02-39.8,15.2-11.86-2.93-19.09-10.41-21.17-22.49-.67-3.91-.64-7.94-.93-11.92l-1.03-.26Z"/>
    <path class="cls-1" d="M662.37,666.92c-1.81,4.69-4.65,12.27-7.68,19.79-1.05,2.61-2.55,5.05-3.86,7.56-3.48,6.66-3.53,6.72,2.43,11.43,3.39,2.68,7.02,5.06,10.45,7.69,4.58,3.52,5.18,5.68,1.08,9.77-3.68,3.67-8.16,6.86-12.83,9.15-4.49,2.2-8.65-.79-12.48-3.23q-6.89-4.39-12.74.79c-8.82,7.81-20.79,6.58-28.36-2.68-2.41-2.94-1.47-5.18.59-7.46,3.79-4.2,7.58-8.41,11.52-12.46,2.5-2.57,2.09-4.54.06-7.35-5.45-7.54-10.91-15.13-15.57-23.17-5.8-10-2.3-18.48,8.51-22.87,3.84-1.56,6.38-.11,8.49,2.99,4.22,6.18,8.42,12.38,12.76,18.48,2.84,3.99,4.52,3.93,6.68-.47,3.15-6.43,5.9-13.05,8.93-19.53,2.83-6.05,5.45-7.12,11.5-4.16,5.21,2.55,10.72,5.17,10.51,15.74Z"/>
    <path class="cls-1" d="M556.14,666.54c.37,5.08-1.9,8.31-6.48,10.18-2.77,1.13-5.51,2.34-8.24,3.58-5.93,2.71-7.55,5.84-6.75,12.3,1.3,10.4,2.74,20.79,3.62,31.23.56,6.7-1.51,8.9-8.01,10.52-.16.04-.32.08-.49.11-12.43,2.95-14.9,1.51-17.68-10.96-2.06-9.25-3.84-18.56-5.71-27.85-1-4.96-4.04-7.37-9.04-7.68-4.15-.26-8.3-.59-12.42-1.14-4.79-.64-7.96-3.33-8.78-8.22-.8-4.75-1.47-9.52-2.01-14.31-.43-3.88,1.29-6.21,5.42-5.81,21.33,2.1,41.65-3.21,62.02-8.25,8.76-2.17,11.01-.8,13.08,7.94.65,2.74.99,5.56,1.46,8.34Z"/>
    <path class="cls-1" d="M268.37,843.48c-.1,1.7-.3,3.4-.28,5.09.11,14.16.14,28.32.47,42.47.1,4.14-1.27,5.92-5.41,5.43-.49-.06-1,0-1.5,0-6.7.03-6.73.03-6.71-6.49.05-18.33.02-36.66.23-54.98.14-12.7-2.08-11.18,11.51-11.33,1.33-.01,2.68.11,4-.05,3.77-.49,5.74,1.04,6.84,4.76,4.59,15.49,9.42,30.91,14.18,46.35.32,1.04.77,2.04,1.47,3.88,1.01-1.52,1.79-2.31,2.11-3.25,5.2-15.64,10.45-31.28,15.43-46.99,1.08-3.41,2.65-5.06,6.31-4.87,3.65.19,7.34.19,10.99-.09,4.06-.31,5.19,1.54,5.17,5.28-.13,20.99-.18,41.99-.08,62.98.02,3.62-1.4,4.54-4.74,4.53-11.59-.03-9.47.3-9.39-9.2.11-13.33.36-26.65.53-39.98.02-1.43-.15-2.87-1.35-4.64-.64,1.55-1.37,3.06-1.9,4.64-4.93,14.86-9.96,29.69-14.65,44.62-1.18,3.76-3.05,5.16-6.8,4.66-1.47-.2-3.01-.14-4.49.02-3.2.34-4.75-1-5.66-4.14-4.34-14.86-8.91-29.66-13.41-44.48-.45-1.49-1.01-2.94-1.52-4.42-.44.07-.88.14-1.33.21Z"/>
    <path class="cls-1" d="M422.27,843.11c0,1.56-.02,3.12,0,4.68.23,14.31.36,28.62.76,42.93.11,3.96-1.16,5.24-5.17,5.03-8.82-.45-8.44,1.6-8.41-8.76.04-19.31.18-38.63.01-57.94-.04-4.35,1.31-5.89,5.7-5.76,16.56.47,12.03-2.29,20.28,11.71,7.43,12.61,14.62,25.36,21.96,38.03.53.91,1.4,1.61,2.89,3.28.19-2.49.41-3.89.4-5.29-.12-14.15-.09-28.3-.5-42.44-.2-6.93,4.63-4.86,8.21-5.32,4.23-.54,5.41,1.42,5.39,5.49-.12,20.31-.11,40.62.13,60.93.05,4.5-1.31,5.61-5.87,6.17-10.11,1.23-16.11-2.17-20.55-11.59-5.8-12.3-13.23-23.84-19.99-35.69-1.13-1.98-2.42-3.87-3.64-5.8-.53.12-1.06.23-1.6.35Z"/>
    <path class="cls-1" d="M285.5,385.41c.76-1.19,1.92-4,3.92-5.95,4.69-4.6,8.64-9.4,10.41-15.99,1.1-4.09,3.73-7.74,5.31-11.73,3.12-7.85,6.22-15.73,8.91-23.74,3.27-9.73,5.96-19.65,9.29-29.35.64-1.88,3.05-3.16,4.64-4.72.76,2.17,2.58,4.65,2.07,6.47-1.41,4.94-.49,9.2.87,13.99,1.16,4.08.14,8.79-.05,13.22-.19,4.26-1.09,8.56-.75,12.76,1.22,15.05,1.33,29.93-4.92,44.08-2.59,5.86-6.96,9.94-12.15,13.99-6.16,4.81-10.8,5.73-17.77,2.17-5.64-2.88-9.76-6.89-9.78-15.18Z"/>
    <path class="cls-1" d="M551.11,850.07c0,6.83.12,13.66-.02,20.49-.26,13.53-7.85,22.69-21.12,25.16-9.89,1.84-19.61,1.61-28.26-4.56-5.75-4.1-9.36-9.75-9.55-16.78-.42-15.64-.43-31.3-.28-46.95.01-1.36,2.41-2.72,3.74-4.03.18-.17.64-.04.98-.06,9.93-.59,9.89-.59,9.96,9.41.08,12.66-.21,25.33.46,37.96.57,10.83,9.47,16.35,19.85,13.13,6.37-1.97,8.79-6.95,8.93-13.04.29-12.65.29-25.31.33-37.97.03-9.32,3.36-12.01,12.34-9.28,1.22.37,2.32,2.91,2.49,4.55.38,3.63.14,7.32.15,10.98s0,7.33,0,10.99Z"/>
    <path class="cls-1" d="M352.4,859.39c0-10.16.13-20.32-.06-30.47-.08-4,1.05-5.65,5.36-5.56,10.48.23,20.98.15,31.47-.1,4.23-.1,5.07,1.9,4.94,5.5-.12,3.43.4,6.78-4.89,6.51-5.65-.29-11.32.09-16.98-.05-3.35-.08-4.72,1.16-4.89,4.61-.6,12.34-.7,12.34,11.76,12.35,2.16,0,4.33,0,6.49,0,6.71-.01,6.46.02,6.75,6.54.2,4.57-1.6,5.81-5.84,5.55-4.81-.3-9.66.01-14.48-.11-3.09-.08-4.44,1.06-4.66,4.3-1.03,15.23-1.1,15.22,14.09,15.25,2.16,0,4.36.21,6.49-.05,4.98-.62,6.2,1.67,6.25,6.32.06,4.93-1.6,6.13-6.41,5.95-10.14-.38-20.31-.17-30.46.13-4.05.12-5.2-1.39-5.14-5.2.17-10.49.06-20.98.06-31.47.05,0,.1,0,.16,0Z"/>
    <path class="cls-1" d="M513.78,815.44c3.31-4.26,6.29-8.22,9.44-12.03.78-.94,2.1-1.94,3.22-2,4.42-.23,8.85-.09,13.37-.09-3.84,8.58-18.54,16.75-26.03,14.12Z"/>
  </g>
</svg>