<?xml version="1.0" encoding="UTF-8"?>
<svg id="Capa_2" xmlns="http://www.w3.org/2000/svg" viewBox="0 0 658.81 557.67">
  <defs>
    <style>
      .cls-1 {
        fill: #fff;
      }
    </style>
  </defs>
  <g id="Capa_1-2" data-name="Capa_1">
    <path class="cls-1" d="M569.1,173.66c.57,2.69,1.23,5.37,1.71,8.08,4.51,25.26,9.01,50.53,13.48,75.8,3.89,22.01,7.5,44.06,11.68,66.02,3.1,16.29,8.18,31.91,17.42,45.97,10.07,15.33,23.96,23.43,42.37,23.56.93,0,1.86.11,2.79.17.09.38.17.77.26,1.15-3.41.88-6.78,2.32-10.24,2.54-8.26.52-16.6,1.1-24.82.49-13.16-.97-24.29-7.27-34.34-15.47-19.34-15.78-28.88-37.14-33.44-60.92-4.53-23.63-8.19-47.42-12.24-71.14-.14-.79-.39-1.57-.77-3.06-.98,1.16-1.66,1.76-2.09,2.51-15.81,27.31-31.81,54.5-47.23,82.03-3.91,6.98-5.92,15.02-9.05,23.21-20.34-38.56-40.74-77.26-61.75-117.11-.58,2.28-.91,3.16-1.02,4.07-2.83,22.9-5.63,45.8-8.44,68.7-1.06,8.68-2.09,17.36-3.19,26.03-.81,6.37,3.4,11.58,9.87,12.08,1.09.09,2.19.2,3.28.3,0,.36.01.71.02,1.07h-31.26c16.27,34.93,43.62,45.13,79.9,39.33-15.04,8.93-44.54,14.1-69.61,4.22-23.37-9.21-38.45-26.26-47.39-49.66-4.69,1.55-9.07,3.2-13.57,4.45-25.81,7.2-51.7,7.32-77.11-1.16-21.64-7.22-39.1-20.69-50.38-40.74-9.16-16.27-12-34.19-9.91-52.85,1.6-14.23,6.04-27.36,14.11-39.24,10.18-14.97,24.23-24.96,40.77-31.74,13.69-5.61,28.04-8.3,42.73-8.57,21.94-.4,43.48,2.43,64.3,9.74q8.35,2.93,8.38,11.66c.02,11.05,0,22.1-.64,33.49-.45-.99-1.01-1.95-1.34-2.98-7.61-24.18-24.62-37.2-49.07-41.21-13.53-2.22-26.88-1.77-39.6,4.07-18.39,8.43-29.5,23.26-35.7,41.96-6.61,19.97-6.83,40.39-1.87,60.71,4.59,18.79,14.43,34.45,31.26,44.59,19.06,11.48,49.25,11.37,65.36-5.04,4.52-4.61,7.58-9.73,7.27-16.75-.44-10.04-.16-20.11-.05-30.17.11-10.67-2.74-13.89-13.32-14.73-.77-.06-1.54-.21-2.27-1.03h66.98c.04.21.08.42.13.64-2.1.33-4.23.54-6.3,1.01-5.84,1.34-8.68,4.63-8.62,10.61.18,17.08.45,34.16.94,51.24.1,3.44,1.29,6.86,1.98,10.29.48.11.97.22,1.45.32,1.01-2.17,2.54-4.24,2.93-6.52,2.09-12,3.97-24.04,5.77-36.09,1.99-13.31,3.83-26.64,5.69-39.97,1.92-13.77,3.9-27.54,5.57-41.35.27-2.2-.45-4.87-1.57-6.82-8.5-14.75-18.45-28.37-31.66-39.34-7.65-6.36-16.34-9.98-26.4-9.96-.65,0-1.29-.22-1.94-.34-.11-.46-.22-.91-.33-1.37,4.42-1.39,8.77-3.18,13.29-4.09,24.52-4.95,44.71,3.67,62.15,20.41,13.78,13.22,22.76,29.7,31.49,46.4,12.56,24.02,25.43,47.88,38.19,71.8.32.6.86,1.08,1.91,2.38,24.18-41.59,48.08-82.71,71.99-123.84.37.05.74.1,1.11.14Z"/>
    <path class="cls-1" d="M273.9,72.03c-114.69,54.2-163.98,176.48-138,285.43,26.11,109.54,134.38,202.97,269.86,187.42-58.09,22.97-150.73,17.52-222.68-37.34-79.47-60.6-115.91-162.46-89.21-259.17,25.66-92.93,87.77-150.74,180.03-176.34Z"/>
    <path class="cls-1" d="M438.2,53.15C308.16-5.02,167.87,42.33,93.95,144.11,19.64,246.44,19.1,407.05,131.38,511.2,69.34,478.46,6.28,395.48.47,294.03-5.95,181.97,54.27,76.45,156.25,28.54,254.24-17.5,348.93-6.79,438.2,53.15Z"/>
    <path class="cls-1" d="M197.78,415.49s113.18,121.93,298.23,39.82c0,0-168.38,142.84-298.23-39.82Z"/>
  </g>
</svg>