<?xml version="1.0" encoding="UTF-8"?>
<svg id="Capa_2" xmlns="http://www.w3.org/2000/svg" viewBox="0 0 804.61 366.49">
  <defs>
    <style>
      .cls-1 {
        fill: #fff;
      }
    </style>
  </defs>
  <g id="Capa_1-2" data-name="Capa_1">
    <path class="cls-1" d="M561.48,190.93c.53,4.89.59,9.9,1.71,14.65,1.23,5.25,3.43,10.28,5.21,15.4,4.59-3.71,10.88-6.52,13.41-11.32,5.44-10.32,12.33-17.89,24.13-19.27,6.91-.81,13.99-.15,22.63-.15,0,6.33-.55,13.25.22,20.01.41,3.61,2.34,8.73,5.02,9.91,2.66,1.17,7.52-1.1,10.68-3.05,2.94-1.81,5.62-4.82,7.18-7.92,6.55-13.05,16.35-20.06,31.01-17.41-4.51-18.59-11.52-36.15-12.31-53.99-.75-16.92,2.67-35.01,8.64-50.94,5.31-14.17,18.43-23.98,35.44-21.97,17.1,2.02,25.34,14.4,29.09,29.89,9.52,39.32-.81,73.94-25.62,104.98-4.28,5.36-11.32,10.17-3.31,18.12,6.92,6.87,14.49,12.24,23.71,5.71,6.37-4.51,11.37-11.04,16.67-16.96,3.53-3.94,5.69-9.61,9.87-12.36,11.98-7.88,22.34-2.42,23.81,11.76.31,2.97.49,5.96.89,10.89,5.38-3.42,9.35-5.95,13.32-8.48l1.72,1.06c-2.1,2.7-3.67,6.27-6.4,7.94-8.29,5.07-16.6,11.32-25.74,13.35-6.4,1.42-14.17-3.33-23.62-5.96q-20.03,13.55-47.69-6.06c-16.7,6.59-32.75,27.56-51.65,2.97-11.56,8.2-23.22,11.98-33.67-1.76-17.59,16.6-22.44,17.19-34.64,6.46h-27.01c-9.26,4.19-17.98,8.14-26.7,12.09-2.14-8.57-4.29-17.14-7.02-28.06-7.4-4.32-12.98-.55-17.98,9.27-12.87,25.25-31.84,44.69-58.15,56.21-39.89,17.47-73.55.47-75.78-42.6-3.26-62.87,17.01-118.23,67.11-159.39,7.9-6.49,19.17-9.99,29.46-12.15,11.83-2.48,22.5,6.19,19.85,17.5-5.18,22.08-13.73,43.37-21.18,64.89-.43,1.24-3.48,1.57-8.85,3.78,4.91-12.37,9.17-21.5,12.16-31.04,3.62-11.54,7.45-23.26,8.85-35.18,1.57-13.45-5.49-18.87-16.98-12.24-13.36,7.71-26.89,17.08-36.58,28.84-30.6,37.1-45.08,80.63-44.76,128.83.04,6.23,1.11,12.61,2.72,18.65,7.12,26.77,26.8,36.76,52.87,27.24,35.85-13.09,57.69-40.3,74.21-73.08,2.06-4.09,5.89-7.28,8.91-10.89,1.16.78,2.32,1.56,3.48,2.33v11.95c26.12-2.78,6.85,19.98,15.57,27.46,18.99-6.85,12.84-28.47,22.36-40.61,1.25.23,2.5.45,3.75.68ZM702.51,200.16c29.09-26.06,41.92-81.73,27.86-113.96-7.33-16.8-22.43-20.49-35.48-7.63-5.54,5.46-10.6,12.89-12.51,20.29-9.36,36.31,2,68.73,20.13,101.29ZM694.28,212.23c-9.77-6.69-13.77-20.2-24.88-11.32-4.96,3.97-8.11,19.95-5.65,21.77,11.66,8.6,18.18-4.64,30.52-10.45ZM591.25,222.66c2.53,1.21,5.06,2.42,7.59,3.62,6-8.36,12-16.72,18-25.08-1.25-1.56-2.5-3.12-3.75-4.68-4.72,1.97-11.21,2.66-13.76,6.2-4.07,5.65-5.53,13.2-8.09,19.94Z"/>
    <path class="cls-1" d="M176.1,190.15c-.21,4.33-.89,8.63-.51,12.84.51,5.56,1.28,11.27,3.31,16.36.4,1.01,8.74.95,10.47-1.1,3.85-4.57,6.05-10.62,8.5-16.25,1.65-3.79,1.44-9.67,4.13-11.42,3.45-2.24,8.98-1.27,13.62-1.68.18,1.34.35,2.68.53,4.02-2.9.94-5.81,1.88-8.74,2.84,5.87,17.41,12.13,21.19,23.53,10.26,13.94-13.37,28.93-17.74,48.54-15.29,0,4.34-.55,9.52.16,14.53.71,5.03,2.68,9.89,4.1,14.82,5.03-1.99,10.39-3.46,14.97-6.21,2.25-1.35,3.05-5.1,6.19-6.09-1.51,11.16-7.33,19.18-18,20.14-6.49.58-13.35-2.97-21.96-5.14-4.56,2.41-11.83,8.78-19.84,9.9-12.04,1.68-13.67-8.9-14.21-18.6-1.3-.38-2.59-.76-3.89-1.14-1.48,4.13-3.92,8.2-4.25,12.42-.77,10.07-7.06,15.78-15.75,12.82-7.3-2.48-10.28-7.23-5.9-14.56,1.81-3.02,4.04-5.79,5.01-10.35-14,10.06-26.25,27.02-44.28,5.75-8.23,11.62-18.04,19.42-32.8,10.35-14.93,21.57-32.66,38.44-56.53,48-36.97,14.8-69.08-1.56-71.88-40.94-4.66-65.7,16.38-122.42,69.28-164.82,1.75-1.4,3.67-2.7,5.7-3.63,11.19-5.14,24.91-12.14,33.89-2.39,5.93,6.43,6.18,20.99,4.29,31.02-2.7,14.36-9.43,28.03-15.01,41.76-1.37,3.37-4.97,5.82-7.54,8.7-1.19-.77-2.39-1.54-3.58-2.32,2.86-7.22,6.19-14.3,8.47-21.7,4.22-13.71,9.22-27.4,11.28-41.48,1.9-12.99-5.4-17.94-17.34-12.4-9.23,4.28-18.63,9.87-25.59,17.14C25.37,127.12,6.88,176.43,9.66,232.7c1.94,39.27,28.56,54.09,63.79,36.48,25.86-12.93,48.23-29.71,55.85-60.32,2.97-11.95,15.83-19.26,28.31-18.74,5.2.22,10.41.04,18.48.04ZM241.83,221.97c1.52.83,3.05,1.66,4.57,2.49,12.75-2.4,15.2-13.92,19.24-25.41-5.22-.62-11.66-.95-13.78,1.92-4.53,6.12-6.82,13.9-10.03,20.99ZM163.28,201.89c-1.46-1.86-2.92-3.71-4.39-5.57-4.85,2.59-11.42,4.03-14.11,8.06-3.52,5.29-3.97,12.63-5.74,19.09,2.12.91,4.24,1.81,6.36,2.72,5.96-8.1,11.92-16.2,17.87-24.3Z"/>
    <path class="cls-1" d="M674.98,339.11c-1.5,10.5-2.54,17.81-3.58,25.11-1.78-.08-3.56-.17-5.34-.25v-37.56c3.64.49,8.61-.34,10.67,1.72,5.56,5.57,9.88,12.39,16.45,21,1.16-10.24,2.01-17.67,3.02-26.62,5.3,6.46,8.88,35.61,5.01,39.11-1.69,1.53-8.16.48-10.2-1.6-5.45-5.6-9.68-12.39-16.03-20.92Z"/>
    <path class="cls-1" d="M493.53,364.28c-1.07-.71-3.85-1.86-5.67-3.88-12.85-14.31-13.19-14.31-20.23,3.03-4.84-5.27-7.53-36.29-2.6-37.55,8.15-2.08,17.55-1.91,25.72.12,3.08.76,5.72,9.26,5.92,14.34.3,7.34-1.8,14.78-3.14,23.94ZM489.38,338.91l.15-3.95c-3.21-1.37-6.49-3.97-9.6-3.78-3.16.19-6.15,3.14-9.22,4.88,2.52,2.33,4.9,6.34,7.61,6.58,3.55.31,7.37-2.34,11.07-3.72Z"/>
    <path class="cls-1" d="M261.71,363.71c0-12.14-1.62-24.68,1.15-36.15.68-2.83,16.04-4.04,23.89-2.37,3.76.8,7.54,9.89,8.04,15.51.65,7.19-2,14.67-3.46,23.35-1.6-1.32-4.47-3.82-7.47-6.15-3.33-2.59-6.78-5.03-10.17-7.53-1.81,3.52-3.57,7.07-5.47,10.54-.58,1.07-1.55,1.93-2.35,2.88l-4.16-.08ZM278.09,345.59c3.83-4.01,6.49-6.79,9.15-9.58-3.65-1.73-7.27-4.67-10.96-4.77-2.4-.06-4.9,4.03-7.35,6.25,2.55,2.25,5.1,4.5,9.16,8.09Z"/>
    <path class="cls-1" d="M784.86,335.28c-7.55-1.66-14.2-3.12-20.86-4.59-.55,1.61-1.11,3.21-1.66,4.82,4,1.81,7.91,3.91,12.04,5.36,6.99,2.46,15.75,5.18,12.43,14.01-1.92,5.12-9.92,10.32-15.74,11.03-8.17,1-16.91-2.07-16.97-13.94,8.01,2.2,15.53,4.26,23.06,6.32.65-1.93,1.31-3.86,1.96-5.78-4.31-1.94-9.29-3.09-12.76-6.02-4.55-3.85-7.92-9.11-11.79-13.76,5.22-3.18,10.15-8.31,15.71-9.12,10.01-1.46,12.94,1.86,14.59,11.66Z"/>
    <path class="cls-1" d="M62.58,344.13c.2-13.61,7.72-21.22,20.78-21.06,12.76.16,21.03,8.69,20.83,21.47-.19,11.99-9.83,21.94-21.25,21.94-11.37,0-20.54-10.07-20.36-22.35ZM80.23,359.95c2.12-.03,4.23-.06,6.35-.08,3.22-5.39,9.21-10.97,8.84-16.1-.33-4.56-8.44-12.58-11.8-11.96-5.2.96-12.33,7.6-12.95,12.54-.59,4.72,6.08,10.36,9.56,15.6Z"/>
    <path class="cls-1" d="M369.85,352.46c-6.27-8.81-28.11-2.79-22.4-21.63,1.22-4.02,12.39-6.52,19.1-6.82,3.77-.17,7.8,5.61,9.33,10.9-6.83-1.24-13.67-2.49-23.95-4.36,8.5,14.09,33.16,7.15,25.27,27.9-1.64,4.31-12.73,6.9-19.46,6.88-6.86-.02-13.56-4.33-11.88-13.56,8.09,2.19,15.52,4.2,22.95,6.21.35-1.84.7-3.69,1.05-5.53Z"/>
    <path class="cls-1" d="M581.61,352.11c8.89,2.26,16.12,4.1,23.34,5.94l1.82-5.83c-4.9-2-10.55-3.08-14.51-6.26-4.28-3.44-9.86-8.9-9.78-13.38.18-9.53,9.04-9.66,16.39-9.4,7.43.26,13.66,2.44,14.35,12.15-8.17-1.6-15.02-2.93-21.87-4.27-.45,1.7-.91,3.39-1.36,5.09,4.24,1.62,8.42,3.4,12.72,4.81,7.32,2.4,15.51,6.38,11.62,14.59-2.5,5.28-11.4,9.74-17.83,10.35-7.64.73-15.69-3.09-14.9-13.78Z"/>
    <path class="cls-1" d="M179.66,322.13c7.01,8.15,14.01,16.31,22.32,25.97,1.24-9.32,2.23-16.76,3.23-24.19,1.23.06,2.46.13,3.69.19v39.29c-.78.9-1.55,1.8-2.33,2.69-7.25-7.98-14.5-15.95-23-25.3-1.36,8.58-2.54,16.06-3.73,23.54-1.29-.15-2.59-.3-3.88-.45v-39.52c1.24-.74,2.47-1.48,3.71-2.22Z"/>
    <path class="cls-1" d="M252.45,363.42h-30.79c0-10.93-.18-21.66.14-32.37.07-2.33,1.81-6.55,2.97-6.62,9.3-.55,18.65-.31,27.98-.31.06,1.69.11,3.37.17,5.06-7.52.97-15.04,1.94-22.56,2.9-.47,1.44-.93,2.89-1.4,4.33,6.95,2.36,13.9,4.72,20.84,7.08.1.89.2,1.78.3,2.67-4.78.65-9.7.82-14.28,2.16-2.36.69-4.12,3.44-6.14,5.27,2.01,1.34,3.89,3.53,6.06,3.86,5.45.84,11.04.85,16.57,1.2.05,1.59.1,3.18.14,4.77Z"/>
    <path class="cls-1" d="M617.3,366.09c6.3-15.02,10.55-26.6,15.98-37.61,3.77-7.64,9-6.8,12.38.73,4.88,10.87,9.24,21.96,11.82,35.03-5.99-3.45-11.96-9.55-17.99-9.61-6.02-.06-12.11,5.91-22.19,11.46Z"/>
    <path class="cls-1" d="M708.43,362.42c4.96-11.71,9.58-23.6,15.27-34.95.8-1.6,9.35-1.87,9.97-.62,5.76,11.71,10.58,23.89,17.14,39.41-10.22-5.51-16.47-11.41-22.87-11.57-5.64-.14-11.43,6.11-17.16,9.54-.78-.6-1.57-1.21-2.35-1.81Z"/>
    <path class="cls-1" d="M572.25,346.78c-4.96.45-9.99.54-14.85,1.51-2.15.43-3.96,2.63-5.92,4.03,2.03,1.76,3.9,4.74,6.14,5.05,5.4.74,10.96.24,16.46.24.06,2.03.13,4.06.19,6.09-9.77.49-19.55.99-31.01,1.57,0-12.61-.47-23.32.31-33.93.21-2.81,4-7.3,6.58-7.63,7.81-1.01,15.84-.37,23.78-.37.07,1.98.15,3.97.22,5.95-7.44.97-14.88,1.94-22.32,2.9-.43,1.48-.87,2.96-1.3,4.43,7.17,2.26,14.34,4.52,21.51,6.78.06,1.13.13,2.25.19,3.38Z"/>
    <path class="cls-1" d="M458.47,365.92c-10.19-5.31-16.48-11.06-22.86-11.17-5.71-.09-11.53,6.04-20.91,11.54,6.15-15.07,10.29-26.65,15.57-37.69,3.62-7.55,9.13-7.02,12.59.35,5.09,10.82,9.36,22.02,15.61,36.96Z"/>
    <path class="cls-1" d="M298.56,366.21c6.43-15.41,11.21-27.6,16.94-39.32.52-1.06,9.59-.33,10.62,1.67,5.65,10.92,10.03,22.51,16.46,37.65-9.92-5.42-16.04-11.33-22.25-11.42-5.91-.09-11.9,5.91-21.77,11.42Z"/>
    <path class="cls-1" d="M54.92,354.5c-1.76,8.65-9.73,11.97-18.91,11.77-10.56-.23-18.34-9.89-18.43-21.27-.09-11.09,4.14-19.55,15.99-21.41,9.86-1.55,18.3.76,23.02,13.45-11.22-.62-22.58-14.82-29.48,1.5-1.78,4.2.5,14.59,2.79,15.22,7.33,2,15.55.74,25.02.74Z"/>
    <path class="cls-1" d="M147.61,338.79c-10.07-3.64-18.76-15.04-27.01-2.39-2.48,3.81-2.43,12.02.08,15.85,8.25,12.61,16.89,1.33,27.62-2.82-1.49,12.29-8.89,15.56-17.11,16.77-10.08,1.49-19.65-7.33-21.25-18.39-1.77-12.28,4.87-22.63,15.72-24.48,11.31-1.93,18.74,2.69,21.95,15.46Z"/>
    <path class="cls-1" d="M577.01,0c-7.11,33.57.18,63.9,16.64,93.47,14.15,25.43,11.48,41.2-6.52,59.69,15.37-24.9,8.57-47.8-3.57-71.49-13.25-25.84-17.99-53.4-6.55-81.68Z"/>
    <path class="cls-1" d="M516.84,363.31c-.49-9.9-.98-19.8-1.51-30.58-3.98-1.26-7.93-2.5-12.25-3.87,7.34-7.4,22.96-7.84,33.74-.79-4.64,1.7-8.54,3.12-13.12,4.79-.62,10.11-1.25,20.42-1.89,30.74-1.66-.1-3.32-.2-4.98-.3Z"/>
    <path class="cls-1" d="M540.65,138.61c-11.09-16.64-12.71-35.54-10.11-54.26,2.36-17.05,8.03-33.64,12.24-50.43,1.26.33,2.53.66,3.79.99-2.97,11.04-5.97,22.07-8.89,33.13-6.31,23.87-2.12,47.36,2.67,70.82l.3-.25Z"/>
    <path class="cls-1" d="M158.49,363.8v-39.55c1.27-.02,2.54-.03,3.81-.05v39.55c-1.27.02-2.54.03-3.81.05Z"/>
    <path class="cls-1" d="M540.35,138.86c7.98,10.03,16.23,19.86,23.71,30.24,1.65,2.3.57,6.56.74,9.92-2.89-1.18-7.4-1.59-8.39-3.67-5.72-12.03-10.61-24.45-15.77-36.74,0,0-.29.25-.29.25Z"/>
  </g>
</svg>