<?xml version="1.0" encoding="UTF-8"?>
<svg id="Capa_2" xmlns="http://www.w3.org/2000/svg" viewBox="0 0 1218.92 442.64">
  <defs>
    <style>
      .cls-1, .cls-2 {
        fill: #fff;
      }

      .cls-3 {
        letter-spacing: -.06em;
      }

      .cls-2 {
        font-family: ArialMT, Arial;
        font-size: 43px;
      }
    </style>
  </defs>
  <g id="Capa_1-2" data-name="Capa_1">
    <path class="cls-1" d="M532.83,252.07c2.97-3.52,6.98-6.59,8.77-10.64,33.45-75.79,66.88-151.59,99.59-227.7,4.2-9.78,9.57-11.75,19.36-13.09,23.87-3.27,35.54,5.93,44.74,28.27,32.92,79.95,68.25,158.91,102.63,238.26,1.28,2.96,2.14,6.1,4.49,12.88-19.97,0-38.34.3-56.68-.38-2.27-.08-5-5.04-6.39-8.23-6.13-14.07-12.44-28.11-17.5-42.57-3.27-9.34-8.54-11.87-18.1-11.67-30.46.62-60.93.2-91.4.26-12.68.02-23.7,13.15-24.24,28.66-.3,8.54,11.41,15.11,28.57,14.2-7.25-1.8-11.73-2.91-16.21-4.02.07-.85.13-1.71.2-2.56,12.67,0,25.34.23,38-.06,17.27-.4,34.73.18,51.75-2.16,20.25-2.79,27.02,7.73,30.94,27.36-18.89-1.79-34.89,9.05-54.52,1.64-11.83-4.46-26.8-.78-40.35-.58-27.18.4-54.36.76-81.54,1.43-23.43.58-46.87,2.45-70.28,2.16-36.76-.45-73.5-3-110.26-3.2-25.94-.14-51.89,2.65-77.85,3.15-21.31.41-21.34-.24-20.42-22.01.11-2.69.45-5.37.82-9.68h131.22c-4.79-11.43-7.95-20.61-12.53-29.02-1.52-2.78-6.69-5-10.22-5.05-32.68-.44-65.36-.7-98.03-.09-5.91.11-11.74,4.41-20.98,8.14-8.43-5.94-20.74-13.95-32.11-23.12-2.57-2.08-3.81-9-2.39-12.3,25.87-60.46,52.08-120.77,78.87-180.83,1.76-3.96,8.72-7.8,13.37-7.95,34.94-1.09,34.83-.74,48.61,31.02,30.95,71.33,62.05,142.6,93.02,213.92,3.61,8.32,7.75,14.94,16.74,10.48-2.53-6.54-6.7-12.35-6.75-18.19-.46-58.48-.25-116.97-.19-175.45,0-2.08.46-4.16.79-6.93h52.09v193.84c1.46.61,2.91,1.22,4.37,1.83ZM375.43,170.61c-13.19-34.67-25.83-67.91-40.17-105.59-14.6,37.77-27.45,70.99-40.83,105.59h80.99ZM627.34,170.45h81.13c-13.12-34.16-25.68-66.88-38.24-99.6-1.47.11-2.95.22-4.42.33-12.58,32.46-25.16,64.93-38.47,99.26Z"/>
    <path class="cls-1" d="M210.98,222.3c14.4,10.07,27.91,19.52,41.26,28.85-19.14,40.2-79.9,56.26-117.54,52.05C47.6,293.47,5.27,238.15.39,167.81-3.66,109.47,24.03,49.74,76.64,28.9c-1.17,8.64-2.26,16.65-3.14,23.18,6.32,2.24,11.23,3.97,16.07,5.69.15-.57.77-1.56.55-2.33-9.08-32.54-19.35-33.19,24.75-40.85,49.51-8.6,95.93-1.89,132.91,42.36-13.39,10.45-26.73,20.87-40.15,31.35-28.78-39.13-87.34-36.12-121.16-6.5-38.59,33.81-41.9,104.45-7.01,144.04,35.29,40.04,85.57,38.84,131.52-3.52Z"/>
    <path class="cls-1" d="M839.86,284.07c-3.71-9.78-6.96-18.37-11.12-29.36,25.65,0,49.66-.02,73.67,0,39.42.05,78.83.15,118.25.19,21.03.02,42.07-.34,63.09.24,4.14.12,10.45,2.93,11.62,6.04,1.17,3.1-2.25,8.55-4.73,12.26-8.71,13.05-22.47,12.32-35.4,10.68-13.5-1.71-26.44-4.9-40.25-.31-4.24,1.41-10.43-4.55-15.84-4.82-11.99-.58-24.85,7.96-35.65-3.95-.21-.23-1.11,0-1.59.22-39.6,18.59-81.25,3.18-122.04,8.77Z"/>
    <path class="cls-1" d="M476.05,34.79V2.58h51.74v32.21h-51.74Z"/>
    <text class="cls-2" transform="translate(270.67 353.94)"><tspan x="0" y="0">Consejo</tspan><tspan class="cls-3" x="157.76" y="0"> </tspan><tspan x="167.34" y="0">Asesor de Investigaciones</tspan><tspan class="cls-3" x="669.29" y="0"> </tspan><tspan x="678.87" y="0">Agrárias</tspan></text>
  </g>
</svg>