<?xml version="1.0" encoding="UTF-8"?>
<svg id="Capa_1" xmlns="http://www.w3.org/2000/svg" viewBox="0 0 407.34 359.59">
  <defs>
    <style>
      .cls-1 {
        fill: #fff;
      }
    </style>
  </defs>
  <path class="cls-1" d="M261.66,314.72c9.24-1.87,18.43-4.02,27.73-5.55,18.91-3.11,37.8-6.69,56.86-8.46,8.73-.81,17.85,2.04,26.71,3.65,1.98.36,3.65,2.47,5.46,3.77l-.04,2.06c-3.14,1.07-6.64,3.62-9.35,2.95-13.93-3.42-27.21.27-40.51,2.93-36.67,7.35-72.72,17.07-107.56,30.78-5.88,2.32-11.18,6.47-16.24,10.42-5.03,3.93-16.59,2.79-18.73-3.06-.9-2.45.09-7.15,1.98-8.77,5.81-4.96,12.47-8.92,18.79-13.29.93-.64,1.82-1.36,3.57-2.69-11.38-7.65-12.83-18.79-11.62-30.63.87-8.45,1.97-16.92,3.67-25.24,8.96-43.75,24.57-85.35,39.7-127.25,16.7-46.26,45.46-83.91,78.05-119.24,11.16-12.09,24.74-22.03,41.28-25.72,7.69-1.72,16.09-1.7,23.97-.76,9.7,1.17,15.66,8.06,18.61,17.16,4.58,14.14,4,28.67.97,42.84-18.11,84.7-56.73,158.98-114.73,223.18-7.55,8.35-16.05,15.86-24.22,23.64-1.82,1.73-4.11,2.98-6.18,4.44.61.94,1.22,1.88,1.83,2.82ZM385.05,45.05c-1.74-9.27-2.9-18.71-5.4-27.77-1.92-6.97-6.09-8.54-12.2-4.84-7.9,4.79-16.16,9.62-22.53,16.13-12.71,12.99-24.8,26.7-36.14,40.92-16.67,20.9-32.22,42.68-44.26,66.68-1.57,3.14-2.76,7.38-1.96,10.58,1.22,4.86-.19,6.71-4.53,7.23-4.25.51-5.79,3.36-7.06,6.94-12.35,34.89-23.05,70.24-30.19,106.59-2.78,14.16-6.15,28.29-3.63,42.94,1.81,10.52,5.34,12.75,13.34,6.14,14.92-12.31,30.05-24.67,43.15-38.81,37.81-40.83,65.83-88.02,86.15-139.75,11.75-29.91,21.94-60.28,25.25-92.97Z"/>
  <path class="cls-1" d="M138.57,129.09c.7-1.67,1.23-3.45,2.14-5.01,6.67-11.46,13.97-22.59,19.98-34.38,5.81-11.41,10.65-23.36,15.22-35.33,1.48-3.86,1.41-8.63.94-12.86-1.11-10.04-9.45-16.07-20.52-13.2-12.91,3.35-26.18,7.06-37.79,13.37-30.47,16.59-56.78,38.81-79.91,64.68-3.8,4.24-7.08,9.1-9.82,14.1-7.3,13.38-4.9,25.47,7.95,33.54,12.33,7.75,25.38,14.51,38.61,20.64,23.66,10.95,47.9,20.68,71.48,31.8,8.65,4.08,16.6,10.06,24.02,16.2,12.38,10.24,15.16,25.97,8.94,42.85-.97,2.64-.81,5.69-1.26,9.22-7.31,6.93-15.63,15-24.16,22.84-25.32,23.28-55.34,37.08-88.97,43.12-10.56,1.9-21.32,2.03-31.5-2.61-6.28-2.87-7.32-6.66-2.06-11.25,5.3-4.63,11.19-8.97,17.53-11.94,29.4-13.76,59.33-26.88,91.3-32.75,25.51-4.69,27.87-38.16,14.31-51.29-11.28-10.93-24.93-17.4-38.88-23.5-27.89-12.2-56.18-23.53-83.75-36.4-9.25-4.32-17.29-11.72-25.04-18.65-7.6-6.81-8.94-15.76-5.67-25.62,5.01-15.11,15.45-26.12,26.76-36.45,24.93-22.77,51.11-43.9,82.08-58.09,17.38-7.96,35.4-14.23,54.92-12.54,6.94.6,14.16,2.24,20.45,5.14,10.91,5.03,14.51,16.66,11.02,30.72-3.07,12.34-8.83,23.17-17.3,32.68-10.93,12.27-21.57,24.79-32.51,37.05-1.9,2.14-4.65,3.52-7,5.26l-1.51-1.34ZM145.44,285.85c-1.57.24-2.92.24-4.12.66-9.5,3.31-19.1,6.38-28.42,10.12-20.18,8.09-40.36,16.25-58.32,28.83-1.9,1.33-3.39,3.25-5.4,5.21,22.81,8.62,86.37-23.98,96.27-44.82Z"/>
</svg>