<?xml version="1.0" encoding="UTF-8"?>
<svg id="Capa_2" data-name="Capa 2" xmlns="http://www.w3.org/2000/svg" viewBox="0 0 275.17 267.53">
  <defs>
    <style>
      .cls-1 {
        font-family: LucidaHandwriting-Italic, 'Lucida Handwriting';
        font-size: 8.56px;
        font-style: italic;
      }

      .cls-1, .cls-2 {
        fill: #fff;
      }
    </style>
  </defs>
  <g id="s">
    <g>
      <path class="cls-2" d="M203.85.24l-.78,1.46-8.38-.47c-6.52.54-13.1.12-19.72.22-1.47.02-2.92,1.48-4.42-.26l-.91,1.01c-5.14-.74-10.9-.86-16.05-.04-.77.12-1.34.81-2.1.97l.64,39.66c.84,2.65,6.75.33,8.75,2.11,2.78,3.26,4.7,7.1,6.87,10.62.54.14.87-.35,1.18-.7,2.23-2.5,3.87-9.04,6.74-10.27,1.85-.8,7.84-.25,9.98.12l.55-.99c3.22,1.53,6.04.09,9.4.13,1.76.02,5.06.84,7.1.79.37,0,2.83-.93,3.05-1.12.71-.61,1.17-5.93,1.24-7.17.14-2.73-.6-6.82-.31-9.39.08-.71.1-1.46.96-1.64l-.04,16.73-1.85,2.87-29.79,1.39c-2.88.8-3.92,12.73-8.92,10.43l-6.61-9.69v17.95s20.73.51,20.73.51c.46,7.91-.16,15.63.04,23.58h-20.78c.06,4.66.47,9.25.48,13.93.02,8.31-1.27,17.23.96,25.51l-.95-.23c.15,2.06.91,3.22.97,5.43.12,4.65-.49,9.67-.48,14.66.01,11.55.85,23.31.94,34.96.15,18.27.81,37.38,0,55.75-.38,8.57-1.28,19.73-11.26,22.28-11.44,2.92-26.75,1.38-38.59,3.91-12.93.24-26.31,2.17-39.19,2.27-10.67.09-25.32-3.43-28.53-15.3l-.04-61.61c-.42-.4-7.5-.32-8.71-.49-.79-.11-7.69-1.56-8.15-1.75-2.35-.99-2.12-.7-4.3-1.36-1.22-.37-11.39-6.42-12.79-7.54-.53-.42-1.01-.88-1.46-1.38l.94-.94c-2.25-1.12-6.63-6.02-7.32-8.3-.44-1.47-.43-1.33-.85-2.45-.91-2.48-2.29-7.59-2.04-10.11.2-2.02,1.28-4.02.77-6.31l1.41.47c-.62-1.94-.11-3.8.76-5.62,2.33-4.88,9.12-10.82,13.63-13.76,2.16-1.41,4.88-2.92,7.33-3.76-1.86,2.46-5.52,3.81-7.79,5.66-1.46,1.19-1.65,3.27-3.54,2.36l-.06,1.33c-4.06-.31-4.25,4.5-5.86,6.72-.33.45-1.04-.09-1.58.71-1.28,1.91-2.47,7.93-2.48,10.32l-1.35.29c.32.56-.04,2.57.07,2.73.23.33,1.63.53,1.78,1.34.08.44-.75.85-.62,1.96.06.53,2.27,6.26,2.6,6.9.96,1.84,4.28,4.03,5.47,5.63.28.38,0,1.19.25,1.62.21.35,2.78,1.74,3.19,2.72l-.94.7c2.82-.77,3.62,1.88,6.13,1.9l-.94.93c1.93-.25,2.59,2.19,3.31,2.63.31.19,5.57.36,7.11.89,1.45.5,1.34,2.55,3.98,1.68l-.24.94c1.75-.88,3.16.4,4.48.4,1.77,0,4.34-.77,6.15-.87,3.61-.2,5.66-.32,8.57-.94,1.98-.42,4.87.74,5.59-1.41,1.75,4.24,6.12-1.62,7.49-1.35,1.34.61,3.66,3.9,4.56,4.41.69.39,1.43.08,2.03.25.5.14.1,1.23,1.03.93,1.26-.58.21-3.46.3-4.43.25-2.7.9-6.53,3.01-8.32l.47,1.88c.37-1.13,2.54-3.11,2.81-3.76,1.49-3.59,3.85-8.2,5.5-12.4.2-.5,1.47-.41.89-2.41-.4-1.39-.48.09-.46-2.92.02-3.19-1.33-7.79-3.3-10.39l1.88.24c.4-1.41-1.44-1.13-1.77-1.52-.27-.32-.62-2.99-.83-3.24-.36-.42-1.01.05-1.09-.05-.27-.32-.02-1.42-.78-1.8-1.39,3.1-1.72-1.83-2.1-2.12l-4.28-1.19.48-1.41h-2.36s1.41-1.18,1.41-1.18c-.75-.95-1.23-1.36-2.36-.7l-.03-1.39-2.58.41-.23-1.86c-1.22,0-2.12.66-3.43.39-1.5-.31-2-2.25-3.18-2.51-.81-.18-1.27.67-2.05.6-.17-.02-2.92-.75-3.28-.87-.58-.19-.03-1.93-2.22.01l-.07-.83c-1.94,1.22-3.68-.75-4.4-.87-.84-.14-2.88.67-4.04.28l.37-2.29-.84-.31.99-.91-.06-84.61c.52-8.26,6.77-16.16,15.13-17.22l-6.44,3.94c-1.44,1.98-2.41,4.43-2.53,6.93l-.94-.48c.41,3.21.19,5.69-.94,8.75h1.41c-.99,3.04-.42,5.47-.45,8.52-.1,10.29.14,20.78.43,31.18.04,1.29,1.34,5.21-.22,5.88l-1.18-1.65,2.3,17.03c-2.25,2.17-.47,7.46-.38,10.82.1,3.73-.09,7.43-.5,11.13,1.94-.86,2.98.9,3.16.94,5.15,1.17,9.29,1.7,14.42,3.92s9.04,5.75,13.44,9.21c3.97-1.59,7.19-3.85,11.62-2.16,5.8,2.21,5.16,11.84,13.07,3.92,3.32-3.33,9.93-14.41,14.77-13.85,2.73.32,4.67,3.29,5.9,3.63,2.03.57,5.02-3.45,6.26-4.91,1.9-2.24,6.9-10.59,8.25-11.59,1.8-1.34,2.56.25,1.72,2.19-1.16,2.69-10.13,14.05-12.55,15.79-5.85,4.22-7.11-4.16-11.56-2.11-.5.23-2.5,2.44-3.08,3.06-3.31,3.53-9.86,14.05-15.05,13.69-5.86-.42-4.95-10.71-14.59-6.96-5.17,2.01-2.5,2.61-.82,5.33,1.59,2.58,2.26,6.27,3.73,9.07l-.9.84.97,1.9-.96.26c1.27,2.52.36,8.09-.61,10.96-.61,1.81-4.93,8.51-6.29,10.25-1.99,2.56-4.87,3.6-4.93,7.39-.03,1.75,1.19,6.75.38,8.14-.07.13-2.18,1.55-2.39,1.64-2.88,1.25-7.94-5.05-10.96-5.78l-13.01,3.13c0,4.23.05,8.47.04,12.7-.02,5.12-.12,10.57-.37,15.47-.06,1.09.88,2.94.86,4.36-.01,1.55-.96,2.43-1,3.34-.04,1,.79,1.43.84,2.22.24,4.51-.41,10.2-.39,14.75,0,1.32.47,2.48.52,3.77l-.95-1.17c-.79,4.59,1.68,10.56,5.7,12.95,1.53.91,3.01.64,4.22,1.05.52.18,1.06,1.15,1.88,1.4.97.3,2.62-.37,3.78.19l-.94,1.41c1.66.1,2.75,1.4,4.5,1.45,1.99.05,5.67-.99,7.97-.93,1.06.03,2.27.76,3.4.86,3.25.27,6.02-.22,9.16-.9.09-.81-1.64-.52-2.15-.5-.96.05-1.66.45-2.57.5,1.51-2.3,4.93-1.2,6.78-1.44,3.17-.42,6.33-1.66,9.75-.91l-3.77.95c-.12.81,1.12.5,1.64.46,1.04-.08,2.7-.32,3.74-.51,7.55-1.37,13.88-.86,21.28-1.88,5.18-.71,10.45-2,15.63-2.77,3.17-.47,10.06.45,12.49-2.28.43-.48.69-1.65,1.06-1.88,1.3-.81,2.3.12,3.19-2.71.41-1.31-1.63.36-.95-.94.87-1.66,2.25-2.3,2.38-4.75.07-1.35-.51-2.48-.51-3.74.03-15.91.79-32.28.51-48.23-.04-2.14-.84-4.32-.53-6.57l1.46-.5c-.86-1.77-.37-3.13-.47-4.69-.41-5.94-.71-12.01-.73-18-.06-14.59.15-29.93.23-44.84.06-10.03,1.11-20.03.02-30.02-2.52,1.29-5.29-.06-7.78-.04-10.52.06-24.22,1.68-34.49.53-.71-.08-1.46-.1-1.64-.96h65.63s.48-21.74.48-21.74h-103.19s-.7-.94-.7-.94h82.16s-.94-19.37-.94-19.37c-6.09.69-8.05-1.61-8.07-7.32,0-2.07.07-4.08.04-6.18-.05-3.61,1.65-6.18-3.11-6.78-5.28-.66-12.45-.77-17.92-1.01-1.64-.07-2.63.97-4.46-.46l1.41-.93c-1.62-.69-3.21.67-4.09.8-1.03.14-2.77-.77-4.17.05l-12.51-1.32c3.96-.7,8.15.44,12.01.49,6.98.08,13.19-.18,20.32.46,3.11.28,5.96.31,8.95.49,1.32.08,2.21,1.43,3.57,1.4l.04-19.05c.52-2.66.14-4.69,2.91-6.1,4.32-.36,9.13-.91,13.34-.36,10.41-.24,20.33-.15,30.67.02,2.46.04,4.89-.34,7.34-.02Z"/>
      <path class="cls-2" d="M251.54,124.01c7.05-3.41,19.94-7.6,20.12,4.57.05,3.44-3.86,13.92-5.4,17.48-2.22,5.14-5.27,9.84-8.58,14.32.35.32,5.1-3.13,6.22-3.46,5.76-1.68,11.42,5.62,6.64,10.08-4.32,3.63-12.85,6.91-16.62,10.64-1.48,1.46-.93,4.18-.68,6.26,1.32,10.58,6.24,21.4,2.06,32.22-.88.11-.35-.95-.26-1.44.47-2.46,1.15-5.28,1.14-7.8-.04-8.47-3.32-16.16-4.17-24.54-.12-1.17.06-2.37-.01-3.54l-3.77,2.6c1.89,2.11,2.8,5.24,2.77,7.99s-2.16,8.94-5.02,9.6c-4.73,1.09-14.42-2.69-16.5-7.46-1.52.27-8.64,1.53-8.65-.65,1.28-3.86,3.34-7.47,6.38-10.18.79.5-.19,1.04-.48,1.41-.56.73-3.5,4.23-3.07,4.72,2.7-.5,2.99,3.5,3.75,4.05,1.74,1.27,4.1-3.92,6.17-3.58-1.83-2.36-.31-6.25,2.84-6.14-1.6-3.06.47-6.08,3.89-5.57,1,.15,5.45,2.86,4.61,3.68-1.81-.53-4.48-2.94-6.41-1.45s1.47,3.82,1.22,4.99c-.33,1.57-3.92-.52-4.75,1.03-.59,2.44,1.98,3.28,1.92,5.35l-2.38.21c-1.88,1.39-4.37.94-1.56,3.5,2.1,1.91,8,4.65,10.81,4.81,5.01.29,6.91-7.28,6.14-11.38-.31-1.64-2.75-5.4-2.41-6.11l22.48-15.46c1.91-3.13-2.22-6.76-5.33-6.19-11.78,7.11-23.01,15.37-35.78,20.68,2.61-2.51,6.1-4.63,9.2-6.62,6.04-3.89,14.08-7.21,18.3-12.87,4.86-6.52,9.81-16.97,12.03-24.81,1.71-6.04,2.73-13.69-6.13-12.27-1.32.21-11.38,3.92-12.3,4.58-.35.25-2.75,4.43-3.64,5.45-1.64,1.89-11.42,10.29-13.47,7.37-1.08-5.42,4.93-8.56,8.81-11.09,3.39-2.22,7.87-2.86,7.52-7.83-5.56.25-11.37,1.89-16.12,4.9-1.11.71-5.23,3.69-5.88,4.51-2.2,2.78-2.51,10.71-8.7,9.96-.08-1.27-.04-2.47.32-3.7.85-2.96,5.49-5.71,5.85-8.32.48-3.53.68-6.47-3.44-4.86-8.9,3.49-17.36,14.56-20.56,23.36l-3.41,12.41c.37-13.84,6.7-28.78,18.92-36.1,5.62-3.36,11.17-5.71,11.53,3.5,4.43-3.83,10.2-6.44,15.9-7.71,4.89-1.09,9.18-1.85,7.95,4.88ZM243.98,131.1c-.46-.45-7.76,4.8-8.02,6.13,2.4-.62,5.15-2.9,6.94-4.63.48-.46,1.33-.46,1.08-1.51Z"/>
      <path class="cls-2" d="M215.65,167.47l7.05,38.44-29.93,5.98-1.42-6.64-3.09.5c1.73,16.02.77,32.24.95,48.32l-10.87,5.3,28.8.71.48-17.71.93-6.85.48,25.98c-3.55.21-7.06.43-10.65.5-4.96.09-10.06.37-15.07.47-2.35.05-10.07.55-9.04-3.34,1.11-3.07,12.13-4.79,12.57-7.32-.13-7.86.03-15.76,0-23.63-.01-3.49-.67-7.75-.52-11.34.07-1.59,1.38-10.7.98-11.09-8.23.15-11.8-6.08-10.39-13.7l.77,6.08c2.78,9.29,13.31,7.47,18.84,1.49.67-.73,1.18-2.35,1.63-2.62,1.36-.83,5.02.88,4.73-2.58-1.24-.55-6.38-.32-5.66-2.6.55-1.73,5.93.54,6.16-1.9.33-3.46-5.52,0-6.64-2.37l3.78-4.47c-.6-.53-9.4.8-10.97,1.07-2.26.39-6.09,1.03-8.13,1.79-.44.16-4.29,2.91-3.56,1.16s7.81-4.53,9.91-4.5l-.94-6.14,1.46,5.62c1.11.96,19.55-4.99,12.71,4.3,2.94-.37,4.86,1.34,4.16,4.39-.19.82-1.26,1.82-1.26,2,0,.42,1.64.83,1.28,2.72-.6,3.09-4.2,2.56-6.05,3.44s-3.85,4.86-6.43,5.41l.75,6.14,27.11-5.14-5.64-36.45c-.72-1.16-9.94,2.14-12.03,1.43l12.75-2.83Z"/>
      <path class="cls-2" d="M216.12,89.52c0-.82-.27-1.01.67-.91,2.96.33,6.88,1.61,9.82,2.47,11.96,3.49,23.32,8.74,35.31,12.14l9.46-28.81-45.51-15.56c-.99.34-5.93,15.78-6.89,18.17-.76,1.88-1.82,4.55-2.7,6.3-.37.75-.46,1.77-1.57,1.48.46-1.55,1.39-2.94,1.91-4.46,2.32-6.83,3.99-13.74,6.69-20.7.41-1.05,1.17-3.21,2.23-3.46,1.81-.27,3.37,1.3,5.24,1.92,11.61,3.88,23.36,7.23,34.93,10.88,4.31,1.36,10.45,1.3,9.32,6.99-.63,3.19-3.14,9.18-4.3,12.7-1.56,4.74-3.51,11.45-5.41,15.84-1.12,2.58-2.12,2.95-4.94,2.39-7.43-1.48-23.86-8.06-31.21-11.29-4.31-1.9-8.54-4.99-13.06-6.08Z"/>
      <path class="cls-2" d="M242.57,259.59c-.23-9.35.03-18.63,1.42-27.87.8,0,.9,1.57.94,2.12.37,4.59.11,10.09-.02,14.63l.02,13.96c-5.14-.47-10.22.04-15.37.02-1.02,0-1.95-.5-2.83-.51-4.28-.03-9.52.77-13.66.52-1.86-.11-3.05-1.2-3.09-3.09l.69-1.23,11.99-5.95.55-20c-4.4-.76-9.73.07-13.94-.47-.69-.09-1.46-.36-.7-.94,2.91-.28,5.81.36,8.67.4,1.2.02,6.35-1.1,6.84.37l.54,22.84c-3.54.82-7.05,2.98-9.92,5.2h27.86Z"/>
      <path class="cls-2" d="M115.54,175.98c.38,1.54-2.06.82-3.33,1.16-9.48,2.54-15.61,11.23-15.09,21.05l19.36-1.42-.94-17.95c.74-.08.65,1.38.72,1.91.71,5.25.2,10.83,1.39,16.03l12.04-16.53-10.86,17,15.1,11.35c1.24-2.4,2.52-4.79,3.02-7.5.38-2.03-.34-5,1.23-6.2.21,5.34-.75,11.03-4.48,15.07l-13.46-10.34,11.35,12.98c-10.4,9.3-26.77,6.57-33.32-5.87-7.03-13.35,2.3-29.88,17.25-30.72ZM115.54,197.71l-18.42,1.41c0,4.1,2.09,8.01,4.96,10.86l13.46-12.27ZM102.94,211.74c6.05,6.9,20.74,7.01,27.15.38l-12.96-14.38-14.68,12.95c.07.39.23.75.49,1.05Z"/>
      <path class="cls-2" d="M118.84,192.03c-.47.41-.92.3-.84-.6.56-6.66-.16-13.63.35-20.38,2.5-2.09,11.52,1.92,11.37,4.64-.18,3.18-9.75,12.49-10.87,16.34Z"/>
      <path class="cls-2" d="M96.65,75.35c-.86-.34-.67-1.87-1.21-2.8-2.67-4.55-11.61-1.11-8.59,5.29,2.38,5.05,8.68,1.6,10.74-2.02.37,3.4-2.25,6.16-5.56,6.51-1.89.2-3.93-1.02-4.96-.77s-3.2,3.58-4.71,4.29c-.67.32-1.55.52-1.76-.36-.3-1.24,3.86-5.1,5.19-5.44-1.26-2.71-2-4.19-.81-7.18,2.37-5.95,12.11-4.18,11.68,2.47Z"/>
      <path class="cls-2" d="M238.99,75.62c1.08,1.13,3.76,4.68,4.86,4.83l17.38-2.27,4.01.46-22.69,3.05-15.81-17.21.72-1.43c0,.56.32,1.04.69,1.43,3.59,3.74,7.27,7.38,10.85,11.13Z"/>
      <path class="cls-2" d="M223.82,166.85c-.61-.56-2.29-3.8-.85-4.1,1.26-.27,1.54,2.19,2.39,2.79,1.49,1.07,3.95.23,5.37-.69,1.72-1.12,2.89-4.91,4.73-2.82-1.29,3.98-8.18,8.05-11.65,4.82Z"/>
      <path class="cls-2" d="M111.06,88.11c.81.02,1.68.24,2.6,0-.28,1.05-1.27.9-2.1.97-5.82.46-11.73-.62-17.5-.54-2.32.04-6.08,1.66-7.79-.43,8.25.16,16.54-.21,24.79,0Z"/>
      <path class="cls-2" d="M207.62,24.8c-.58.77-.86,0-.94-.7-.29-2.3.34-4.53.38-6.62.03-1.56.11-3.15.13-4.73.03-1.87-.4-4.01-.5-5.9.95.29,1.18,1.85,1.25,2.67.28,3.44-.5,7.35-.6,10.87-.04,1.33.6,2.94.29,4.41Z"/>
      <path class="cls-2" d="M219.78,156c-1.73,1.58-3.32.23-2.45-2.21,1.57-4.41,5.52-.59,2.45,2.21Z"/>
      <path class="cls-2" d="M229.38,159.87c-.28-1.89.88-4.09,3.02-3.76,2.72.41-.59,5.59-3.02,3.76Z"/>
      <path class="cls-2" d="M75.88,79.37l.24-3.08c1.01,0,.47,10.73.24,11.81l5.2.24c-1.75,1.4-3.74.28-5.67.24v-9.21Z"/>
      <path class="cls-2" d="M102.32,21.97c.03.84.24,1-.7.94-1.51-.1-3.89-.88-5.31-.82-1.01.04-1.85,1.73-2.96.11,2.72-1.35,6.09-.7,8.97-.23Z"/>
      <path class="cls-2" d="M37.63,124.01c.22,1.43-.34.78-1.19.92-2.47.42-4.44,1.14-6.83,1.43.44-.81,2.44-1.47,3.27-1.68,1.52-.37,3.22-.29,4.75-.68Z"/>
      <text class="cls-1" transform="translate(102.16 79.51)"><tspan x="0" y="0">Marketing</tspan></text>
    </g>
  </g>
</svg>