<?xml version="1.0" encoding="UTF-8"?>
<svg id="Capa_2" data-name="Capa 2" xmlns="http://www.w3.org/2000/svg" viewBox="0 0 332.87 332.2">
  <defs>
    <style>
      .cls-1 {
        fill: #fff;
      }
    </style>
  </defs>
  <g id="Capa_1-2" data-name="Capa 1">
    <g>
      <path class="cls-1" d="M242.17,205.82l71.59-.15c7.34.48,7.73,6.33,0,6.98-21.6,1.81-47.93-1.4-70.05.02-5.72-.53-6.72-5.07-1.54-6.86Z"/>
      <path class="cls-1" d="M242.17,219.64l71.59-.15c7.34.48,7.73,6.33,0,6.98-21.6,1.81-47.93-1.4-70.05.02-5.72-.53-6.72-5.07-1.54-6.86Z"/>
      <path class="cls-1" d="M242.17,234.82l71.59-.15c7.34.48,7.73,6.33,0,6.98-21.6,1.81-47.93-1.4-70.05.02-5.72-.53-6.72-5.07-1.54-6.86Z"/>
      <path class="cls-1" d="M242.17,248.64l71.59-.15c7.34.48,7.73,6.33,0,6.98-21.6,1.81-47.93-1.4-70.05.02-5.72-.53-6.72-5.07-1.54-6.86Z"/>
      <path class="cls-1" d="M33.49,74.93c.89-6.68,6.52-12.67,13.08-14.15l48.29-.24C102.89,10.69,159.42-16.41,203.08,10.76c16.95,10.55,30.44,29.02,32.88,49.16,14.4.87,30.1-1.14,44.35-.02,7.74.61,17.08,6.49,17.08,15.04v117.64h26.88c2.04,0,8.07,6.11,7.98,8.77-1.23,17.88,1.78,38.26.08,55.84-.35,3.64-2.31,6.59-5.38,8.58-.61.4-4.47,2.21-4.78,2.21h-10.82c4.16,8.86,18.54,21.7,19.55,31.06,1.44,13.32.62,29.89-15.2,32.98l-299.33.19c-7.82-1.08-14.79-6.92-15.71-15.01-.36-3.17-.94-17.34-.55-20.07.33-2.3,2.01-4.67,3.19-6.62,8.63-14.4,21.27-28,30.18-42.43v-71.56H13.6c-.42,0-5.44-2.41-6.16-2.91-4.93-3.37-6.36-9.22-6.78-14.86C-.02,149.68-.45,122.91,1.7,115.04c1.11-4.08,6.76-11.14,11.2-11.14h20.6c.87-9.04-1.17-20.21,0-28.97ZM162.51,4.97c-59.65,1.72-86.03,78.49-41.06,117.45,8.1,7.02,19.93,9.88,22.31,21.68l42.89.22c1.77-2.8,2.09-5.51,4.26-8.31,5.15-6.65,17.55-11.62,24.78-19.9,38.72-44.35,5.09-112.81-53.18-111.14ZM275.75,192.57h15.01l1.05-1.05v-116.59c0-3.23-6.16-9.43-9.43-9.43h-45.03l-.7,16.76h28.97c3.47,0,10.12,6.62,10.12,10.12v100.18ZM94.23,66.2h-47.13c-2.27,0-8.03,5.72-8.03,8.03v29.67h15.36v-10.82c0-3.23,6.22-10.12,9.43-10.12h30.02c1.59-.97.35-1.5.35-1.75v-15.01ZM60.02,177.21v40.14c0,1.3,4.82,5.24,5.93,5.24h158.13v-21.29c0-1.92,5.64-8.73,8.03-8.73h37.7l1.05-1.05v-97.04c0-2.62-3.37-5.98-6.1-6.47-8.59-1.54-20.52.78-29.48-.13-2.85,14.95-11.61,28.86-23.06,38.73-5.75,4.95-17.92,9.76-19.49,16.83-.44,1.6,2.74.87,4.16,1.27,10.88,3.08,14.15,14.68,5.57,22.38,7.85,6.23,5.66,19.85-4.19,22.36-2.47.63-7.87-.16-8.96.47-2.07,1.22-3.85,9.82-9.89,11.39-3.08.8-24.23.79-27.27,0-4.68-1.22-7.56-7.61-9.89-11.39-6.71-.23-11.73.85-16.28-5.02-4.63-5.97-2.93-13.38,2.46-18.15-1.86-.18-4.14-3.99-4.56-5.58-2.6-9.82,4.62-17.43,14.34-16.78-.84-7.75-9.71-10.21-15.3-14.37-13.76-10.22-23.34-25.47-27.38-42.09-13.44,1.86-40.56-7.82-35.91,15.31.96,1.38,13.32.38,16.09.66,6.49.66,11.34,4.95,13.31,11.12l.33,68.13c-.56,6.34-8.5,9.41-13.5,5.79l-15.84-11.74ZM16.59,108.99c-6.38.82-10.15,4.16-10.94,10.7-1.06,8.84-1.08,32.25-.08,41.12,1.59,14.13,17.35,10.75,27.61,10.85,7.9.08,16.42-.8,24.33-.66s18.21,14.6,23.12,14.65c1.96.02,3.17-1.22,3.17-3.18-1.41-20.3,1.77-42.87,0-62.89-.52-5.91-4.17-10.05-10.15-10.8-18.04,1.65-39.42-2.06-57.05.2ZM133.84,150.14c-7.83,2.09-6.49,13.26,1.28,14.46h61.35c7.53-2.02,8.51-12.46.7-14.58l-63.33.12ZM200.83,182.58c3.34-3.6,1.83-11.5-3.66-12.31l-63.48-.02c-7.6,3.64-5.59,13.78,2.77,14.64,3.22.33,5.57-.67,8.35-.72,13.69-.24,27.56-.22,41.25,0,4.4.07,11.1,2.37,14.76-1.58ZM54.44,176.51h-15.36v69.81h185.01v-18.85H63.86c-.78,0-5.47-3.2-6.3-4.17-.78-.9-3.12-5.13-3.12-5.95v-40.84ZM182.9,189.78h-34.91c1.27,2.29,2.58,6.2,5.38,6.83,3.5.79,18.13.56,22.22.18,4.51-.41,5.63-3.17,7.3-7.01ZM325.1,199.76c-1.24-1.34-4.53-2.33-6.39-2.34-26.39,1.9-55.7-2.3-81.74,0-12.1,1.07-8.66,14.14-8.73,23.44-.06,7.86-.46,16.42,0,24.43.1,1.64,1.37,3,1.27,4.05-.1,1.08-1.28,2.16-1.31,4.3-.05,3.93,2.71,7.66,6.68,8.05,27.52-1.47,57.99,3.21,85.22.72,3.7-.34,6.16-2.11,6.62-5.95-1.41-16.61,1.82-36.14,0-52.39-.14-1.26-.79-3.4-1.63-4.31ZM224.09,251.91l-185.93.13c-9.91,13.28-20.45,26.38-29.67,40.14-3.81,5.68-4.59,8.85,3.68,10.02l107.54-.02c.9,0,1.19-.51,1.67-1.12,3.71-4.79,5.71-16.06,13.15-17.57,19.38,1.12,41.56-2.04,60.61-.2,2.92.28,5.04,1.27,6.97,3.5,2.64,3.06,6.9,14.82,9.77,15.37l108.73-.15c3.45-.66,5.87-3.09,4.32-6.79l-20.58-27.59-70.68-1.23c-6.92-1.53-10.4-7.63-9.59-14.5ZM203.84,302.18c-.69-3.56-5.2-12.99-8.87-13.82-18.57,1.01-39.54-1.85-57.83-.18-6.31.57-8.16,8.94-10.79,14h77.49ZM325.32,306.37c-1.29.19-2.46.69-3.8.74-35.93,1.12-72.91-.18-108.98-.07-67.52.2-136.33,1.76-203.87.07-1.19-.03-2.05-.23-3.1-.74v10.82c0,2.67,5.55,8.53,8.51,8.95l302.21.17c3.16-.27,9.04-6.28,9.04-9.11v-10.82Z"/>
      <path class="cls-1" d="M130.78,106.45c-45.12-44.7,21.98-114.38,68.54-70.29,47.08,44.58-21.81,116.58-68.54,70.29ZM158.31,28.7c-21.95,2.62-38.54,25.15-36.76,46.84,3.29,39.95,55.2,55.27,79.09,22.72,23.74-32.35-2.83-74.28-42.33-69.56Z"/>
      <path class="cls-1" d="M35.76,156.79c-2.02-1.99-.54-4.39,2.24-4.75,5.76-.75,25.76-.77,31.48,0,4.46.6,4.44,5.04-.72,5.63-6.91.79-22.27.61-29.36.02-1.1-.09-2.84-.11-3.64-.9Z"/>
      <path class="cls-1" d="M71.89,137.42c.96.63.58,4.89-1.05,4.89h-37c-1.43,0-1.43-4.89,0-4.89h38.05Z"/>
      <path class="cls-1" d="M18.48,122.06h27.93c1.43,0,1.43,4.89,0,4.89h-27.93c-1.21,0-1.7-4.19,0-4.89Z"/>
      <path class="cls-1" d="M58.28,122.06h12.57c2.03,0,2.03,4.89,0,4.89h-12.57c-1.21,0-1.7-4.19,0-4.89Z"/>
      <path class="cls-1" d="M27.8,137.52c3.59,5.8-4.77,5.5-8.62,4.79-2.57-.48-2.32-4.22-.6-4.79h9.22Z"/>
    </g>
  </g>
</svg>