<?xml version="1.0" encoding="UTF-8"?>
<svg id="Capa_2" xmlns="http://www.w3.org/2000/svg" viewBox="0 0 1079.42 1143.89">
  <defs>
    <style>
      .cls-1 {
        fill: #fff;
      }
    </style>
  </defs>
  <g id="Capa_1-2" data-name="Capa_1">
    <path class="cls-1" d="M195.91,675.81c.28-3.74.78-6.97.72-10.2-.97-52.93-7.3-105.43-12.98-157.98-1.61-14.87-2.86-29.78-4.32-44.66-.19-1.96-.68-3.88-1.27-7.09-10.03,1.01-19.83,1.94-29.61,2.98-16.21,1.72-32.43,3.35-48.61,5.31-10.55,1.28-21.1,2.77-31.54,4.74-6.11,1.15-9.92-1.13-11.78-6.42-2.86-8.13-5.69-16.35-7.53-24.76-6.97-31.84-13.67-63.74-20.17-95.68-1.38-6.79-1.88-13.82-2.17-20.77-.47-11.21,4.92-18.12,15.9-20.54,7.79-1.72,15.76-2.63,23.55-4.33,27.99-6.11,56.43-8.97,84.85-12.01,3.61-.39,7.17-1.27,10.75-1.92,0-8.97-.24-17.53.05-26.08.48-14.27,1.07-28.55,2.15-42.78.26-3.41,2.16-6.94,4.07-9.92,11.49-17.89,28.4-28.47,48.15-35.09,46-15.42,93.52-22.89,141.58-28.36,81.55-9.27,163.37-10.33,245.27-10.33,1.92,0,3.83,0,6.54,0-.81-11.32-1.8-21.85-2.26-32.41-.79-18.27-1.75-36.55-1.67-54.82.05-11.85,6.59-18.07,18.21-19.84,26.3-4.01,52.55-8.41,78.92-11.9,29.96-3.97,60.02-7.26,90.08-10.49,6.47-.7,13.2-.6,19.62.39,7.22,1.1,11.65,6.26,13.07,13.43,2.85,14.35,6.25,28.66,7.94,43.15,2.28,19.48,3.39,39.12,4.56,58.72.57,9.61-.29,19.31.26,28.92.88,15.21-11.92,29.72-27.91,33.19-8.74,1.9-17.62,3.13-26.7,4.7-5.31,15.06-5.26,31.61-13.29,45.66-5.76,1.2-9.76-.96-12.78-5.59-5.81-8.91-11.7-17.78-17.61-26.63-2.2-3.29-4.54-6.48-6.84-9.75-15.03,2.86-29.67,5.65-45.08,8.58,2.17,5.95,4.36,11.75,6.41,17.6,7.17,20.4,14.62,40.71,21.31,61.27,3.48,10.68,5.53,21.83,8.37,32.73,1,3.82,2.43,7.53,3.71,11.42,3.84,0,7.13.21,10.38-.03,54.1-4.05,108.21-7.86,162.51-7.47,30.61.22,61.22.98,91.84,1.19,12.3.08,24.6-.97,36.9-.93,11.95.03,23.92.49,35.84,1.35,7.72.56,14.72,9.52,14.07,17.52-.97,11.94-2.09,23.88-3.59,35.77-3.16,25.09-6.54,50.16-9.96,75.21-.72,5.27-2.49,10.42-2.91,15.7-.65,8.17-5.62,12.63-12.44,15.12-13.03,4.77-26.07,9.11-40.34,9.6-14.91.51-29.73,3.19-44.63,4.47-34.48,2.96-68.98,5.65-103.48,8.42-4.65.37-9.38.12-13.95.91-22.13,3.83-44.48,2.05-66.73,2.8-9.56.32-19.15.05-30.05.05-.24,9.82-1.34,18.72-.49,27.43,2.4,24.48,5.71,48.86,8.48,73.3,2.28,20.17,4.29,40.37,6.44,60.56,2.57,24.15,5.36,48.27,7.63,72.45,1.11,11.88,1.02,23.87,1.91,35.78.97,12.94,2.22,25.88,3.73,38.77,4.67,39.93,9.84,79.8,14.17,119.77,2.33,21.49,3.27,43.12,4.93,64.69,1.17,15.25,2.56,30.48,3.73,45.73.97,12.59-1.46,24.62-7.45,35.69-6.52,12.04-17.9,18.56-29.97,23.51-7.64,3.13-15.81,5.09-23.89,6.98-17.8,4.16-35.57,8.75-53.59,11.68-20,3.25-40.22,6.15-60.42,6.84-32.06,1.1-63.25,8.09-94.93,11.65-45.23,5.08-90.24,12.49-136.03,10.95-30.99-1.05-61.07-6.76-88.93-20.12-28.53-13.69-49.01-35.27-54.94-67.86-5.89-32.38-11.73-64.77-17.29-97.21-.81-4.72-2.28-7.38-7.29-7.46-5.32-.08-10.65-.66-15.96-.46-39.66,1.49-78.52-3.79-116.03-16.26-44.55-14.81-74.48-45.84-89.94-89.78-8.63-24.54-6.96-48.92,8.37-71.61,12.67-18.76,28.02-34.34,46.55-47.3,21.16-14.8,43.65-27.02,68.2-34.64,18.01-5.59,36.76-8.77,55.2-12.94,3.85-.87,7.77-1.41,12.39-2.23ZM249,951.89c2.43,13.4,4.84,27.12,7.41,40.81,4.54,24.18,9.06,48.36,13.87,72.48.76,3.81,2.54,7.59,4.58,10.94,11.72,19.28,29.21,31.51,49.72,39.87,27.05,11.03,55.5,13.48,84.3,13,35.62-.59,70.96-3.79,106.12-10.13,35.31-6.37,70.92-11.19,106.47-16.17,32.95-4.62,65.81-10.12,99.22-10.96,8.22-.21,16.44-2.25,24.56-3.93,19.01-3.93,36.23-22.35,34.89-42.75-.46-6.96.14-13.99-.19-20.97-1.07-22.26-1.72-44.57-3.72-66.76-1.91-21.2-5.62-42.23-7.99-63.4-4.61-41.31-8.96-82.65-13.18-124.01-4.02-39.38-7.93-78.77-11.55-118.19-3.95-43.09-7.4-86.22-11.34-129.31-.65-7.1-.18-14.67-4.89-21.44-1.6,0-3.24-.09-4.87.01-31.89,2.08-63.79,3.99-95.66,6.32-31.58,2.3-63.15,4.04-94.73.58-8.22-.9-17.06-1.22-24.36-4.56-17.05-7.82-28.91-23.11-25.22-45.07,2.43-14.44,4.29-28.98,6.52-43.46,2.78-18.07,5.35-36.1,12.22-53.34,4.79-12.01,12.9-17.7,25.36-19.1,24.11-2.69,48.17-5.86,72.25-8.81,28.05-3.44,56.09-6.88,84.14-10.31,5.51-.67,11.02-1.29,17.62-2.05-8.45-43.18-24.22-82.97-39.59-123.76-2.67-.18-6.61-.39-10.55-.7-17.48-1.38-30.48-9.34-36.05-29.06-1.34-4.76-3.06-9.41-4.72-14.47-17.4-.89-34.33-2.43-51.26-2.48-32.6-.11-65.22-.02-97.79,1.16-37.24,1.35-74.46,3.64-111.64,6.13-35.41,2.37-70.9,4.56-104.5,17.93-10.14,4.03-20.82,6.68-30.99,10.65-4.51,1.76-8.89,4.69-12.41,8.05-12.45,11.91-20.92,25.73-18.72,44,.2,1.63-.31,3.33-.22,4.98.61,11.49,1.28,22.98,1.98,35.22,5.95-.32,10.56-.35,15.12-.85,25.79-2.84,51.56-5.91,77.37-8.63,5.58-.59,11.3-.28,16.93.03,3.86.22,7.06,2.01,8.15,6.17,2.78,10.61,5.7,21.18,8.24,31.85,7.41,31.18,8.89,63.25,14.07,94.75,3.31,20.13-10.58,45.17-39.2,46.25-22.61.85-45.2,2.45-67.79,3.89-6.55.42-13.05,1.47-19.93,2.27,1.9,73.87,14.41,146.05,17.91,219.68,4.38,0,7.64-.1,10.9.02,19.93.71,39.93.65,59.77,2.4,26.75,2.36,52.65,9.58,76.08,22.52,29.54,16.32,48.63,41.8,56.91,74.86,5.74,22.88,6.24,45.98-3.47,67.59-7.03,15.65-16.89,30.12-26.39,44.52-4.12,6.24-9.88,11.88-16.04,16.14-6.46,4.47-7.53,9.09-5.39,15.99,2.26,7.29,4.32,14.71,5.55,22.22,1.28,7.78-2.19,10.83-9.79,8.27-7.16-2.42-14.08-5.88-20.65-9.65-6.58-3.78-12.93-4.49-20.03-2.02-5.64,1.96-11.4,3.78-17.26,4.88-18.26,3.43-36.58,6.5-56.14,9.93ZM362.27,938.68c-1.83-8.38-2.57-14.37-4.48-19.96-3.13-9.16.3-15.41,7.5-20.58,18.15-13.04,29.89-30.99,38.09-51.31,3.58-8.88,6.55-18.28,7.93-27.71,3.11-21.09-.79-41.77-6.09-62.16-.82-3.16-2.46-6.17-4.04-9.07-15.12-27.8-40.64-41.51-69.58-49.27-24.04-6.45-48.44-11.83-73.45-13.54-25.94-1.78-51.97-3.81-77.48,2.73-21.55,5.53-43.17,11.25-64.04,18.85-25.07,9.12-48.39,21.94-69.04,39.29-13.33,11.2-23.13,25-29.68,40.72-11.73,28.1-6.39,54.84,9.64,79.74,5.18,8.04,12.09,14.94,17.71,22.72,16.18,22.41,38.32,35.25,64.92,40.9,8.74,1.86,17.64,3.2,26.54,4.1,22.15,2.24,44.34,5.65,66.51,5.69,29.22.05,58.48-2.24,87.66-4.41,12.19-.91,24.38-3.43,36.22-6.56,5.34-1.41,9.73-1.25,14.3.86,3.91,1.81,7.49,4.34,11.4,6.17,2.46,1.15,5.24,1.59,9.48,2.81ZM1063.19,337.06c-6.56-5.39-13.55-7.46-22.11-7.34-18.96.27-37.93.71-56.88.35-22.61-.43-45.2-2.49-67.79-2.32-43.92.32-87.84,1.45-131.74,2.75-22.94.68-45.85,2.22-68.75,3.82-7.24.51-14.34,3.18-21.58,3.64-37.17,2.35-74.39,3.93-111.55,6.54-18.22,1.28-36.35,4-54.46,6.48-8.23,1.13-13.44,5.62-15.47,14.51-4.82,21.06-10.66,41.89-15.76,62.89-1.96,8.07-3.52,16.3-4.46,24.55-2.04,17.82,8.11,32.18,23.39,33.44,8.93.74,17.91,1.35,26.86,1.36,29.6.02,59.19-.17,88.79-.48,20.96-.22,41.94-.17,62.86-1.28,49.13-2.59,98.25-5.53,147.34-8.85,31.86-2.15,63.63-5.57,95.49-7.74,18.89-1.29,37.89-1.89,56.82-1.58,13.44.22,26.5-1.47,39.61-3.66,7.99-1.33,13.6-4.92,14.35-13.87.33-3.95,1.51-7.82,2.02-11.76,2.2-17.14,3.11-34.54,6.77-51.35,3.63-16.69,5.5-33.36,6.28-50.11ZM776.53,177.93c10.38-2.03,18.89-3.21,27.14-5.42,18.89-5.06,26.08-14.16,26-33.64-.07-15.61-.53-31.26-1.9-46.8-2.02-22.85-4.58-45.67-7.74-68.39-1.72-12.38-7-16.53-19.55-16.95-6.24-.21-12.54.91-18.79,1.67-26.06,3.16-52.11,6.33-78.14,9.67-22.73,2.91-45.44,6.03-68.15,9.11-4.28.58-8.61,1.08-12.76,2.22-6.23,1.71-8.18,4.35-8.51,10.69-.14,2.64.23,5.31.38,7.97,1.04,17.6,1.71,35.23,3.23,52.79,1.83,21.2,4.34,42.34,6.62,63.5,1.15,10.67,7.65,17.28,16.81,21.9,7.98,4.02,16.33,2.5,24.49,1.45,16.15-2.09,32.21-4.82,48.34-7.13,6.57-.94,13.19-1.76,19.82-2.04,2.29-.1,5.5.92,6.84,2.59,5.79,7.24,11,14.93,16.52,22.39,2.11,2.85,4.46,5.53,7.36,9.09,4.49-12.97,8.55-24.7,12.01-34.68ZM291.98,284.31c-5.05,4.88-8.92,8.8-12.98,12.5-15.47,14.1-30.91,28.25-46.56,42.16-11.63,10.34-23.57,20.33-35.38,30.47-4.78,4.11-9.47,8.35-14.45,12.2-3.06,2.37-5.97,4.46-10.72,1.94-13.41-7.12-27.16-13.64-40.9-20.12-24.35-11.48-48.78-22.78-73.21-34.08-5.02-2.32-10.18-4.34-16.53-7.02,0,4.64-.51,7.89.08,10.92,7.13,36.87,14.34,73.73,21.72,110.56,1.84,9.19,7.27,12.93,16.42,11.9,25.77-2.91,51.49-6.24,77.29-8.8,26.13-2.6,52.29-5.13,78.5-6.43,16.3-.81,32.51-1.62,48.62-4.25,15.08-2.46,23.73-11.78,24.14-27.08.19-6.96-.28-13.98-1.07-20.9-3.25-28.42-6.61-56.82-10.24-85.19-.74-5.8-2.83-11.42-4.72-18.77ZM285.41,280.54c-5.06,0-7.68-.25-10.23.04-31.06,3.54-62.14,6.9-93.15,10.84-27.39,3.47-54.72,7.44-82.03,11.52-13.8,2.06-27.52,4.66-41.2,7.38-3.3.65-6.31,2.75-10.73,4.76,2.76,1.77,4,2.81,5.42,3.43,20.97,9.27,41.95,18.54,62.96,27.72,18.55,8.11,37.22,15.95,55.69,24.26,5.34,2.4,8.98,1.65,13.29-2.31,12.24-11.26,24.98-21.98,37.44-33,8.48-7.5,16.7-15.29,25.24-22.71,10.02-8.71,20.26-17.16,30.39-25.74,1.71-1.45,3.36-2.99,6.92-6.17Z"/>
    <path class="cls-1" d="M600.57,771.23c54.32-3.34,96.94,43.85,102.17,85.31,4.4,34.86-15.74,81.25-52.36,98.78-23.33,11.16-48.69,16.25-74.7,9.63-8.24-2.1-16.54-5.44-23.73-9.93-27.46-17.15-46.31-40.73-51.13-73.68-2.25-15.39-.67-30.54,4.91-45.15,15.42-40.38,45.85-60.32,87.88-64.39,2.32-.22,4.64-.38,6.96-.57ZM594.25,872.03c29.72,5.58,57.3,10.76,84.74,15.92,11.63-33.15-13.13-79.5-44.68-90.07-14.91,23.31-25.39,49.15-40.07,74.15ZM557.21,802.02c-38.44,20.6-51.62,78.93-23.63,112.08,15.52-14.39,31.04-28.77,46.14-42.76-7.58-23.33-14.93-46-22.5-69.31ZM627.1,793.39c-18.7-7.42-36.77-7.06-54.83.05-8.34,3.28-8.76,3.88-6.04,12.56,6.05,19.33,12.28,38.6,18.57,57.85.54,1.65,2.02,2.98,3.12,4.54,1.47-.87,2.71-1.16,3.07-1.89,11.94-24.04,23.79-48.11,36.11-73.11ZM605.8,951.55c-8.21-24.08-15.89-46.62-23.9-70.13-13.82,13.61-27.84,27.41-42.4,41.75,18.46,19.86,39.37,30.35,66.3,28.38Z"/>
    <path class="cls-1" d="M489.56,577.15c10.43-3.95,19.06-9.61,26.64-17.33,13.28-13.53,26.92-26.7,40.43-40,3.35-3.3,6.77-6.6,13.31-4.55-2.3,2.78-4.12,5.36-6.32,7.57-15.94,16.05-31.81,32.17-48.04,47.92-5.19,5.03-11.25,9.21-17.17,13.43-6.15,4.38-13.93,2.83-18.4-3.29-1.11-1.52-2.06-3.15-4.01-6.17-5.14,7.38-9.45,13.91-14.1,20.18-12.86,17.32-24.63,35.7-44.13,46.76-.86.49-1.59,1.21-2.45,1.7-8.68,5.02-15.19,4.09-22.14-3.13-10.01-10.4-10.96-10.52-20.6.17-10.23,11.35-20.97,22.37-27.75,36.36-1.85,3.8-4.11,4.88-8.35,1.22,2.01-4.03,3.67-8.36,6.15-12.14,8.79-13.41,19.22-25.44,31.31-36.02,6.59-5.77,14.38-6.78,20.5-.18,10.64,11.47,14.15,8.66,25.02.58,15.56-11.57,25.93-27.48,37.62-42.32,4.73-6.01,9.1-12.31,13.98-18.19,6.57-7.92,10.71-7.35,15.41,1.68.89,1.71,1.84,3.4,3.1,5.75Z"/>
  </g>
</svg>